<?xml version="1.0" encoding="UTF-8" standalone="no"?>
<svg
   xmlns:dc="http://purl.org/dc/elements/1.1/"
   xmlns:cc="http://creativecommons.org/ns#"
   xmlns:rdf="http://www.w3.org/1999/02/22-rdf-syntax-ns#"
   xmlns:svg="http://www.w3.org/2000/svg"
   xmlns="http://www.w3.org/2000/svg"
   xmlns:sodipodi="http://sodipodi.sourceforge.net/DTD/sodipodi-0.dtd"
   xmlns:inkscape="http://www.inkscape.org/namespaces/inkscape"
   version="1.1"
   width="63mm"
   height="88mm"
   viewBox="0 0 238.11023 332.59842"
   id="svg136"
   sodipodi:docname="C10.svg"
   inkscape:version="0.92.3 (2405546, 2018-03-11)">
  <sodipodi:namedview
     pagecolor="#ffffff"
     bordercolor="#666666"
     borderopacity="1"
     objecttolerance="10"
     gridtolerance="10"
     guidetolerance="10"
     inkscape:pageopacity="0"
     inkscape:pageshadow="2"
     inkscape:window-width="1920"
     inkscape:window-height="1018"
     id="namedview138"
     showgrid="false"
     inkscape:zoom="1.232376"
     inkscape:cx="109.88771"
     inkscape:cy="95.75"
     inkscape:window-x="0"
     inkscape:window-y="0"
     inkscape:window-maximized="1"
     inkscape:current-layer="svg136"
     units="mm" />
  <metadata
     id="metadata142">
    <rdf:RDF>
      <cc:Work
         rdf:about="">
        <dc:format>image/svg+xml</dc:format>
        <dc:type
           rdf:resource="http://purl.org/dc/dcmitype/StillImage" />
        <dc:title></dc:title>
      </cc:Work>
    </rdf:RDF>
  </metadata>
  <defs
     id="defs140" />
  <text
     id="text6"
     style="font-weight:normal;font-size:40.98382568px;font-family:Serif;text-anchor:start;mix-blend-mode:normal;fill:#000000;fill-rule:nonzero;stroke:none;stroke-width:1.02459562;stroke-linecap:butt;stroke-linejoin:miter;stroke-miterlimit:10;stroke-dasharray:none;stroke-dashoffset:0"
     font-weight="normal"
     stroke-miterlimit="10"
     xml:space="preserve"
     font-size="40"
     x="-5.0029082"
     y="30.417671"><tspan
       id="tspan4"
       dy="0"
       x="-5.0029082"
       style="stroke-width:1.02459562">10</tspan></text>
  <text
     id="text10"
     style="font-weight:normal;font-size:40.98382568px;font-family:Serif;text-anchor:start;mix-blend-mode:normal;fill:#000000;fill-rule:nonzero;stroke:none;stroke-width:1.02459562;stroke-linecap:butt;stroke-linejoin:miter;stroke-miterlimit:10;stroke-dasharray:none;stroke-dashoffset:0"
     font-weight="normal"
     stroke-miterlimit="10"
     data-paper-data="{&quot;origRot&quot;:-45}"
     xml:space="preserve"
     font-size="40"
     transform="scale(-1)"
     x="-255.15955"
     y="-302.18076"><tspan
       id="tspan8"
       dy="0"
       x="-255.15955"
       style="stroke-width:1.02459562">10</tspan></text>
  <path
     style="mix-blend-mode:normal;fill:none;stroke:#000000;stroke-width:2.04919124"
     id="path12"
     d="m 65.997105,77.782181 4.419429,-8.892835 c 0,0 0.640475,-5.017793 1.363286,-10.519298 0.09959,-0.117214 -2.737064,0.07561 -2.718273,-0.05738 0.02234,0.170903 -0.0998,-3.428953 -0.110041,-3.436965 -0.143854,-0.113115 3.522744,0.0668 3.546371,-0.109427 0.420125,-3.135304 0.591827,-6.225238 0.879882,-8.437463 0.05492,-0.422093 1.713554,0.162911 1.770788,0.584655 0.264428,1.948268 0.337932,5.454168 0.431826,7.826476 2.864421,-0.08074 2.755527,0.0541 3.378195,0.04775 0.121312,0.06066 -0.09734,3.769877 -0.130329,3.749426 -0.07725,-0.0061 -0.916419,-0.04836 -2.784093,-0.06229 -0.102049,0.03996 1.291626,10.676451 1.291626,10.676451 l 3.561269,8.778612 z"
     inkscape:connector-curvature="0" />
  <path
     style="mix-blend-mode:normal;fill:#000000;stroke:none;stroke-width:0"
     id="path14"
     d="m 57.849827,57.115635 c 0,-2.091814 1.051112,-6.313702 5.556956,-6.375342 0.002,0.135247 0.158608,2.246017 0.07029,2.277574 -4.816953,-0.0209 -4.242052,7.502131 -0.156969,7.671373 5.154577,0.203075 4.240904,-8.100678 0.143649,-7.671455 -0.339838,-0.167214 0.01434,-2.16788 -0.109632,-2.308393 4.393835,0.341948 5.587817,4.507053 5.587817,6.406243 0,0.133607 -0.0041,0.266149 -0.01434,0.3974 -0.20369,2.877495 -2.602637,5.148614 -5.531997,5.148614 -3.062988,0 -5.546014,-2.483047 -5.546014,-5.546014 z"
     inkscape:connector-curvature="0" />
  <path
     style="mix-blend-mode:normal;fill:#000000;stroke:none;stroke-width:0"
     id="path16"
     d="m 67.0192,42.075103 c 0,-2.091794 1.051092,-6.313701 5.556936,-6.375341 0.002,0.135246 0.158607,2.246037 0.07029,2.277594 -4.816952,-0.0209 -4.242051,7.50211 -0.156968,7.671373 5.154577,0.203075 4.240904,-8.100679 0.143648,-7.671455 -0.339838,-0.167214 0.01434,-2.16786 -0.109631,-2.308393 4.393835,0.341948 5.587816,4.507052 5.587816,6.406243 0,3.062967 -2.483025,5.546013 -5.546013,5.546013 -3.062988,0 -5.546013,-2.483046 -5.546013,-5.546013 z"
     inkscape:connector-curvature="0" />
  <path
     style="mix-blend-mode:normal;fill:#000000;stroke:none;stroke-width:0"
     id="path18"
     d="m 78.22092,56.765572 c 0,-2.091815 1.051092,-6.313702 5.556936,-6.375362 0.002,0.135246 0.158607,2.246036 0.07029,2.277573 -4.816952,-0.0209 -4.242051,7.502131 -0.156968,7.671374 5.154577,0.203074 4.240904,-8.100679 0.143648,-7.671456 -0.339838,-0.167214 0.01435,-2.16786 -0.109631,-2.308393 4.393835,0.341948 5.587817,4.507053 5.587817,6.406243 0,3.062968 -2.483026,5.546014 -5.546014,5.546014 -3.062988,0 -5.546013,-2.483026 -5.546013,-5.546014 z"
     inkscape:connector-curvature="0" />
  <path
     style="mix-blend-mode:normal;fill:none;stroke:#000000;stroke-width:2.04919124"
     id="path22"
     d="m 81.848747,253.20144 -4.419429,8.89283 c 0,0 -0.640475,5.01782 -1.363286,10.5193 -0.09959,0.11722 2.737084,-0.0756 2.718272,0.0574 -0.02234,-0.1709 0.0998,3.42895 0.110042,3.43694 0.143853,0.11312 -3.522744,-0.0668 -3.546372,0.10943 -0.420125,3.13531 -0.591826,6.22524 -0.879881,8.43746 -0.05492,0.42212 -1.713555,-0.16291 -1.770789,-0.58465 -0.264407,-1.94827 -0.337911,-5.45417 -0.431826,-7.82648 -2.8644,0.0807 -2.755506,-0.0541 -3.378194,-0.0477 -0.121312,-0.0609 0.09734,-3.76986 0.130124,-3.74943 0.07725,0.006 0.916419,0.0484 2.784092,0.0623 0.10205,-0.04 -1.291625,-10.67645 -1.291625,-10.67645 l -3.561269,-8.77862 z"
     inkscape:connector-curvature="0" />
  <path
     style="mix-blend-mode:normal;fill:#000000;stroke:none;stroke-width:0"
     id="path24"
     d="m 89.996024,273.86799 c 0,2.09181 -1.051112,6.31368 -5.556956,6.37534 -0.002,-0.13525 -0.158607,-2.24602 -0.07029,-2.27758 4.816952,0.0209 4.242052,-7.50213 0.156968,-7.67137 -5.154577,-0.20307 -4.240883,8.10068 -0.143648,7.67146 0.339838,0.16721 -0.01434,2.16786 0.109632,2.30839 -4.393835,-0.34195 -5.587838,-4.50705 -5.587817,-6.40622 0,-0.13361 0.0041,-0.26615 0.01434,-0.3974 0.20369,-2.8775 2.602637,-5.14862 5.531997,-5.14862 3.062988,0 5.546013,2.48305 5.546013,5.54602 z"
     inkscape:connector-curvature="0" />
  <path
     style="mix-blend-mode:normal;fill:#000000;stroke:none;stroke-width:0"
     id="path26"
     d="m 80.826672,288.90852 c 0,2.09181 -1.051092,6.3137 -5.556936,6.37536 -0.002,-0.13525 -0.158607,-2.24604 -0.07029,-2.2776 4.816952,0.0209 4.242052,-7.50211 0.156968,-7.67135 -5.154577,-0.20307 -4.240883,8.10068 -0.143648,7.67144 0.339838,0.16721 -0.01435,2.16786 0.109632,2.30839 -4.393836,-0.34195 -5.587838,-4.50705 -5.587838,-6.40622 0,-3.06299 2.483046,-5.54602 5.546014,-5.54602 3.062987,0 5.546013,2.48303 5.546013,5.54602 z"
     inkscape:connector-curvature="0" />
  <path
     style="mix-blend-mode:normal;fill:#000000;stroke:none;stroke-width:0"
     id="path28"
     d="m 69.624952,274.21805 c 0,2.09181 -1.051092,6.3137 -5.556936,6.37534 -0.002,-0.13525 -0.158607,-2.24604 -0.07029,-2.27757 4.816952,0.0209 4.242052,-7.50211 0.156968,-7.67136 -5.154577,-0.20307 -4.240883,8.10068 -0.143648,7.67144 0.339838,0.16721 -0.01434,2.16786 0.109632,2.30837 -4.393836,-0.34195 -5.587817,-4.50705 -5.587817,-6.40622 0,-3.06299 2.483025,-5.54601 5.546013,-5.54601 3.062988,0 5.546013,2.48302 5.546013,5.54601 z"
     inkscape:connector-curvature="0" />
  <path
     style="mix-blend-mode:normal;stroke:#000000;stroke-width:1.02459562"
     id="path32"
     d="m 13.742725,75.391471 4.41943,-8.892835 c 0,0 0.640475,-5.017813 1.363306,-10.519298 0.09959,-0.117214 -2.737084,0.07561 -2.718293,-0.05738 0.02234,0.170902 -0.0998,-3.428933 -0.110041,-3.436945 -0.143854,-0.113115 3.522723,0.0668 3.546351,-0.109427 0.420125,-3.135283 0.591847,-6.225218 0.879902,-8.437463 0.05492,-0.422093 1.713554,0.16291 1.770788,0.584655 0.264407,1.948268 0.337932,5.454168 0.431826,7.826476 2.864401,-0.08053 2.755507,0.0541 3.378195,0.04775 0.121312,0.06086 -0.09734,3.769877 -0.130329,3.749426 -0.07726,-0.0061 -0.916419,-0.04836 -2.784072,-0.0623 -0.10205,0.03996 1.291625,10.67645 1.291625,10.67645 l 3.56127,8.778613 z"
     inkscape:connector-curvature="0" />
  <path
     style="mix-blend-mode:normal;stroke:none;stroke-width:0"
     id="path34"
     d="m 5.5954692,54.724926 c 0,-2.091794 1.051112,-6.313702 5.5569558,-6.375342 0.002,0.135247 0.158607,2.246037 0.07029,2.277574 -4.8169518,-0.0209 4.083956,-0.429306 -0.01434,-8.2e-5 -0.339859,-0.167419 0.01434,-2.16786 -0.109632,-2.308394 4.393835,0.341949 5.587817,4.507053 5.587817,6.406223 0,0.133607 -0.0041,0.266129 -0.01434,0.3974 -0.203689,2.877495 -2.602637,5.148613 -5.531997,5.148613 -3.0629868,0 -5.5460128,-2.483025 -5.5460128,-5.546013 z"
     inkscape:connector-curvature="0" />
  <path
     style="mix-blend-mode:normal;stroke:none;stroke-width:0"
     id="path36"
     d="m 14.764821,39.684373 c 0,-2.091794 1.051112,-6.313702 5.556956,-6.375341 0.002,0.135246 0.158608,2.246036 0.07029,2.277574 -4.816952,-0.0209 4.083957,-0.429306 -0.01434,-8.2e-5 -0.339858,-0.167214 0.01434,-2.16786 -0.109632,-2.308394 4.393835,0.341949 5.587817,4.507053 5.587817,6.406223 0,3.062988 -2.483025,5.546013 -5.546013,5.546013 -3.062988,0 -5.546014,-2.483025 -5.546014,-5.546013 z"
     inkscape:connector-curvature="0" />
  <path
     style="mix-blend-mode:normal;stroke:none;stroke-width:0"
     id="path38"
     d="m 25.966541,54.374842 c 0,-2.091794 1.051112,-6.313702 5.556956,-6.375342 0.002,0.135247 0.158608,2.246037 0.07029,2.277574 -4.816952,-0.0209 4.083957,-0.429306 -0.01434,-8.2e-5 -0.339858,-0.167214 0.01434,-2.16786 -0.109632,-2.308394 4.393835,0.341949 5.587817,4.507053 5.587817,6.406223 0,3.062988 -2.483025,5.546014 -5.546013,5.546014 -3.062988,0 -5.546014,-2.483026 -5.546014,-5.546014 z"
     inkscape:connector-curvature="0" />
  <path
     style="mix-blend-mode:normal;stroke:#000000;stroke-width:1.02459562"
     id="path42"
     d="m 237.14329,252.45006 -4.41943,8.89284 c 0,0 -0.64046,5.01779 -1.36329,10.5193 -0.0994,0.11721 2.73709,-0.0756 2.71827,0.0574 -0.0223,-0.1709 0.1,3.42896 0.11005,3.43697 0.14385,0.11311 -3.52275,-0.0668 -3.54638,0.10943 -0.42012,3.1353 -0.59182,6.22523 -0.8799,8.43746 -0.0549,0.42211 -1.71353,-0.16291 -1.77079,-0.58466 -0.26442,-1.94826 -0.33791,-5.45414 -0.43182,-7.82647 -2.86442,0.0805 -2.75551,-0.0541 -3.3782,-0.0478 -0.12131,-0.0609 0.0973,-3.76988 0.13033,-3.74942 0.0773,0.006 0.91642,0.0484 2.78409,0.0623 0.10205,-0.04 -1.29162,-10.67645 -1.29162,-10.67645 l -3.56127,-8.77861 z"
     inkscape:connector-curvature="0" />
  <path
     style="mix-blend-mode:normal;stroke:none;stroke-width:0"
     id="path44"
     d="m 245.29056,273.11661 c 0,2.09179 -1.05111,6.3137 -5.55695,6.37534 -0.002,-0.13525 -0.15861,-2.24604 -0.0703,-2.27757 4.81695,0.0209 -4.08394,0.4293 0.0143,8e-5 0.33986,0.16721 -0.0143,2.16786 0.10964,2.30839 -4.39384,-0.34195 -5.58782,-4.50705 -5.58782,-6.40624 0,-0.13361 0.004,-0.26615 0.0143,-0.3974 0.20369,-2.8775 2.60264,-5.14862 5.532,-5.14862 3.06299,0 5.54601,2.48303 5.54601,5.54602 z"
     inkscape:connector-curvature="0" />
  <path
     style="mix-blend-mode:normal;stroke:none;stroke-width:0"
     id="path46"
     d="m 236.12115,288.15716 c 0,2.09179 -1.05109,6.3137 -5.55696,6.37536 -0.002,-0.13524 -0.1586,-2.24603 -0.0703,-2.27759 4.81695,0.0209 -4.08396,0.42932 0.0143,8e-5 0.33984,0.16742 -0.0143,2.16786 0.10963,2.30837 -4.39383,-0.34195 -5.58783,-4.50705 -5.58783,-6.40622 0,-3.06297 2.48304,-5.54601 5.54601,-5.54601 3.06299,0 5.54601,2.48304 5.54601,5.54601 z"
     inkscape:connector-curvature="0" />
  <path
     style="mix-blend-mode:normal;stroke:none;stroke-width:0"
     id="path48"
     d="m 224.91943,273.46669 c 0,2.09182 -1.05111,6.3137 -5.55694,6.37536 -0.002,-0.13524 -0.1586,-2.24603 -0.0703,-2.27757 4.81695,0.0209 -4.08396,0.42931 0.0143,8e-5 0.33984,0.16722 -0.0143,2.16786 0.10963,2.30838 -4.39383,-0.34195 -5.58783,-4.50706 -5.58783,-6.40625 0,-3.06297 2.48304,-5.54601 5.54601,-5.54601 3.06299,0 5.54601,2.48304 5.54601,5.54601 z"
     inkscape:connector-curvature="0" />
  <path
     style="mix-blend-mode:normal;fill:none;stroke:#000000;stroke-width:2.04919124"
     id="path52"
     d="m 118.76378,118.93676 4.41943,-8.89283 c 0,0 0.64047,-5.01779 1.36328,-10.519297 0.0996,-0.117008 -2.73706,0.07562 -2.71827,-0.05738 0.0223,0.170903 -0.0998,-3.428953 -0.11004,-3.436965 -0.14385,-0.113115 3.52274,0.0668 3.54637,-0.109427 0.42013,-3.135304 0.59183,-6.225238 0.87988,-8.437463 0.0549,-0.422093 1.71356,0.16291 1.77079,0.584655 0.26443,1.948268 0.33793,5.454168 0.43183,7.826476 2.86442,-0.08074 2.75552,0.0541 3.37819,0.04775 0.12131,0.06086 -0.0973,3.769877 -0.13033,3.749426 -0.0772,-0.0061 -0.91642,-0.04836 -2.78409,-0.0623 -0.10205,0.03996 1.29162,10.676445 1.29162,10.676445 l 3.56127,8.77862 z"
     inkscape:connector-curvature="0" />
  <path
     style="mix-blend-mode:normal;fill:#000000;stroke:none;stroke-width:0"
     id="path54"
     d="m 110.6165,98.2702 c 0,-2.091814 1.05111,-6.313701 5.55696,-6.375341 0.002,0.135246 0.1586,2.246016 0.0703,2.277574 -4.81695,-0.0209 -4.24205,7.502127 -0.15696,7.671377 5.15457,0.20307 4.2409,-8.100683 0.14364,-7.671459 -0.33983,-0.167214 0.0144,-2.167881 -0.10963,-2.308394 4.39384,0.341949 5.58782,4.507053 5.58782,6.406243 0,0.133608 -0.004,0.266149 -0.0144,0.3974 -0.20369,2.87749 -2.60263,5.14861 -5.53199,5.14861 -3.06299,0 -5.54602,-2.48304 -5.54602,-5.54601 z"
     inkscape:connector-curvature="0" />
  <path
     style="mix-blend-mode:normal;fill:#000000;stroke:none;stroke-width:0"
     id="path56"
     d="m 119.78587,83.229689 c 0,-2.091794 1.05109,-6.313702 5.55694,-6.375341 0.002,0.135246 0.15861,2.246036 0.0703,2.277594 -4.81696,-0.0209 -4.24206,7.50211 -0.15697,7.671373 5.15457,0.203075 4.2409,-8.100679 0.14365,-7.671455 -0.33984,-0.167214 0.0143,-2.16786 -0.10964,-2.308394 4.39384,0.341949 5.58782,4.507053 5.58782,6.406244 0,3.062967 -2.48302,5.546013 -5.54601,5.546013 -3.06299,0 -5.54602,-2.483046 -5.54602,-5.546013 z"
     inkscape:connector-curvature="0" />
  <path
     style="mix-blend-mode:normal;fill:#000000;stroke:none;stroke-width:0"
     id="path58"
     d="m 130.98759,97.920158 c 0,-2.091815 1.05109,-6.313702 5.55694,-6.375362 0.002,0.135246 0.15861,2.246036 0.0703,2.277573 -4.81696,-0.0209 -4.24206,7.502131 -0.15697,7.671371 5.15457,0.20308 4.2409,-8.100676 0.14365,-7.671453 -0.33984,-0.167214 0.0143,-2.16786 -0.10964,-2.308393 4.39384,0.341948 5.58782,4.507053 5.58782,6.406243 0,3.062963 -2.48302,5.546013 -5.54601,5.546013 -3.06299,0 -5.54602,-2.48303 -5.54602,-5.546013 z"
     inkscape:connector-curvature="0" />
  <path
     style="mix-blend-mode:normal;fill:none;stroke:#000000;stroke-width:2.04919124"
     id="path62"
     d="m 187.72362,253.20144 -4.41943,8.89283 c 0,0 -0.64048,5.01782 -1.36329,10.5193 -0.0994,0.11722 2.73708,-0.0756 2.71827,0.0574 -0.0223,-0.1709 0.0998,3.42895 0.11004,3.43694 0.14386,0.11312 -3.52274,-0.0668 -3.54637,0.10943 -0.42012,3.13531 -0.59182,6.22524 -0.87988,8.43746 -0.0549,0.42212 -1.71355,-0.16291 -1.77079,-0.58465 -0.2644,-1.94827 -0.33791,-5.45417 -0.43182,-7.82648 -2.8644,0.0807 -2.75551,-0.0541 -3.3782,-0.0477 -0.12131,-0.0609 0.0973,-3.76986 0.13033,-3.74943 0.0773,0.006 0.91642,0.0484 2.78409,0.0623 0.10205,-0.04 -1.29162,-10.67645 -1.29162,-10.67645 l -3.56127,-8.77862 z"
     inkscape:connector-curvature="0" />
  <path
     style="mix-blend-mode:normal;fill:#000000;stroke:none;stroke-width:0"
     id="path64"
     d="m 195.87089,273.86799 c 0,2.09181 -1.05111,6.31368 -5.55695,6.37534 -0.002,-0.13525 -0.15861,-2.24602 -0.0703,-2.27758 4.81695,0.0209 4.24205,-7.50213 0.15697,-7.67137 -5.15458,-0.20307 -4.24089,8.10068 -0.14365,7.67146 0.33984,0.16721 -0.0144,2.16786 0.10963,2.30839 -4.39383,-0.34195 -5.58784,-4.50705 -5.58782,-6.40622 0,-0.13361 0.004,-0.26615 0.0143,-0.3974 0.20369,-2.8775 2.60264,-5.14862 5.532,-5.14862 3.06298,0 5.54601,2.48305 5.54601,5.54602 z"
     inkscape:connector-curvature="0" />
  <path
     style="mix-blend-mode:normal;fill:#000000;stroke:none;stroke-width:0"
     id="path66"
     d="m 186.70154,288.90852 c 0,2.09181 -1.05109,6.3137 -5.55694,6.37536 -0.002,-0.13525 -0.1586,-2.24604 -0.0703,-2.2776 4.81695,0.0209 4.24205,-7.50211 0.15697,-7.67135 -5.15458,-0.20307 -4.24089,8.10068 -0.14365,7.67144 0.33983,0.16721 -0.0144,2.16786 0.10963,2.30839 -4.39384,-0.34195 -5.58784,-4.50705 -5.58784,-6.40622 0,-3.06299 2.48305,-5.54602 5.54601,-5.54602 3.06299,0 5.54602,2.48303 5.54602,5.54602 z"
     inkscape:connector-curvature="0" />
  <path
     style="mix-blend-mode:normal;fill:#000000;stroke:none;stroke-width:0"
     id="path68"
     d="m 175.49982,274.21805 c 0,2.09181 -1.05109,6.3137 -5.55694,6.37534 -0.002,-0.13525 -0.1586,-2.24604 -0.0703,-2.27757 4.81695,0.0209 4.24205,-7.50211 0.15697,-7.67136 -5.15458,-0.20307 -4.24089,8.10068 -0.14365,7.67144 0.33983,0.16721 -0.0144,2.16786 0.10963,2.30837 -4.39384,-0.34195 -5.58782,-4.50705 -5.58782,-6.40622 0,-3.06299 2.48303,-5.54601 5.54602,-5.54601 3.06298,0 5.54601,2.48302 5.54601,5.54601 z"
     inkscape:connector-curvature="0" />
  <path
     style="mix-blend-mode:normal;fill:none;stroke:#000000;stroke-width:2.04919124"
     id="path72"
     d="m 171.35967,77.577261 4.41943,-8.892834 c 0,0 0.64048,-5.017794 1.36329,-10.519299 0.0994,-0.117213 -2.73706,0.07562 -2.71827,-0.05738 0.0223,0.170903 -0.0998,-3.428953 -0.11004,-3.436965 -0.14386,-0.113115 3.52274,0.0668 3.54637,-0.109427 0.42012,-3.135304 0.59182,-6.225238 0.87988,-8.437463 0.0549,-0.422093 1.71355,0.16291 1.77079,0.584655 0.26443,1.948268 0.33793,5.454168 0.43182,7.826476 2.86442,-0.08074 2.75553,0.0541 3.3782,0.04775 0.12131,0.06086 -0.0973,3.769877 -0.13033,3.749426 -0.0773,-0.0061 -0.91642,-0.04836 -2.78409,-0.06229 -0.10205,0.03996 1.29162,10.67645 1.29162,10.67645 l 3.56127,8.778613 z"
     inkscape:connector-curvature="0" />
  <path
     style="mix-blend-mode:normal;fill:#000000;stroke:none;stroke-width:0"
     id="path74"
     d="m 163.21242,56.910716 c 0,-2.091815 1.05111,-6.313702 5.55695,-6.375342 0.002,0.135247 0.15861,2.246017 0.0703,2.277574 -4.81695,-0.0209 -4.24205,7.502131 -0.15697,7.671373 5.15458,0.203075 4.24091,-8.100679 0.14365,-7.671455 -0.33984,-0.167419 0.0144,-2.16788 -0.10963,-2.308393 4.39383,0.341948 5.58782,4.507052 5.58782,6.406243 0,0.133607 -0.004,0.266149 -0.0144,0.3974 -0.20369,2.877495 -2.60263,5.148613 -5.53199,5.148613 -3.06299,0 -5.54602,-2.483046 -5.54602,-5.546013 z"
     inkscape:connector-curvature="0" />
  <path
     style="mix-blend-mode:normal;fill:#000000;stroke:none;stroke-width:0"
     id="path76"
     d="m 172.38173,41.870184 c 0,-2.091794 1.05109,-6.313702 5.55694,-6.375341 0.002,0.135246 0.1586,2.246036 0.0703,2.277594 -4.81695,-0.0209 -4.24205,7.50211 -0.15697,7.671373 5.15458,0.203075 4.24091,-8.100679 0.14365,-7.671455 -0.33984,-0.167214 0.0144,-2.16786 -0.10963,-2.308394 4.39384,0.341949 5.58782,4.507053 5.58782,6.406244 0,3.062967 -2.48303,5.546013 -5.54602,5.546013 -3.06298,0 -5.54601,-2.483046 -5.54601,-5.546013 z"
     inkscape:connector-curvature="0" />
  <path
     style="mix-blend-mode:normal;fill:#000000;stroke:none;stroke-width:0"
     id="path78"
     d="m 183.58345,56.560653 c 0,-2.091815 1.05109,-6.313702 5.55694,-6.375363 0.002,0.135247 0.1586,2.246037 0.0703,2.277574 -4.81695,-0.0209 -4.24205,7.502131 -0.15697,7.671373 5.15458,0.203075 4.24091,-8.100678 0.14365,-7.671455 -0.33984,-0.167419 0.0144,-2.16786 -0.10963,-2.308393 4.39384,0.341948 5.58782,4.507053 5.58782,6.406243 0,3.062967 -2.48303,5.546014 -5.54602,5.546014 -3.06298,0 -5.54601,-2.483026 -5.54601,-5.546014 z"
     inkscape:connector-curvature="0" />
  <path
     style="mix-blend-mode:normal;fill:none;stroke:#000000;stroke-width:2.04919124"
     id="path82"
     d="m 170.984,147.35222 4.41943,-8.89283 c 0,0 0.64047,-5.01779 1.36328,-10.5193 0.0996,-0.11701 -2.73706,0.0756 -2.71827,-0.0574 0.0223,0.17091 -0.0998,-3.42895 -0.11004,-3.43696 -0.14386,-0.11312 3.52274,0.0668 3.54637,-0.10943 0.42012,-3.1353 0.59183,-6.22524 0.87988,-8.43746 0.0549,-0.42209 1.71356,0.16291 1.77079,0.58465 0.26443,1.94827 0.33793,5.45417 0.43183,7.82648 2.86442,-0.0807 2.75552,0.0541 3.37819,0.0478 0.12131,0.0609 -0.0973,3.76987 -0.13033,3.74942 -0.0773,-0.006 -0.91642,-0.0484 -2.78409,-0.0623 -0.10205,0.04 1.29162,10.67645 1.29162,10.67645 l 3.56127,8.77861 z"
     inkscape:connector-curvature="0" />
  <path
     style="mix-blend-mode:normal;fill:#000000;stroke:none;stroke-width:0"
     id="path84"
     d="m 162.83668,126.68568 c 0,-2.09182 1.05111,-6.3137 5.55695,-6.37534 0.002,0.13524 0.15861,2.24601 0.0703,2.27757 -4.81695,-0.0209 -4.24205,7.50213 -0.15697,7.67137 5.15458,0.20308 4.24091,-8.10068 0.14365,-7.67145 -0.33984,-0.16722 0.0143,-2.16788 -0.10963,-2.3084 4.39384,0.34195 5.58782,4.50706 5.58782,6.40625 0,0.13361 -0.004,0.26615 -0.0143,0.3974 -0.20369,2.87749 -2.60263,5.14861 -5.53199,5.14861 -3.06299,0 -5.54602,-2.48304 -5.54602,-5.54601 z"
     inkscape:connector-curvature="0" />
  <path
     style="mix-blend-mode:normal;fill:#000000;stroke:none;stroke-width:0"
     id="path86"
     d="m 172.00609,111.64515 c 0,-2.0918 1.05109,-6.3137 5.55694,-6.37534 0.002,0.13524 0.15861,2.24603 0.0703,2.27759 -4.81696,-0.0209 -4.24206,7.50211 -0.15697,7.67137 5.15457,0.20308 4.2409,-8.10067 0.14365,-7.67145 -0.33984,-0.16721 0.0143,-2.16786 -0.10964,-2.30839 4.39384,0.34194 5.58782,4.50705 5.58782,6.40624 0,3.06296 -2.48303,5.54601 -5.54601,5.54601 -3.06299,0 -5.54602,-2.48305 -5.54602,-5.54601 z"
     inkscape:connector-curvature="0" />
  <path
     style="mix-blend-mode:normal;fill:#000000;stroke:none;stroke-width:0"
     id="path88"
     d="m 183.20781,126.33561 c 0,-2.09181 1.05109,-6.3137 5.55694,-6.37536 0.002,0.13525 0.15861,2.24604 0.0703,2.27758 -4.81696,-0.0209 -4.24206,7.50213 -0.15697,7.67137 5.15457,0.20307 4.2409,-8.10068 0.14365,-7.67146 -0.33984,-0.16721 0.0143,-2.16786 -0.10964,-2.30839 4.39384,0.34195 5.58782,4.50705 5.58782,6.40624 0,3.06297 -2.48303,5.54602 -5.54601,5.54602 -3.06299,0 -5.54602,-2.48303 -5.54602,-5.54602 z"
     inkscape:connector-curvature="0" />
  <path
     style="mix-blend-mode:normal;fill:none;stroke:#000000;stroke-width:2.04919124"
     id="path92"
     d="m 187.72362,185.57813 -4.41943,8.89283 c 0,0 -0.64048,5.01779 -1.36329,10.5193 -0.0994,0.11721 2.73706,-0.0756 2.71827,0.0574 -0.0223,-0.17091 0.0998,3.42895 0.11004,3.43696 0.14386,0.11312 -3.52274,-0.0668 -3.54637,0.10943 -0.42012,3.1353 -0.59182,6.22524 -0.87988,8.43746 -0.0549,0.42209 -1.71355,-0.16291 -1.77079,-0.58465 -0.26443,-1.94827 -0.33793,-5.45417 -0.43182,-7.82648 -2.86442,0.0807 -2.75553,-0.0541 -3.3782,-0.0477 -0.12131,-0.0609 0.0973,-3.76987 0.13033,-3.74942 0.0773,0.006 0.91642,0.0484 2.78409,0.0623 0.10205,-0.04 -1.29162,-10.67645 -1.29162,-10.67645 l -3.56127,-8.77861 z"
     inkscape:connector-curvature="0" />
  <path
     style="mix-blend-mode:normal;fill:#000000;stroke:none;stroke-width:0"
     id="path94"
     d="m 195.87089,206.24469 c 0,2.09182 -1.05111,6.3137 -5.55695,6.37534 -0.002,-0.13524 -0.15861,-2.24601 -0.0703,-2.27757 4.81695,0.0209 4.24205,-7.50213 0.15697,-7.67137 -5.15458,-0.20308 -4.24091,8.10068 -0.14365,7.67145 0.33984,0.16722 -0.0144,2.16788 0.10963,2.3084 -4.39383,-0.34195 -5.58782,-4.50706 -5.58782,-6.40625 0,-0.13361 0.004,-0.26615 0.0143,-0.3974 0.20369,-2.87749 2.60264,-5.14861 5.532,-5.14861 3.06298,0 5.54601,2.48304 5.54601,5.54601 z"
     inkscape:connector-curvature="0" />
  <path
     style="mix-blend-mode:normal;fill:#000000;stroke:none;stroke-width:0"
     id="path96"
     d="m 186.70152,221.2852 c 0,2.0918 -1.05109,6.3137 -5.55694,6.37534 -0.002,-0.13524 -0.1586,-2.24603 -0.0703,-2.27759 4.81695,0.0209 4.24205,-7.50211 0.15696,-7.67137 -5.15457,-0.20308 -4.2409,8.10068 -0.14364,7.67145 0.33983,0.16722 -0.0143,2.16786 0.10963,2.3084 -4.39384,-0.34195 -5.58782,-4.50706 -5.58782,-6.40625 0,-3.06297 2.48303,-5.54601 5.54601,-5.54601 3.06299,0 5.54602,2.48304 5.54602,5.54601 z"
     inkscape:connector-curvature="0" />
  <path
     style="mix-blend-mode:normal;fill:#000000;stroke:none;stroke-width:0"
     id="path98"
     d="m 175.4998,206.59473 c 0,2.09182 -1.05109,6.31371 -5.55694,6.37537 -0.002,-0.13525 -0.1586,-2.24604 -0.0703,-2.27758 4.81695,0.0209 4.24205,-7.50213 0.15696,-7.67137 -5.15457,-0.20308 -4.2409,8.10068 -0.14364,7.67145 0.33983,0.16722 -0.0143,2.16786 0.10963,2.3084 -4.39384,-0.34195 -5.58782,-4.50705 -5.58782,-6.40625 0,-3.06296 2.48303,-5.54601 5.54601,-5.54601 3.06299,0 5.54602,2.48303 5.54602,5.54601 z"
     inkscape:connector-curvature="0" />
  <path
     style="mix-blend-mode:normal;fill:none;stroke:#000000;stroke-width:2.04919124"
     id="path102"
     d="m 81.677967,185.06583 -4.419429,8.89283 c 0,0 -0.640475,5.0178 -1.363286,10.5193 -0.09939,0.11721 2.737064,-0.0756 2.718273,0.0574 -0.02234,-0.1709 0.0998,3.42895 0.110041,3.43696 0.143854,0.11312 -3.522744,-0.0668 -3.546371,0.10943 -0.420125,3.1353 -0.591827,6.22524 -0.879882,8.43746 -0.05492,0.4221 -1.713554,-0.16291 -1.770788,-0.58465 -0.264428,-1.94827 -0.337932,-5.45417 -0.431826,-7.82648 -2.864421,0.0807 -2.755527,-0.0541 -3.378195,-0.0477 -0.121312,-0.0609 0.09734,-3.76988 0.130124,-3.74943 0.07725,0.006 0.916419,0.0484 2.784093,0.0623 0.10205,-0.04 -1.291626,-10.67646 -1.291626,-10.67646 l -3.561269,-8.77861 z"
     inkscape:connector-curvature="0" />
  <path
     style="mix-blend-mode:normal;fill:#000000;stroke:none;stroke-width:0"
     id="path104"
     d="m 89.825245,205.73239 c 0,2.09182 -1.051112,6.31371 -5.556956,6.37535 -0.002,-0.13525 -0.158608,-2.24602 -0.07029,-2.27758 4.816952,0.0209 4.242051,-7.50213 0.156968,-7.67137 -5.154577,-0.20308 -4.240904,8.10068 -0.143649,7.67145 0.339838,0.16722 -0.01434,2.16788 0.109632,2.3084 -4.393835,-0.34195 -5.587817,-4.50706 -5.587817,-6.40625 0,-0.1336 0.0041,-0.26615 0.01434,-0.3974 0.20369,-2.87749 2.602637,-5.14861 5.531997,-5.14861 3.062988,0 5.546014,2.48305 5.546014,5.54601 z"
     inkscape:connector-curvature="0" />
  <path
     style="mix-blend-mode:normal;fill:#000000;stroke:none;stroke-width:0"
     id="path106"
     d="m 80.655872,220.7729 c 0,2.0918 -1.051092,6.31371 -5.556936,6.37535 -0.002,-0.13525 -0.158607,-2.24604 -0.07029,-2.2776 4.816952,0.0209 4.242051,-7.50211 0.156968,-7.67137 -5.154577,-0.20308 -4.240904,8.10068 -0.143648,7.67145 0.339838,0.16722 -0.01435,2.16786 0.109631,2.3084 -4.393835,-0.34195 -5.587816,-4.50706 -5.587816,-6.40625 0,-3.06296 2.483025,-5.54601 5.546013,-5.54601 3.062988,0 5.546013,2.48305 5.546013,5.54601 z"
     inkscape:connector-curvature="0" />
  <path
     style="mix-blend-mode:normal;fill:#000000;stroke:none;stroke-width:0"
     id="path108"
     d="m 69.454152,206.08244 c 0,2.09181 -1.051092,6.3137 -5.556936,6.37536 -0.002,-0.13525 -0.158607,-2.24604 -0.07029,-2.27757 4.816952,0.0209 4.242051,-7.50214 0.156968,-7.67138 -5.154577,-0.20307 -4.240904,8.10068 -0.143648,7.67146 0.339838,0.16721 -0.01434,2.16786 0.109631,2.30839 -4.393835,-0.34195 -5.587816,-4.50705 -5.587816,-6.40624 0,-3.06297 2.483025,-5.54602 5.546013,-5.54602 3.062988,0 5.546013,2.48303 5.546013,5.54602 z"
     inkscape:connector-curvature="0" />
  <path
     style="mix-blend-mode:normal;fill:none;stroke:#000000;stroke-width:2.04919124"
     id="path112"
     d="m 133.42004,217.34059 -4.41942,8.89284 c 0,0 -0.64048,5.01779 -1.36329,10.51929 -0.0994,0.11722 2.73706,-0.0756 2.71827,0.0574 -0.0223,-0.1709 0.0998,3.42895 0.11004,3.43697 0.14386,0.11311 -3.52274,-0.0668 -3.54637,0.10942 -0.42012,3.13531 -0.59182,6.22524 -0.87988,8.43747 -0.0549,0.42209 -1.71355,-0.16291 -1.77079,-0.58466 -0.26443,-1.94827 -0.33793,-5.45417 -0.43182,-7.82647 -2.86443,0.0807 -2.75553,-0.0541 -3.3782,-0.0478 -0.12131,-0.0609 0.0973,-3.76988 0.13013,-3.74943 0.0773,0.006 0.91641,0.0484 2.78409,0.0623 0.10205,-0.04 -1.29163,-10.67645 -1.29163,-10.67645 l -3.56127,-8.77861 z"
     inkscape:connector-curvature="0" />
  <path
     style="mix-blend-mode:normal;fill:#000000;stroke:none;stroke-width:0"
     id="path114"
     d="m 141.56732,238.00716 c 0,2.09181 -1.05111,6.3137 -5.55695,6.37534 -0.002,-0.13525 -0.15861,-2.24602 -0.0703,-2.27757 4.81695,0.0209 4.24205,-7.50214 0.15697,-7.67138 -5.15458,-0.20307 -4.24091,8.10068 -0.14365,7.67146 0.33984,0.16721 -0.0143,2.16788 0.10963,2.30839 -4.39383,-0.34195 -5.58782,-4.50705 -5.58782,-6.40624 0,-0.13361 0.004,-0.26615 0.0144,-0.3974 0.20369,-2.8775 2.60263,-5.14862 5.53199,-5.14862 3.06299,0 5.54602,2.48305 5.54602,5.54602 z"
     inkscape:connector-curvature="0" />
  <path
     style="mix-blend-mode:normal;fill:#000000;stroke:none;stroke-width:0"
     id="path116"
     d="m 132.39795,253.04767 c 0,2.09179 -1.05109,6.3137 -5.55694,6.37534 -0.002,-0.13525 -0.1586,-2.24604 -0.0703,-2.27759 4.81695,0.0209 4.24205,-7.50211 0.15696,-7.67138 -5.15457,-0.20307 -4.2409,8.10068 -0.14364,7.67146 0.33983,0.16721 -0.0144,2.16786 0.10963,2.30839 -4.39384,-0.34195 -5.58782,-4.50705 -5.58782,-6.40624 0,-3.06297 2.48303,-5.54602 5.54601,-5.54602 3.06299,0 5.54602,2.48305 5.54602,5.54602 z"
     inkscape:connector-curvature="0" />
  <path
     style="mix-blend-mode:normal;fill:#000000;stroke:none;stroke-width:0"
     id="path118"
     d="m 121.19623,238.3572 c 0,2.09181 -1.05109,6.3137 -5.55694,6.37536 -0.002,-0.13524 -0.1586,-2.24603 -0.0703,-2.27757 4.81695,0.0209 4.24205,-7.50213 0.15696,-7.67137 -5.15457,-0.20308 -4.2409,8.10067 -0.14364,7.67145 0.33983,0.16721 -0.0143,2.16786 0.10963,2.30839 -4.39384,-0.34194 -5.58782,-4.50705 -5.58782,-6.40624 0,-3.06297 2.48303,-5.54601 5.54601,-5.54601 3.06299,0 5.54602,2.48302 5.54602,5.54601 z"
     inkscape:connector-curvature="0" />
  <path
     style="mix-blend-mode:normal;fill:none;stroke:#000000;stroke-width:2.04919124"
     id="path122"
     d="m 68.046296,147.11314 4.419429,-8.89283 c 0,0 0.640475,-5.01779 1.363286,-10.5193 0.09959,-0.11701 -2.737064,0.0756 -2.718272,-0.0574 0.02234,0.17091 -0.0998,-3.42895 -0.110042,-3.43696 -0.143853,-0.11312 3.522744,0.0668 3.546372,-0.10943 0.420125,-3.1353 0.591826,-6.22524 0.879881,-8.43746 0.05492,-0.42209 1.713555,0.16291 1.770788,0.58465 0.264428,1.94827 0.337933,5.45417 0.431827,7.82648 2.864421,-0.0807 2.755527,0.0541 3.378194,0.0478 0.121312,0.0609 -0.09734,3.76987 -0.130329,3.74942 -0.07725,-0.006 -0.916418,-0.0484 -2.784092,-0.0623 -0.10205,0.04 1.291625,10.67645 1.291625,10.67645 l 3.561269,8.77861 z"
     inkscape:connector-curvature="0" />
  <path
     style="mix-blend-mode:normal;fill:#000000;stroke:none;stroke-width:0"
     id="path124"
     d="m 59.899018,126.44658 c 0,-2.09182 1.051113,-6.3137 5.556957,-6.37534 0.002,0.13524 0.158607,2.24601 0.07029,2.27757 -4.816952,-0.0209 -4.242052,7.50213 -0.156968,7.67137 5.154577,0.20308 4.240904,-8.10068 0.143648,-7.67145 -0.339838,-0.16722 0.01434,-2.16788 -0.109632,-2.3084 4.393835,0.34195 5.587817,4.50706 5.587817,6.40625 0,0.13361 -0.0041,0.26615 -0.01434,0.3974 -0.20369,2.87749 -2.602637,5.14861 -5.531997,5.14861 -3.062988,0 -5.546013,-2.48304 -5.546013,-5.54601 z"
     inkscape:connector-curvature="0" />
  <path
     style="mix-blend-mode:normal;fill:#000000;stroke:none;stroke-width:0"
     id="path126"
     d="m 69.068392,111.40607 c 0,-2.09179 1.051091,-6.3137 5.556935,-6.37534 0.002,0.13524 0.158608,2.24603 0.07029,2.27759 -4.816952,-0.0209 -4.242051,7.50211 -0.156968,7.67137 5.154577,0.20308 4.240904,-8.10067 0.143649,-7.67145 -0.339838,-0.16721 0.01434,-2.16786 -0.109632,-2.30839 4.393835,0.34195 5.587817,4.50705 5.587817,6.40624 0,3.06297 -2.483026,5.54601 -5.546014,5.54601 -3.062987,0 -5.546013,-2.48304 -5.546013,-5.54601 z"
     inkscape:connector-curvature="0" />
  <path
     style="mix-blend-mode:normal;fill:#000000;stroke:none;stroke-width:0"
     id="path128"
     d="m 80.270112,126.09654 c 0,-2.09182 1.051091,-6.31371 5.556935,-6.37537 0.002,0.13525 0.158608,2.24604 0.07029,2.27758 -4.816952,-0.0209 -4.242051,7.50213 -0.156968,7.67137 5.154575,0.20308 4.240904,-8.10068 0.143649,-7.67145 -0.339838,-0.16722 0.01434,-2.16786 -0.109632,-2.3084 4.393835,0.34195 5.587818,4.50705 5.587818,6.40625 0,3.06296 -2.483027,5.54601 -5.546015,5.54601 -3.062987,0 -5.546013,-2.48303 -5.546013,-5.54601 z"
     inkscape:connector-curvature="0" />
</svg>
