<?xml version="1.0" encoding="UTF-8" standalone="no"?>
<svg
   xmlns:dc="http://purl.org/dc/elements/1.1/"
   xmlns:cc="http://creativecommons.org/ns#"
   xmlns:rdf="http://www.w3.org/1999/02/22-rdf-syntax-ns#"
   xmlns:svg="http://www.w3.org/2000/svg"
   xmlns="http://www.w3.org/2000/svg"
   xmlns:sodipodi="http://sodipodi.sourceforge.net/DTD/sodipodi-0.dtd"
   xmlns:inkscape="http://www.inkscape.org/namespaces/inkscape"
   version="1.1"
   width="63mm"
   height="88mm"
   viewBox="0 0 238.11023 332.59842"
   id="svg66"
   sodipodi:docname="C3.svg"
   inkscape:version="0.92.3 (2405546, 2018-03-11)">
  <sodipodi:namedview
     pagecolor="#ffffff"
     bordercolor="#666666"
     borderopacity="1"
     objecttolerance="10"
     gridtolerance="10"
     guidetolerance="10"
     inkscape:pageopacity="0"
     inkscape:pageshadow="2"
     inkscape:window-width="1920"
     inkscape:window-height="1018"
     id="namedview68"
     showgrid="false"
     inkscape:zoom="1.232376"
     inkscape:cx="109.88771"
     inkscape:cy="95.75"
     inkscape:window-x="0"
     inkscape:window-y="0"
     inkscape:window-maximized="1"
     inkscape:current-layer="svg66"
     units="mm" />
  <metadata
     id="metadata72">
    <rdf:RDF>
      <cc:Work
         rdf:about="">
        <dc:format>image/svg+xml</dc:format>
        <dc:type
           rdf:resource="http://purl.org/dc/dcmitype/StillImage" />
        <dc:title></dc:title>
      </cc:Work>
    </rdf:RDF>
  </metadata>
  <defs
     id="defs70" />
  <text
     id="text6"
     style="font-weight:normal;font-size:40.98382568px;font-family:Serif;text-anchor:start;mix-blend-mode:normal;fill:#000000;fill-rule:nonzero;stroke:none;stroke-width:1.02459562;stroke-linecap:butt;stroke-linejoin:miter;stroke-miterlimit:10;stroke-dasharray:none;stroke-dashoffset:0"
     font-weight="normal"
     stroke-miterlimit="10"
     xml:space="preserve"
     font-size="40"
     x="-0.16181788"
     y="30.417683"><tspan
       id="tspan4"
       dy="0"
       x="-0.16181788"
       style="stroke-width:1.02459562">3</tspan></text>
  <text
     id="text10"
     style="font-weight:normal;font-size:40.98382568px;font-family:Serif;text-anchor:start;mix-blend-mode:normal;fill:#000000;fill-rule:nonzero;stroke:none;stroke-width:1.02459562;stroke-linecap:butt;stroke-linejoin:miter;stroke-miterlimit:10;stroke-dasharray:none;stroke-dashoffset:0"
     font-weight="normal"
     stroke-miterlimit="10"
     data-paper-data="{&quot;origRot&quot;:-45}"
     xml:space="preserve"
     font-size="40"
     transform="scale(-1)"
     x="-239.10323"
     y="-302.18076"><tspan
       id="tspan8"
       dy="0"
       x="-239.10323"
       style="stroke-width:1.02459562">3</tspan></text>
  <path
     style="mix-blend-mode:normal;fill:none;stroke:#000000;stroke-width:2.04919124"
     id="path12"
     d="m 113.68187,78.294499 4.41943,-8.892835 c 0,0 0.64048,-5.017794 1.36329,-10.519313 0.0996,-0.117212 -2.73706,0.07561 -2.71827,-0.05738 0.0223,0.1709 -0.0998,-3.428938 -0.11004,-3.43695 -0.14385,-0.113114 3.52274,0.0668 3.54637,-0.109426 0.42012,-3.135294 0.59183,-6.22522 0.87988,-8.43745 0.0549,-0.422106 1.71355,0.162908 1.77079,0.584645 0.26443,1.948279 0.33793,5.454184 0.43183,7.826474 2.86442,-0.08074 2.75552,0.0541 3.37819,0.04774 0.12131,0.06065 -0.0973,3.769878 -0.13012,3.749427 -0.0772,-0.0061 -0.91642,-0.04836 -2.78409,-0.06229 -0.10205,0.03996 1.29162,10.676463 1.29162,10.676463 l 3.56127,8.778615 z"
     inkscape:connector-curvature="0" />
  <path
     style="mix-blend-mode:normal;fill:#000000;stroke:none;stroke-width:0"
     id="path14"
     d="m 105.5346,57.627938 c 0,-2.091801 1.05111,-6.313703 5.55695,-6.375341 0.002,0.135244 0.15861,2.246021 0.0703,2.277578 -4.81695,-0.0209 -4.24205,7.502132 -0.15697,7.671372 5.15458,0.203072 4.24091,-8.100671 0.14365,-7.671454 -0.33984,-0.167212 0.0143,-2.167887 -0.10963,-2.308398 4.39384,0.341964 5.58782,4.507063 5.58782,6.406243 0,0.133605 -0.004,0.266165 -0.0144,0.397414 -0.20368,2.877489 -2.60264,5.148613 -5.532,5.148613 -3.06298,0 -5.54601,-2.483048 -5.54601,-5.546027 z"
     inkscape:connector-curvature="0" />
  <path
     style="mix-blend-mode:normal;fill:#000000;stroke:none;stroke-width:0"
     id="path16"
     d="m 114.70397,42.587403 c 0,-2.091781 1.05109,-6.313703 5.55694,-6.375342 0.002,0.135245 0.1586,2.246042 0.0703,2.277599 -4.81695,-0.0209 -4.24205,7.502112 -0.15696,7.671372 5.15458,0.203072 4.2409,-8.100671 0.14364,-7.671454 -0.33984,-0.167211 0.0144,-2.167846 -0.10963,-2.308397 4.39384,0.341963 5.58782,4.507062 5.58782,6.406242 0,3.06298 -2.48302,5.546027 -5.54601,5.546027 -3.06299,0 -5.54602,-2.483047 -5.54602,-5.546027 z"
     inkscape:connector-curvature="0" />
  <path
     style="mix-blend-mode:normal;fill:#000000;stroke:none;stroke-width:0"
     id="path18"
     d="m 125.90569,57.27788 c 0,-2.091822 1.05109,-6.313702 5.55694,-6.375362 0.002,0.135245 0.1586,2.246042 0.0703,2.277578 -4.81695,-0.0209 -4.24205,7.502133 -0.15696,7.671373 5.15458,0.203072 4.2409,-8.100692 0.14364,-7.671455 -0.33983,-0.167211 0.0144,-2.167866 -0.10963,-2.308397 4.39384,0.341943 5.58782,4.507062 5.58782,6.406243 0,3.062959 -2.48303,5.546006 -5.54601,5.546006 -3.06299,0 -5.54602,-2.483027 -5.54602,-5.546006 z"
     inkscape:connector-curvature="0" />
  <path
     style="mix-blend-mode:normal;fill:none;stroke:#000000;stroke-width:2.04919124"
     id="path22"
     d="m 128.85044,253.20145 -4.41943,8.89284 c 0,0 -0.64048,5.01781 -1.36328,10.51931 -0.0996,0.11721 2.73708,-0.0756 2.71827,0.0574 -0.0223,-0.1709 0.0998,3.42894 0.11004,3.43693 0.14385,0.11311 -3.52275,-0.0668 -3.54637,0.10942 -0.42013,3.1353 -0.59183,6.22522 -0.87989,8.43745 -0.0549,0.42213 -1.71355,-0.1629 -1.77079,-0.58464 -0.2644,-1.94828 -0.33791,-5.45419 -0.43182,-7.82648 -2.8644,0.0807 -2.75551,-0.0541 -3.3782,-0.0477 -0.12131,-0.0609 0.0973,-3.76986 0.13013,-3.74943 0.0772,0.006 0.91641,0.0484 2.78409,0.0623 0.10205,-0.04 -1.29163,-10.67647 -1.29163,-10.67647 l -3.56127,-8.77861 z"
     inkscape:connector-curvature="0" />
  <path
     style="mix-blend-mode:normal;fill:#000000;stroke:none;stroke-width:0"
     id="path24"
     d="m 136.99772,273.86801 c 0,2.09181 -1.05111,6.31369 -5.55696,6.37535 -0.002,-0.13525 -0.1586,-2.24603 -0.0703,-2.27758 4.81695,0.0209 4.24205,-7.50214 0.15696,-7.67138 -5.15457,-0.20307 -4.24088,8.10068 -0.14364,7.67146 0.33983,0.16721 -0.0144,2.16787 0.10963,2.3084 -4.39384,-0.34197 -5.58784,-4.50707 -5.58782,-6.40623 0,-0.1336 0.004,-0.26614 0.0143,-0.39741 0.20369,-2.87749 2.60264,-5.14861 5.532,-5.14861 3.06299,0 5.54601,2.48304 5.54601,5.54602 z"
     inkscape:connector-curvature="0" />
  <path
     style="mix-blend-mode:normal;fill:#000000;stroke:none;stroke-width:0"
     id="path26"
     d="m 127.82836,288.90855 c 0,2.0918 -1.05109,6.3137 -5.55693,6.37536 -0.002,-0.13524 -0.1586,-2.24604 -0.0703,-2.2776 4.81696,0.0209 4.24205,-7.50211 0.15697,-7.67135 -5.15458,-0.20307 -4.24088,8.10067 -0.14365,7.67143 0.33984,0.16722 -0.0143,2.16787 0.10963,2.3084 -4.39383,-0.34196 -5.58783,-4.50706 -5.58783,-6.40622 0,-3.063 2.48304,-5.54603 5.54601,-5.54603 3.06299,0 5.54601,2.48303 5.54601,5.54603 z"
     inkscape:connector-curvature="0" />
  <path
     style="mix-blend-mode:normal;fill:#000000;stroke:none;stroke-width:0"
     id="path28"
     d="m 116.62664,274.21807 c 0,2.09182 -1.05109,6.3137 -5.55693,6.37534 -0.002,-0.13524 -0.15861,-2.24604 -0.0703,-2.27758 4.81695,0.0209 4.24205,-7.50211 0.15697,-7.67135 -5.15458,-0.20307 -4.24089,8.10069 -0.14365,7.67144 0.33984,0.16721 -0.0143,2.16786 0.10963,2.30837 -4.39383,-0.34194 -5.58782,-4.50706 -5.58782,-6.40622 0,-3.06298 2.48303,-5.546 5.54602,-5.546 3.06298,0 5.54601,2.48302 5.54601,5.546 z"
     inkscape:connector-curvature="0" />
  <path
     style="mix-blend-mode:normal;stroke:#000000;stroke-width:1.02459562"
     id="path32"
     d="m 8.148513,76.928387 4.41943,-8.892835 c 0,0 0.640475,-5.017815 1.363307,-10.519314 0.09959,-0.117211 -2.737085,0.07561 -2.718294,-0.05738 0.02234,0.1709 -0.09979,-3.428939 -0.11004,-3.436951 -0.143851,-0.113113 3.522724,0.0668 3.546351,-0.109425 0.420127,-3.135274 0.591848,-6.22522 0.879903,-8.43745 0.05492,-0.422106 1.713555,0.162908 1.770788,0.584645 0.264407,1.948278 0.337933,5.454183 0.431827,7.826473 2.8644,-0.08053 2.755506,0.0541 3.378194,0.04775 0.12131,0.06086 -0.09734,3.769877 -0.130122,3.749427 -0.07725,-0.0061 -0.916418,-0.04836 -2.784073,-0.06229 -0.102048,0.03996 1.291628,10.676464 1.291628,10.676464 l 3.561269,8.778614 z"
     inkscape:connector-curvature="0" />
  <path
     style="mix-blend-mode:normal;stroke:none;stroke-width:0"
     id="path34"
     d="m 0.001256,56.261826 c 0,-2.091781 1.051112,-6.313703 5.556957,-6.375342 0.002,0.135245 0.158605,2.246042 0.07029,2.277578 -4.816952,-0.0209 4.083958,-0.429298 -0.01434,-8.2e-5 -0.339857,-0.167416 0.01434,-2.167866 -0.10963,-2.308397 4.393836,0.341943 5.587817,4.507062 5.587817,6.406222 0,0.133605 -0.0041,0.266124 -0.01434,0.397414 -0.203686,2.87749 -2.602636,5.148613 -5.531996,5.148613 C 2.483027,61.807832 0,59.324805 0,56.261805 Z"
     inkscape:connector-curvature="0" />
  <path
     style="mix-blend-mode:normal;stroke:none;stroke-width:0"
     id="path36"
     d="m 9.170609,41.22127 c 0,-2.091781 1.051114,-6.313703 5.556957,-6.375341 0.002,0.135244 0.158604,2.246041 0.07029,2.277578 -4.816953,-0.0209 4.083956,-0.429299 -0.01434,-8.2e-5 -0.339857,-0.167212 0.01434,-2.167867 -0.10963,-2.308398 4.393834,0.341964 5.587817,4.507062 5.587817,6.406222 0,3.063 -2.483027,5.546027 -5.546015,5.546027 -3.062987,0 -5.546014,-2.483027 -5.546014,-5.546027 z"
     inkscape:connector-curvature="0" />
  <path
     style="mix-blend-mode:normal;stroke:none;stroke-width:0"
     id="path38"
     d="m 20.372331,55.911747 c 0,-2.091801 1.051111,-6.313702 5.556954,-6.375341 0.002,0.135244 0.158605,2.246041 0.07029,2.277578 -4.816953,-0.0209 4.083956,-0.429319 -0.01434,-8.2e-5 -0.339859,-0.167211 0.01434,-2.167866 -0.10963,-2.308397 4.393837,0.341943 5.587818,4.507042 5.587818,6.406222 0,3.062979 -2.483027,5.546006 -5.546015,5.546006 -3.062987,0 -5.546012,-2.483027 -5.546012,-5.546006 z"
     inkscape:connector-curvature="0" />
  <path
     style="mix-blend-mode:normal;stroke:#000000;stroke-width:1.02459562"
     id="path42"
     d="m 230.5245,252.45009 -4.41944,8.89283 c 0,0 -0.64044,5.0178 -1.36328,10.5193 -0.0994,0.11721 2.73708,-0.0756 2.71827,0.0574 -0.0223,-0.1709 0.0998,3.42896 0.11004,3.43697 0.14385,0.11312 -3.52273,-0.0668 -3.54636,0.10943 -0.42014,3.13529 -0.59184,6.22524 -0.87991,8.43747 -0.0549,0.42211 -1.71354,-0.16291 -1.7708,-0.58467 -0.26442,-1.94825 -0.3379,-5.45414 -0.43182,-7.82647 -2.86441,0.0805 -2.7555,-0.0541 -3.3782,-0.0478 -0.12131,-0.0609 0.0973,-3.76987 0.13033,-3.74942 0.0772,0.006 0.9164,0.0484 2.78409,0.0623 0.10204,-0.04 -1.29163,-10.67644 -1.29163,-10.67644 l -3.56127,-8.77862 z"
     inkscape:connector-curvature="0" />
  <path
     style="mix-blend-mode:normal;stroke:none;stroke-width:0"
     id="path44"
     d="m 238.67177,273.11663 c 0,2.0918 -1.05112,6.3137 -5.55695,6.37534 -0.002,-0.13524 -0.1586,-2.24604 -0.0703,-2.27758 4.81693,0.0209 -4.08396,0.42932 0.0143,8e-5 0.33985,0.16722 -0.0143,2.16787 0.10963,2.3084 -4.39385,-0.34194 -5.58783,-4.50704 -5.58783,-6.40624 0,-0.13361 0.004,-0.26615 0.0143,-0.39739 0.20369,-2.87749 2.60264,-5.14862 5.53202,-5.14862 3.06297,0 5.546,2.48303 5.546,5.54601 z"
     inkscape:connector-curvature="0" />
  <path
     style="mix-blend-mode:normal;stroke:none;stroke-width:0"
     id="path46"
     d="m 229.5024,288.15718 c 0,2.09181 -1.05109,6.31371 -5.55697,6.37537 -0.002,-0.13525 -0.1586,-2.24605 -0.0703,-2.2776 4.81695,0.0209 -4.08396,0.42934 0.0143,8e-5 0.33985,0.16742 -0.0143,2.16787 0.10963,2.30838 -4.39385,-0.34195 -5.58785,-4.50707 -5.58785,-6.40623 0,-3.06295 2.48305,-5.546 5.54601,-5.546 3.063,0 5.54602,2.48305 5.54602,5.546 z"
     inkscape:connector-curvature="0" />
  <path
     style="mix-blend-mode:normal;stroke:none;stroke-width:0"
     id="path48"
     d="m 218.30068,273.46671 c 0,2.09182 -1.05112,6.3137 -5.55693,6.37536 -0.002,-0.13525 -0.1586,-2.24602 -0.0703,-2.27756 4.81694,0.0209 -4.08397,0.4293 0.0144,8e-5 0.33983,0.16721 -0.0144,2.16785 0.10963,2.30836 -4.39385,-0.34194 -5.58785,-4.50704 -5.58785,-6.40624 0,-3.06296 2.48305,-5.54601 5.54602,-5.54601 3.06298,0 5.54601,2.48305 5.54601,5.54601 z"
     inkscape:connector-curvature="0" />
  <path
     style="mix-blend-mode:normal;fill:none;stroke:#000000;stroke-width:2.04919124"
     id="path52"
     d="m 112.14498,175.11879 4.41943,-8.89284 c 0,0 0.64048,-5.01779 1.36329,-10.51929 0.0996,-0.11721 -2.73707,0.0756 -2.71828,-0.0574 0.0223,0.1709 -0.0998,-3.42896 -0.11004,-3.43697 -0.14385,-0.11311 3.52275,0.0668 3.54638,-0.10942 0.42012,-3.13532 0.59182,-6.22524 0.87988,-8.43747 0.0549,-0.42209 1.71355,0.1629 1.77079,0.58466 0.26442,1.94826 0.33793,5.45416 0.43182,7.82648 2.86442,-0.0807 2.75553,0.0541 3.3782,0.0477 0.12131,0.0609 -0.0973,3.76988 -0.13012,3.74943 -0.0773,-0.006 -0.91642,-0.0484 -2.7841,-0.0623 -0.10205,0.04 1.29163,10.67645 1.29163,10.67645 l 3.56127,8.77861 z"
     inkscape:connector-curvature="0" />
  <path
     style="mix-blend-mode:normal;fill:#000000;stroke:none;stroke-width:0"
     id="path54"
     d="m 103.9977,154.45225 c 0,-2.09182 1.05112,-6.31371 5.55696,-6.37534 0.002,0.13524 0.1586,2.246 0.0703,2.27755 -4.81696,-0.0209 -4.24206,7.50214 -0.15697,7.67138 5.15458,0.20307 4.2409,-8.10068 0.14365,-7.67146 -0.33984,-0.16742 0.0143,-2.16787 -0.10963,-2.30838 4.39383,0.34195 5.58781,4.50705 5.58781,6.40625 0,0.1336 -0.004,0.26614 -0.0143,0.39739 -0.20369,2.87749 -2.60264,5.14861 -5.532,5.14861 -3.06299,0 -5.54601,-2.48304 -5.54601,-5.546 z"
     inkscape:connector-curvature="0" />
  <path
     style="mix-blend-mode:normal;fill:#000000;stroke:none;stroke-width:0"
     id="path56"
     d="m 113.16708,139.41171 c 0,-2.0918 1.05109,-6.3137 5.55693,-6.37534 0.002,0.13524 0.15861,2.24604 0.0703,2.2776 -4.81695,-0.0209 -4.24205,7.50209 -0.15697,7.67137 5.15458,0.20307 4.24091,-8.10069 0.14365,-7.67145 -0.33984,-0.16721 0.0143,-2.16787 -0.10963,-2.3084 4.39384,0.34194 5.58782,4.50704 5.58782,6.40624 0,3.06296 -2.48303,5.54601 -5.54602,5.54601 -3.06298,0 -5.54601,-2.48305 -5.54601,-5.54601 z"
     inkscape:connector-curvature="0" />
  <path
     style="mix-blend-mode:normal;fill:#000000;stroke:none;stroke-width:0"
     id="path58"
     d="m 124.3688,154.10217 c 0,-2.0918 1.05109,-6.3137 5.55693,-6.37536 0.002,0.13524 0.15861,2.24604 0.0703,2.27757 -4.81695,-0.0209 -4.24205,7.50214 -0.15697,7.67138 5.15458,0.20307 4.24091,-8.10067 0.14365,-7.67146 -0.33984,-0.16721 0.0143,-2.16786 -0.10963,-2.30839 4.39384,0.34196 5.58782,4.50706 5.58782,6.40624 0,3.06298 -2.48303,5.54602 -5.54602,5.54602 -3.06298,0 -5.54601,-2.48302 -5.54601,-5.54602 z"
     inkscape:connector-curvature="0" />
</svg>
