<?xml version="1.0" encoding="UTF-8" standalone="no"?>
<svg
   xmlns:dc="http://purl.org/dc/elements/1.1/"
   xmlns:cc="http://creativecommons.org/ns#"
   xmlns:rdf="http://www.w3.org/1999/02/22-rdf-syntax-ns#"
   xmlns:svg="http://www.w3.org/2000/svg"
   xmlns="http://www.w3.org/2000/svg"
   xmlns:sodipodi="http://sodipodi.sourceforge.net/DTD/sodipodi-0.dtd"
   xmlns:inkscape="http://www.inkscape.org/namespaces/inkscape"
   version="1.1"
   width="63mm"
   height="88mm"
   viewBox="0 0 238.11023 332.59842"
   id="svg86"
   sodipodi:docname="C5.svg"
   inkscape:version="0.92.3 (2405546, 2018-03-11)">
  <sodipodi:namedview
     pagecolor="#ffffff"
     bordercolor="#666666"
     borderopacity="1"
     objecttolerance="10"
     gridtolerance="10"
     guidetolerance="10"
     inkscape:pageopacity="0"
     inkscape:pageshadow="2"
     inkscape:window-width="1920"
     inkscape:window-height="1018"
     id="namedview88"
     showgrid="false"
     inkscape:zoom="1.232376"
     inkscape:cx="109.88771"
     inkscape:cy="95.75"
     inkscape:window-x="0"
     inkscape:window-y="0"
     inkscape:window-maximized="1"
     inkscape:current-layer="svg86"
     units="mm" />
  <metadata
     id="metadata92">
    <rdf:RDF>
      <cc:Work
         rdf:about="">
        <dc:format>image/svg+xml</dc:format>
        <dc:type
           rdf:resource="http://purl.org/dc/dcmitype/StillImage" />
        <dc:title></dc:title>
      </cc:Work>
    </rdf:RDF>
  </metadata>
  <defs
     id="defs90" />
  <text
     id="text6"
     style="font-weight:normal;font-size:41.11751556px;font-family:Serif;text-anchor:start;mix-blend-mode:normal;fill:#000000;fill-rule:nonzero;stroke:none;stroke-width:1.02793789;stroke-linecap:butt;stroke-linejoin:miter;stroke-miterlimit:10;stroke-dasharray:none;stroke-dashoffset:0"
     font-weight="normal"
     stroke-miterlimit="10"
     xml:space="preserve"
     font-size="40"
     x="0.86554903"
     y="29.974842"
     transform="scale(1.0000023,0.99999769)"><tspan
       id="tspan4"
       dy="0"
       x="0.86554903"
       style="stroke-width:1.02793789">5</tspan></text>
  <text
     id="text10"
     style="font-weight:normal;font-size:41.11751556px;font-family:Serif;text-anchor:start;mix-blend-mode:normal;fill:#000000;fill-rule:nonzero;stroke:none;stroke-width:1.02793789;stroke-linecap:butt;stroke-linejoin:miter;stroke-miterlimit:10;stroke-dasharray:none;stroke-dashoffset:0"
     font-weight="normal"
     stroke-miterlimit="10"
     data-paper-data="{&quot;origRot&quot;:-45}"
     xml:space="preserve"
     font-size="40"
     transform="scale(-1.0000023,-0.99999769)"
     x="-240.91104"
     y="-302.62436"><tspan
       id="tspan8"
       dy="0"
       x="-240.91104"
       style="stroke-width:1.02793789">5</tspan></text>
  <path
     style="mix-blend-mode:normal;fill:none;stroke:#000000;stroke-width:2.05587578"
     id="path12"
     d="m 60.600023,77.493669 4.433858,-8.921825 c 0,0 0.642565,-5.034148 1.367735,-10.553582 0.09991,-0.117527 -2.745998,0.07589 -2.727146,-0.05764 0.02242,0.17147 -0.100113,-3.440132 -0.110389,-3.448172 -0.144315,-0.113425 3.534243,0.06707 3.557947,-0.109733 0.421497,-3.145535 0.593757,-6.245536 0.882754,-8.464967 0.05509,-0.423466 1.719147,0.163471 1.776569,0.586567 0.26529,1.954617 0.339034,5.471931 0.433235,7.851982 2.873772,-0.08102 2.764521,0.05435 3.389221,0.04779 0.121711,0.06092 -0.09765,3.782169 -0.130552,3.761658 -0.07751,-0.0062 -0.91941,-0.04861 -2.793181,-0.06256 -0.102389,0.04 1.295841,10.711249 1.295841,10.711249 l 3.572897,8.807231 z"
     inkscape:connector-curvature="0" />
  <path
     style="mix-blend-mode:normal;fill:#000000;stroke:none;stroke-width:0"
     id="path14"
     d="m 52.426152,56.759761 c 0,-2.098644 1.054543,-6.334286 5.575095,-6.396126 0.0021,0.135781 0.159124,2.253336 0.07052,2.285004 -4.832674,-0.02092 -4.255897,7.526579 -0.157482,7.696367 5.171404,0.203673 4.254748,-8.127073 0.144109,-7.696449 -0.340946,-0.167778 0.01436,-2.174964 -0.109979,-2.315935 4.408177,0.343064 5.606058,4.521748 5.606058,6.427139 0,0.133935 -0.0041,0.26701 -0.01436,0.398689 -0.20435,2.886873 -2.611132,5.165397 -5.550054,5.165397 -3.072988,0 -5.564117,-2.491139 -5.564117,-5.564086 z"
     inkscape:connector-curvature="0" />
  <path
     style="mix-blend-mode:normal;fill:#000000;stroke:none;stroke-width:0"
     id="path16"
     d="m 61.625457,41.670197 c 0,-2.098623 1.054522,-6.334286 5.575075,-6.396126 0.0021,0.135781 0.159124,2.253356 0.07052,2.285025 -4.832676,-0.02092 -4.255899,7.526558 -0.157483,7.696367 5.171404,0.203672 4.254748,-8.127073 0.14411,-7.696449 -0.340948,-0.167778 0.01436,-2.174923 -0.109999,-2.315914 4.408176,0.343063 5.606056,4.521727 5.606056,6.427118 0,3.072947 -2.49113,5.564085 -5.564116,5.564085 -3.072986,0 -5.564118,-2.491138 -5.564118,-5.564085 z"
     inkscape:connector-curvature="0" />
  <path
     style="mix-blend-mode:normal;fill:#000000;stroke:none;stroke-width:0"
     id="path18"
     d="m 72.863741,56.408555 c 0,-2.098644 1.054525,-6.334287 5.575077,-6.396147 0.0021,0.135576 0.159124,2.253357 0.07052,2.285005 -4.832676,-0.02092 -4.255898,7.526578 -0.157482,7.696367 5.171402,0.203672 4.254747,-8.127073 0.144109,-7.696449 -0.340948,-0.167779 0.01436,-2.174944 -0.109979,-2.315935 4.408177,0.343063 5.606056,4.521747 5.606056,6.427138 0,3.072948 -2.491132,5.564086 -5.564117,5.564086 -3.072986,0 -5.564118,-2.491118 -5.564118,-5.564086 z"
     inkscape:connector-curvature="0" />
  <path
     style="mix-blend-mode:normal;fill:none;stroke:#000000;stroke-width:2.05587578"
     id="path22"
     d="m 75.818105,253.48474 -4.433857,8.92182 c 0,0 -0.642565,5.03417 -1.367736,10.55358 -0.09991,0.11753 2.746019,-0.0759 2.727147,0.0576 -0.02242,-0.17147 0.100113,3.44013 0.110389,3.44815 0.144315,0.11343 -3.534243,-0.0671 -3.557947,0.10973 -0.421497,3.14552 -0.593758,6.24552 -0.882755,8.46497 -0.05509,0.42349 -1.719146,-0.16347 -1.776569,-0.58657 -0.265269,-1.95461 -0.339013,-5.47195 -0.433235,-7.85198 -2.873751,0.081 -2.7645,-0.0543 -3.38922,-0.048 -0.121712,-0.0611 0.09765,-3.78213 0.130551,-3.76164 0.07751,0.006 0.919411,0.0484 2.793181,0.0626 0.102391,-0.04 -1.295841,-10.71125 -1.295841,-10.71125 l -3.572896,-8.80723 z"
     inkscape:connector-curvature="0" />
  <path
     style="mix-blend-mode:normal;fill:#000000;stroke:none;stroke-width:0"
     id="path24"
     d="m 83.991977,274.21865 c 0,2.09862 -1.054543,6.33426 -5.575095,6.39612 -0.0021,-0.13578 -0.159124,-2.25333 -0.07052,-2.285 4.832675,0.0209 4.255898,-7.52658 0.157482,-7.69637 -5.171403,-0.20367 -4.254726,8.12707 -0.144108,7.69645 0.340945,0.16778 -0.01436,2.17492 0.109978,2.31591 -4.408176,-0.34306 -5.606078,-4.52174 -5.606058,-6.42709 0,-0.13394 0.0041,-0.26701 0.01436,-0.39869 0.20435,-2.88688 2.611132,-5.1654 5.550053,-5.1654 3.072988,0 5.564118,2.49114 5.564118,5.56409 z"
     inkscape:connector-curvature="0" />
  <path
     style="mix-blend-mode:normal;fill:#000000;stroke:none;stroke-width:0"
     id="path26"
     d="m 74.792692,289.30821 c 0,2.09862 -1.054522,6.33427 -5.575075,6.39613 -0.0021,-0.13558 -0.159124,-2.25336 -0.07052,-2.28501 4.832676,0.0209 4.255899,-7.52656 0.157483,-7.69637 -5.171404,-0.20367 -4.254727,8.1271 -0.14411,7.69645 0.340949,0.16778 -0.01436,2.17493 0.109979,2.31592 -4.408177,-0.34307 -5.606077,-4.52175 -5.606077,-6.4271 0,-3.07299 2.491151,-5.56411 5.564116,-5.56411 3.072987,0 5.564118,2.49112 5.564118,5.56411 z"
     inkscape:connector-curvature="0" />
  <path
     style="mix-blend-mode:normal;fill:#000000;stroke:none;stroke-width:0"
     id="path28"
     d="m 63.554408,274.56985 c 0,2.09863 -1.054525,6.33429 -5.575077,6.39613 -0.0021,-0.13578 -0.159124,-2.25336 -0.07052,-2.28501 4.832676,0.0209 4.255898,-7.52655 0.157482,-7.69636 -5.171402,-0.20368 -4.254726,8.12709 -0.144109,7.69645 0.340948,0.16777 -0.01436,2.17492 0.109999,2.31589 -4.408176,-0.34306 -5.606056,-4.52175 -5.606056,-6.4271 0,-3.07297 2.491132,-5.56408 5.564118,-5.56408 3.072986,0 5.564118,2.49111 5.564118,5.56408 z"
     inkscape:connector-curvature="0" />
  <path
     style="mix-blend-mode:normal;stroke:#000000;stroke-width:1.02793789"
     id="path32"
     d="m 8.175072,76.637056 4.433856,-8.921804 c 0,0 0.642566,-5.034169 1.367758,-10.553603 0.09991,-0.117526 -2.746021,0.07589 -2.727167,-0.05763 0.02242,0.17147 -0.100113,-3.440111 -0.11041,-3.448151 -0.144315,-0.113425 3.534223,0.06707 3.557927,-0.109733 0.421497,-3.145514 0.59378,-6.245515 0.882774,-8.464968 0.05509,-0.423486 1.719149,0.163471 1.77657,0.586547 0.265271,1.954617 0.339034,5.471952 0.433235,7.852003 2.873751,-0.08081 2.764501,0.05435 3.389222,0.04779 0.121712,0.06112 -0.09765,3.78217 -0.130551,3.761639 -0.07751,-0.0062 -0.91941,-0.04861 -2.79316,-0.06256 -0.102391,0.0402 1.295842,10.711268 1.295842,10.711268 l 3.572894,8.807211 z"
     inkscape:connector-curvature="0" />
  <path
     style="mix-blend-mode:normal;stroke:none;stroke-width:0"
     id="path34"
     d="m 0.001219,55.903148 c 0,-2.098602 1.054545,-6.334265 5.575097,-6.396105 0.0021,0.135576 0.159124,2.253356 0.07052,2.284984 -4.832677,-0.02092 4.097287,-0.430706 -0.01436,-8.2e-5 -0.340968,-0.167984 0.01436,-2.174924 -0.109999,-2.315915 4.408176,0.343064 5.606056,4.521748 5.606056,6.427098 0,0.13414 -0.0041,0.267009 -0.01436,0.398709 -0.20435,2.886874 -2.611133,5.165397 -5.550055,5.165397 C 2.491132,61.467234 0,58.976116 0,55.903128 Z"
     inkscape:connector-curvature="0" />
  <path
     style="mix-blend-mode:normal;stroke:none;stroke-width:0"
     id="path36"
     d="m 9.200504,40.813584 c 0,-2.098623 1.054543,-6.334286 5.575095,-6.396126 0.0021,0.135782 0.159123,2.253357 0.07052,2.284984 -4.832677,-0.02092 4.097288,-0.430685 -0.01436,-8.2e-5 -0.340967,-0.167778 0.01436,-2.174923 -0.110001,-2.315914 4.408178,0.343063 5.606059,4.521747 5.606059,6.427118 0,3.072968 -2.491131,5.564085 -5.564117,5.564085 -3.072987,0 -5.564118,-2.491117 -5.564118,-5.564085 z"
     inkscape:connector-curvature="0" />
  <path
     style="mix-blend-mode:normal;stroke:none;stroke-width:0"
     id="path38"
     d="m 20.43879,55.551922 c 0,-2.098603 1.054543,-6.334266 5.575095,-6.396106 0.0021,0.135576 0.159123,2.253356 0.07052,2.284984 -4.832674,-0.02092 4.097288,-0.430706 -0.01436,-8.2e-5 -0.340969,-0.167778 0.01436,-2.174923 -0.11,-2.315915 4.408177,0.343064 5.606056,4.521748 5.606056,6.427098 0,3.072988 -2.491129,5.564106 -5.564115,5.564106 -3.072987,0 -5.564118,-2.491118 -5.564118,-5.564106 z"
     inkscape:connector-curvature="0" />
  <path
     style="mix-blend-mode:normal;stroke:#000000;stroke-width:1.02793789"
     id="path42"
     d="m 232.30488,253.24488 -4.43386,8.92181 c 0,0 -0.64255,5.03415 -1.36773,10.5536 -0.0997,0.11753 2.74601,-0.0759 2.72714,0.0576 -0.0224,-0.17147 0.10009,3.44013 0.11035,3.44817 0.1444,0.11342 -3.53423,-0.0671 -3.55794,0.10973 -0.42149,3.14552 -0.59374,6.24552 -0.88277,8.46495 -0.0552,0.42351 -1.71913,-0.16347 -1.77656,-0.58655 -0.2653,-1.95462 -0.33904,-5.47193 -0.43324,-7.85198 -2.87378,0.0808 -2.76452,-0.0543 -3.38924,-0.048 -0.12162,-0.0611 0.0976,-3.78217 0.13066,-3.76163 0.0775,0.006 0.91942,0.0486 2.79319,0.0625 0.10235,-0.0402 -1.29585,-10.71124 -1.29585,-10.71124 l -3.5729,-8.80724 z"
     inkscape:connector-curvature="0" />
  <path
     style="mix-blend-mode:normal;stroke:none;stroke-width:0"
     id="path44"
     d="m 240.47875,273.97879 c 0,2.09861 -1.05455,6.33427 -5.57511,6.39613 -0.002,-0.13578 -0.15916,-2.25338 -0.0705,-2.28501 4.83269,0.0209 -4.09726,0.43071 0.0144,9e-5 0.34098,0.16777 -0.0144,2.17492 0.10994,2.31591 -4.40818,-0.34306 -5.60606,-4.52175 -5.60606,-6.42712 0,-0.13414 0.004,-0.26703 0.0144,-0.39871 0.2043,-2.88687 2.61115,-5.16539 5.55006,-5.16539 3.07298,0 5.56412,2.49111 5.56412,5.5641 z"
     inkscape:connector-curvature="0" />
  <path
     style="mix-blend-mode:normal;stroke:none;stroke-width:0"
     id="path46"
     d="m 231.27945,289.06836 c 0,2.09862 -1.05452,6.33428 -5.5751,6.39614 -0.002,-0.13557 -0.15916,-2.25335 -0.0706,-2.285 4.83267,0.0209 -4.09729,0.43073 0.0144,8e-5 0.34093,0.16798 -0.0144,2.17492 0.10994,2.31589 -4.40818,-0.34306 -5.60608,-4.52174 -5.60608,-6.42711 0,-3.07295 2.49115,-5.56409 5.56411,-5.56409 3.073,0 5.56413,2.49114 5.56413,5.56409 z"
     inkscape:connector-curvature="0" />
  <path
     style="mix-blend-mode:normal;stroke:none;stroke-width:0"
     id="path48"
     d="m 220.04117,274.33002 c 0,2.09862 -1.05455,6.33427 -5.57508,6.39613 -0.002,-0.13558 -0.15918,-2.25336 -0.0706,-2.28499 4.83268,0.0209 -4.09729,0.43071 0.0144,8e-5 0.34093,0.16778 -0.0144,2.17493 0.10994,2.3159 -4.40818,-0.34307 -5.60608,-4.52175 -5.60608,-6.42712 0,-3.07297 2.49114,-5.56411 5.56411,-5.56411 3.073,0 5.56413,2.49114 5.56413,5.56411 z"
     inkscape:connector-curvature="0" />
  <path
     style="mix-blend-mode:normal;fill:none;stroke:#000000;stroke-width:2.05587578"
     id="path52"
     d="m 166.99183,78.007629 4.43387,-8.921826 c 0,0 0.64256,-5.034148 1.36772,-10.553581 0.0997,-0.117527 -2.74599,0.07589 -2.72714,-0.05764 0.0224,0.171471 -0.10011,-3.440131 -0.11041,-3.448171 -0.14431,-0.113425 3.53425,0.06707 3.55795,-0.109733 0.42148,-3.145515 0.59375,-6.245516 0.88275,-8.464968 0.0552,-0.423466 1.71914,0.163471 1.77657,0.586568 0.26529,1.954616 0.33902,5.471951 0.43323,7.851982 2.87376,-0.08102 2.76452,0.05435 3.38922,0.04799 0.12163,0.06092 -0.0976,3.782149 -0.13066,3.761638 -0.0775,-0.0062 -0.9194,-0.04861 -2.79317,-0.06256 -0.10235,0.04 1.29584,10.711249 1.29584,10.711249 l 3.57289,8.807231 z"
     inkscape:connector-curvature="0" />
  <path
     style="mix-blend-mode:normal;fill:#000000;stroke:none;stroke-width:0"
     id="path54"
     d="m 158.81797,57.27372 c 0,-2.098623 1.05454,-6.334286 5.57508,-6.396126 0.002,0.135782 0.15913,2.253336 0.0705,2.285005 -4.83267,-0.02092 -4.2559,7.526578 -0.15748,7.696387 5.17141,0.203673 4.25475,-8.127093 0.14411,-7.696469 -0.34095,-0.167778 0.0144,-2.174944 -0.10998,-2.315915 4.40818,0.343064 5.60606,4.521748 5.60606,6.427118 0,0.134141 -0.004,0.26701 -0.0144,0.398689 -0.20435,2.886874 -2.61113,5.165397 -5.55006,5.165397 -3.07298,0 -5.56411,-2.491138 -5.56411,-5.564086 z"
     inkscape:connector-curvature="0" />
  <path
     style="mix-blend-mode:normal;fill:#000000;stroke:none;stroke-width:0"
     id="path56"
     d="m 168.01727,42.184157 c 0,-2.098603 1.05452,-6.334266 5.57508,-6.396106 0.002,0.135576 0.15912,2.253356 0.0705,2.285004 -4.83268,-0.02092 -4.2559,7.526579 -0.15748,7.696388 5.1714,0.203672 4.25474,-8.127094 0.14411,-7.69647 -0.34095,-0.167778 0.0144,-2.174923 -0.10998,-2.315914 4.40817,0.343063 5.60604,4.521748 5.60604,6.427118 0,3.072968 -2.49112,5.564106 -5.5641,5.564106 -3.07299,0 -5.56412,-2.491138 -5.56412,-5.564106 z"
     inkscape:connector-curvature="0" />
  <path
     style="mix-blend-mode:normal;fill:#000000;stroke:none;stroke-width:0"
     id="path58"
     d="m 179.25555,56.922514 c 0,-2.098623 1.05454,-6.334286 5.57507,-6.396147 0.002,0.135782 0.15917,2.253357 0.0706,2.285005 -4.83267,-0.02092 -4.25589,7.526579 -0.15752,7.696388 5.17138,0.203672 4.25473,-8.127094 0.14419,-7.69647 -0.34095,-0.167778 0.0144,-2.174923 -0.10994,-2.315914 4.40818,0.343063 5.60605,4.521747 5.60605,6.427118 0,3.072947 -2.49113,5.564085 -5.56411,5.564085 -3.07298,0 -5.56411,-2.491118 -5.56411,-5.564085 z"
     inkscape:connector-curvature="0" />
  <path
     style="mix-blend-mode:normal;fill:none;stroke:#000000;stroke-width:2.05587578"
     id="path62"
     d="m 182.72389,253.48474 -4.43386,8.92182 c 0,0 -0.64257,5.03417 -1.36773,10.55358 -0.0997,0.11753 2.74601,-0.0759 2.72714,0.0576 -0.0223,-0.17147 0.1001,3.44013 0.11035,3.44815 0.1444,0.11343 -3.53422,-0.0671 -3.55793,0.10973 -0.4215,3.14552 -0.59378,6.24552 -0.88276,8.46497 -0.0552,0.42349 -1.71915,-0.16347 -1.77657,-0.58657 -0.26528,-1.95461 -0.33902,-5.47195 -0.43324,-7.85198 -2.87375,0.081 -2.7645,-0.0543 -3.38922,-0.048 -0.12171,-0.0611 0.0977,-3.78213 0.13056,-3.76164 0.0775,0.006 0.9194,0.0484 2.79317,0.0626 0.10239,-0.04 -1.29583,-10.71125 -1.29583,-10.71125 l -3.5729,-8.80723 z"
     inkscape:connector-curvature="0" />
  <path
     style="mix-blend-mode:normal;fill:#000000;stroke:none;stroke-width:0"
     id="path64"
     d="m 190.89777,274.21865 c 0,2.09862 -1.05456,6.33426 -5.57511,6.39612 -0.002,-0.13578 -0.15917,-2.25333 -0.0706,-2.285 4.83267,0.0209 4.25591,-7.52658 0.15752,-7.69637 -5.17138,-0.20367 -4.25472,8.12707 -0.14419,7.69645 0.34095,0.16778 -0.0144,2.17492 0.10994,2.31591 -4.40818,-0.34306 -5.60608,-4.52174 -5.60606,-6.42709 0,-0.13394 0.004,-0.26701 0.0144,-0.39869 0.20429,-2.88688 2.61114,-5.1654 5.55006,-5.1654 3.07298,0 5.56412,2.49114 5.56412,5.56409 z"
     inkscape:connector-curvature="0" />
  <path
     style="mix-blend-mode:normal;fill:#000000;stroke:none;stroke-width:0"
     id="path66"
     d="m 181.69846,289.30821 c 0,2.09862 -1.0545,6.33427 -5.57506,6.39613 -0.002,-0.13558 -0.15916,-2.25336 -0.0705,-2.28501 4.83267,0.0209 4.2559,-7.52656 0.15752,-7.69637 -5.17141,-0.20367 -4.25473,8.1271 -0.14419,7.69645 0.34095,0.16778 -0.0144,2.17493 0.10994,2.31592 -4.40818,-0.34307 -5.60609,-4.52175 -5.60609,-6.4271 0,-3.07299 2.49115,-5.56411 5.56412,-5.56411 3.07298,0 5.56411,2.49112 5.56411,5.56411 z"
     inkscape:connector-curvature="0" />
  <path
     style="mix-blend-mode:normal;fill:#000000;stroke:none;stroke-width:0"
     id="path68"
     d="m 170.46019,274.56985 c 0,2.09863 -1.05452,6.33429 -5.57507,6.39613 -0.002,-0.13578 -0.15913,-2.25336 -0.0705,-2.28501 4.83268,0.0209 4.2559,-7.52655 0.15749,-7.69636 -5.1714,-0.20368 -4.25472,8.12709 -0.14411,7.69645 0.34095,0.16777 -0.0144,2.17492 0.10998,2.31589 -4.40818,-0.34306 -5.60606,-4.52175 -5.60606,-6.4271 0,-3.07297 2.49113,-5.56408 5.56412,-5.56408 3.07299,0 5.56412,2.49111 5.56412,5.56408 z"
     inkscape:connector-curvature="0" />
  <path
     style="mix-blend-mode:normal;fill:none;stroke:#000000;stroke-width:2.05587578"
     id="path72"
     d="m 113.53895,176.68944 4.43385,-8.92182 c 0,0 0.64256,-5.03415 1.36773,-10.55359 0.0999,-0.11752 -2.746,0.0759 -2.72714,-0.0576 0.0224,0.17147 -0.10011,-3.44013 -0.11041,-3.44815 -0.14432,-0.11343 3.53425,0.0671 3.55795,-0.10974 0.42149,-3.14551 0.59376,-6.24553 0.88275,-8.46496 0.0551,-0.42347 1.71915,0.16347 1.77657,0.58656 0.26529,1.95462 0.33904,5.47196 0.43324,7.85199 2.87376,-0.081 2.76451,0.0543 3.38922,0.048 0.12171,0.0611 -0.0976,3.78215 -0.13055,3.76164 -0.0775,-0.006 -0.91942,-0.0486 -2.79319,-0.0626 -0.10239,0.04 1.29585,10.71125 1.29585,10.71125 l 3.57289,8.80723 z"
     inkscape:connector-curvature="0" />
  <path
     style="mix-blend-mode:normal;fill:#000000;stroke:none;stroke-width:0"
     id="path74"
     d="m 105.36507,155.95553 c 0,-2.09864 1.05454,-6.33428 5.57509,-6.39612 0.002,0.13578 0.15913,2.25333 0.0705,2.285 -4.83269,-0.0209 -4.2559,7.52658 -0.15749,7.69637 5.17141,0.20367 4.25474,-8.12707 0.14411,-7.69645 -0.34095,-0.16798 0.0144,-2.17494 -0.11,-2.31592 4.40818,0.34307 5.60606,4.52173 5.60606,6.42712 0,0.13394 -0.004,0.26701 -0.0144,0.39869 -0.20435,2.88688 -2.61113,5.1654 -5.55006,5.1654 -3.07298,0 -5.56411,-2.49114 -5.56411,-5.56409 z"
     inkscape:connector-curvature="0" />
  <path
     style="mix-blend-mode:normal;fill:#000000;stroke:none;stroke-width:0"
     id="path76"
     d="m 114.56437,140.86597 c 0,-2.0986 1.05453,-6.33429 5.57508,-6.39613 0.002,0.13578 0.15913,2.25336 0.0705,2.28503 -4.83267,-0.0209 -4.2559,7.52656 -0.15748,7.69639 5.1714,0.20367 4.25475,-8.1271 0.14411,-7.69647 -0.34095,-0.16778 0.0144,-2.17493 -0.11,-2.31592 4.40818,0.34306 5.60605,4.52175 5.60605,6.42712 0,3.07295 -2.49113,5.56411 -5.56411,5.56411 -3.07299,0 -5.56412,-2.49116 -5.56412,-5.56411 z"
     inkscape:connector-curvature="0" />
  <path
     style="mix-blend-mode:normal;fill:#000000;stroke:none;stroke-width:0"
     id="path78"
     d="m 125.80266,155.60433 c 0,-2.09863 1.05452,-6.33429 5.57508,-6.39615 0.002,0.13578 0.15912,2.25336 0.0705,2.285 -4.83267,-0.0209 -4.2559,7.52658 -0.15748,7.69637 5.1714,0.20367 4.25475,-8.12707 0.14411,-7.69645 -0.34095,-0.16778 0.0144,-2.17492 -0.10998,-2.31591 4.40818,0.34306 5.60606,4.52175 5.60606,6.42712 0,3.07294 -2.49114,5.56408 -5.56412,5.56408 -3.07298,0 -5.56412,-2.49112 -5.56412,-5.56408 z"
     inkscape:connector-curvature="0" />
</svg>
