<?xml version="1.0" encoding="UTF-8" standalone="no"?>
<svg
   xmlns:dc="http://purl.org/dc/elements/1.1/"
   xmlns:cc="http://creativecommons.org/ns#"
   xmlns:rdf="http://www.w3.org/1999/02/22-rdf-syntax-ns#"
   xmlns:svg="http://www.w3.org/2000/svg"
   xmlns="http://www.w3.org/2000/svg"
   xmlns:sodipodi="http://sodipodi.sourceforge.net/DTD/sodipodi-0.dtd"
   xmlns:inkscape="http://www.inkscape.org/namespaces/inkscape"
   version="1.1"
   width="63mm"
   height="88mm"
   viewBox="0 0 238.11023 332.59842"
   id="svg106"
   sodipodi:docname="C7.svg"
   inkscape:version="0.92.3 (2405546, 2018-03-11)">
  <sodipodi:namedview
     pagecolor="#ffffff"
     bordercolor="#666666"
     borderopacity="1"
     objecttolerance="10"
     gridtolerance="10"
     guidetolerance="10"
     inkscape:pageopacity="0"
     inkscape:pageshadow="2"
     inkscape:window-width="1920"
     inkscape:window-height="1018"
     id="namedview108"
     showgrid="false"
     inkscape:zoom="1.232376"
     inkscape:cx="109.88771"
     inkscape:cy="95.75"
     inkscape:window-x="0"
     inkscape:window-y="0"
     inkscape:window-maximized="1"
     inkscape:current-layer="svg106"
     units="mm" />
  <metadata
     id="metadata112">
    <rdf:RDF>
      <cc:Work
         rdf:about="">
        <dc:format>image/svg+xml</dc:format>
        <dc:type
           rdf:resource="http://purl.org/dc/dcmitype/StillImage" />
        <dc:title></dc:title>
      </cc:Work>
    </rdf:RDF>
  </metadata>
  <defs
     id="defs110" />
  <text
     id="text6"
     style="font-weight:normal;font-size:41.11742401px;font-family:Serif;text-anchor:start;mix-blend-mode:normal;fill:#000000;fill-rule:nonzero;stroke:none;stroke-width:1.02793562;stroke-linecap:butt;stroke-linejoin:miter;stroke-miterlimit:10;stroke-dasharray:none;stroke-dashoffset:0"
     font-weight="normal"
     stroke-miterlimit="10"
     xml:space="preserve"
     font-size="40"
     x="0.86559629"
     y="29.974768"><tspan
       id="tspan4"
       dy="0"
       x="0.86559629"
       style="stroke-width:1.02793562">7</tspan></text>
  <text
     id="text10"
     style="font-weight:normal;font-size:41.11742401px;font-family:Serif;text-anchor:start;mix-blend-mode:normal;fill:#000000;fill-rule:nonzero;stroke:none;stroke-width:1.02793562;stroke-linecap:butt;stroke-linejoin:miter;stroke-miterlimit:10;stroke-dasharray:none;stroke-dashoffset:0"
     font-weight="normal"
     stroke-miterlimit="10"
     data-paper-data="{&quot;origRot&quot;:-45}"
     xml:space="preserve"
     font-size="40"
     transform="scale(-1)"
     x="-240.91052"
     y="-302.62366"><tspan
       id="tspan8"
       dy="0"
       x="-240.91052"
       style="stroke-width:1.02793562">7</tspan></text>
  <path
     style="mix-blend-mode:normal;fill:none;stroke:#000000;stroke-width:2.05587125"
     id="path12"
     d="m 60.599798,77.493655 4.433836,-8.921823 c 0,0 0.642562,-5.03415 1.367729,-10.553588 0.09992,-0.117596 -2.745986,0.07586 -2.727133,-0.05757 0.02241,0.17146 -0.100121,-3.44013 -0.1104,-3.448168 -0.144323,-0.113485 3.534227,0.06702 3.557931,-0.109784 0.421495,-3.145524 0.593756,-6.245531 0.88275,-8.464967 0.0551,-0.423469 1.71914,0.163441 1.776561,0.58656 0.265289,1.95462 0.339033,5.471948 0.433233,7.851989 2.873759,-0.081 2.76451,0.05428 3.389207,0.0479 0.121707,0.06106 -0.09765,3.782165 -0.130754,3.761648 -0.07751,-0.0062 -0.919406,-0.04852 -2.793168,-0.0625 -0.102382,0.04009 1.295836,10.711254 1.295836,10.711254 l 3.572878,8.807228 z"
     inkscape:connector-curvature="0" />
  <path
     style="mix-blend-mode:normal;fill:#000000;stroke:none;stroke-width:0"
     id="path14"
     d="m 52.425963,56.759742 c 0,-2.098633 1.054538,-6.334283 5.57507,-6.396123 0.0021,0.135687 0.159124,2.253337 0.07052,2.284998 -4.832654,-0.02097 -4.255879,7.526585 -0.15748,7.696379 5.17138,0.203737 4.254729,-8.127084 0.144117,-7.696462 -0.340946,-0.167759 0.01439,-2.174947 -0.109989,-2.315918 4.408158,0.343063 5.606032,4.521745 5.606032,6.427126 0,0.134043 -0.0041,0.267017 -0.01439,0.398695 -0.204354,2.886875 -2.611121,5.165397 -5.55003,5.165397 -3.072973,0 -5.564092,-2.49114 -5.564092,-5.564092 z"
     inkscape:connector-curvature="0" />
  <path
     style="mix-blend-mode:normal;fill:#000000;stroke:none;stroke-width:0"
     id="path16"
     d="m 61.625225,41.670182 c 0,-2.098612 1.054518,-6.334283 5.57505,-6.396123 0.0021,0.135687 0.159124,2.253358 0.07052,2.285018 -4.832654,-0.02097 -4.255879,7.526565 -0.157479,7.69638 5.171379,0.203737 4.254728,-8.127085 0.144116,-7.696462 -0.340945,-0.167759 0.01439,-2.174926 -0.109989,-2.315918 4.408158,0.343063 5.606032,4.521745 5.606032,6.427126 0,3.072952 -2.49112,5.564092 -5.564092,5.564092 -3.072972,0 -5.564092,-2.49114 -5.564092,-5.564092 z"
     inkscape:connector-curvature="0" />
  <path
     style="mix-blend-mode:normal;fill:#000000;stroke:none;stroke-width:0"
     id="path18"
     d="m 72.86346,56.408538 c 0,-2.098634 1.054518,-6.334283 5.57505,-6.396144 0.0021,0.135687 0.159124,2.253358 0.07052,2.284998 -4.832654,-0.02097 -4.255879,7.526585 -0.15748,7.696379 5.171374,0.203737 4.254728,-8.127084 0.144117,-7.696462 -0.340946,-0.167964 0.01439,-2.174926 -0.109989,-2.315918 4.408158,0.343063 5.606026,4.521745 5.606026,6.427126 0,3.072952 -2.491114,5.564092 -5.564086,5.564092 -3.072973,0 -5.564092,-2.49112 -5.564092,-5.564092 z"
     inkscape:connector-curvature="0" />
  <path
     style="mix-blend-mode:normal;fill:none;stroke:#000000;stroke-width:2.05587125"
     id="path22"
     d="m 76.503113,253.48474 -4.433836,8.92182 c 0,0 -0.642563,5.03417 -1.36773,10.55359 -0.09992,0.11759 2.746006,-0.0759 2.727134,0.0576 -0.02241,-0.17146 0.100121,3.44013 0.1104,3.44815 0.144322,0.11349 -3.534228,-0.067 -3.557932,0.10978 -0.421495,3.14553 -0.593756,6.24554 -0.88275,8.46497 -0.0551,0.42349 -1.71914,-0.16344 -1.77656,-0.58656 -0.265269,-1.95462 -0.339013,-5.47195 -0.433234,-7.85199 -2.873738,0.0808 -2.764489,-0.0543 -3.389206,-0.0479 -0.121708,-0.0611 0.09765,-3.78214 0.130547,-3.76165 0.07751,0.006 0.919407,0.0485 2.793169,0.0625 0.102382,-0.0401 -1.295837,-10.71125 -1.295837,-10.71125 l -3.572877,-8.80723 z"
     inkscape:connector-curvature="0" />
  <path
     style="mix-blend-mode:normal;fill:#000000;stroke:none;stroke-width:0"
     id="path24"
     d="m 84.676944,274.21865 c 0,2.09863 -1.05453,6.33426 -5.575066,6.39612 -0.0021,-0.13568 -0.159125,-2.25333 -0.07052,-2.28499 4.832656,0.021 4.255886,-7.52659 0.15748,-7.69638 -5.171379,-0.20374 -4.254708,8.12708 -0.144117,7.69646 0.340946,0.16776 -0.01439,2.17492 0.109989,2.31592 -4.408157,-0.34307 -5.606052,-4.52175 -5.606031,-6.42711 0,-0.13404 0.0041,-0.26702 0.01439,-0.39869 0.204353,-2.88688 2.611121,-5.1654 5.55003,-5.1654 3.072972,0 5.564095,2.49114 5.564095,5.56409 z"
     inkscape:connector-curvature="0" />
  <path
     style="mix-blend-mode:normal;fill:#000000;stroke:none;stroke-width:0"
     id="path26"
     d="m 75.477706,289.30821 c 0,2.09863 -1.054518,6.33428 -5.57505,6.39614 -0.0021,-0.13568 -0.159124,-2.25335 -0.07052,-2.28501 4.832654,0.021 4.255879,-7.52657 0.157479,-7.69636 -5.171379,-0.20374 -4.254707,8.12708 -0.144116,7.69644 0.340945,0.16776 -0.01439,2.17492 0.109989,2.31592 -4.408158,-0.34307 -5.606052,-4.52175 -5.606052,-6.42711 0,-3.07297 2.49114,-5.56409 5.564092,-5.56409 3.072972,0 5.564091,2.49112 5.564091,5.56409 z"
     inkscape:connector-curvature="0" />
  <path
     style="mix-blend-mode:normal;fill:#000000;stroke:none;stroke-width:0"
     id="path28"
     d="m 64.239471,274.56985 c 0,2.09864 -1.054518,6.33429 -5.57505,6.39613 -0.0021,-0.13569 -0.159124,-2.25336 -0.07052,-2.285 4.832654,0.021 4.255879,-7.52656 0.15748,-7.69636 -5.17138,-0.20374 -4.254708,8.12709 -0.144117,7.69644 0.340946,0.16776 -0.01439,2.17493 0.109989,2.3159 -4.408158,-0.34306 -5.606031,-4.52174 -5.606031,-6.42711 0,-3.07297 2.491119,-5.56409 5.564091,-5.56409 3.072973,0 5.564092,2.49112 5.564092,5.56409 z"
     inkscape:connector-curvature="0" />
  <path
     style="mix-blend-mode:normal;stroke:#000000;stroke-width:1.02793562"
     id="path32"
     d="m 8.175083,76.637035 4.433836,-8.921823 c 0,0 0.642563,-5.03417 1.367751,-10.553588 0.09991,-0.117596 -2.746007,0.07586 -2.727155,-0.05757 0.02241,0.17146 -0.100121,-3.440109 -0.1104,-3.448148 -0.144322,-0.113484 3.534207,0.06702 3.557911,-0.109783 0.421495,-3.145504 0.593777,-6.245511 0.882771,-8.464968 0.0551,-0.423468 1.71914,0.163442 1.77656,0.586561 0.265269,1.95462 0.339034,5.471948 0.433234,7.851989 2.873738,-0.0808 2.764489,0.05428 3.389206,0.0479 0.121708,0.06106 -0.09765,3.782165 -0.130753,3.761648 -0.07751,-0.0062 -0.919406,-0.04852 -2.793148,-0.0625 -0.102382,0.04009 1.295836,10.711253 1.295836,10.711253 l 3.572878,8.807229 z"
     inkscape:connector-curvature="0" />
  <path
     style="mix-blend-mode:normal;stroke:none;stroke-width:0"
     id="path34"
     d="m 0.001269,55.903143 c 0,-2.098613 1.054538,-6.334283 5.57507,-6.396124 0.0021,0.135688 0.159124,2.253358 0.07052,2.284998 -4.832654,-0.02097 4.097269,-0.430705 -0.01439,-8.2e-5 -0.340966,-0.167759 0.01439,-2.174927 -0.109989,-2.315918 4.408158,0.343063 5.606032,4.521744 5.606032,6.427105 0,0.134043 -0.0041,0.266996 -0.01439,0.398695 -0.204354,2.886875 -2.611121,5.165397 -5.55003,5.165397 C 2.49112,61.467214 0,58.976095 0,55.903122 Z"
     inkscape:connector-curvature="0" />
  <path
     style="mix-blend-mode:normal;stroke:none;stroke-width:0"
     id="path36"
     d="m 9.200511,40.813563 c 0,-2.098613 1.054538,-6.334283 5.57507,-6.396124 0.0021,0.135688 0.159125,2.253358 0.07052,2.284998 -4.832654,-0.02097 4.097269,-0.430705 -0.01439,-8.2e-5 -0.340966,-0.167759 0.01439,-2.174927 -0.109989,-2.315919 4.408158,0.343064 5.606032,4.521745 5.606032,6.427106 0,3.072972 -2.49112,5.564092 -5.564092,5.564092 -3.072972,0 -5.564092,-2.49112 -5.564092,-5.564092 z"
     inkscape:connector-curvature="0" />
  <path
     style="mix-blend-mode:normal;stroke:none;stroke-width:0"
     id="path38"
     d="m 20.438745,55.551918 c 0,-2.098613 1.054539,-6.334283 5.575071,-6.396124 0.0021,0.135688 0.159124,2.253358 0.07052,2.284998 -4.832654,-0.02097 4.097269,-0.430705 -0.01439,-8.2e-5 -0.340966,-0.167759 0.01439,-2.174927 -0.109989,-2.315918 4.408158,0.343063 5.606032,4.521744 5.606032,6.427105 0,3.072973 -2.49112,5.564092 -5.564092,5.564092 -3.072973,0 -5.564092,-2.491119 -5.564092,-5.564092 z"
     inkscape:connector-curvature="0" />
  <path
     style="mix-blend-mode:normal;stroke:#000000;stroke-width:1.02793562"
     id="path42"
     d="m 232.30387,253.24488 -4.43383,8.92182 c 0,0 -0.64255,5.03415 -1.36773,10.55359 -0.0997,0.1176 2.746,-0.0759 2.72713,0.0576 -0.0224,-0.17146 0.10033,3.44013 0.1104,3.44817 0.14432,0.11349 -3.53423,-0.067 -3.55793,0.10979 -0.4215,3.14552 -0.59376,6.24553 -0.88277,8.46496 -0.0551,0.42349 -1.71912,-0.16344 -1.77656,-0.58656 -0.26529,-1.95462 -0.33902,-5.47192 -0.43324,-7.85199 -2.87376,0.0808 -2.76449,-0.0543 -3.3892,-0.0479 -0.12171,-0.0611 0.0976,-3.78216 0.13075,-3.76165 0.0775,0.006 0.91941,0.0485 2.79317,0.0625 0.10238,-0.0401 -1.29584,-10.71125 -1.29584,-10.71125 l -3.57288,-8.80723 z"
     inkscape:connector-curvature="0" />
  <path
     style="mix-blend-mode:normal;stroke:none;stroke-width:0"
     id="path44"
     d="m 240.47771,273.97879 c 0,2.09861 -1.05454,6.33428 -5.57507,6.39613 -0.002,-0.13569 -0.15913,-2.25336 -0.0705,-2.285 4.83265,0.021 -4.09725,0.4307 0.0144,8e-5 0.34097,0.16776 -0.0144,2.17493 0.10999,2.31592 -4.40816,-0.34307 -5.60603,-4.52175 -5.60603,-6.42713 0,-0.13404 0.004,-0.26701 0.0144,-0.39869 0.20435,-2.88688 2.61112,-5.1654 5.55003,-5.1654 3.07297,0 5.56409,2.49112 5.56409,5.56409 z"
     inkscape:connector-curvature="0" />
  <path
     style="mix-blend-mode:normal;stroke:none;stroke-width:0"
     id="path46"
     d="m 231.2784,289.06837 c 0,2.09861 -1.05452,6.33428 -5.57507,6.39615 -0.002,-0.13569 -0.15912,-2.25336 -0.0705,-2.28502 4.83265,0.021 -4.09727,0.43072 0.0144,8e-5 0.34094,0.16796 -0.0144,2.17493 0.10999,2.3159 -4.40816,-0.34307 -5.60606,-4.52175 -5.60606,-6.42711 0,-3.07295 2.49114,-5.56409 5.5641,-5.56409 3.07297,0 5.56409,2.49114 5.56409,5.56409 z"
     inkscape:connector-curvature="0" />
  <path
     style="mix-blend-mode:normal;stroke:none;stroke-width:0"
     id="path48"
     d="m 220.04017,274.33002 c 0,2.09863 -1.05454,6.33428 -5.57505,6.39614 -0.002,-0.13569 -0.15913,-2.25336 -0.0705,-2.285 4.83266,0.021 -4.09727,0.43071 0.0144,9e-5 0.34095,0.16775 -0.0144,2.17492 0.10999,2.31589 -4.40816,-0.34306 -5.60605,-4.52174 -5.60605,-6.42712 0,-3.07296 2.49114,-5.5641 5.56409,-5.5641 3.07297,0 5.56409,2.49114 5.56409,5.5641 z"
     inkscape:connector-curvature="0" />
  <path
     style="mix-blend-mode:normal;fill:none;stroke:#000000;stroke-width:2.05587125"
     id="path52"
     d="m 113.53848,125.97794 4.43383,-8.92182 c 0,0 0.64256,-5.03415 1.36773,-10.55359 0.0999,-0.11759 -2.74598,0.0759 -2.72713,-0.0576 0.0224,0.17146 -0.10012,-3.44013 -0.1104,-3.44817 -0.14432,-0.11348 3.53423,0.067 3.55793,-0.10978 0.42149,-3.145524 0.59376,-6.245531 0.88275,-8.464967 0.0551,-0.423469 1.71914,0.163441 1.77656,0.58656 0.26529,1.95462 0.33903,5.471947 0.43323,7.851987 2.87376,-0.081 2.76451,0.0543 3.38921,0.0479 0.12171,0.0609 -0.0977,3.78217 -0.13075,3.76165 -0.0775,-0.006 -0.91941,-0.0485 -2.79317,-0.0625 -0.10238,0.0401 1.29583,10.71125 1.29583,10.71125 l 3.57288,8.80723 z"
     inkscape:connector-curvature="0" />
  <path
     style="mix-blend-mode:normal;fill:#000000;stroke:none;stroke-width:0"
     id="path54"
     d="m 105.36464,105.24399 c 0,-2.09863 1.05454,-6.334284 5.57507,-6.396125 0.002,0.135688 0.15913,2.253335 0.0705,2.284995 -4.83266,-0.021 -4.25588,7.52659 -0.15748,7.69638 5.17138,0.20374 4.25473,-8.12708 0.14411,-7.69646 -0.34094,-0.16776 0.0144,-2.174946 -0.10998,-2.315917 4.40815,0.343063 5.60603,4.521747 5.60603,6.427127 0,0.13404 -0.004,0.26701 -0.0144,0.39869 -0.20436,2.88688 -2.61113,5.1654 -5.55003,5.1654 -3.07298,0 -5.5641,-2.49114 -5.5641,-5.56409 z"
     inkscape:connector-curvature="0" />
  <path
     style="mix-blend-mode:normal;fill:#000000;stroke:none;stroke-width:0"
     id="path56"
     d="m 114.5639,90.15445 c 0,-2.098613 1.05452,-6.334283 5.57505,-6.396124 0.002,0.135688 0.15913,2.253358 0.0705,2.285019 -4.83265,-0.02097 -4.25588,7.526565 -0.15748,7.69638 5.17138,0.203736 4.25473,-8.127085 0.14412,-7.696462 -0.34095,-0.16776 0.0144,-2.174927 -0.10999,-2.315919 4.40816,0.343063 5.60603,4.521745 5.60603,6.427126 0,3.072952 -2.49112,5.564092 -5.56409,5.564092 -3.07298,0 -5.56409,-2.49114 -5.56409,-5.564092 z"
     inkscape:connector-curvature="0" />
  <path
     style="mix-blend-mode:normal;fill:#000000;stroke:none;stroke-width:0"
     id="path58"
     d="m 125.80214,104.89283 c 0,-2.09864 1.05452,-6.334287 5.57505,-6.396149 0.002,0.135688 0.15912,2.253359 0.0705,2.284999 -4.83265,-0.021 -4.25588,7.52658 -0.15748,7.69638 5.17138,0.20374 4.25473,-8.12709 0.14412,-7.69646 -0.34094,-0.16776 0.0144,-2.174929 -0.10999,-2.315921 4.40816,0.343063 5.60603,4.521741 5.60603,6.427121 0,3.07296 -2.49112,5.5641 -5.56409,5.5641 -3.07297,0 -5.56409,-2.49112 -5.56409,-5.5641 z"
     inkscape:connector-curvature="0" />
  <path
     style="mix-blend-mode:normal;fill:none;stroke:#000000;stroke-width:2.05587125"
     id="path62"
     d="m 182.7231,253.48474 -4.43383,8.92182 c 0,0 -0.64256,5.03417 -1.36773,10.55359 -0.0997,0.11759 2.74601,-0.0759 2.72713,0.0576 -0.0224,-0.17146 0.10012,3.44013 0.1104,3.44815 0.14433,0.11349 -3.53422,-0.067 -3.55793,0.10978 -0.42149,3.14553 -0.59376,6.24554 -0.88275,8.46497 -0.0551,0.42349 -1.71914,-0.16344 -1.77656,-0.58656 -0.26527,-1.95462 -0.33901,-5.47195 -0.43323,-7.85199 -2.87374,0.0808 -2.76449,-0.0543 -3.38921,-0.0479 -0.12171,-0.0611 0.0976,-3.78214 0.13075,-3.76165 0.0775,0.006 0.91941,0.0485 2.79317,0.0625 0.10238,-0.0401 -1.29583,-10.71125 -1.29583,-10.71125 l -3.57288,-8.80723 z"
     inkscape:connector-curvature="0" />
  <path
     style="mix-blend-mode:normal;fill:#000000;stroke:none;stroke-width:0"
     id="path64"
     d="m 190.89694,274.21865 c 0,2.09863 -1.05454,6.33426 -5.57507,6.39612 -0.002,-0.13568 -0.15912,-2.25333 -0.0705,-2.28499 4.83266,0.021 4.25588,-7.52659 0.15748,-7.69638 -5.17138,-0.20374 -4.2547,8.12708 -0.14411,7.69646 0.34094,0.16776 -0.0144,2.17492 0.10999,2.31592 -4.40816,-0.34307 -5.60606,-4.52175 -5.60604,-6.42711 0,-0.13404 0.004,-0.26702 0.0144,-0.39869 0.20436,-2.88688 2.61113,-5.1654 5.55003,-5.1654 3.07298,0 5.5641,2.49114 5.5641,5.56409 z"
     inkscape:connector-curvature="0" />
  <path
     style="mix-blend-mode:normal;fill:#000000;stroke:none;stroke-width:0"
     id="path66"
     d="m 181.6977,289.30821 c 0,2.09863 -1.05452,6.33428 -5.57505,6.39614 -0.002,-0.13568 -0.15913,-2.25335 -0.0705,-2.28501 4.83266,0.021 4.25588,-7.52657 0.15748,-7.69636 -5.17138,-0.20374 -4.25471,8.12708 -0.14412,7.69644 0.34095,0.16776 -0.0144,2.17492 0.10999,2.31592 -4.40815,-0.34307 -5.60605,-4.52175 -5.60605,-6.42711 0,-3.07297 2.49114,-5.56409 5.56409,-5.56409 3.07298,0 5.5641,2.49112 5.5641,5.56409 z"
     inkscape:connector-curvature="0" />
  <path
     style="mix-blend-mode:normal;fill:#000000;stroke:none;stroke-width:0"
     id="path68"
     d="m 170.45946,274.56985 c 0,2.09864 -1.05451,6.33429 -5.57505,6.39613 -0.002,-0.13569 -0.15912,-2.25336 -0.0705,-2.285 4.83265,0.021 4.25588,-7.52656 0.15748,-7.69636 -5.17138,-0.20374 -4.25471,8.12709 -0.14412,7.69644 0.34095,0.16776 -0.0144,2.17493 0.10999,2.3159 -4.40816,-0.34306 -5.60603,-4.52174 -5.60603,-6.42711 0,-3.07297 2.49112,-5.56409 5.56409,-5.56409 3.07297,0 5.56409,2.49112 5.56409,5.56409 z"
     inkscape:connector-curvature="0" />
  <path
     style="mix-blend-mode:normal;fill:none;stroke:#000000;stroke-width:2.05587125"
     id="path72"
     d="m 62.827005,176.68944 4.433836,-8.92182 c 0,0 0.642563,-5.03415 1.36773,-10.55359 0.09971,-0.1176 -2.745986,0.0759 -2.727134,-0.0576 0.02241,0.17146 -0.100121,-3.44013 -0.1104,-3.44817 -0.144322,-0.11348 3.534228,0.067 3.557932,-0.10978 0.421494,-3.14552 0.593756,-6.24553 0.88275,-8.46497 0.0551,-0.42347 1.71914,0.16344 1.77656,0.58656 0.26529,1.95462 0.339034,5.47195 0.433234,7.85199 2.873758,-0.081 2.764509,0.0543 3.389206,0.0479 0.121708,0.0611 -0.09765,3.78217 -0.130547,3.76165 -0.07751,-0.006 -0.919407,-0.0485 -2.793169,-0.0625 -0.102382,0.0401 1.295836,10.71126 1.295836,10.71126 l 3.572878,8.80723 z"
     inkscape:connector-curvature="0" />
  <path
     style="mix-blend-mode:normal;fill:#000000;stroke:none;stroke-width:0"
     id="path74"
     d="m 54.65317,155.95553 c 0,-2.09864 1.054539,-6.33429 5.57507,-6.39613 0.0021,0.13569 0.159125,2.25334 0.07052,2.285 -4.832654,-0.021 -4.25588,7.52659 -0.15748,7.69638 5.171379,0.20374 4.254728,-8.12709 0.144117,-7.69646 -0.340946,-0.16776 0.01439,-2.17495 -0.10999,-2.31592 4.408158,0.34306 5.606032,4.52174 5.606032,6.42713 0,0.13404 -0.0041,0.26701 -0.01439,0.39869 -0.204354,2.88688 -2.611121,5.1654 -5.55003,5.1654 -3.072972,0 -5.564092,-2.49114 -5.564092,-5.56409 z"
     inkscape:connector-curvature="0" />
  <path
     style="mix-blend-mode:normal;fill:#000000;stroke:none;stroke-width:0"
     id="path76"
     d="m 63.852433,140.86597 c 0,-2.09862 1.054518,-6.33429 5.575049,-6.39613 0.0021,0.13569 0.159125,2.25336 0.07052,2.28502 -4.832654,-0.021 -4.25588,7.52657 -0.15748,7.69638 5.17138,0.20374 4.254728,-8.12708 0.144117,-7.69646 -0.340946,-0.16797 0.01439,-2.17493 -0.109989,-2.31592 4.408157,0.34306 5.606031,4.52174 5.606031,6.42713 0,3.07295 -2.491119,5.56409 -5.564092,5.56409 -3.072972,0 -5.564092,-2.49114 -5.564092,-5.56409 z"
     inkscape:connector-curvature="0" />
  <path
     style="mix-blend-mode:normal;fill:#000000;stroke:none;stroke-width:0"
     id="path78"
     d="m 75.090667,155.60432 c 0,-2.09863 1.054518,-6.33428 5.57505,-6.39614 0.0021,0.13568 0.159125,2.25335 0.07052,2.28499 -4.832654,-0.021 -4.255879,7.52659 -0.157479,7.69638 5.171376,0.20374 4.254726,-8.12708 0.144116,-7.69646 -0.340945,-0.16776 0.01439,-2.17492 -0.109989,-2.31592 4.408159,0.34307 5.606029,4.52175 5.606029,6.42713 0,3.07295 -2.49112,5.56409 -5.564089,5.56409 -3.072972,0 -5.564092,-2.49112 -5.564092,-5.56409 z"
     inkscape:connector-curvature="0" />
  <path
     style="mix-blend-mode:normal;fill:none;stroke:#000000;stroke-width:2.05587125"
     id="path82"
     d="m 166.30582,77.288068 4.43384,-8.921823 c 0,0 0.64256,-5.03415 1.36773,-10.553588 0.0997,-0.117596 -2.74599,0.07586 -2.72714,-0.05757 0.0224,0.17146 -0.10012,-3.44013 -0.1104,-3.448169 -0.14432,-0.113484 3.53423,0.06702 3.55794,-0.109783 0.42149,-3.145524 0.59375,-6.245531 0.88275,-8.464967 0.0551,-0.423469 1.71914,0.163441 1.77656,0.58656 0.26529,1.95462 0.33903,5.471948 0.43323,7.851989 2.87376,-0.081 2.76451,0.05428 3.38921,0.0479 0.1217,0.06106 -0.0977,3.782165 -0.13076,3.761648 -0.0775,-0.0062 -0.9194,-0.04852 -2.79317,-0.0625 -0.10238,0.04009 1.29584,10.711253 1.29584,10.711253 l 3.57288,8.807229 z"
     inkscape:connector-curvature="0" />
  <path
     style="mix-blend-mode:normal;fill:#000000;stroke:none;stroke-width:0"
     id="path84"
     d="m 158.13201,56.554155 c 0,-2.098633 1.05454,-6.334283 5.57507,-6.396124 0.002,0.135688 0.15912,2.253338 0.0705,2.284998 -4.83265,-0.02097 -4.25588,7.526586 -0.15748,7.69638 5.17138,0.203737 4.25473,-8.127085 0.14412,-7.696462 -0.34094,-0.167759 0.0144,-2.174947 -0.10999,-2.315918 4.40816,0.343063 5.60603,4.521745 5.60603,6.427126 0,0.134043 -0.004,0.267017 -0.0144,0.398695 -0.20435,2.886875 -2.61112,5.165397 -5.55003,5.165397 -3.07297,0 -5.56409,-2.49114 -5.56409,-5.564092 z"
     inkscape:connector-curvature="0" />
  <path
     style="mix-blend-mode:normal;fill:#000000;stroke:none;stroke-width:0"
     id="path86"
     d="m 167.33121,41.464595 c 0,-2.098612 1.05452,-6.334283 5.57505,-6.396123 0.002,0.135687 0.15912,2.253358 0.0705,2.285018 -4.83265,-0.02097 -4.25587,7.526565 -0.15748,7.69638 5.17138,0.203737 4.25473,-8.127085 0.14412,-7.696462 -0.34094,-0.167965 0.0144,-2.174927 -0.10999,-2.315918 4.40816,0.343063 5.60603,4.521744 5.60603,6.427126 0,3.072952 -2.49112,5.564092 -5.56409,5.564092 -3.07297,0 -5.56409,-2.49114 -5.56409,-5.564092 z"
     inkscape:connector-curvature="0" />
  <path
     style="mix-blend-mode:normal;fill:#000000;stroke:none;stroke-width:0"
     id="path88"
     d="m 178.56944,56.202951 c 0,-2.098634 1.05452,-6.334283 5.57505,-6.396145 0.002,0.135688 0.15913,2.253359 0.0705,2.284998 -4.83265,-0.02097 -4.25588,7.526586 -0.15748,7.69638 5.17138,0.203737 4.25473,-8.127085 0.14412,-7.696462 -0.34095,-0.167759 0.0144,-2.174926 -0.10999,-2.315918 4.40815,0.343063 5.60603,4.521745 5.60603,6.427126 0,3.072952 -2.49112,5.564092 -5.56409,5.564092 -3.07298,0 -5.5641,-2.49112 -5.5641,-5.564092 z"
     inkscape:connector-curvature="0" />
  <path
     style="mix-blend-mode:normal;fill:none;stroke:#000000;stroke-width:2.05587125"
     id="path92"
     d="m 166.44289,177.10061 4.43383,-8.92182 c 0,0 0.64257,-5.03415 1.36773,-10.55359 0.0999,-0.11759 -2.74598,0.0759 -2.72713,-0.0576 0.0224,0.17146 -0.10012,-3.44013 -0.1104,-3.44817 -0.14432,-0.11349 3.53423,0.067 3.55793,-0.10979 0.4215,-3.14552 0.59376,-6.24553 0.88275,-8.46496 0.0551,-0.42347 1.71914,0.16344 1.77656,0.58656 0.26529,1.95462 0.33903,5.47195 0.43323,7.85199 2.87376,-0.081 2.76451,0.0543 3.38921,0.0479 0.12171,0.0608 -0.0976,3.78216 -0.13075,3.76165 -0.0775,-0.006 -0.91941,-0.0485 -2.79317,-0.0625 -0.10238,0.0401 1.29584,10.71125 1.29584,10.71125 l 3.57287,8.80723 z"
     inkscape:connector-curvature="0" />
  <path
     style="mix-blend-mode:normal;fill:#000000;stroke:none;stroke-width:0"
     id="path94"
     d="m 158.26901,156.3667 c 0,-2.09863 1.05454,-6.33428 5.57507,-6.39612 0.002,0.13568 0.15913,2.25333 0.0705,2.28499 -4.83266,-0.021 -4.25588,7.52659 -0.15748,7.69638 5.17138,0.20374 4.25473,-8.12708 0.14411,-7.69646 -0.34094,-0.16776 0.0144,-2.17495 -0.10999,-2.31592 4.40816,0.34307 5.60604,4.52175 5.60604,6.42713 0,0.13404 -0.004,0.26702 -0.0144,0.39869 -0.20436,2.88688 -2.61113,5.1654 -5.55003,5.1654 -3.07298,0 -5.5641,-2.49114 -5.5641,-5.56409 z"
     inkscape:connector-curvature="0" />
  <path
     style="mix-blend-mode:normal;fill:#000000;stroke:none;stroke-width:0"
     id="path96"
     d="m 167.46831,141.27714 c 0,-2.09861 1.05452,-6.33428 5.57505,-6.39612 0.002,0.13568 0.15913,2.25335 0.0705,2.28501 -4.83265,-0.021 -4.25588,7.52657 -0.15748,7.69638 5.17138,0.20374 4.25473,-8.12708 0.14412,-7.69646 -0.34095,-0.16776 0.0144,-2.17492 -0.10999,-2.31592 4.40816,0.34307 5.60603,4.52175 5.60603,6.42713 0,3.07295 -2.49112,5.56409 -5.56409,5.56409 -3.07297,0 -5.56409,-2.49114 -5.56409,-5.56409 z"
     inkscape:connector-curvature="0" />
  <path
     style="mix-blend-mode:normal;fill:#000000;stroke:none;stroke-width:0"
     id="path98"
     d="m 178.70655,156.0155 c 0,-2.09864 1.05452,-6.33429 5.57505,-6.39615 0.002,0.13569 0.15912,2.25336 0.0705,2.285 -4.83266,-0.021 -4.25588,7.52658 -0.15748,7.69638 5.17137,0.20374 4.25472,-8.12709 0.14411,-7.69646 -0.34094,-0.16776 0.0144,-2.17493 -0.10999,-2.31592 4.40816,0.34306 5.60603,4.52174 5.60603,6.42712 0,3.07296 -2.49112,5.5641 -5.56409,5.5641 -3.07297,0 -5.56409,-2.49112 -5.56409,-5.5641 z"
     inkscape:connector-curvature="0" />
</svg>
