<?xml version="1.0" encoding="UTF-8" standalone="no"?>
<svg
   xmlns:dc="http://purl.org/dc/elements/1.1/"
   xmlns:cc="http://creativecommons.org/ns#"
   xmlns:rdf="http://www.w3.org/1999/02/22-rdf-syntax-ns#"
   xmlns:svg="http://www.w3.org/2000/svg"
   xmlns="http://www.w3.org/2000/svg"
   xmlns:sodipodi="http://sodipodi.sourceforge.net/DTD/sodipodi-0.dtd"
   xmlns:inkscape="http://www.inkscape.org/namespaces/inkscape"
   version="1.1"
   width="63mm"
   height="88mm"
   viewBox="0 0 238.11023 332.59842"
   id="svg44"
   sodipodi:docname="CA.svg"
   inkscape:version="0.92.3 (2405546, 2018-03-11)">
  <sodipodi:namedview
     pagecolor="#ffffff"
     bordercolor="#666666"
     borderopacity="1"
     objecttolerance="10"
     gridtolerance="10"
     guidetolerance="10"
     inkscape:pageopacity="0"
     inkscape:pageshadow="2"
     inkscape:window-width="1920"
     inkscape:window-height="1018"
     id="namedview46"
     showgrid="false"
     inkscape:zoom="1.232376"
     inkscape:cx="109.88771"
     inkscape:cy="95.75"
     inkscape:window-x="0"
     inkscape:window-y="0"
     inkscape:window-maximized="1"
     inkscape:current-layer="svg44"
     units="mm" />
  <metadata
     id="metadata50">
    <rdf:RDF>
      <cc:Work
         rdf:about="">
        <dc:format>image/svg+xml</dc:format>
        <dc:type
           rdf:resource="http://purl.org/dc/dcmitype/StillImage" />
        <dc:title></dc:title>
      </cc:Work>
    </rdf:RDF>
  </metadata>
  <defs
     id="defs48" />
  <text
     id="text6"
     style="font-weight:normal;font-size:41.1174202px;font-family:Serif;text-anchor:start;mix-blend-mode:normal;fill:#000000;fill-rule:nonzero;stroke:none;stroke-width:1.0279355;stroke-linecap:butt;stroke-linejoin:miter;stroke-miterlimit:10;stroke-dasharray:none;stroke-dashoffset:0"
     font-weight="normal"
     stroke-miterlimit="10"
     xml:space="preserve"
     font-size="40"
     x="0.35163119"
     y="29.974768"><tspan
       id="tspan4"
       dy="0"
       x="0.35163119"
       style="stroke-width:1.0279355">A</tspan></text>
  <text
     id="text10"
     style="font-weight:normal;font-size:41.1174202px;font-family:Serif;text-anchor:start;mix-blend-mode:normal;fill:#000000;fill-rule:nonzero;stroke:none;stroke-width:1.0279355;stroke-linecap:butt;stroke-linejoin:miter;stroke-miterlimit:10;stroke-dasharray:none;stroke-dashoffset:0"
     font-weight="normal"
     stroke-miterlimit="10"
     data-paper-data="{&quot;origRot&quot;:-45}"
     xml:space="preserve"
     font-size="40"
     transform="scale(-1)"
     x="-240.39659"
     y="-302.62366"><tspan
       id="tspan8"
       dy="0"
       x="-240.39659"
       style="stroke-width:1.0279355">A</tspan></text>
  <path
     style="mix-blend-mode:normal;fill:#000000;stroke:#000000;stroke-width:1.0279355"
     id="path12"
     d="m 101.74799,221.02876 14.66751,-29.51412 c 0,0 2.12563,-16.65344 4.5246,-34.91214 0.33018,-0.38867 -9.08398,0.25108 -9.02164,-0.19058 0.0742,0.56715 -0.3315,-11.38019 -0.3653,-11.40678 -0.4776,-0.37571 11.69144,0.22181 11.76988,-0.36349 1.39436,-10.40561 1.96424,-20.66069 2.92027,-28.0028 0.18235,-1.40089 5.687,0.54055 5.87698,1.94044 0.87755,6.46606 1.12152,18.10163 1.43317,25.97502 9.50657,-0.26765 9.14519,0.17948 11.21177,0.15851 0.40279,0.20168 -0.32326,12.5117 -0.43224,12.44384 -0.25617,-0.0232 -3.04146,-0.16057 -9.23999,-0.20697 -0.33846,0.1324 4.28674,35.4337 4.28674,35.4337 l 11.81936,29.135 z"
     inkscape:connector-curvature="0" />
  <path
     style="mix-blend-mode:normal;fill:#000000;stroke:none;stroke-width:0"
     id="path14"
     d="m 76.068495,152.4393 c 0,-6.94241 3.488464,-20.9543 18.44279,-21.1589 0.0103,0.44885 0.5263,7.4543 0.23299,7.55896 -15.986803,-0.0697 -14.07875,24.89853 -0.52086,25.46024 17.107365,0.67414 14.074955,-26.88506 0.47655,-25.46049 -1.12791,-0.55531 0.0489,-7.19482 -0.36374,-7.66122 14.582535,1.13488 18.545235,14.95829 18.545235,21.26141 0,0.44347 -0.0165,0.88326 -0.0465,1.3189 -0.67616,9.55003 -8.63781,17.08758 -18.359945,17.08758 -10.165601,0 -18.406457,-8.24086 -18.406457,-18.40646 z"
     inkscape:connector-curvature="0" />
  <path
     style="mix-blend-mode:normal;fill:#000000;stroke:none;stroke-width:0"
     id="path16"
     d="m 106.50037,102.52174 c 0,-6.94241 3.48846,-20.954302 18.44278,-21.158902 0.0103,0.448858 0.52633,7.4543 0.23301,7.558965 -15.9868,-0.06969 -14.07874,24.898537 -0.52085,25.460237 17.10734,0.67414 14.07493,-26.885059 0.47655,-25.460484 -1.12791,-0.555311 0.0489,-7.194829 -0.36374,-7.661224 14.58252,1.134882 18.54522,14.958291 18.54522,21.261408 0,10.1656 -8.24086,18.40648 -18.40645,18.40648 -10.16561,0 -18.40646,-8.24086 -18.40646,-18.40646 z"
     inkscape:connector-curvature="0" />
  <path
     style="mix-blend-mode:normal;fill:#000000;stroke:none;stroke-width:0"
     id="path18"
     d="m 143.67735,151.27742 c 0,-6.94241 3.48846,-20.9543 18.44276,-21.1589 0.0103,0.44886 0.52633,7.4543 0.23302,7.55897 -15.98683,-0.0697 -14.07875,24.89853 -0.52086,25.46023 17.10736,0.67414 14.07493,-26.88506 0.47653,-25.46048 -1.12791,-0.55531 0.0489,-7.19483 -0.36374,-7.66122 14.58254,1.13488 18.54523,14.95829 18.54523,21.2614 0,10.1656 -8.24086,18.40648 -18.40646,18.40648 -10.16563,0 -18.40646,-8.24085 -18.40646,-18.40646 z"
     inkscape:connector-curvature="0" />
  <path
     style="mix-blend-mode:normal;stroke:#000000;stroke-width:1.0279355"
     id="path20"
     d="m 8.175084,76.637069 4.433835,-8.921822 c 0,0 0.642562,-5.03417 1.36775,-10.553587 0.09992,-0.117596 -2.746006,0.07586 -2.727154,-0.05756 0.02241,0.17146 -0.100121,-3.440109 -0.1104,-3.448148 -0.144322,-0.113484 3.534207,0.06702 3.557911,-0.109783 0.421495,-3.145503 0.593777,-6.24551 0.88277,-8.464967 0.0551,-0.423468 1.71914,0.163442 1.776561,0.586561 0.265269,1.954619 0.339033,5.471947 0.433233,7.851988 2.873738,-0.0808 2.764489,0.05428 3.389206,0.0479 0.121708,0.06106 -0.09765,3.782165 -0.130547,3.761647 -0.07751,-0.0062 -0.919406,-0.04852 -2.793148,-0.0625 -0.102382,0.04009 1.295836,10.711252 1.295836,10.711252 l 3.572878,8.807228 z"
     inkscape:connector-curvature="0" />
  <path
     style="mix-blend-mode:normal;stroke:none;stroke-width:0"
     id="path22"
     d="m 0.00127,55.903158 c 0,-2.098612 1.054538,-6.334282 5.575069,-6.396123 0.0021,0.135688 0.159125,2.253358 0.07052,2.284998 -4.832654,-0.02097 4.097268,-0.430705 -0.01439,-8.2e-5 -0.340967,-0.167965 0.01439,-2.174927 -0.109989,-2.315918 4.408157,0.343063 5.606031,4.521744 5.606031,6.427105 0,0.134042 -0.0041,0.266996 -0.01439,0.398695 C 10.909767,59.188707 8.503,61.467229 5.564091,61.467229 2.491119,61.467229 0,58.97611 0,55.903138 Z"
     inkscape:connector-curvature="0" />
  <path
     style="mix-blend-mode:normal;stroke:none;stroke-width:0"
     id="path24"
     d="m 9.200511,40.813579 c 0,-2.098612 1.054538,-6.334282 5.57507,-6.396123 0.0021,0.135688 0.159124,2.253358 0.07052,2.284998 -4.832654,-0.02097 4.097269,-0.430705 -0.01439,-8.2e-5 -0.340966,-0.167759 0.01439,-2.174927 -0.109989,-2.315918 4.408157,0.343063 5.606031,4.521744 5.606031,6.427105 0,3.072972 -2.491119,5.564091 -5.564091,5.564091 -3.072972,0 -5.564092,-2.491119 -5.564092,-5.564091 z"
     inkscape:connector-curvature="0" />
  <path
     style="mix-blend-mode:normal;stroke:none;stroke-width:0"
     id="path26"
     d="m 20.438745,55.551933 c 0,-2.098612 1.054538,-6.334282 5.575069,-6.396123 0.0021,0.135688 0.159125,2.253358 0.07052,2.284998 -4.832654,-0.02097 4.097268,-0.430705 -0.01439,-8.2e-5 -0.340967,-0.167759 0.01439,-2.174927 -0.10999,-2.315918 4.408158,0.343063 5.606032,4.521744 5.606032,6.427105 0,3.072972 -2.49112,5.564091 -5.564092,5.564091 -3.072972,0 -5.564091,-2.491119 -5.564091,-5.564091 z"
     inkscape:connector-curvature="0" />
  <path
     style="mix-blend-mode:normal;stroke:#000000;stroke-width:1.0279355"
     id="path30"
     d="m 231.78988,252.73091 -4.43383,8.92182 c 0,0 -0.64255,5.03415 -1.36773,10.55359 -0.0997,0.1176 2.746,-0.0759 2.72713,0.0576 -0.0224,-0.17146 0.10012,3.44013 0.1104,3.44816 0.14432,0.11349 -3.53423,-0.067 -3.55793,0.10979 -0.4215,3.14552 -0.59376,6.24553 -0.88277,8.46496 -0.0551,0.42349 -1.71912,-0.16344 -1.77656,-0.58656 -0.26528,-1.95462 -0.33902,-5.47192 -0.43324,-7.85198 -2.87375,0.0808 -2.76448,-0.0543 -3.3892,-0.0479 -0.12171,-0.0611 0.0977,-3.78216 0.13076,-3.76164 0.0775,0.006 0.91941,0.0485 2.79317,0.0625 0.10237,-0.0401 -1.29585,-10.71125 -1.29585,-10.71125 l -3.57287,-8.80723 z"
     inkscape:connector-curvature="0" />
  <path
     style="mix-blend-mode:normal;stroke:none;stroke-width:0"
     id="path32"
     d="m 239.96372,273.46482 c 0,2.09862 -1.05454,6.33428 -5.57507,6.39613 -0.002,-0.13569 -0.15913,-2.25336 -0.0705,-2.285 4.83265,0.021 -4.09725,0.4307 0.0144,8e-5 0.34097,0.16776 -0.0144,2.17493 0.10999,2.31592 -4.40816,-0.34307 -5.60603,-4.52175 -5.60603,-6.42713 0,-0.13404 0.004,-0.26701 0.0144,-0.39869 0.20435,-2.88688 2.61112,-5.1654 5.55003,-5.1654 3.07297,0 5.56409,2.49112 5.56409,5.56409 z"
     inkscape:connector-curvature="0" />
  <path
     style="mix-blend-mode:normal;stroke:none;stroke-width:0"
     id="path34"
     d="m 230.76445,288.5544 c 0,2.09861 -1.05451,6.33428 -5.57507,6.39614 -0.002,-0.13568 -0.15912,-2.25335 -0.0705,-2.28501 4.83265,0.021 -4.09727,0.43072 0.0144,8e-5 0.34094,0.16796 -0.0144,2.17493 0.10999,2.3159 -4.40816,-0.34307 -5.60605,-4.52175 -5.60605,-6.42711 0,-3.07295 2.49114,-5.56409 5.56409,-5.56409 3.07297,0 5.56409,2.49114 5.56409,5.56409 z"
     inkscape:connector-curvature="0" />
  <path
     style="mix-blend-mode:normal;stroke:none;stroke-width:0"
     id="path36"
     d="m 219.52622,273.81605 c 0,2.09863 -1.05454,6.33428 -5.57505,6.39614 -0.002,-0.13569 -0.15912,-2.25336 -0.0705,-2.285 4.83266,0.021 -4.09726,0.43071 0.0144,9e-5 0.34094,0.16775 -0.0144,2.17492 0.10998,2.31589 -4.40815,-0.34306 -5.60605,-4.52174 -5.60605,-6.42712 0,-3.07295 2.49114,-5.56409 5.56409,-5.56409 3.07298,0 5.5641,2.49114 5.5641,5.56409 z"
     inkscape:connector-curvature="0" />
</svg>
