<?xml version="1.0" encoding="UTF-8" standalone="no"?>
<svg
   xmlns:dc="http://purl.org/dc/elements/1.1/"
   xmlns:cc="http://creativecommons.org/ns#"
   xmlns:rdf="http://www.w3.org/1999/02/22-rdf-syntax-ns#"
   xmlns:svg="http://www.w3.org/2000/svg"
   xmlns="http://www.w3.org/2000/svg"
   xmlns:sodipodi="http://sodipodi.sourceforge.net/DTD/sodipodi-0.dtd"
   xmlns:inkscape="http://www.inkscape.org/namespaces/inkscape"
   version="1.1"
   width="63mm"
   height="88mm"
   viewBox="0 0 238.11023 332.59842"
   id="svg137"
   sodipodi:docname="CJ.svg"
   inkscape:version="0.92.3 (2405546, 2018-03-11)">
  <sodipodi:namedview
     pagecolor="#ffffff"
     bordercolor="#666666"
     borderopacity="1"
     objecttolerance="10"
     gridtolerance="10"
     guidetolerance="10"
     inkscape:pageopacity="0"
     inkscape:pageshadow="2"
     inkscape:window-width="1920"
     inkscape:window-height="1018"
     id="namedview139"
     showgrid="false"
     inkscape:zoom="1.232376"
     inkscape:cx="109.88771"
     inkscape:cy="95.75"
     inkscape:window-x="0"
     inkscape:window-y="0"
     inkscape:window-maximized="1"
     inkscape:current-layer="svg137"
     units="mm" />
  <metadata
     id="metadata141">
    <rdf:RDF>
      <cc:Work
         rdf:about="">
        <dc:format>image/svg+xml</dc:format>
        <dc:type
           rdf:resource="http://purl.org/dc/dcmitype/StillImage" />
        <dc:title></dc:title>
      </cc:Work>
    </rdf:RDF>
  </metadata>
  <defs
     id="defs7">
    <radialGradient
       id="color-1"
       gradientUnits="userSpaceOnUse"
       r="30.75"
       cy="180"
       cx="240.7"
       gradientTransform="matrix(2.04127,0,0,2.04127,-369.88972,-204.05482)">
      <stop
         id="stop2"
         stop-color="#000000"
         offset="0" />
      <stop
         id="stop4"
         stop-color="#ffffff"
         offset="1" />
    </radialGradient>
  </defs>
  <text
     id="text13"
     style="font-weight:normal;font-size:40.82540131px;font-family:Serif;text-anchor:start;mix-blend-mode:normal;fill:#000000;fill-rule:nonzero;stroke:none;stroke-width:1.02063501;stroke-linecap:butt;stroke-linejoin:miter;stroke-miterlimit:10;stroke-dasharray:none;stroke-dashoffset:0"
     font-weight="normal"
     stroke-miterlimit="10"
     xml:space="preserve"
     font-size="40"
     x="8.9142876"
     y="32.124012"><tspan
       id="tspan11"
       dy="0"
       x="8.9142876"
       style="stroke-width:1.02063501">J</tspan></text>
  <text
     id="text17"
     style="font-weight:normal;font-size:40.82540131px;font-family:Serif;text-anchor:start;mix-blend-mode:normal;fill:#000000;fill-rule:nonzero;stroke:none;stroke-width:1.02063501;stroke-linecap:butt;stroke-linejoin:miter;stroke-miterlimit:10;stroke-dasharray:none;stroke-dashoffset:0"
     font-weight="normal"
     stroke-miterlimit="10"
     data-paper-data="{&quot;origRot&quot;:-45}"
     xml:space="preserve"
     font-size="40"
     transform="scale(-1)"
     x="-231.3288"
     y="-302.83655"><tspan
       id="tspan15"
       dy="0"
       x="-231.3288"
       style="stroke-width:1.02063501">J</tspan></text>
  <path
     style="mix-blend-mode:normal;stroke:#000000;stroke-width:1.02063501"
     id="path19"
     d="m 8.117028,83.279109 4.402346,-8.858459 c 0,0 0.637998,-4.998417 1.358036,-10.478635 0.09921,-0.116761 -2.726504,0.07532 -2.707785,-0.05716 0.02225,0.170242 -0.09941,-3.415678 -0.109617,-3.423659 -0.143297,-0.112678 3.509107,0.06654 3.532643,-0.109208 0.418501,-3.123163 0.589559,-6.201154 0.876501,-8.404848 0.05471,-0.42046 1.70693,0.162281 1.763943,0.582395 0.263385,1.940738 0.336626,5.433085 0.430157,7.796223 2.853328,-0.08043 2.744855,0.05389 3.365135,0.04756 0.120843,0.06063 -0.09696,3.755304 -0.129824,3.734933 -0.07696,-0.0061 -0.912877,-0.04817 -2.773311,-0.06206 -0.101655,0.03981 1.286633,10.63518 1.286633,10.63518 l 3.547503,8.744679 z"
     inkscape:connector-curvature="0" />
  <path
     style="mix-blend-mode:normal;stroke:none;stroke-width:0"
     id="path21"
     d="m 0.001265,62.692451 c 0,-2.083708 1.047049,-6.289296 5.535475,-6.350697 0.002,0.134724 0.157994,2.237354 0.07002,2.268769 -4.798331,-0.02082 4.06817,-0.427646 -0.01429,-8.1e-5 -0.338545,-0.166568 0.01429,-2.15948 -0.109208,-2.299471 4.37685,0.340627 5.566216,4.489631 5.566216,6.38146 0,0.13309 -0.0041,0.265099 -0.01429,0.395863 -0.202903,2.866372 -2.592577,5.128712 -5.510613,5.128712 C 2.473427,68.217006 0,65.743578 0,62.692431 Z"
     inkscape:connector-curvature="0" />
  <path
     style="mix-blend-mode:normal;stroke:none;stroke-width:0"
     id="path23"
     d="m 9.135172,47.710039 c 0,-2.083708 1.047049,-6.289296 5.535476,-6.350697 0.002,0.134724 0.157994,2.237354 0.07002,2.26877 -4.798332,-0.02082 4.06817,-0.427646 -0.01429,-8.2e-5 -0.338544,-0.166568 0.01429,-2.15948 -0.109208,-2.29947 4.376851,0.340626 5.566217,4.48963 5.566217,6.381459 0,3.051147 -2.473427,5.524575 -5.524575,5.524575 -3.051147,0 -5.524575,-2.473428 -5.524575,-5.524575 z"
     inkscape:connector-curvature="0" />
  <path
     style="mix-blend-mode:normal;stroke:none;stroke-width:0"
     id="path25"
     d="m 20.293591,62.343721 c 0,-2.083709 1.047049,-6.289296 5.535476,-6.350698 0.002,0.134724 0.157994,2.237355 0.07001,2.26877 -4.798332,-0.02082 4.06817,-0.427646 -0.01429,-8.2e-5 -0.338544,-0.166567 0.01429,-2.15948 -0.109208,-2.29947 4.376851,0.340627 5.566217,4.48963 5.566217,6.381459 0,3.051148 -2.473427,5.524575 -5.524575,5.524575 -3.051147,0 -5.524575,-2.473427 -5.524575,-5.524575 z"
     inkscape:connector-curvature="0" />
  <path
     style="mix-blend-mode:normal;stroke:#000000;stroke-width:1.02063501"
     id="path29"
     d="m 232.50029,251.54388 -4.40235,8.85846 c 0,0 -0.63797,4.99839 -1.35801,10.47863 -0.099,0.11676 2.7265,-0.0753 2.70776,0.0572 -0.0222,-0.17024 0.0996,3.4157 0.10962,3.42368 0.1433,0.11268 -3.50913,-0.0665 -3.53266,0.109 -0.4185,3.12319 -0.58954,6.20118 -0.8765,8.40485 -0.0547,0.42048 -1.70691,-0.16228 -1.76395,-0.5824 -0.2634,-1.94073 -0.3366,-5.43306 -0.43015,-7.79622 -2.85335,0.0802 -2.74486,-0.0539 -3.36514,-0.0476 -0.12084,-0.0606 0.097,-3.7553 0.12983,-3.73493 0.077,0.006 0.91287,0.0482 2.77333,0.062 0.10165,-0.0398 -1.28664,-10.63518 -1.28664,-10.63518 l -3.5475,-8.74468 z"
     inkscape:connector-curvature="0" />
  <path
     style="mix-blend-mode:normal;stroke:none;stroke-width:0"
     id="path31"
     d="m 240.61607,272.13054 c 0,2.0837 -1.04705,6.28929 -5.53547,6.35069 -0.002,-0.13472 -0.158,-2.23735 -0.07,-2.26877 4.79834,0.0208 -4.06815,0.42765 0.0143,9e-5 0.33855,0.16677 -0.0143,2.15948 0.10921,2.29947 -4.37685,-0.34063 -5.56622,-4.48964 -5.56622,-6.38148 0,-0.13309 0.004,-0.26512 0.0143,-0.39587 0.2029,-2.86637 2.59258,-5.12871 5.51061,-5.12871 3.05115,0 5.52458,2.47343 5.52458,5.52458 z"
     inkscape:connector-curvature="0" />
  <path
     style="mix-blend-mode:normal;stroke:none;stroke-width:0"
     id="path33"
     d="m 231.48215,287.11295 c 0,2.08371 -1.04703,6.28929 -5.53548,6.35072 -0.002,-0.13473 -0.15799,-2.23736 -0.07,-2.26879 4.79834,0.0208 -4.06816,0.42766 0.0143,8e-5 0.33853,0.16656 -0.0143,2.15948 0.10921,2.29945 -4.37685,-0.34063 -5.56624,-4.48963 -5.56624,-6.38146 0,-3.05113 2.47345,-5.52458 5.52458,-5.52458 3.05115,0 5.52457,2.47345 5.52457,5.52458 z"
     inkscape:connector-curvature="0" />
  <path
     style="mix-blend-mode:normal;stroke:none;stroke-width:0"
     id="path35"
     d="m 220.32373,272.47927 c 0,2.08372 -1.04705,6.28929 -5.53546,6.35071 -0.002,-0.13472 -0.15799,-2.23735 -0.07,-2.26877 4.79833,0.0208 -4.06817,0.42765 0.0143,9e-5 0.33852,0.16677 -0.0143,2.15948 0.1092,2.29945 -4.37685,-0.34063 -5.56623,-4.48963 -5.56623,-6.38148 0,-3.05113 2.47344,-5.52458 5.52457,-5.52458 3.05115,0 5.52458,2.47345 5.52458,5.52458 z"
     inkscape:connector-curvature="0" />
  <path
     style="mix-blend-mode:normal;fill:#02005e;stroke-width:2.04127002"
     id="path39"
     d="m 33.159043,163.37379 c 0,-48.19473 39.069561,-87.264295 87.264297,-87.264295 48.19475,0 87.26429,39.069565 87.26429,87.264295 0,48.19475 -39.06954,87.2643 -87.26429,87.2643 -48.194736,0 -87.264297,-39.06957 -87.264297,-87.2643 z"
     inkscape:connector-curvature="0" />
  <path
     style="mix-blend-mode:normal;fill:url(#color-1);stroke-width:2.04127002"
     id="path41"
     d="m 58.674918,163.37379 c 0,-34.66638 28.102675,-62.76905 62.769052,-62.76905 34.66638,0 62.76906,28.10267 62.76906,62.76905 0,34.66638 -28.10268,62.76905 -62.76906,62.76905 -34.666377,0 -62.769052,-28.10267 -62.769052,-62.76905 z"
     inkscape:connector-curvature="0" />
  <path
     style="mix-blend-mode:normal;fill:#02005e;stroke-width:2.04127002"
     id="path43"
     d="m 88.783649,163.37379 c 0,-17.47413 14.165561,-31.63968 31.639691,-31.63968 17.47413,0 31.63968,14.16555 31.63968,31.63968 0,17.47413 -14.16555,31.63969 -31.63968,31.63969 -17.47413,0 -31.639691,-14.16556 -31.639691,-31.63969 z"
     inkscape:connector-curvature="0" />
  <path
     style="mix-blend-mode:normal;fill:#ffb89a;stroke:#000000;stroke-width:1.02063501;stroke-linecap:butt"
     id="path47"
     d="m 135.69904,255.82301 -1.02064,45.92858 H 86.708558 c 0,0 -19.717648,-32.57271 -10.206351,-33.68096 19.392062,-2.25956 10.206351,-26.53651 10.206351,-26.53651 0,0 21.852282,0 30.619052,0 6.59938,0 18.37143,14.28889 18.37143,14.28889 z"
     inkscape:connector-curvature="0" />
  <path
     style="mix-blend-mode:normal;fill:#000000;stroke:none;stroke-width:0;stroke-linecap:butt"
     id="path49"
     d="m 184.05079,238.58471 c -2.95609,6.45672 3.87745,11.78238 0.64647,18.83956 -4.53156,9.89789 -14.90795,15.10388 -17.34063,20.41735 -3.96541,8.66131 -3.1615,24.36358 -3.1615,24.36358 h -55.11429 c 0,0 -1.04127,-15.18388 2.80776,-23.59098 2.86827,-6.2649 14.48192,-14.17327 19.97963,-26.18143 2.28771,-4.99682 -5.62958,-7.9554 -3.52746,-12.54685 5.23974,-11.44469 60.65385,-12.09963 55.71002,-1.30123 z"
     inkscape:connector-curvature="0" />
  <path
     style="mix-blend-mode:normal;fill:#b3aca1;stroke:none;stroke-width:0;stroke-linecap:butt"
     id="path51"
     d="m 164.8217,232.41216 c -2.95609,6.45672 3.48767,18.40854 0.25669,25.46572 -4.53156,9.89789 -14.90795,15.10389 -17.34063,20.41735 -3.96542,8.66132 -3.1615,24.36358 -3.1615,24.36358 h -14.28889 c 0,0 -1.04127,-15.18388 2.80776,-23.59098 2.86827,-6.2649 14.48192,-14.17327 19.97963,-26.18143 2.28771,-4.99682 -6.01934,-15.75089 -3.91724,-20.34234 7.18862,-0.14125 5.79657,-1.57571 15.66416,-0.13186 z"
     inkscape:connector-curvature="0" />
  <path
     style="mix-blend-mode:normal;fill:#000000;stroke:#000000;stroke-width:1.02063501;stroke-linecap:butt"
     id="path53"
     d="m 86.731257,282.94923 c 0,-1.69105 1.873522,-3.06191 4.184602,-3.06191 2.31109,0 4.1846,1.37086 4.1846,3.06191 0,1.69105 -1.87351,3.0619 -4.1846,3.0619 -2.31108,0 -4.184602,-1.37085 -4.184602,-3.0619 z"
     inkscape:connector-curvature="0" />
  <path
     style="mix-blend-mode:normal;fill:none;stroke:#000000;stroke-width:1.02063501;stroke-linecap:round"
     id="path55"
     d="m 83.771415,287.31754 11.022854,2.85778 4.4908,1.63302"
     inkscape:connector-curvature="0" />
  <path
     style="mix-blend-mode:normal;fill:none;stroke:#000000;stroke-width:1.02063501;stroke-linecap:round"
     id="path57"
     d="m 88.851889,258.96657 8.57334,-3.67429"
     inkscape:connector-curvature="0" />
  <path
     style="mix-blend-mode:normal;fill:#02005e;stroke:#000000;stroke-width:2.04127002;stroke-linecap:butt"
     id="path59"
     d="m 163.73164,301.24825 4.58361,25.66818 c 0,0 -15.89758,-12.96668 -23.83475,-7.33375 -11.62552,8.25048 -26.57511,8.25048 -37.58558,0.91671 -14.001991,-9.32634 -32.085232,6.41704 -32.085232,6.41704 l 7.333773,-25.66818 z"
     inkscape:connector-curvature="0" />
  <path
     style="mix-blend-mode:normal;stroke-width:2.04127002"
     id="path61"
     d="m 128.20813,304.48279 -1.91192,3.84718 c 0,0 -0.27706,2.17077 -0.58978,4.55081 -0.0431,0.0506 1.1841,-0.0327 1.17598,0.0249 -0.0102,-0.0739 0.0433,1.48341 0.0476,1.48686 0.0623,0.049 -1.52399,-0.029 -1.53422,0.0474 -0.18167,1.35636 -0.25604,2.69313 -0.38066,3.65016 -0.0239,0.18249 -0.7413,-0.0704 -0.76606,-0.25294 -0.11432,-0.84286 -0.14616,-2.35954 -0.18678,-3.38585 -1.23919,0.0349 -1.19206,-0.0235 -1.46147,-0.0206 -0.0525,-0.0263 0.0421,-1.63089 0.0563,-1.62205 0.0335,0.002 0.39646,0.021 1.20443,0.0269 0.0441,-0.0163 -0.55878,-4.6188 -0.55878,-4.6188 l -1.54064,-3.79776 z"
     inkscape:connector-curvature="0" />
  <path
     style="mix-blend-mode:normal;stroke-width:2.04127002"
     id="path63"
     d="m 131.73275,313.42345 c 0,0.90493 -0.45471,2.7314 -2.40402,2.75806 -0.001,-0.0586 -0.0686,-0.97166 -0.0304,-0.9853 2.08389,0.008 -1.76678,0.18576 0.006,2e-5 0.14698,0.0725 -0.006,0.93786 0.0474,0.99865 -1.90085,-0.14799 -2.41737,-1.94982 -2.41737,-2.77143 0,-0.0578 0.002,-0.11513 0.006,-0.17188 0.0882,-1.24484 1.12595,-2.22737 2.39323,-2.22737 1.32509,0 2.39929,1.0742 2.39929,2.39929 z"
     inkscape:connector-curvature="0" />
  <path
     style="mix-blend-mode:normal;stroke-width:2.04127002"
     id="path65"
     d="m 127.76595,319.93022 c 0,0.90496 -0.45471,2.7314 -2.40402,2.75806 -0.001,-0.0586 -0.0686,-0.97166 -0.0304,-0.9853 2.08389,0.008 -1.76678,0.18576 0.006,2e-5 0.14698,0.0725 -0.006,0.93786 0.0474,0.99865 -1.90085,-0.14799 -2.41739,-1.94982 -2.41739,-2.77143 0,-1.32509 1.07422,-2.39929 2.39929,-2.39929 1.32509,0 2.39928,1.0742 2.39928,2.39929 z"
     inkscape:connector-curvature="0" />
  <path
     style="mix-blend-mode:normal;stroke-width:2.04127002"
     id="path67"
     d="m 122.91991,313.57491 c 0,0.90494 -0.45471,2.7314 -2.40402,2.75808 -0.001,-0.0586 -0.0686,-0.97166 -0.0304,-0.98532 2.0839,0.008 -1.76678,0.18576 0.006,4e-5 0.14697,0.0725 -0.006,0.93784 0.0474,0.99865 -1.90083,-0.14799 -2.41738,-1.94982 -2.41738,-2.77143 0,-1.32509 1.0742,-2.39929 2.39929,-2.39929 1.32509,0 2.39929,1.0742 2.39929,2.39929 z"
     inkscape:connector-curvature="0" />
  <path
     style="mix-blend-mode:normal;fill:#ffb89a;stroke:#000000;stroke-width:1.02063501;stroke-linecap:butt"
     id="path73"
     d="m 111.98273,74.124829 1.02063,-45.928576 h 47.96985 c 0,0 19.71765,32.572709 10.20635,33.680956 -19.39207,2.259563 -10.20635,26.53651 -10.20635,26.53651 0,0 -21.85229,0 -30.61905,0 -6.59939,0 -18.37143,-14.28889 -18.37143,-14.28889 z"
     inkscape:connector-curvature="0" />
  <path
     style="mix-blend-mode:normal;fill:#000000;stroke:none;stroke-width:0;stroke-linecap:butt"
     id="path75"
     d="M 64.864764,91.363109 C 67.820849,84.906389 60.98731,79.580736 64.218293,72.523555 68.749852,62.625661 79.12624,57.419667 81.558923,52.1062 85.524335,43.444887 84.720422,27.742622 84.720422,27.742622 h 55.114288 c 0,0 1.04128,15.183885 -2.80776,23.590978 -2.86827,6.264903 -14.48192,14.173273 -19.97963,26.181431 -2.28771,4.996825 5.62958,7.955401 3.52746,12.54685 -5.23974,11.444689 -60.65385,12.099629 -55.710016,1.301228 z"
     inkscape:connector-curvature="0" />
  <path
     style="mix-blend-mode:normal;fill:#b3aca1;stroke:none;stroke-width:0;stroke-linecap:butt"
     id="path77"
     d="M 84.093854,97.535665 C 87.049939,91.078944 80.606181,79.127124 83.837164,72.069944 88.368719,62.17205 98.745109,56.966056 101.1778,51.652589 c 3.96541,-8.661313 3.16149,-24.363579 3.16149,-24.363579 h 14.28889 c 0,0 1.04128,15.183886 -2.80776,23.590979 -2.86827,6.264903 -14.48192,14.173273 -19.979631,26.181431 -2.28771,4.996825 6.019341,15.750889 3.91724,20.342338 -7.18862,0.141256 -5.79657,1.575718 -15.664155,0.131866 z"
     inkscape:connector-curvature="0" />
  <path
     style="mix-blend-mode:normal;fill:#000000;stroke:#000000;stroke-width:1.02063501;stroke-linecap:butt"
     id="path79"
     d="m 160.95049,46.998616 c 0,1.691049 -1.87352,3.061905 -4.1846,3.061905 -2.31109,0 -4.18461,-1.370856 -4.18461,-3.061905 0,-1.691049 1.87352,-3.061905 4.18461,-3.061905 2.31108,0 4.1846,1.370856 4.1846,3.061905 z"
     inkscape:connector-curvature="0" />
  <path
     style="mix-blend-mode:normal;fill:none;stroke:#000000;stroke-width:1.02063501;stroke-linecap:round"
     id="path81"
     d="M 163.91033,42.630298 152.88747,39.77252 148.39668,38.139504"
     inkscape:connector-curvature="0" />
  <path
     style="mix-blend-mode:normal;fill:none;stroke:#000000;stroke-width:1.02063501;stroke-linecap:round"
     id="path83"
     d="m 150.25654,74.655559 8.57333,-3.674286"
     inkscape:connector-curvature="0" />
  <path
     style="mix-blend-mode:normal;fill:#02005e;stroke:#000000;stroke-width:2.04127002;stroke-linecap:butt"
     id="path85"
     d="M 85.183913,28.699589 80.600302,3.0314151 c 0,0 15.897577,12.9666779 23.834748,7.3337529 11.62552,-8.2504875 26.57511,-8.2504875 37.58558,-0.9167143 14.00199,9.3263383 32.08523,-6.4170386 32.08523,-6.4170386 l -7.33377,25.6681739 z"
     inkscape:connector-curvature="0" />
  <path
     style="mix-blend-mode:normal;stroke-width:2.04127002"
     id="path87"
     d="m 120.29917,25.465034 1.91191,-3.847182 c 0,0 0.27706,-2.170788 0.58979,-4.550807 0.0431,-0.05062 -1.1841,0.03266 -1.17598,-0.0249 0.0102,0.07389 -0.0433,-1.483391 -0.0476,-1.486861 -0.0623,-0.04899 1.52399,0.02899 1.5342,-0.04736 0.18167,-1.356363 0.25603,-2.693109 0.38065,-3.650158 0.0239,-0.182694 0.74131,0.07042 0.76607,0.252933 0.11431,0.842841 0.14616,2.359545 0.18678,3.385855 1.23919,-0.03491 1.19208,0.02347 1.46147,0.02062 0.0525,0.02633 -0.0423,1.630893 -0.0563,1.622055 -0.0335,-0.002 -0.39646,-0.02103 -1.20443,-0.02695 -0.0441,0.01633 0.55877,4.618802 0.55877,4.618802 l 1.54065,3.797762 z"
     inkscape:connector-curvature="0" />
  <path
     style="mix-blend-mode:normal;stroke-width:2.04127002"
     id="path89"
     d="m 116.77455,16.524373 c 0,-0.904956 0.45473,-2.731403 2.40402,-2.758082 0.001,0.05858 0.0686,0.971665 0.0304,0.985301 -2.0839,-0.0082 1.76676,-0.185756 -0.006,-2.1e-5 -0.14697,-0.07246 0.006,-0.937861 -0.0473,-0.99865 1.90085,0.147992 2.41737,1.949821 2.41737,2.771432 0,0.05777 -0.002,0.115128 -0.006,0.171875 -0.0882,1.244848 -1.12595,2.227373 -2.39323,2.227373 -1.32509,0 -2.39929,-1.074198 -2.39929,-2.399289 z"
     inkscape:connector-curvature="0" />
  <path
     style="mix-blend-mode:normal;stroke-width:2.04127002"
     id="path91"
     d="m 120.74135,10.017601 c 0,-0.9049566 0.45471,-2.7314034 2.40402,-2.7580828 0.001,0.058584 0.0686,0.9716649 0.0304,0.985321 -2.0839,-0.00817 1.76678,-0.1857555 -0.006,-4.08e-5 -0.14697,-0.072465 0.006,-0.9378411 -0.0473,-0.9986505 1.90085,0.147992 2.41739,1.9498211 2.41739,2.7714321 0,1.325091 -1.07422,2.399289 -2.39931,2.399289 -1.32509,0 -2.39929,-1.074198 -2.39929,-2.399289 z"
     inkscape:connector-curvature="0" />
  <path
     style="mix-blend-mode:normal;stroke-width:2.04127002"
     id="path93"
     d="m 125.58738,16.372932 c 0,-0.904957 0.45474,-2.731403 2.40403,-2.758083 0.001,0.05859 0.0686,0.971665 0.0304,0.985321 -2.08389,-0.0082 1.76678,-0.185755 -0.006,-4.1e-5 -0.14697,-0.07247 0.006,-0.937861 -0.0474,-0.99865 1.90085,0.147992 2.41738,1.949821 2.41738,2.771432 0,1.325091 -1.0742,2.399289 -2.39929,2.399289 -1.32509,0 -2.39929,-1.074198 -2.39929,-2.399289 z"
     inkscape:connector-curvature="0" />
  <path
     style="mix-blend-mode:normal;fill:#e4ce00;stroke:none;stroke-width:0"
     id="path99"
     d="m 30.604108,158.96724 c 0,2.57465 -2.087199,4.66183 -4.661853,4.66183 -2.574654,0 -4.661832,-2.08718 -4.661832,-4.66183 0,-2.57465 2.087178,-4.66185 4.661832,-4.66185 2.574654,0 4.661853,2.0872 4.661853,4.66185 z"
     inkscape:connector-curvature="0" />
  <path
     style="mix-blend-mode:normal;fill:#e4ce00;stroke:#02005e;stroke-width:0"
     id="path101"
     d="m 29.90289,170.68111 v 83.72777 h -7.539492 v -83.72777 z"
     inkscape:connector-curvature="0" />
  <path
     style="mix-blend-mode:normal;fill:#ffb89a;stroke:#000000;stroke-width:1.02063501"
     id="path103"
     d="m 18.822407,176.43859 c 0,-10.22117 4.69535,-18.50709 10.487352,-18.50709 5.792001,0 10.487331,8.2859 10.487331,18.50709 0,2.90012 1.242235,7.30757 0.06675,14.76688 -0.926206,5.87773 -8.533774,8.26794 -9.359243,6.76877 -2.973865,-5.4009 3.824768,-9.52661 0.971093,-13.49764 -3.380017,-4.70347 -12.653363,2.18316 -12.653363,-8.03801 z"
     inkscape:connector-curvature="0" />
  <path
     style="mix-blend-mode:normal;fill:#000000;stroke:#000000;stroke-width:1.02063501"
     id="path105"
     d="m 29.911831,255.29977 -2.082442,4.1903 c 0,0 -0.301782,2.36441 -0.642388,4.95672 -0.04695,0.0551 1.289736,-0.0357 1.280877,0.0269 -0.01021,-0.0804 0.04715,1.61571 0.05185,1.61948 0.06777,0.0533 -1.65992,-0.0314 -1.671045,0.0516 -0.198003,1.47735 -0.278878,2.93332 -0.414602,3.97574 -0.02592,0.19882 -0.807425,-0.0768 -0.83439,-0.27549 -0.124517,-0.91802 -0.159219,-2.57 -0.203515,-3.68784 -1.349708,0.038 -1.29839,-0.0255 -1.591802,-0.0224 -0.05716,-0.0286 0.04593,-1.77636 0.06144,-1.76672 0.03634,0.004 0.431831,0.0229 1.311863,0.0294 0.04797,-0.0184 -0.608625,-5.03075 -0.608625,-5.03075 l -1.678067,-4.13647 z"
     inkscape:connector-curvature="0" />
  <path
     style="mix-blend-mode:normal;fill:#000000;stroke:none;stroke-width:0"
     id="path107"
     d="m 33.750827,265.03786 c 0,0.98567 -0.495293,2.97503 -2.618439,3.00407 -0.0013,-0.0637 -0.07471,-1.05833 -0.03307,-1.07319 2.269749,0.0102 -1.924346,0.20229 0.0061,4e-5 0.16024,0.0788 -0.0061,1.02149 0.05165,1.08771 -2.070379,-0.16106 -2.632973,-2.12372 -2.632973,-3.01861 0,-0.0629 0.002,-0.12534 0.0061,-0.18719 0.09594,-1.35587 1.226375,-2.42603 2.606682,-2.42603 1.44328,0 2.613275,1.17 2.613275,2.6133 z"
     inkscape:connector-curvature="0" />
  <path
     style="mix-blend-mode:normal;fill:#000000;stroke:none;stroke-width:0"
     id="path109"
     d="m 29.430214,272.12498 c 0,0.98567 -0.495294,2.97501 -2.618439,3.00406 -0.0013,-0.0637 -0.07471,-1.05832 -0.03307,-1.0732 2.26975,0.0102 -1.924346,0.20229 0.0061,2e-5 0.160036,0.0788 -0.0061,1.02151 0.05164,1.08773 -2.070378,-0.16105 -2.632973,-2.12371 -2.632973,-3.01861 0,-1.44328 1.169995,-2.61327 2.613295,-2.61327 1.44328,0 2.613275,1.16999 2.613275,2.61327 z"
     inkscape:connector-curvature="0" />
  <path
     style="mix-blend-mode:normal;fill:#000000;stroke:none;stroke-width:0"
     id="path111"
     d="m 24.151959,265.20281 c 0,0.98567 -0.495294,2.97503 -2.618439,3.00408 -0.0013,-0.0637 -0.07471,-1.05834 -0.03307,-1.0732 2.26975,0.0102 -1.924346,0.20229 0.0061,4e-5 0.16024,0.0788 -0.0061,1.02151 0.05164,1.08773 -2.070378,-0.16105 -2.632973,-2.12373 -2.632973,-3.01863 0,-1.44328 1.169995,-2.61329 2.613296,-2.61329 1.443279,0 2.613274,1.16999 2.613274,2.61329 z"
     inkscape:connector-curvature="0" />
  <path
     style="mix-blend-mode:normal;stroke:#02005e;stroke-width:2.04127002"
     id="path113"
     d="M 210.11399,156.3973 V 72.669526 h 7.53949 V 156.3973 Z"
     inkscape:connector-curvature="0" />
  <path
     style="mix-blend-mode:normal;stroke:none;stroke-width:2.04127002"
     id="path115"
     d="m 209.41277,168.11117 c 0,-2.57465 2.0872,-4.66183 4.66185,-4.66183 2.57466,0 4.66184,2.08718 4.66184,4.66183 0,2.57465 -2.08718,4.66185 -4.66184,4.66185 -2.57465,0 -4.66185,-2.0872 -4.66185,-4.66185 z"
     inkscape:connector-curvature="0" />
  <path
     style="mix-blend-mode:normal;fill:#ffb89a;stroke:#000000;stroke-width:1.02063501"
     id="path119"
     d="m 221.19447,151.19839 c 0,10.22117 -4.69535,18.50709 -10.48735,18.50709 -5.792,0 -10.48733,-8.2859 -10.48733,-18.50709 0,-2.90011 -1.24224,-7.30756 -0.0667,-14.76687 0.92621,-5.87774 8.53377,-8.26794 9.35924,-6.76877 2.97387,5.40089 -3.82477,9.5266 -0.97109,13.49763 3.38002,4.70347 12.65336,-2.18316 12.65336,8.03801 z"
     inkscape:connector-curvature="0" />
  <path
     style="mix-blend-mode:normal;fill:#000000;stroke:none;stroke-width:0"
     id="path121"
     d="m 210.58666,54.953445 c 0,-0.985668 0.4953,-2.975008 2.61844,-3.004055 0.001,0.06369 0.0747,1.058337 0.0331,1.073197 -2.26975,-0.01021 1.92435,-0.202289 -0.006,-4e-5 -0.16024,-0.07879 0.006,-1.021513 -0.0516,-1.087732 2.07038,0.161056 2.63298,2.123737 2.63298,3.01863 0,1.44328 -1.17002,2.613275 -2.6133,2.613275 -1.44328,0 -2.61327,-1.169995 -2.61327,-2.613275 z"
     inkscape:connector-curvature="0" />
  <path
     style="mix-blend-mode:normal;fill:#000000;stroke:#000000;stroke-width:1.02063501"
     id="path123"
     d="m 210.10505,71.778634 2.08244,-4.190299 c 0,0 0.3018,-2.364403 0.64239,-4.956714 0.047,-0.05511 -1.28972,0.03572 -1.28086,-0.02694 0.0102,0.08043 -0.0472,-1.615706 -0.0519,-1.619482 -0.0678,-0.05328 1.65992,0.03144 1.67105,-0.05164 0.198,-1.477349 0.27888,-2.933326 0.41462,-3.975741 0.0259,-0.19882 0.80743,0.07675 0.83439,0.27549 0.12452,0.91802 0.15922,2.57 0.20351,3.68784 1.34971,-0.03797 1.2984,0.02552 1.59181,0.02245 0.0572,0.02858 -0.0459,1.776354 -0.0614,1.766719 -0.0363,-0.0041 -0.43184,-0.02286 -1.31187,-0.02939 -0.048,0.01837 0.60863,5.030751 0.60863,5.030751 l 1.67806,4.13647 z"
     inkscape:connector-curvature="0" />
  <path
     style="mix-blend-mode:normal;fill:#000000;stroke:none;stroke-width:0"
     id="path125"
     d="m 206.26605,62.040551 c 0,-0.985668 0.49529,-2.975029 2.61844,-3.004076 0.001,0.06369 0.0747,1.058337 0.0331,1.073198 -2.26975,-0.01021 1.92435,-0.20229 -0.006,-4.1e-5 -0.16004,-0.07879 0.006,-1.021492 -0.0516,-1.087711 2.07038,0.161056 2.63297,2.123717 2.63297,3.01861 0,0.06287 -0.002,0.125334 -0.006,0.187184 -0.0959,1.355873 -1.22637,2.426029 -2.60668,2.426029 -1.44328,0 -2.61328,-1.169995 -2.61328,-2.613295 z"
     inkscape:connector-curvature="0" />
  <path
     style="mix-blend-mode:normal;fill:#000000;stroke:none;stroke-width:0"
     id="path127"
     d="m 215.86492,61.875596 c 0,-0.985668 0.49527,-2.975029 2.61844,-3.004076 0.001,0.06369 0.0747,1.058337 0.0331,1.073198 -2.26975,-0.01021 1.92434,-0.20229 -0.006,-4.1e-5 -0.16024,-0.07879 0.006,-1.021513 -0.0516,-1.087731 2.07038,0.161056 2.63297,2.123737 2.63297,3.01863 0,1.44328 -1.16999,2.613295 -2.61327,2.613295 -1.44328,0 -2.61328,-1.169995 -2.61328,-2.613295 z"
     inkscape:connector-curvature="0" />
</svg>
