<?xml version="1.0" encoding="UTF-8" standalone="no"?>
<svg
   xmlns:dc="http://purl.org/dc/elements/1.1/"
   xmlns:cc="http://creativecommons.org/ns#"
   xmlns:rdf="http://www.w3.org/1999/02/22-rdf-syntax-ns#"
   xmlns:svg="http://www.w3.org/2000/svg"
   xmlns="http://www.w3.org/2000/svg"
   xmlns:sodipodi="http://sodipodi.sourceforge.net/DTD/sodipodi-0.dtd"
   xmlns:inkscape="http://www.inkscape.org/namespaces/inkscape"
   version="1.1"
   width="63mm"
   height="88mm"
   viewBox="0 0 238.11023 332.59842"
   id="svg153"
   sodipodi:docname="CK.svg"
   inkscape:version="0.92.3 (2405546, 2018-03-11)">
  <sodipodi:namedview
     pagecolor="#ffffff"
     bordercolor="#666666"
     borderopacity="1"
     objecttolerance="10"
     gridtolerance="10"
     guidetolerance="10"
     inkscape:pageopacity="0"
     inkscape:pageshadow="2"
     inkscape:window-width="1920"
     inkscape:window-height="1018"
     id="namedview155"
     showgrid="false"
     inkscape:zoom="1.232376"
     inkscape:cx="109.88771"
     inkscape:cy="95.75"
     inkscape:window-x="0"
     inkscape:window-y="0"
     inkscape:window-maximized="1"
     inkscape:current-layer="svg153"
     units="mm" />
  <metadata
     id="metadata157">
    <rdf:RDF>
      <cc:Work
         rdf:about="">
        <dc:format>image/svg+xml</dc:format>
        <dc:type
           rdf:resource="http://purl.org/dc/dcmitype/StillImage" />
        <dc:title></dc:title>
      </cc:Work>
    </rdf:RDF>
  </metadata>
  <defs
     id="defs7">
    <radialGradient
       id="color-1"
       gradientUnits="userSpaceOnUse"
       r="30.75"
       cy="178.81683"
       cx="240.5"
       gradientTransform="matrix(1.9877277,0,0,1.9877277,-357.18142,-191.49178)">
      <stop
         id="stop2"
         stop-color="#000000"
         offset="0" />
      <stop
         id="stop4"
         stop-color="#ffffff"
         offset="1" />
    </radialGradient>
  </defs>
  <text
     id="text13"
     style="font-weight:normal;font-size:39.75455475px;font-family:Serif;text-anchor:start;mix-blend-mode:normal;fill:#000000;fill-rule:nonzero;stroke:none;stroke-width:0.99386388;stroke-linecap:butt;stroke-linejoin:miter;stroke-miterlimit:10;stroke-dasharray:none;stroke-dashoffset:0"
     font-weight="normal"
     stroke-miterlimit="10"
     xml:space="preserve"
     font-size="40"
     x="0.33875275"
     y="35.359753"><tspan
       id="tspan11"
       dy="0"
       x="0.33875275"
       style="stroke-width:0.99386388">K</tspan></text>
  <text
     id="text17"
     style="font-weight:normal;font-size:39.75455475px;font-family:Serif;text-anchor:start;mix-blend-mode:normal;fill:#000000;fill-rule:nonzero;stroke:none;stroke-width:0.99386388;stroke-linecap:butt;stroke-linejoin:miter;stroke-miterlimit:10;stroke-dasharray:none;stroke-dashoffset:0"
     font-weight="normal"
     stroke-miterlimit="10"
     data-paper-data="{&quot;origRot&quot;:-45}"
     xml:space="preserve"
     font-size="40"
     transform="scale(-1)"
     x="-232.42725"
     y="-298.97153"><tspan
       id="tspan15"
       dy="0"
       x="-232.42725"
       style="stroke-width:0.99386388">K</tspan></text>
  <path
     style="mix-blend-mode:normal;fill:#000000;stroke:#000000;stroke-width:0.99386388"
     id="path19"
     d="m 7.902891,80.475404 4.286873,-8.626103 c 0,0 0.621265,-4.867309 1.322416,-10.203782 0.0965,-0.113598 -2.654988,0.07339 -2.636761,-0.05568 0.02169,0.165757 -0.09688,-3.326084 -0.106781,-3.333857 -0.139578,-0.109802 3.417063,0.06482 3.439982,-0.106244 0.407524,-3.041243 0.574095,-6.038492 0.85351,-8.184382 0.05331,-0.40944 1.662158,0.15798 1.717675,0.56712 0.256477,1.88983 0.327796,5.290567 0.418874,7.59172 2.778486,-0.07822 2.672858,0.05248 3.276869,0.04631 0.117713,0.05894 -0.09448,3.656803 -0.12632,3.636966 -0.07488,-0.0068 -0.888932,-0.04693 -2.700567,-0.06049 -0.09891,0.03872 1.252885,10.356221 1.252885,10.356221 l 3.454452,8.515306 z"
     inkscape:connector-curvature="0" />
  <path
     style="mix-blend-mode:normal;fill:#000000;stroke:none;stroke-width:0"
     id="path21"
     d="m 4e-6,60.428732 c 0,-2.029053 1.019585,-6.124328 5.39028,-6.184119 0.0027,0.13119 0.153831,2.178669 0.0681,2.20926 -4.672472,-0.02036 3.961462,-0.416429 -0.01296,-8e-5 -0.329665,-0.162298 0.01431,-2.102837 -0.106304,-2.239155 4.262046,0.331692 5.420216,4.371868 5.420216,6.214074 0,0.12962 -0.0046,0.258146 -0.0136,0.38548 -0.19762,2.791187 -2.524574,4.994186 -5.36607,4.994186 C 2.40855,65.808378 0,63.399828 0,60.428712 Z"
     inkscape:connector-curvature="0" />
  <path
     style="mix-blend-mode:normal;fill:#000000;stroke:none;stroke-width:0"
     id="path23"
     d="m 8.89433,45.839306 c 0,-2.02905 1.019585,-6.124325 5.390281,-6.184115 0.0027,0.13119 0.15383,2.178665 0.0681,2.209255 -4.672472,-0.0204 3.961462,-0.41643 -0.01296,-8e-5 -0.329664,-0.1623 0.01431,-2.102825 -0.106303,-2.239145 4.262046,0.33169 5.420215,4.371865 5.420215,6.214065 0,2.97112 -2.40855,5.37967 -5.379666,5.37967 -2.971116,0 -5.379666,-2.40855 -5.379666,-5.37967 z"
     inkscape:connector-curvature="0" />
  <path
     style="mix-blend-mode:normal;fill:#000000;stroke:none;stroke-width:0"
     id="path25"
     d="m 19.760065,60.089149 c 0,-2.029053 1.019585,-6.124329 5.39028,-6.18412 0.0027,0.13119 0.153831,2.178669 0.0681,2.20926 -4.672472,-0.02035 3.961462,-0.416429 -0.01296,-7.9e-5 -0.329665,-0.162298 0.01431,-2.102837 -0.106304,-2.239156 4.262046,0.331693 5.420216,4.371868 5.420216,6.214075 0,2.971116 -2.40855,5.379666 -5.379666,5.379666 -2.971116,0 -5.379666,-2.40855 -5.379666,-5.379666 z"
     inkscape:connector-curvature="0" />
  <path
     style="mix-blend-mode:normal;fill:#000000;stroke:#000000;stroke-width:0.99386388"
     id="path27"
     d="m 224.10583,250.7325 -4.28687,8.6261 c 0,0 -0.62125,4.86729 -1.3224,10.20378 -0.0965,0.1136 2.65499,-0.0734 2.63674,0.0557 -0.0217,-0.16576 0.0969,3.3261 0.10678,3.33388 0.13958,0.1098 -3.41708,-0.0648 -3.44,0.10622 -0.40752,3.04126 -0.57408,6.03852 -0.85351,8.18439 -0.0533,0.40945 -1.66214,-0.15799 -1.71768,-0.56712 -0.25649,-1.88983 -0.32777,-5.29056 -0.41887,-7.59173 -2.77851,0.0782 -2.67286,-0.0525 -3.27687,-0.0463 -0.11771,-0.059 0.0945,-3.65681 0.12632,-3.63697 0.0749,0.007 0.88893,0.0469 2.70059,0.0605 0.0989,-0.0387 -1.25289,-10.35622 -1.25289,-10.35622 l -3.45445,-8.51531 z"
     inkscape:connector-curvature="0" />
  <path
     style="mix-blend-mode:normal;fill:#000000;stroke:none;stroke-width:0"
     id="path29"
     d="m 232.00874,270.77917 c 0,2.02905 -1.01959,6.12433 -5.39029,6.18412 -0.003,-0.13119 -0.15383,-2.17867 -0.0681,-2.20926 4.67247,0.0203 -3.96145,0.41643 0.013,8e-5 0.32966,0.1623 -0.0143,2.10284 0.10632,2.23915 -4.26205,-0.33169 -5.42022,-4.37186 -5.42022,-6.21409 0,-0.1296 0.005,-0.25817 0.0136,-0.38548 0.19762,-2.79119 2.52457,-4.99419 5.36607,-4.99419 2.97112,0 5.37967,2.40855 5.37967,5.37967 z"
     inkscape:connector-curvature="0" />
  <path
     style="mix-blend-mode:normal;fill:#000000;stroke:none;stroke-width:0"
     id="path31"
     d="m 223.11439,285.36859 c 0,2.02906 -1.01957,6.12433 -5.39028,6.18414 -0.003,-0.13119 -0.15383,-2.17867 -0.0681,-2.20928 4.67247,0.0204 -3.96146,0.41645 0.013,8e-5 0.32964,0.1623 -0.0143,2.10284 0.10632,2.23914 -4.26204,-0.33169 -5.42023,-4.37187 -5.42023,-6.21408 0,-2.97109 2.40857,-5.37966 5.37966,-5.37966 2.97112,0 5.37967,2.40857 5.37967,5.37966 z"
     inkscape:connector-curvature="0" />
  <path
     style="mix-blend-mode:normal;fill:#000000;stroke:none;stroke-width:0"
     id="path33"
     d="m 212.24865,271.11875 c 0,2.02908 -1.01958,6.12433 -5.39026,6.18414 -0.003,-0.13119 -0.15385,-2.17867 -0.0681,-2.20926 4.67248,0.0203 -3.96146,0.41643 0.013,8e-5 0.32965,0.1623 -0.0143,2.10284 0.10631,2.23914 -4.26205,-0.33169 -5.42024,-4.37187 -5.42024,-6.2141 0,-2.97109 2.40857,-5.37966 5.37967,-5.37966 2.97111,0 5.37966,2.40857 5.37966,5.37966 z"
     inkscape:connector-curvature="0" />
  <path
     style="mix-blend-mode:normal;fill:#02005e;stroke-width:1.98772776"
     id="path37"
     d="m 34.897884,163.94741 c 0,-46.93059 38.044771,-84.975365 84.975356,-84.975365 46.93061,0 84.97536,38.044775 84.97536,84.975365 0,46.93061 -38.04475,84.97536 -84.97536,84.97536 -46.930585,0 -84.975356,-38.04477 -84.975356,-84.97536 z"
     inkscape:connector-curvature="0" />
  <path
     style="mix-blend-mode:normal;fill:url(#color-1);stroke-width:1.98772776"
     id="path39"
     d="m 59.744481,163.94741 c 0,-33.75709 27.365545,-61.12263 61.122629,-61.12263 33.75708,0 61.12262,27.36554 61.12262,61.12263 0,33.75708 -27.36554,61.12263 -61.12262,61.12263 -33.757084,0 -61.122629,-27.36555 -61.122629,-61.12263 z"
     inkscape:connector-curvature="0" />
  <path
     style="mix-blend-mode:normal;fill:#02005e;stroke-width:1.98772776"
     id="path41"
     d="m 89.063464,163.94741 c 0,-17.01579 13.793996,-30.80978 30.809776,-30.80978 17.01579,0 30.80978,13.79399 30.80978,30.80978 0,17.01578 -13.79399,30.80978 -30.80978,30.80978 -17.01578,0 -30.809776,-13.794 -30.809776,-30.80978 z"
     inkscape:connector-curvature="0" />
  <path
     style="mix-blend-mode:normal;fill:#ffb89a;stroke:#000000;stroke-width:0.99386388;stroke-linecap:butt"
     id="path45"
     d="m 138.24992,260.19702 -0.99386,44.72388 H 90.544464 c 0,0 -19.200459,-31.71833 -9.938641,-32.79751 18.883411,-2.20029 9.938641,-25.84046 9.938641,-25.84046 0,0 21.279096,0 29.815906,0 6.42629,0 17.88955,13.91409 17.88955,13.91409 z"
     inkscape:connector-curvature="0" />
  <path
     style="mix-blend-mode:normal;fill:#cf8000;stroke:none;stroke-width:0;stroke-linecap:butt"
     id="path47"
     d="m 201.68052,224.41792 c 0,0 -13.61782,10.02381 -18.43198,20.53898 -2.87855,6.28736 3.77575,11.47332 0.62951,18.34539 -4.41269,9.63828 -14.51691,14.70772 -16.88578,19.88181 -3.8614,8.43413 -3.07858,23.72453 -3.07858,23.72453 h -53.66864 c 0,0 -1.01396,-14.78562 2.73412,-22.97219 2.79303,-6.10058 14.10205,-13.80151 19.45556,-25.4947 2.2277,-4.86576 -5.48192,-7.74673 -3.43494,-12.21775 5.1023,-11.14449 19.0121,-21.80609 19.0121,-21.80609 z"
     inkscape:connector-curvature="0" />
  <path
     style="mix-blend-mode:normal;fill:#825000;stroke:none;stroke-width:0;stroke-linecap:butt"
     id="path49"
     d="m 183.79097,223.42406 c 0,0 -13.61782,10.02381 -18.43198,20.53897 -2.87855,6.28736 3.77575,11.47333 0.62951,18.3454 -4.41269,9.63827 -14.51691,14.70771 -16.88578,19.88181 -3.8614,8.43413 -3.07857,23.72452 -3.07857,23.72452 h -13.9141 c 0,0 -1.01396,-14.78561 2.73412,-22.97219 2.79304,-6.10057 14.10205,-13.80151 19.45556,-25.49469 2.22771,-4.86576 -5.48191,-7.74673 -3.43493,-12.21775 5.1023,-11.1445 19.0121,-21.80609 19.0121,-21.80609 z"
     inkscape:connector-curvature="0" />
  <path
     style="mix-blend-mode:normal;fill:#000000;stroke:#000000;stroke-width:0.99386388;stroke-linecap:butt"
     id="path51"
     d="m 90.345664,286.83258 c 0,-1.6467 1.82438,-2.9816 4.07485,-2.9816 2.25046,0 4.07484,1.3349 4.07484,2.9816 0,1.64669 -1.82438,2.98159 -4.07484,2.98159 -2.25047,0 -4.07485,-1.3349 -4.07485,-2.98159 z"
     inkscape:connector-curvature="0" />
  <path
     style="mix-blend-mode:normal;fill:none;stroke:#000000;stroke-width:0.99386388;stroke-linecap:round"
     id="path53"
     d="m 87.463483,291.08631 10.733731,2.78282 4.372996,1.59018"
     inkscape:connector-curvature="0" />
  <path
     style="mix-blend-mode:normal;fill:none;stroke:#000000;stroke-width:0.99386388;stroke-linecap:round"
     id="path55"
     d="m 100.98003,259.68021 -8.348456,3.57791"
     inkscape:connector-curvature="0" />
  <path
     style="mix-blend-mode:normal;fill:#000000;stroke:none;stroke-width:0.99386388;stroke-linecap:butt"
     id="path57"
     d="m 106.6056,262.85132 c 0.44465,0.66571 -1.23174,-0.2009 -3.6738,1.66376 -2.89121,2.76382 -4.470616,6.79127 -5.033346,7.27012 -3.47568,2.95764 -5.1142,-1.59837 -6.62988,-3.6193 0,0 -0.89448,-1.19263 0.29816,-2.08711 1.19263,-0.89448 2.08711,0.29816 2.08711,0.29816 1.51759,2.02345 1.76029,4.2408 2.11612,3.13898 0.7219,-2.23536 4.713036,-6.74575 7.006616,-7.65677 0.26502,-0.0663 3.00097,-0.24753 3.82902,0.99216 z"
     inkscape:connector-curvature="0" />
  <path
     style="mix-blend-mode:normal;fill:#ffe54a;stroke:#000000;stroke-width:1.98772776;stroke-linecap:butt"
     id="path59"
     d="m 164.12491,304.65162 4.46338,24.9949 c 0,0 -15.48058,-12.62656 -23.20956,-7.14139 -11.32059,8.03408 -25.87805,8.03408 -36.59971,0.89267 -13.634716,-9.08171 -31.24364,6.24872 -31.24364,6.24872 l 7.141409,-24.9949 z"
     inkscape:connector-curvature="0" />
  <path
     style="mix-blend-mode:normal;stroke:#000000;stroke-width:1.98772776"
     id="path61"
     d="m 127.60497,309.52726 -1.57174,3.16263 c 0,0 -0.22777,1.78452 -0.48485,3.74107 -0.0354,0.0416 0.97343,-0.0269 0.96673,0.0204 -0.008,-0.0608 0.0355,1.21947 0.0392,1.22231 0.0512,0.0403 -1.25282,-0.0238 -1.26121,0.0389 -0.1494,1.11504 -0.21048,2.21393 -0.31293,3.0007 -0.0195,0.15011 -0.6094,-0.0579 -0.62975,-0.20792 -0.094,-0.69288 -0.12018,-1.9397 -0.15357,-2.7834 -1.01869,0.0287 -0.97997,-0.0192 -1.20142,-0.017 -0.0432,-0.0216 0.0346,-1.34072 0.0463,-1.33345 0.0275,0.003 0.32593,0.0172 0.99013,0.0222 0.0363,-0.0142 -0.45937,-3.79695 -0.45937,-3.79695 l -1.26652,-3.12203 z"
     inkscape:connector-curvature="0" />
  <path
     style="mix-blend-mode:normal;stroke:none;stroke-width:1.98772776"
     id="path63"
     d="m 130.26794,316.84357 c 0,0.74392 -0.37381,2.24539 -1.97627,2.26732 -0.001,-0.0481 -0.0564,-0.79879 -0.025,-0.81 1.7131,0.007 -1.45241,0.15268 0.005,4e-5 0.12085,0.0595 -0.005,0.77098 0.039,0.82095 -1.56261,-0.12161 -1.98725,-1.60288 -1.98725,-2.27831 0,-0.0475 0.002,-0.0947 0.005,-0.14133 0.0725,-1.02336 0.9256,-1.83105 1.96739,-1.83105 1.08932,0 1.97236,0.88304 1.97236,1.97236 z"
     inkscape:connector-curvature="0" />
  <path
     style="mix-blend-mode:normal;stroke:none;stroke-width:1.98772776"
     id="path65"
     d="m 127.24147,322.22608 c 0,0.7439 -0.37381,2.24539 -1.97628,2.26732 -9.9e-4,-0.0481 -0.0564,-0.79879 -0.025,-0.81 1.71308,0.007 -1.45242,0.15268 0.005,2e-5 0.12087,0.0595 -0.005,0.77098 0.039,0.82095 -1.56262,-0.12161 -1.98724,-1.60286 -1.98724,-2.27829 0,-1.08932 0.88305,-1.97239 1.97239,-1.97239 1.08931,0 1.97238,0.88307 1.97238,1.97239 z"
     inkscape:connector-curvature="0" />
  <path
     style="mix-blend-mode:normal;stroke:none;stroke-width:1.98772776"
     id="path67"
     d="m 123.15721,316.90109 c 0,0.74391 -0.37382,2.2454 -1.97628,2.26732 -0.001,-0.0481 -0.0564,-0.79878 -0.025,-0.80999 1.71309,0.007 -1.45239,0.15267 0.005,10e-6 0.12086,0.0595 -0.005,0.77098 0.039,0.82096 -1.56261,-0.12161 -1.98723,-1.60287 -1.98723,-2.2783 0,-1.08931 0.88305,-1.97238 1.97236,-1.97238 1.08932,0 1.97239,0.88307 1.97239,1.97238 z"
     inkscape:connector-curvature="0" />
  <path
     style="mix-blend-mode:normal;fill:#ffb89a;stroke:#000000;stroke-width:0.99386388;stroke-linecap:butt"
     id="path73"
     d="m 115.12553,72.401393 0.99387,-44.723872 h 46.7116 c 0,0 19.20046,31.718328 9.93864,32.797505 -18.88342,2.200295 -9.93864,25.840461 -9.93864,25.840461 0,0 -21.2791,0 -29.81592,0 -6.42628,0 -17.88955,-13.914094 -17.88955,-13.914094 z"
     inkscape:connector-curvature="0" />
  <path
     style="mix-blend-mode:normal;fill:#cf8000;stroke:none;stroke-width:0;stroke-linecap:butt"
     id="path75"
     d="m 51.694939,108.18049 c 0,0 13.617823,-10.023811 18.431981,-20.53897 2.878547,-6.287362 -3.775749,-11.473324 -0.629514,-18.345395 4.412696,-9.638274 14.516913,-14.707715 16.885787,-19.881809 3.861401,-8.434125 3.078571,-23.724525 3.078571,-23.724525 h 53.668646 c 0,0 1.01396,14.78562 -2.73412,22.972185 -2.79303,6.100579 -14.10205,13.801513 -19.45556,25.494699 -2.22771,4.865759 5.48192,7.746732 3.43493,12.217748 -5.1023,11.144494 -19.0121,21.806087 -19.0121,21.806087 z"
     inkscape:connector-curvature="0" />
  <path
     style="mix-blend-mode:normal;fill:#825000;stroke:none;stroke-width:0;stroke-linecap:butt"
     id="path77"
     d="m 69.584489,109.17436 c 0,0 13.617823,-10.023817 18.43198,-20.538976 2.878545,-6.287362 -3.775748,-11.473324 -0.629513,-18.345396 4.412698,-9.638273 14.516904,-14.707714 16.885784,-19.881812 3.8614,-8.43412 3.07857,-23.724515 3.07857,-23.724515 h 13.9141 c 0,0 1.01396,14.785605 -2.73412,22.972185 -2.79304,6.100573 -14.10206,13.801507 -19.455556,25.494693 -2.22771,4.865759 5.481906,7.746732 3.434926,12.217748 -5.102296,11.144494 -19.012097,21.806093 -19.012097,21.806093 z"
     inkscape:connector-curvature="0" />
  <path
     style="mix-blend-mode:normal;fill:#000000;stroke:#000000;stroke-width:0.99386388;stroke-linecap:butt"
     id="path79"
     d="m 163.02977,45.765836 c 0,1.6467 -1.82437,2.9816 -4.07484,2.9816 -2.25047,0 -4.07484,-1.3349 -4.07484,-2.9816 0,-1.64669 1.82437,-2.98159 4.07484,-2.98159 2.25047,0 4.07484,1.3349 4.07484,2.98159 z"
     inkscape:connector-curvature="0" />
  <path
     style="mix-blend-mode:normal;fill:none;stroke:#000000;stroke-width:0.99386388;stroke-linecap:round"
     id="path81"
     d="m 165.91198,41.512106 -10.73373,-2.782815 -4.373,-1.59018"
     inkscape:connector-curvature="0" />
  <path
     style="mix-blend-mode:normal;fill:none;stroke:#000000;stroke-width:0.99386388;stroke-linecap:round"
     id="path83"
     d="m 160.74389,69.340292 -8.34846,3.57791"
     inkscape:connector-curvature="0" />
  <path
     style="mix-blend-mode:normal;fill:#000000;stroke:none;stroke-width:0.99386388;stroke-linecap:butt"
     id="path85"
     d="m 146.76986,69.7471 c -0.44465,-0.66571 1.23174,0.2009 3.6738,-1.663768 2.89121,-2.763816 4.47062,-6.79127 5.03334,-7.270114 3.47568,-2.957639 5.11421,1.598372 6.62989,3.619295 0,0 0.89448,1.192636 -0.29816,2.087114 -1.19264,0.894477 -2.08711,-0.298159 -2.08711,-0.298159 -1.51759,-2.023448 -1.7603,-4.240798 -2.11612,-3.13898 -0.7219,2.235358 -4.71304,6.745751 -7.00662,7.656767 -0.26502,0.06627 -3.00097,0.247531 -3.82902,-0.992155 z"
     inkscape:connector-curvature="0" />
  <path
     style="mix-blend-mode:normal;fill:#ffe54a;stroke:#000000;stroke-width:1.98772776;stroke-linecap:butt"
     id="path87"
     d="M 89.250534,27.946798 84.787147,2.9518975 c 0,0 15.480583,12.6265605 23.209563,7.1413905 11.32058,-8.0340805 25.87805,-8.0340805 36.59971,-0.8926705 13.63472,9.0817105 31.24364,-6.24872 31.24364,-6.24872 l -7.14141,24.9949005 z"
     inkscape:connector-curvature="0" />
  <path
     style="mix-blend-mode:normal;fill:#000000;stroke:#000000;stroke-width:0;stroke-linecap:butt"
     id="path89"
     d="m 125.77047,23.071158 1.57174,-3.16263 c 0,0 0.22777,-1.78452 0.48484,-3.74106 0.0354,-0.0417 -0.97343,0.0269 -0.96673,-0.0204 0.008,0.0608 -0.0355,-1.21947 -0.0392,-1.22231 -0.0512,-0.0403 1.25283,0.0238 1.26124,-0.0389 0.14942,-1.11502 0.21048,-2.21393 0.31293,-3.0007 0.0195,-0.15011 0.60939,0.0579 0.62975,0.20792 0.094,0.69288 0.12018,1.93973 0.15357,2.7834 1.01869,-0.0287 0.97997,0.0192 1.20142,0.017 0.0432,0.0216 -0.0346,1.34072 -0.0463,1.33345 -0.0274,-0.003 -0.32591,-0.0172 -0.99013,-0.0222 -0.0363,0.0142 0.45936,3.79695 0.45936,3.79695 l 1.26653,3.12201 z"
     inkscape:connector-curvature="0" />
  <path
     style="mix-blend-mode:normal;fill:#000000;stroke:none;stroke-width:0;stroke-linecap:butt"
     id="path91"
     d="m 123.10749,15.754848 c 0,-0.74392 0.37381,-2.24539 1.97628,-2.26732 0.001,0.0481 0.0564,0.79877 0.025,0.80998 -1.71309,-0.007 1.45241,-0.15268 -0.005,-2e-5 -0.12088,-0.0595 0.005,-0.77098 -0.039,-0.82095 1.56261,0.12161 1.98725,1.60288 1.98725,2.27831 0,0.0475 -0.002,0.0947 -0.005,0.14133 -0.0725,1.02334 -0.92561,1.83104 -1.96739,1.83104 -1.08932,0 -1.97237,-0.88305 -1.97237,-1.97237 z"
     inkscape:connector-curvature="0" />
  <path
     style="mix-blend-mode:normal;fill:#000000;stroke:none;stroke-width:0;stroke-linecap:butt"
     id="path93"
     d="m 126.13397,10.372338 c 0,-0.7439205 0.37381,-2.2453905 1.97626,-2.2673205 0.001,0.0481 0.0564,0.79879 0.025,0.81 -1.7131,-0.007 1.45239,-0.15268 -0.005,-4e-5 -0.12085,-0.0595 0.005,-0.77096 -0.039,-0.82095 1.56261,0.12161 1.98723,1.60286 1.98723,2.2782905 0,1.08932 -0.88305,1.97239 -1.97236,1.97239 -1.08931,0 -1.97238,-0.88307 -1.97238,-1.97239 z"
     inkscape:connector-curvature="0" />
  <path
     style="mix-blend-mode:normal;fill:#000000;stroke:none;stroke-width:0;stroke-linecap:butt"
     id="path95"
     d="m 130.21823,15.697328 c 0,-0.74391 0.37381,-2.2454 1.97628,-2.26732 9.9e-4,0.0481 0.0564,0.79878 0.025,0.81 -1.71309,-0.007 1.45241,-0.15268 -0.005,-4e-5 -0.12087,-0.0595 0.005,-0.77096 -0.039,-0.82096 1.56261,0.12161 1.98723,1.60289 1.98723,2.2783 0,1.08931 -0.88305,1.97238 -1.97239,1.97238 -1.08931,0 -1.97238,-0.88307 -1.97238,-1.97238 z"
     inkscape:connector-curvature="0" />
  <path
     style="mix-blend-mode:normal;fill:#d0d0d0;stroke-width:1.98772776"
     id="path99"
     d="m 205.47162,128.86642 c 0,0 0,-49.747879 0,-62.655646 0,-5.772521 6.67914,-12.531133 6.67914,-12.531133 v 75.186779 z"
     inkscape:connector-curvature="0" />
  <path
     style="mix-blend-mode:normal;fill:#dedede;stroke-width:1.98772776"
     id="path101"
     data-paper-data="{&quot;index&quot;:null}"
     d="M 211.89494,129.00858 V 53.821803 c 0,0 6.67914,6.758612 6.67914,12.531133 0,12.907767 0,62.655644 0,62.655644 z"
     inkscape:connector-curvature="0" />
  <path
     style="mix-blend-mode:normal;fill:#dedede;stroke-width:1.98772776"
     id="path103"
     d="m 197.38635,135.13199 v -5.74342 h 28.4742 v 5.74342 z"
     inkscape:connector-curvature="0" />
  <path
     style="mix-blend-mode:normal;fill:#b06c00;stroke-width:1.98772776"
     id="path105"
     d="m 206.5262,160.19424 v -25.06227 h 10.89754 v 25.06227 z"
     inkscape:connector-curvature="0" />
  <path
     style="mix-blend-mode:normal;fill:#ffb89a;stroke:#000000;stroke-width:0.99386388"
     id="path109"
     d="m 218.91221,155.82885 c 0,9.95307 -4.57219,18.02166 -10.21227,18.02166 -5.64007,0 -10.21225,-8.06857 -10.21225,-18.02166 0,-2.82404 -1.20965,-7.11589 -0.0651,-14.37954 0.90191,-5.72356 8.30993,-8.05107 9.11375,-6.59123 2.89586,5.25923 -3.72445,9.27673 -0.94562,13.1436 3.29136,4.5801 12.32146,-2.1259 12.32146,7.82717 z"
     inkscape:connector-curvature="0" />
  <path
     style="mix-blend-mode:normal;stroke:none;stroke-width:1.98772776"
     id="path111"
     d="m 209.49164,141.56561 c 0,-0.35294 0.17734,-1.0653 0.93761,-1.07572 4.5e-4,0.0228 0.0267,0.37896 0.0118,0.38429 -0.81274,-0.004 0.68909,-0.0724 -0.002,-2e-5 -0.0574,-0.0282 0.002,-0.36578 -0.0185,-0.38947 0.74137,0.0577 0.94284,0.76046 0.94284,1.08092 0,0.0226 -7.9e-4,0.0449 -0.002,0.067 -0.0344,0.48552 -0.43915,0.86872 -0.9334,0.86872 -0.51681,0 -0.93576,-0.41895 -0.93576,-0.93576 z"
     inkscape:connector-curvature="0" />
  <path
     style="mix-blend-mode:normal;stroke:#000000;stroke-width:1.98772776"
     id="path113"
     d="m 210.75506,145.03674 0.74569,-1.50047 c 0,0 0.10807,-0.84664 0.23002,-1.77491 0.0168,-0.0198 -0.46183,0.0128 -0.45865,-0.01 0.004,0.0288 -0.0168,-0.57856 -0.0186,-0.5799 -0.0243,-0.0191 0.59439,0.0113 0.59838,-0.0185 0.0709,-0.52899 0.0999,-1.05037 0.14847,-1.42365 0.009,-0.0712 0.28911,0.0275 0.29877,0.0986 0.0446,0.32873 0.057,0.92028 0.0728,1.32055 0.48332,-0.0136 0.46493,0.009 0.57,0.008 0.0205,0.0103 -0.0164,0.63609 -0.022,0.63263 -0.013,-0.001 -0.15461,-0.008 -0.46974,-0.0105 -0.0172,0.007 0.21793,1.80142 0.21793,1.80142 l 0.60089,1.4812 z"
     inkscape:connector-curvature="0" />
  <path
     style="mix-blend-mode:normal;stroke:none;stroke-width:1.98772776"
     id="path115"
     d="m 210.92751,139.01194 c 0,-0.35294 0.17735,-1.0653 0.93761,-1.07572 4.8e-4,0.0228 0.0268,0.37898 0.0119,0.38431 -0.81276,-0.004 0.68906,-0.0724 -0.002,-2e-5 -0.0573,-0.0282 0.002,-0.36578 -0.0185,-0.3895 0.74136,0.0577 0.94282,0.76047 0.94282,1.08091 0,0.51681 -0.41896,0.93578 -0.93577,0.93578 -0.51681,0 -0.93578,-0.41897 -0.93578,-0.93578 z"
     inkscape:connector-curvature="0" />
  <path
     style="mix-blend-mode:normal;stroke:none;stroke-width:1.98772776"
     id="path117"
     d="m 212.86525,141.53832 c 0,-0.35294 0.17734,-1.0653 0.93761,-1.07572 4.6e-4,0.0228 0.0267,0.37898 0.0118,0.38431 -0.81275,-0.004 0.68906,-0.0724 -0.002,-2e-5 -0.0574,-0.0282 0.002,-0.36576 -0.0185,-0.38948 0.74137,0.0577 0.94282,0.76047 0.94282,1.08091 0,0.51681 -0.41895,0.93576 -0.93578,0.93576 -0.51681,0 -0.93578,-0.41895 -0.93578,-0.93576 z"
     inkscape:connector-curvature="0" />
  <path
     style="mix-blend-mode:normal;fill:#d0d0d0;stroke-width:1.98772776"
     id="path123"
     d="m 34.904344,207.32619 c 0,0 0,49.74788 0,62.65564 0,5.77252 -6.679143,12.53114 -6.679143,12.53114 v -75.18678 z"
     inkscape:connector-curvature="0" />
  <path
     style="mix-blend-mode:normal;fill:#dedede;stroke-width:1.98772776"
     id="path125"
     data-paper-data="{&quot;index&quot;:null}"
     d="m 28.481022,207.18402 v 75.18678 c 0,0 -6.679143,-6.75861 -6.679143,-12.53113 0,-12.90777 0,-62.65565 0,-62.65565 z"
     inkscape:connector-curvature="0" />
  <path
     style="mix-blend-mode:normal;fill:#dedede;stroke-width:1.98772776"
     id="path127"
     d="m 42.989606,201.06061 v 5.74342 h -28.4742 v -5.74342 z"
     inkscape:connector-curvature="0" />
  <path
     style="mix-blend-mode:normal;fill:#b06c00;stroke-width:1.98772776"
     id="path129"
     d="m 33.849755,175.99836 v 25.06227 H 22.952217 v -25.06227 z"
     inkscape:connector-curvature="0" />
  <path
     style="mix-blend-mode:normal;fill:#ffb89a;stroke:#000000;stroke-width:0.99386388"
     id="path133"
     d="m 21.463747,180.36375 c 0,-9.95307 4.572191,-18.02165 10.212269,-18.02165 5.640078,0 10.212249,8.06856 10.212249,18.02165 0,2.82405 1.209652,7.11589 0.06508,14.37954 -0.901912,5.72357 -8.309935,8.05108 -9.113752,6.59123 -2.895861,-5.25923 3.724445,-9.27673 0.945622,-13.14359 -3.291359,-4.58011 -12.321467,2.12589 -12.321468,-7.82718 z"
     inkscape:connector-curvature="0" />
  <path
     style="mix-blend-mode:normal;stroke:none;stroke-width:1.98772776"
     id="path135"
     d="m 30.884324,194.62699 c 0,0.35294 -0.177345,1.0653 -0.937611,1.0757 -4.58e-4,-0.0228 -0.02676,-0.37896 -0.01185,-0.38429 0.812742,0.004 -0.689086,0.0724 0.0023,0 0.05735,0.0282 -0.0025,0.36578 0.01851,0.3895 -0.741363,-0.0577 -0.942819,-0.76047 -0.942839,-1.08091 0,-0.0226 7.95e-4,-0.0449 0.0024,-0.067 0.03437,-0.48552 0.439149,-0.86872 0.933397,-0.86872 0.516809,0 0.935763,0.41896 0.935763,0.93577 z"
     inkscape:connector-curvature="0" />
  <path
     style="mix-blend-mode:normal;stroke:#000000;stroke-width:1.98772776"
     id="path137"
     d="m 29.620904,191.15586 -0.745676,1.50048 c 0,0 -0.108073,0.84663 -0.23002,1.77488 -0.01678,0.0198 0.461829,-0.0128 0.458648,0.01 -0.0038,-0.0288 0.01686,0.57857 0.01857,0.57992 0.02427,0.0191 -0.59439,-0.0113 -0.598366,0.0185 -0.07088,0.52901 -0.09986,1.05037 -0.148463,1.42365 -0.0093,0.0712 -0.289115,-0.0275 -0.298776,-0.0987 -0.04462,-0.32873 -0.05701,-0.92028 -0.07285,-1.32055 -0.483316,0.0136 -0.464949,-0.009 -0.570001,-0.008 -0.02047,-0.0103 0.01642,-0.63609 0.02197,-0.63265 0.01302,0.001 0.154625,0.008 0.469759,0.0105 0.01719,-0.007 -0.217934,-1.80142 -0.217934,-1.80142 l -0.60089,-1.48119 z"
     inkscape:connector-curvature="0" />
  <path
     style="mix-blend-mode:normal;stroke:none;stroke-width:1.98772776"
     id="path139"
     d="m 29.448449,197.18066 c 0,0.35295 -0.177345,1.06531 -0.937611,1.07572 -4.77e-4,-0.0228 -0.02678,-0.37898 -0.01187,-0.38428 0.812762,0.004 -0.689066,0.0724 0.0023,2e-5 0.05733,0.0282 -0.0025,0.36576 0.01849,0.38947 -0.741363,-0.0577 -0.942819,-0.76046 -0.942819,-1.08091 0,-0.5168 0.418953,-0.93576 0.935762,-0.93576 0.51681,0 0.935763,0.41896 0.935763,0.93578 z"
     inkscape:connector-curvature="0" />
  <path
     style="mix-blend-mode:normal;stroke:none;stroke-width:1.98772776"
     id="path141"
     d="m 27.510713,194.65428 c 0,0.35294 -0.177346,1.06531 -0.937631,1.07572 -4.78e-4,-0.0228 -0.02676,-0.37898 -0.01185,-0.38429 0.812742,0.004 -0.689086,0.0724 0.0022,2e-5 0.05735,0.0282 -0.0025,0.36577 0.01851,0.38948 -0.741363,-0.0577 -0.94282,-0.76047 -0.94282,-1.08091 0,-0.51681 0.418954,-0.93578 0.935783,-0.93578 0.516809,0 0.935782,0.41897 0.935782,0.93576 z"
     inkscape:connector-curvature="0" />
</svg>
