<?xml version="1.0" encoding="UTF-8" standalone="no"?>
<svg
   xmlns:dc="http://purl.org/dc/elements/1.1/"
   xmlns:cc="http://creativecommons.org/ns#"
   xmlns:rdf="http://www.w3.org/1999/02/22-rdf-syntax-ns#"
   xmlns:svg="http://www.w3.org/2000/svg"
   xmlns="http://www.w3.org/2000/svg"
   xmlns:sodipodi="http://sodipodi.sourceforge.net/DTD/sodipodi-0.dtd"
   xmlns:inkscape="http://www.inkscape.org/namespaces/inkscape"
   version="1.1"
   width="63mm"
   height="88mm"
   viewBox="0 0 238.11023 332.59842"
   id="svg229"
   sodipodi:docname="CQ.svg"
   inkscape:version="0.92.3 (2405546, 2018-03-11)">
  <sodipodi:namedview
     pagecolor="#ffffff"
     bordercolor="#666666"
     borderopacity="1"
     objecttolerance="10"
     gridtolerance="10"
     guidetolerance="10"
     inkscape:pageopacity="0"
     inkscape:pageshadow="2"
     inkscape:window-width="1920"
     inkscape:window-height="1018"
     id="namedview231"
     showgrid="false"
     inkscape:zoom="1.232376"
     inkscape:cx="109.88771"
     inkscape:cy="95.75"
     inkscape:window-x="0"
     inkscape:window-y="0"
     inkscape:window-maximized="1"
     inkscape:current-layer="svg229"
     units="mm" />
  <metadata
     id="metadata233">
    <rdf:RDF>
      <cc:Work
         rdf:about="">
        <dc:format>image/svg+xml</dc:format>
        <dc:type
           rdf:resource="http://purl.org/dc/dcmitype/StillImage" />
        <dc:title></dc:title>
      </cc:Work>
    </rdf:RDF>
  </metadata>
  <defs
     id="defs47">
    <radialGradient
       id="color-1"
       gradientUnits="userSpaceOnUse"
       r="27.56727"
       cy="180"
       cx="240"
       gradientTransform="matrix(2.0027332,0,0,2.0027332,-363.09705,-194.4515)">
      <stop
         id="stop2"
         stop-color="#000000"
         offset="0" />
      <stop
         id="stop4"
         stop-color="#ffffff"
         offset="1" />
    </radialGradient>
    <linearGradient
       id="color-2"
       gradientUnits="userSpaceOnUse"
       y2="153.66405"
       x2="276.27271"
       y1="148.69188"
       x1="274.26349"
       gradientTransform="matrix(2.0027332,0,0,2.0027332,-363.09705,-194.4515)">
      <stop
         id="stop7"
         stop-color="#d6e100"
         offset="0" />
      <stop
         id="stop9"
         stop-color="#00ab25"
         offset="1" />
    </linearGradient>
    <linearGradient
       id="color-3"
       gradientUnits="userSpaceOnUse"
       y2="155.00275"
       x2="273.22931"
       y1="149.83615"
       x1="271.14151"
       gradientTransform="matrix(2.0027332,0,0,2.0027332,-363.09705,-194.4515)">
      <stop
         id="stop12"
         stop-color="#d6e100"
         offset="0" />
      <stop
         id="stop14"
         stop-color="#00ab25"
         offset="1" />
    </linearGradient>
    <linearGradient
       id="color-4"
       gradientUnits="userSpaceOnUse"
       y2="151.1861"
       x2="282.53668"
       y1="146.21394"
       x1="280.52744"
       gradientTransform="matrix(2.0027332,0,0,2.0027332,-363.09705,-194.4515)">
      <stop
         id="stop17"
         stop-color="#d6e100"
         offset="0" />
      <stop
         id="stop19"
         stop-color="#00ab25"
         offset="1" />
    </linearGradient>
    <linearGradient
       id="color-5"
       gradientUnits="userSpaceOnUse"
       y2="150.04182"
       x2="285.65866"
       y1="144.87524"
       x1="283.57086"
       gradientTransform="matrix(2.0027332,0,0,2.0027332,-363.09705,-194.4515)">
      <stop
         id="stop22"
         stop-color="#d6e100"
         offset="0" />
      <stop
         id="stop24"
         stop-color="#00ab25"
         offset="1" />
    </linearGradient>
    <linearGradient
       id="color-6"
       gradientUnits="userSpaceOnUse"
       y2="206.56154"
       x2="204.86078"
       y1="211.53371"
       x1="206.87003"
       gradientTransform="matrix(2.0027332,0,0,2.0027332,-363.09705,-194.4515)">
      <stop
         id="stop27"
         stop-color="#d6e100"
         offset="0" />
      <stop
         id="stop29"
         stop-color="#00ab25"
         offset="1" />
    </linearGradient>
    <linearGradient
       id="color-7"
       gradientUnits="userSpaceOnUse"
       y2="205.22284"
       x2="207.90419"
       y1="210.38943"
       x1="209.99199"
       gradientTransform="matrix(2.0027332,0,0,2.0027332,-363.09705,-194.4515)">
      <stop
         id="stop32"
         stop-color="#d6e100"
         offset="0" />
      <stop
         id="stop34"
         stop-color="#00ab25"
         offset="1" />
    </linearGradient>
    <linearGradient
       id="color-8"
       gradientUnits="userSpaceOnUse"
       y2="209.03949"
       x2="198.59682"
       y1="214.01164"
       x1="200.60605"
       gradientTransform="matrix(2.0027332,0,0,2.0027332,-363.09705,-194.4515)">
      <stop
         id="stop37"
         stop-color="#d6e100"
         offset="0" />
      <stop
         id="stop39"
         stop-color="#00ab25"
         offset="1" />
    </linearGradient>
    <linearGradient
       id="color-9"
       gradientUnits="userSpaceOnUse"
       y2="210.18375"
       x2="195.47482"
       y1="215.35034"
       x1="197.56264"
       gradientTransform="matrix(2.0027332,0,0,2.0027332,-363.09705,-194.4515)">
      <stop
         id="stop42"
         stop-color="#d6e100"
         offset="0" />
      <stop
         id="stop44"
         stop-color="#00ab25"
         offset="1" />
    </linearGradient>
  </defs>
  <path
     style="mix-blend-mode:normal;fill:#020084;stroke-width:2.00273323"
     id="path51"
     d="m 40.803711,166.04049 c 0,-47.28488 34.364479,-85.61685 76.755219,-85.61685 42.39074,0 76.7552,38.33197 76.7552,85.61685 0,47.28489 -34.36446,85.61684 -76.7552,85.61684 -42.39074,0 -76.755219,-38.33197 -76.755219,-85.61684 z"
     inkscape:connector-curvature="0" />
  <path
     style="mix-blend-mode:normal;fill:url(#color-1);stroke-width:2.00273323"
     id="path53"
     d="m 62.349035,166.04049 c 0,-34.01192 24.71831,-61.58405 55.209895,-61.58405 30.49156,0 55.20987,27.57213 55.20987,61.58405 0,34.01191 -24.71831,61.58404 -55.20987,61.58404 -30.491585,0 -55.209895,-27.57213 -55.209895,-61.58404 z"
     inkscape:connector-curvature="0" />
  <path
     style="mix-blend-mode:normal;fill:#020084;stroke-width:2.00273323"
     id="path55"
     d="m 89.729485,166.04049 c 0,-17.14424 12.459615,-31.04237 27.829375,-31.04237 15.36975,0 27.82938,13.89813 27.82938,31.04237 0,17.14423 -12.45963,31.04236 -27.82938,31.04236 -15.36976,0 -27.829375,-13.89813 -27.829375,-31.04236 z"
     inkscape:connector-curvature="0" />
  <text
     id="text61"
     style="font-weight:normal;font-size:40.05466461px;font-family:Serif;text-anchor:start;mix-blend-mode:normal;fill:#000000;fill-rule:nonzero;stroke:none;stroke-width:1.00136662;stroke-linecap:butt;stroke-linejoin:miter;stroke-miterlimit:10;stroke-dasharray:none;stroke-dashoffset:0"
     font-weight="normal"
     stroke-miterlimit="10"
     xml:space="preserve"
     font-size="40"
     x="0.34255317"
     y="37.268551"><tspan
       id="tspan59"
       dy="0"
       x="0.34255317"
       style="stroke-width:1.00136662">Q</tspan></text>
  <text
     id="text65"
     style="font-weight:normal;font-size:40.05466461px;font-family:Serif;text-anchor:start;mix-blend-mode:normal;fill:#000000;fill-rule:nonzero;stroke:none;stroke-width:1.00136662;stroke-linecap:butt;stroke-linejoin:miter;stroke-miterlimit:10;stroke-dasharray:none;stroke-dashoffset:0"
     font-weight="normal"
     stroke-miterlimit="10"
     data-paper-data="{&quot;origRot&quot;:-45}"
     xml:space="preserve"
     font-size="40"
     transform="scale(-1)"
     x="-234.18309"
     y="-302.87036"><tspan
       id="tspan63"
       dy="0"
       x="-234.18309"
       style="stroke-width:1.00136662">Q</tspan></text>
  <path
     style="mix-blend-mode:normal;stroke:#000000;stroke-width:1.00136662"
     id="path67"
     d="m 7.963793,82.72478 4.319235,-8.691221 c 0,0 0.625954,-4.904053 1.332398,-10.280811 0.09733,-0.114556 -2.67503,0.0739 -2.656665,-0.05608 0.02183,0.167028 -0.09753,-3.351194 -0.107547,-3.359024 -0.140592,-0.110551 3.442859,0.06529 3.46595,-0.106946 0.410601,-3.064202 0.57843,-6.084084 0.859954,-8.246174 0.05367,-0.412523 1.674705,0.159217 1.730642,0.5714 0.258412,1.904098 0.33027,5.330514 0.422036,7.649038 2.79946,-0.07871 2.693035,0.05287 3.301605,0.04666 0.118562,0.05948 -0.09513,3.684408 -0.127173,3.664421 -0.0755,-0.006 -0.895642,-0.04726 -2.720954,-0.06088 -0.09974,0.03905 1.262343,10.4344 1.262343,10.4344 l 3.48053,8.579589 z"
     inkscape:connector-curvature="0" />
  <path
     style="mix-blend-mode:normal;stroke:none;stroke-width:0"
     id="path69"
     d="m 0.001247,62.526775 c 0,-2.04437 1.027282,-6.170561 5.430972,-6.230803 0.002,0.13218 0.155011,2.195115 0.06869,2.225938 -4.707745,-0.02043 3.991367,-0.419573 -0.01402,-8.1e-5 -0.332153,-0.163623 0.01402,-2.118711 -0.107146,-2.256058 4.29422,0.334196 5.461133,4.404871 5.461133,6.260984 0,0.130578 -0.004,0.260095 -0.01402,0.38839 -0.199072,2.812258 -2.543632,5.031887 -5.406579,5.031887 C 2.426732,67.947032 0,65.520301 0,62.526755 Z"
     inkscape:connector-curvature="0" />
  <path
     style="mix-blend-mode:normal;stroke:none;stroke-width:0"
     id="path71"
     d="m 8.962717,47.827214 c 0,-2.04437 1.027282,-6.170561 5.430972,-6.230803 0.002,0.13218 0.155011,2.195115 0.06869,2.225938 -4.707744,-0.02043 3.991368,-0.419573 -0.01402,-8.1e-5 -0.332153,-0.163423 0.01402,-2.118711 -0.107146,-2.256059 4.29422,0.334197 5.461133,4.404872 5.461133,6.260985 0,2.993545 -2.426732,5.420277 -5.420277,5.420277 -2.993546,0 -5.420278,-2.426732 -5.420278,-5.420277 z"
     inkscape:connector-curvature="0" />
  <path
     style="mix-blend-mode:normal;stroke:none;stroke-width:0"
     id="path73"
     d="m 19.910478,62.184628 c 0,-2.04437 1.027282,-6.170561 5.430971,-6.230803 0.002,0.13218 0.155012,2.195116 0.06869,2.225938 -4.707745,-0.02043 3.991367,-0.419573 -0.01402,-8e-5 -0.332153,-0.163424 0.01402,-2.118712 -0.107146,-2.256059 4.29422,0.334196 5.461133,4.404871 5.461133,6.260984 0,2.993546 -2.426732,5.420277 -5.420277,5.420277 -2.993546,0 -5.420278,-2.426731 -5.420278,-5.420277 z"
     inkscape:connector-curvature="0" />
  <path
     style="mix-blend-mode:normal;stroke:#000000;stroke-width:1.00136662"
     id="path77"
     d="m 225.79886,254.26715 -4.31924,8.69122 c 0,0 -0.62593,4.90404 -1.33238,10.28081 -0.0971,0.11456 2.67503,-0.0739 2.65665,0.0561 -0.0218,-0.16703 0.0975,3.35121 0.10755,3.35904 0.14059,0.11055 -3.44288,-0.0653 -3.46597,0.10695 -0.4106,3.06422 -0.57841,6.0841 -0.85996,8.24617 -0.0537,0.41255 -1.67468,-0.15921 -1.73064,-0.5714 -0.25843,-1.90409 -0.33025,-5.33049 -0.42204,-7.64903 -2.79948,0.0787 -2.69303,-0.0529 -3.3016,-0.0467 -0.11856,-0.0595 0.0951,-3.68441 0.12737,-3.66442 0.0755,0.006 0.89564,0.0473 2.72098,0.0609 0.0997,-0.039 -1.26235,-10.4344 -1.26235,-10.4344 l -3.48053,-8.57959 z"
     inkscape:connector-curvature="0" />
  <path
     style="mix-blend-mode:normal;stroke:none;stroke-width:0"
     id="path79"
     d="m 233.76142,274.46516 c 0,2.04437 -1.02728,6.17056 -5.43097,6.2308 -0.002,-0.13218 -0.15501,-2.19512 -0.0687,-2.22594 4.70774,0.0204 -3.99135,0.41957 0.014,8e-5 0.33215,0.16343 -0.014,2.11871 0.10714,2.25606 -4.29422,-0.3342 -5.46113,-4.40487 -5.46113,-6.261 0,-0.13058 0.004,-0.26012 0.014,-0.38839 0.19907,-2.81226 2.54363,-5.03189 5.40658,-5.03189 2.99354,0 5.42027,2.42673 5.42027,5.42028 z"
     inkscape:connector-curvature="0" />
  <path
     style="mix-blend-mode:normal;stroke:none;stroke-width:0"
     id="path81"
     d="m 224.79993,289.16472 c 0,2.04437 -1.02726,6.17056 -5.43097,6.23082 -0.002,-0.13218 -0.15501,-2.19511 -0.0687,-2.22596 4.70774,0.0204 -3.99137,0.4196 0.014,8e-5 0.33213,0.16363 -0.014,2.11871 0.10714,2.25604 -4.29422,-0.33419 -5.46115,-4.40487 -5.46115,-6.26098 0,-2.99353 2.42675,-5.42028 5.42028,-5.42028 2.99354,0 5.42027,2.42675 5.42027,5.42028 z"
     inkscape:connector-curvature="0" />
  <path
     style="mix-blend-mode:normal;stroke:none;stroke-width:0"
     id="path83"
     d="m 213.85217,274.8073 c 0,2.04439 -1.02728,6.17056 -5.43095,6.23083 -0.002,-0.13218 -0.15501,-2.19512 -0.0687,-2.22594 4.70774,0.0204 -3.99137,0.41957 0.014,8e-5 0.33213,0.16342 -0.014,2.11871 0.10714,2.25604 -4.29422,-0.3342 -5.46115,-4.40487 -5.46115,-6.26101 0,-2.99352 2.42675,-5.42027 5.42028,-5.42027 2.99354,0 5.42027,2.42675 5.42027,5.42027 z"
     inkscape:connector-curvature="0" />
  <path
     style="mix-blend-mode:normal;fill:#ffb89a;stroke:#000000;stroke-width:1.00136662;stroke-linecap:butt"
     id="path87"
     d="m 111.67074,77.884675 -3.32595,-49.78222 h 47.06422 c 0,0 19.3454,31.957774 10.01367,33.045098 -13.84359,1.613061 -12.84305,14.66259 -11.27086,21.651889 0.58854,2.616451 -0.3025,4.383643 -2.7493,4.383643 -6.62488,0 -12.2429,-1.752392 -18.52426,-1.752392 -6.47479,0 -21.20752,-7.546018 -21.20752,-7.546018 z"
     inkscape:connector-curvature="0" />
  <path
     style="mix-blend-mode:normal;fill:#000000;stroke:#000000;stroke-width:1.00136662;stroke-linecap:butt"
     id="path89"
     d="m 155.02513,46.327347 c 0,1.659124 -1.83815,3.0041 -4.1056,3.0041 -2.26746,0 -4.10561,-1.344976 -4.10561,-3.0041 0,-1.659124 1.83815,-3.0041 4.10561,-3.0041 2.26745,0 4.1056,1.344976 4.1056,3.0041 z"
     inkscape:connector-curvature="0" />
  <path
     style="mix-blend-mode:normal;fill:none;stroke:#000000;stroke-width:1.00136662;stroke-linecap:round"
     id="path91"
     d="m 153.05576,70.079763 c 0,0 -4.00018,1.9489 -5.91279,1.923185 -1.80264,-0.02423 -5.75313,-3.325098 -5.75313,-3.325098"
     inkscape:connector-curvature="0" />
  <path
     style="mix-blend-mode:normal;fill:none;stroke:#000000;stroke-width:1.00136662;stroke-linecap:round"
     id="path93"
     d="m 157.82795,40.684767 c 0,0 -0.61153,1.752391 -2.34466,2.753758 -1.17907,0.681229 -3.66354,0 -3.66354,0"
     inkscape:connector-curvature="0" />
  <path
     style="mix-blend-mode:normal;fill:#ffe54a;stroke:#000000;stroke-width:2.00273323;stroke-linecap:butt"
     id="path95"
     d="m 80.483404,28.15777 c 0,0 11.100351,-12.461707 18.887701,-17.988289 11.406045,-8.0947272 26.073405,-8.0947272 36.875975,-0.8994075 13.73765,9.1502875 31.4795,-6.2958922 31.4795,-6.2958922 L 160.53126,28.15777 Z"
     inkscape:connector-curvature="0" />
  <path
     style="mix-blend-mode:normal;fill:none;stroke:#000000;stroke-width:1.00136662;stroke-linecap:round"
     id="path97"
     d="M 123.82262,83.042253 113.14136,74.149177"
     inkscape:connector-curvature="0" />
  <path
     style="mix-blend-mode:normal;fill:#573600;stroke:none;stroke-width:0;stroke-linecap:butt"
     id="path99"
     d="m 43.605175,110.21454 c 0,0 13.720625,-10.09949 18.571124,-20.694025 2.900278,-6.334826 -3.804251,-11.559937 -0.634265,-18.483886 4.446007,-9.711033 14.626501,-14.818744 17.013258,-20.031898 3.89055,-8.497798 3.101814,-23.903623 3.101814,-23.903623 H 135.7309 c 0,0 1.02162,14.897231 -2.75476,23.145608 -2.81412,6.146629 -14.2085,13.905698 -19.60242,25.687156 -2.24453,4.902491 5.52329,7.805212 3.46086,12.30998 -5.14082,11.228624 -19.155625,21.970708 -19.155625,21.970708 z"
     inkscape:connector-curvature="0" />
  <path
     style="mix-blend-mode:normal;fill:#825000;stroke:none;stroke-width:0;stroke-linecap:butt"
     id="path101"
     d="m 62.63114,110.21454 c 0,0 13.720625,-10.09949 18.571125,-20.694025 2.900278,-6.334826 -3.804252,-11.559937 -0.634266,-18.483886 4.446008,-9.711033 14.626506,-14.818744 17.013256,-20.031898 3.890555,-8.497798 3.101825,-23.903623 3.101825,-23.903623 h 14.01913 c 0,0 1.02161,14.897231 -2.75476,23.145608 -2.81412,6.146629 -14.208515,13.905698 -19.602435,25.687156 -2.24453,4.902491 5.52329,7.805212 3.46086,12.30998 -5.14082,11.228624 -19.155623,21.970708 -19.155623,21.970708 z"
     inkscape:connector-curvature="0" />
  <path
     style="mix-blend-mode:normal;fill:none;stroke:#000000;stroke-width:1.00136662;stroke-linecap:round"
     id="path103"
     d="m 141.98942,41.640951 6.90943,-5.157038 7.56032,-0.200273"
     inkscape:connector-curvature="0" />
  <path
     style="mix-blend-mode:normal;fill:#000000;stroke:#000000;stroke-width:1.00136662;stroke-linecap:butt"
     id="path105"
     d="m 152.48274,25.391455 1.38713,-2.791209 c 0,0 0.20102,-1.57495 0.42791,-3.301706 0.0312,-0.03665 -0.8591,0.02383 -0.8532,-0.01802 0.008,0.05367 -0.0314,-1.076249 -0.0346,-1.078773 -0.0451,-0.03545 1.10567,0.02103 1.1131,-0.03445 0.13198,-0.984083 0.18586,-1.953926 0.27619,-2.648294 0.018,-0.132581 0.53784,0.05107 0.55582,0.183451 0.0829,0.611494 0.10614,1.711916 0.13558,2.456512 0.89905,-0.02523 0.86486,0.01602 1.06031,0.01402 0.038,0.02003 -0.0306,1.183255 -0.0408,1.176826 -0.0242,-0.002 -0.28764,-0.01602 -0.87384,-0.02003 -0.032,0.01202 0.40542,3.351034 0.40542,3.351034 l 1.11776,2.75536 z"
     inkscape:connector-curvature="0" />
  <path
     style="mix-blend-mode:normal;fill:#000000;stroke:none;stroke-width:0;stroke-linecap:butt"
     id="path107"
     d="m 149.92555,18.904802 c 0,-0.656556 0.32991,-1.981704 1.74418,-2.001051 9e-4,0.04246 0.0499,0.704963 0.022,0.714876 -1.5119,-0.006 1.28183,-0.134784 -0.004,-4e-5 -0.10674,-0.05247 0.004,-0.680429 -0.0344,-0.724529 1.3791,0.107347 1.75387,1.414631 1.75387,2.010724 0,0.04186 -10e-4,0.08351 -0.004,0.124771 -0.0639,0.903152 -0.8169,1.615985 -1.73633,1.615985 -0.96138,0 -1.74074,-0.779344 -1.74074,-1.740736 z"
     inkscape:connector-curvature="0" />
  <path
     style="mix-blend-mode:normal;fill:#000000;stroke:none;stroke-width:0;stroke-linecap:butt"
     id="path109"
     d="m 152.80356,14.184 c 0,-0.656556 0.32991,-1.981705 1.74418,-2.001051 9e-4,0.04246 0.0497,0.704962 0.022,0.714875 -1.51191,-0.006 1.28183,-0.134784 -0.004,-4e-5 -0.10674,-0.05247 0.004,-0.680428 -0.0345,-0.724528 1.37911,0.107346 1.75386,1.41463 1.75386,2.010724 0,0.961392 -0.77937,1.740735 -1.74074,1.740735 -0.96137,0 -1.74073,-0.779343 -1.74073,-1.740735 z"
     inkscape:connector-curvature="0" />
  <path
     style="mix-blend-mode:normal;fill:#000000;stroke:none;stroke-width:0;stroke-linecap:butt"
     id="path111"
     d="m 156.31946,18.794932 c 0,-0.656556 0.32993,-1.981704 1.74418,-2.001051 9e-4,0.04246 0.0499,0.704963 0.022,0.714856 -1.51191,-0.006 1.28182,-0.134784 -0.004,-4e-5 -0.10675,-0.05247 0.004,-0.680429 -0.0344,-0.724529 1.37911,0.107347 1.75388,1.414651 1.75388,2.010744 0,0.961392 -0.77937,1.740736 -1.74074,1.740736 -0.96137,0 -1.74075,-0.779344 -1.74075,-1.740736 z"
     inkscape:connector-curvature="0" />
  <path
     style="mix-blend-mode:normal;fill:#ffb89a;stroke:#000000;stroke-width:1.00136662;stroke-linecap:butt"
     id="path115"
     d="m 126.68495,251.87935 3.32596,49.78222 H 82.946685 c 0,0 -19.345401,-31.95777 -10.013666,-33.0451 13.843593,-1.61306 12.843048,-14.66259 11.270862,-21.65188 -0.588543,-2.61646 0.302493,-4.38365 2.749294,-4.38365 6.62488,0 12.24291,1.75239 18.524265,1.75239 6.4748,0 21.20751,7.54602 21.20751,7.54602 z"
     inkscape:connector-curvature="0" />
  <path
     style="mix-blend-mode:normal;fill:#000000;stroke:#000000;stroke-width:1.00136662;stroke-linecap:butt"
     id="path117"
     d="m 83.330569,283.43668 c 0,-1.65912 1.838149,-3.0041 4.105606,-3.0041 2.26745,0 4.1056,1.34498 4.1056,3.0041 0,1.65912 -1.83815,3.0041 -4.1056,3.0041 -2.267457,0 -4.105606,-1.34498 -4.105606,-3.0041 z"
     inkscape:connector-curvature="0" />
  <path
     style="mix-blend-mode:normal;fill:none;stroke:#000000;stroke-width:1.00136662;stroke-linecap:round"
     id="path119"
     d="m 85.299937,259.68426 c 0,0 4.000178,-1.9489 5.912788,-1.92318 1.80264,0.0242 5.75313,3.3251 5.75313,3.3251"
     inkscape:connector-curvature="0" />
  <path
     style="mix-blend-mode:normal;fill:none;stroke:#000000;stroke-width:1.00136662;stroke-linecap:round"
     id="path121"
     d="m 80.527744,289.07926 c 0,0 0.611535,-1.75239 2.34466,-2.75376 1.179069,-0.68123 3.66354,0 3.66354,0"
     inkscape:connector-curvature="0" />
  <path
     style="mix-blend-mode:normal;fill:#ffe54a;stroke:#000000;stroke-width:2.00273323;stroke-linecap:butt"
     id="path123"
     d="m 157.87227,301.60626 c 0,0 -11.10034,12.4617 -18.88769,17.98829 -11.40604,8.09472 -26.0734,8.09472 -36.87599,0.8994 -13.737645,-9.15028 -31.479495,6.2959 -31.479495,6.2959 l 7.19532,-25.18359 z"
     inkscape:connector-curvature="0" />
  <path
     style="mix-blend-mode:normal;fill:none;stroke:#000000;stroke-width:1.00136662;stroke-linecap:round"
     id="path125"
     d="m 125.21434,255.61485 -10.68125,-8.89308"
     inkscape:connector-curvature="0" />
  <path
     style="mix-blend-mode:normal;fill:#573600;stroke:none;stroke-width:0;stroke-linecap:butt"
     id="path127"
     d="m 194.7505,219.54949 c 0,0 -13.72062,10.09948 -18.57112,20.69402 -2.90028,6.33483 3.80425,11.55994 0.63426,18.48389 -4.446,9.71103 -14.6265,14.81874 -17.01325,20.0319 -3.89055,8.49779 -3.10182,23.90362 -3.10182,23.90362 h -54.07379 c 0,0 -1.02162,-14.89723 2.75476,-23.14561 2.81412,-6.14663 14.20851,-13.9057 19.60243,-25.68715 2.24452,-4.9025 -5.5233,-7.80522 -3.46087,-12.30998 5.14082,-11.22863 19.15563,-21.97071 19.15563,-21.97071 z"
     inkscape:connector-curvature="0" />
  <path
     style="mix-blend-mode:normal;fill:#825000;stroke:none;stroke-width:0;stroke-linecap:butt"
     id="path129"
     d="m 175.72454,219.54949 c 0,0 -13.72063,10.09948 -18.57113,20.69402 -2.90027,6.33483 3.80426,11.55994 0.63427,18.48389 -4.44601,9.71103 -14.6265,14.81874 -17.01326,20.0319 -3.89055,8.49779 -3.10181,23.90362 -3.10181,23.90362 h -14.01914 c 0,0 -1.02161,-14.89723 2.75476,-23.14561 2.81412,-6.14663 14.20851,-13.9057 19.60244,-25.68715 2.24452,-4.9025 -5.5233,-7.80522 -3.46087,-12.30998 5.14082,-11.22863 19.15563,-21.97071 19.15563,-21.97071 z"
     inkscape:connector-curvature="0" />
  <path
     style="mix-blend-mode:normal;fill:none;stroke:#000000;stroke-width:1.00136662;stroke-linecap:round"
     id="path131"
     d="m 96.366275,288.12308 -6.90942,5.15703 -7.560323,0.20028"
     inkscape:connector-curvature="0" />
  <path
     style="mix-blend-mode:normal;fill:#000000;stroke:#000000;stroke-width:1.00136662;stroke-linecap:butt"
     id="path133"
     d="m 85.872959,304.37257 -1.387133,2.79121 c 0,0 -0.201014,1.57495 -0.427904,3.30171 -0.03124,0.0367 0.859092,-0.0236 0.853204,0.018 -0.008,-0.0537 0.03144,1.07625 0.03465,1.07877 0.04506,0.0355 -1.105669,-0.021 -1.113099,0.0344 -0.131981,0.98408 -0.185854,1.95393 -0.276177,2.6483 -0.01803,0.13238 -0.537854,-0.0511 -0.555819,-0.18345 -0.08291,-0.6115 -0.106145,-1.71192 -0.135585,-2.45652 -0.899047,0.0252 -0.86486,-0.016 -1.060307,-0.014 -0.03805,-0.02 0.03064,-1.18325 0.04086,-1.17682 0.02423,0.002 0.287632,0.016 0.873832,0.02 0.03204,-0.012 -0.405413,-3.35103 -0.405413,-3.35103 l -1.117765,-2.75536 z"
     inkscape:connector-curvature="0" />
  <path
     style="mix-blend-mode:normal;fill:#000000;stroke:none;stroke-width:0;stroke-linecap:butt"
     id="path135"
     d="m 88.430145,310.85922 c 0,0.65656 -0.32991,1.98171 -1.744176,2.00106 -9.02e-4,-0.0425 -0.04967,-0.70497 -0.02203,-0.71488 1.511906,0.006 -1.28183,0.13478 0.004,4e-5 0.106746,0.0525 -0.004,0.68043 0.03445,0.72453 -1.379102,-0.10735 -1.753874,-1.41463 -1.753874,-2.01073 0,-0.0419 0.0015,-0.0835 0.004,-0.12477 0.06389,-0.90315 0.816895,-1.61598 1.73633,-1.61598 0.96137,0 1.74073,0.77934 1.74073,1.74073 z"
     inkscape:connector-curvature="0" />
  <path
     style="mix-blend-mode:normal;fill:#000000;stroke:none;stroke-width:0;stroke-linecap:butt"
     id="path137"
     d="m 85.552141,315.58003 c 0,0.65655 -0.32991,1.9817 -1.74418,2.00105 -9.01e-4,-0.0425 -0.04967,-0.70496 -0.02203,-0.71488 1.511903,0.006 -1.28183,0.13479 0.004,4e-5 0.106746,0.0525 -0.004,0.68043 0.03445,0.72453 -1.379102,-0.10734 -1.753853,-1.41463 -1.753853,-2.01072 0,-0.96139 0.779363,-1.74074 1.740735,-1.74074 0.961372,0 1.740736,0.77935 1.740736,1.74074 z"
     inkscape:connector-curvature="0" />
  <path
     style="mix-blend-mode:normal;fill:#000000;stroke:none;stroke-width:0;stroke-linecap:butt"
     id="path139"
     d="m 82.036243,310.96909 c 0,0.65656 -0.32993,1.98171 -1.74418,2.00106 -9.02e-4,-0.0425 -0.04967,-0.70497 -0.02203,-0.71486 1.511903,0.006 -1.28183,0.13478 0.004,4e-5 0.106746,0.0525 -0.004,0.68043 0.03445,0.72453 -1.379102,-0.10735 -1.753874,-1.41465 -1.753874,-2.01075 0,-0.96139 0.779364,-1.74073 1.740736,-1.74073 0.961372,0 1.740756,0.77934 1.740756,1.74073 z"
     inkscape:connector-curvature="0" />
  <path
     style="mix-blend-mode:normal;fill:#00ab25;stroke:none;stroke-width:0"
     id="path143"
     d="m 199.77776,115.77276 c 1.81901,-2.77929 5.54665,-3.55773 8.32593,-1.73875 2.77929,1.819 3.55773,5.54665 1.73875,8.32592 -1.819,2.7793 -5.54665,3.55774 -8.32592,1.73876 -2.7793,-1.81901 -3.55774,-5.54665 -1.73876,-8.32593 z"
     inkscape:connector-curvature="0" />
  <path
     style="mix-blend-mode:normal;fill:#00ab25;stroke:none;stroke-width:1.00136662"
     id="path145"
     d="m 194.94817,102.96887 c 0,-0.012 2.4e-4,-0.0256 7.2e-4,-0.0384 8e-5,-0.29693 0.10895,-0.70244 0.64518,-0.89809 0.0252,-0.01 0.0509,-0.018 0.0771,-0.0256 0.54655,-0.16562 0.87716,0.0931 1.05557,0.33071 0.004,0.004 0.008,0.008 0.01,0.014 l 0.72249,0.90312 -0.28401,0.22721 0.0879,0.26376 -0.0833,0.0278 c 0.40964,2.3331 -0.15061,4.76165 0.012,7.15584 l 0.18945,0.37872 c 0.0733,0.13919 0.11476,0.29764 0.11476,0.46583 0,0.17705 -0.0461,0.34355 -0.12677,0.48791 0.0659,0.31827 0.1502,0.63549 0.25739,0.95136 0.0607,0.18205 0.12136,0.36414 0.18205,0.5462 l 0.22921,0.95289 c 0,0 0.0304,0.33021 -0.13358,0.62811 0.5872,2.10037 1.11376,4.0705 1.8225,5.3318 3.05736,6.1147 3.76757,12.27489 3.77656,19.08731 0.002,2.24282 8.4e-4,4.48564 8.4e-4,6.72846 l -0.0298,0.42472 c 0,0 0.24287,0.97147 -0.7286,1.21434 -0.97146,0.24287 -1.21433,-0.7286 -1.21433,-0.7286 l -0.0298,-0.91044 c 0,-2.24204 0.002,-4.4841 -8.4e-4,-6.72614 -0.006,-6.59904 -0.62281,-12.3094 -3.56513,-18.19399 -0.3555,-0.99041 -1.35006,-1.40019 -1.77466,-2.45056 -1.26867,-3.13849 -0.76176,-9.44189 -4.1195,-11.12076 0,0 -0.0459,-0.0228 -0.11156,-0.0687 l -0.87962,-0.1466 0.002,-0.012 c -0.59365,0.0537 -1.19994,-0.25865 -2.07576,-0.98803 l -0.36413,-0.45516 c 0,0 -0.21944,0.37581 -0.21944,-0.62555 0,-0.75055 1.00183,-0.72742 1.50372,-0.66874 0.12898,-0.40409 0.50737,-0.69677 0.95419,-0.69677 0.19427,0 0.37576,0.0553 0.5293,0.15121 l 0.37353,0.22412 c 0.53173,-0.28737 1.26888,-0.63765 1.78073,-0.74265 l 0.61382,-0.61382 v 0 c 0.18125,-0.18124 0.43155,-0.2933 0.70807,-0.2933 0.0322,0 0.0641,0.001 0.0955,0.004 -0.002,-0.0314 -0.004,-0.0633 -0.004,-0.0955 z m -0.45562,3.37366 c 0.014,-0.012 0.0288,-0.0222 0.0441,-0.0332 -0.008,-0.0723 -0.016,-0.1444 -0.024,-0.21637 -0.016,0.0276 -0.0316,0.0553 -0.0479,0.0827 0.01,0.0557 0.018,0.11135 0.0278,0.16682 z"
     inkscape:connector-curvature="0" />
  <path
     style="mix-blend-mode:normal;fill:#00ab25;stroke:none;stroke-width:0"
     id="path147"
     d="m 199.23158,116.16019 14.16703,-10.23006 0.17725,0.11616 -3.8825,16.96115 z"
     inkscape:connector-curvature="0" />
  <path
     style="mix-blend-mode:normal;fill:#ffb89a;stroke:#000000;stroke-width:1.00136662"
     id="path149"
     d="m 212.93358,153.22794 c 0,10.02821 -4.60671,18.1577 -10.28936,18.1577 -5.68266,0 -10.28935,-8.12947 -10.28935,-18.1577 0,-2.84536 -1.21878,-7.16961 -0.0655,-14.48809 0.90872,-5.76677 8.37267,-8.11185 9.18256,-6.64099 2.91772,5.29894 -3.75255,9.34676 -0.95276,13.24282 3.3162,4.61467 12.41448,-2.14195 12.41448,7.88626 z"
     inkscape:connector-curvature="0" />
  <path
     style="mix-blend-mode:normal;fill:url(#color-2);stroke-width:2.00273323"
     id="path151"
     d="m 190.33269,113.24237 c -2.71986,1.18253 -5.88339,-0.0637 -7.06592,-2.78358 -1.18253,-2.71987 0.0637,-5.88337 2.78356,-7.0659 2.71987,-1.18254 5.88339,0.0637 7.06592,2.78355 1.18254,2.71988 -0.0637,5.88337 -2.78356,7.06591 z"
     inkscape:connector-curvature="0" />
  <path
     style="mix-blend-mode:normal;fill:url(#color-3);stroke-width:2.00273323"
     id="path153"
     d="m 190.93019,113.22094 -15.58735,0.6903 -0.0755,-0.17343 11.21148,-10.75496 z"
     inkscape:connector-curvature="0" />
  <path
     style="mix-blend-mode:normal;fill:url(#color-4);stroke-width:2.00273323"
     id="path157"
     d="m 198.59539,98.430234 c 2.71987,-1.182534 5.88339,0.06369 7.06592,2.783556 1.18254,2.71987 -0.0637,5.88339 -2.78356,7.06593 -2.71986,1.18253 -5.88337,-0.0637 -7.06592,-2.78358 -1.18253,-2.71988 0.0637,-5.883372 2.78356,-7.065906 z"
     inkscape:connector-curvature="0" />
  <path
     style="mix-blend-mode:normal;fill:url(#color-5);stroke-width:2.00273323"
     id="path159"
     d="m 197.9979,98.451643 15.58737,-0.690302 0.0755,0.173637 -11.21148,10.754962 z"
     inkscape:connector-curvature="0" />
  <path
     style="mix-blend-mode:normal;stroke-width:2.00273323"
     id="path163"
     d="m 186.69385,101.10993 c -1.18254,-2.719871 0.0637,-5.883388 2.78356,-7.065922 2.71987,-1.182534 5.88339,0.06369 7.06592,2.783559 1.18253,2.719872 -0.0637,5.883373 -2.78356,7.065903 -2.71987,1.18253 -5.88339,-0.0637 -7.06592,-2.78356 z"
     inkscape:connector-curvature="0" />
  <path
     style="mix-blend-mode:normal;stroke-width:2.00273323"
     id="path165"
     d="m 186.71526,101.70745 -0.6903,-15.587376 0.17363,-0.0755 10.75494,11.211501 z"
     inkscape:connector-curvature="0" />
  <path
     style="mix-blend-mode:normal;stroke-width:2.00273323"
     id="path169"
     d="m 188.04818,108.51816 c -0.35617,-0.88138 -0.63211,-2.83925 1.25591,-3.63242 0.0242,0.0565 0.44925,0.91936 0.41739,0.9477 -2.03319,0.81132 1.6477,-0.87626 -0.006,0.002 -0.17163,-0.012 -0.36289,-0.91593 -0.43922,-0.95397 1.90959,-0.60404 3.12184,0.94764 3.4452,1.74785 0.0228,0.0563 0.0433,0.11295 0.0617,0.16983 0.40409,1.24712 -0.22,2.61253 -1.45429,3.11129 -1.29058,0.52151 -2.75958,-0.10194 -3.28111,-1.39252 z"
     inkscape:connector-curvature="0" />
  <path
     style="mix-blend-mode:normal;stroke-width:2.00273323"
     id="path171"
     d="m 189.97491,102.47019 c -0.35617,-0.88139 -0.63209,-2.839257 1.25593,-3.63244 0.0242,0.05648 0.44923,0.919375 0.41737,0.947713 -2.0332,0.811327 1.64769,-0.876255 -0.006,0.002 -0.17163,-0.01202 -0.36289,-0.91595 -0.43922,-0.953982 1.90959,-0.604044 3.12184,0.947634 3.4452,1.747869 0.52152,1.2906 -0.10194,2.7596 -1.39252,3.28111 -1.29058,0.52152 -2.7596,-0.10194 -3.28111,-1.39252 z"
     inkscape:connector-curvature="0" />
  <path
     style="mix-blend-mode:normal;stroke-width:2.00273323"
     id="path173"
     d="m 195.97692,105.26628 c -0.35617,-0.88138 -0.63213,-2.83927 1.25589,-3.63243 0.0242,0.0565 0.44925,0.91937 0.41739,0.94771 -2.03319,0.81133 1.64767,-0.87624 -0.006,0.002 -0.17163,-0.012 -0.36286,-0.91593 -0.4392,-0.95398 1.90959,-0.60405 3.12184,0.94763 3.4452,1.74786 0.52152,1.2906 -0.10193,2.75961 -1.3925,3.28112 -1.29058,0.52151 -2.7596,-0.10194 -3.28113,-1.39252 z"
     inkscape:connector-curvature="0" />
  <path
     style="mix-blend-mode:normal;fill:#00ab25;stroke:none;stroke-width:0"
     id="path183"
     d="m 37.610173,216.75998 c -1.819002,2.7793 -5.54665,3.55774 -8.325923,1.73876 -2.779293,-1.81901 -3.557735,-5.54665 -1.738753,-8.32593 1.819003,-2.77929 5.54665,-3.55773 8.325923,-1.73875 2.779293,1.819 3.557735,5.54665 1.738753,8.32592 z"
     inkscape:connector-curvature="0" />
  <path
     style="mix-blend-mode:normal;fill:#00ab25;stroke:none;stroke-width:1.00136662"
     id="path185"
     d="m 42.439764,229.56388 c 0,0.012 -2.4e-4,0.0256 -7.21e-4,0.0385 -8e-5,0.29693 -0.108949,0.70244 -0.64518,0.89809 -0.02524,0.01 -0.05087,0.018 -0.07711,0.0258 -0.546545,0.16563 -0.877157,-0.0931 -1.05556,-0.33071 -0.004,-0.004 -0.008,-0.008 -0.01001,-0.014 l -0.722486,-0.90311 0.284008,-0.22721 -0.08792,-0.26376 0.08331,-0.0278 c -0.40964,-2.3331 0.150605,-4.76166 -0.01202,-7.15585 l -0.189258,-0.37871 c -0.0733,-0.13919 -0.114757,-0.29765 -0.114757,-0.46584 0,-0.17704 0.04606,-0.34355 0.126773,-0.4879 -0.06589,-0.31828 -0.150205,-0.63549 -0.257391,-0.95136 -0.06068,-0.18205 -0.121366,-0.36414 -0.182049,-0.54621 l -0.229212,-0.95288 c 0,0 -0.03044,-0.33021 0.133582,-0.62812 -0.587201,-2.10036 -1.11376,-4.07049 -1.822507,-5.33179 -3.057353,-6.11471 -3.767562,-12.27489 -3.776554,-19.08731 -0.002,-2.24282 -8.41e-4,-4.48564 -8.41e-4,-6.72846 l 0.02984,-0.42472 c 0,0 -0.242871,-0.97147 0.728595,-1.21434 0.971465,-0.24287 1.214337,0.72859 1.214337,0.72859 l 0.02984,0.91045 c 0,2.24204 -0.0018,4.4841 8.41e-4,6.72614 0.006,6.59904 0.62281,12.30939 3.565125,18.19399 0.355505,0.99041 1.350063,1.40019 1.774662,2.45056 1.268672,3.13848 0.76176,9.44189 4.119502,11.12076 0,0 0.04586,0.0228 0.111552,0.0689 l 0.879621,0.1466 -0.0019,0.012 c 0.59365,-0.0537 1.199938,0.25865 2.075753,0.98803 l 0.364137,0.45516 c 0,0 0.21944,-0.37582 0.21944,0.62555 0,0.75055 -1.001828,0.72741 -1.503713,0.66873 -0.128976,0.40409 -0.507372,0.69677 -0.954202,0.69677 -0.194265,0 -0.375753,-0.0553 -0.529302,-0.1512 l -0.37353,-0.22413 c -0.531726,0.28737 -1.268872,0.63765 -1.78073,0.74266 l -0.613818,0.61381 v 0 c -0.181247,0.18125 -0.431549,0.2933 -0.708066,0.2933 -0.03224,0 -0.06409,-0.002 -0.09553,-0.004 0.002,0.0314 0.004,0.0633 0.004,0.0955 z m 0.455622,-3.37367 c -0.01402,0.012 -0.02884,0.0222 -0.04406,0.0333 0.008,0.0723 0.01602,0.1444 0.02403,0.21637 0.01602,-0.0276 0.03164,-0.0553 0.04787,-0.0827 -0.01001,-0.0557 -0.01803,-0.11135 -0.02784,-0.16683 z"
     inkscape:connector-curvature="0" />
  <path
     style="mix-blend-mode:normal;fill:#00ab25;stroke:none;stroke-width:0"
     id="path187"
     d="m 38.156358,216.37256 -14.167034,10.23006 -0.177242,-0.11616 3.882499,-16.96115 z"
     inkscape:connector-curvature="0" />
  <path
     style="mix-blend-mode:normal;fill:#ffb89a;stroke:#000000;stroke-width:1.00136662"
     id="path189"
     d="m 24.454359,179.30481 c 0,-10.02821 4.606707,-18.1577 10.289362,-18.1577 5.682655,0 10.289342,8.12947 10.289342,18.1577 0,2.84536 1.218784,7.1696 0.06549,14.48809 -0.90872,5.76677 -8.372667,8.11185 -9.182552,6.64098 -2.917722,-5.29893 3.752561,-9.34675 0.95276,-13.24281 -3.316206,-4.61468 -12.414482,2.14194 -12.414482,-7.88626 z"
     inkscape:connector-curvature="0" />
  <path
     style="mix-blend-mode:normal;fill:url(#color-6);stroke-width:2.00273323"
     id="path191"
     d="m 47.055243,219.29038 c 2.719872,-1.18254 5.883389,0.0637 7.065923,2.78358 1.182534,2.71987 -0.06369,5.88337 -2.783559,7.0659 -2.719872,1.18253 -5.883389,-0.0637 -7.065923,-2.78356 -1.182534,-2.71987 0.06369,-5.88339 2.783559,-7.06592 z"
     inkscape:connector-curvature="0" />
  <path
     style="mix-blend-mode:normal;fill:url(#color-7);stroke-width:2.00273323"
     id="path193"
     d="M 46.457748,219.31181 62.0451,218.6215 62.1206,218.79514 50.90912,229.5501 Z"
     inkscape:connector-curvature="0" />
  <path
     style="mix-blend-mode:normal;fill:url(#color-8);stroke-width:2.00273323"
     id="path197"
     d="m 38.792547,234.10251 c -2.719872,1.18254 -5.88337,-0.0637 -7.065903,-2.78356 -1.182534,-2.71987 0.06369,-5.88339 2.783538,-7.06592 2.719872,-1.18253 5.88339,0.0637 7.065923,2.78356 1.182534,2.71987 -0.06369,5.88339 -2.783558,7.06592 z"
     inkscape:connector-curvature="0" />
  <path
     style="mix-blend-mode:normal;fill:url(#color-9);stroke-width:2.00273323"
     id="path199"
     d="m 39.390042,234.08108 -15.587353,0.6903 -0.0755,-0.17343 11.211481,-10.75496 z"
     inkscape:connector-curvature="0" />
  <path
     style="mix-blend-mode:normal;stroke-width:2.00273323"
     id="path203"
     d="m 50.694089,231.42281 c 1.182534,2.71988 -0.06369,5.88339 -2.783559,7.06593 -2.719872,1.18253 -5.883389,-0.0637 -7.065923,-2.78356 -1.182534,-2.71987 0.06369,-5.88337 2.783579,-7.0659 2.719872,-1.18254 5.883369,0.0637 7.065903,2.78355 z"
     inkscape:connector-curvature="0" />
  <path
     style="mix-blend-mode:normal;stroke-width:2.00273323"
     id="path205"
     d="m 50.67268,230.8253 0.690302,15.58737 -0.173637,0.0755 -10.754938,-11.21151 z"
     inkscape:connector-curvature="0" />
  <path
     style="mix-blend-mode:normal;stroke-width:2.00273323"
     id="path209"
     d="m 49.339761,224.01458 c 0.356166,0.88139 0.632102,2.83926 -1.255914,3.63244 -0.02423,-0.0565 -0.449253,-0.91935 -0.41739,-0.94769 2.033195,-0.81133 -1.647668,0.87625 0.006,-0.002 0.171635,0.012 0.362876,0.91593 0.43922,0.95398 -1.909586,0.60404 -3.121841,-0.94764 -3.445202,-1.74787 -0.02283,-0.0563 -0.04326,-0.11295 -0.06168,-0.16983 -0.404092,-1.24712 0.22,-2.6125 1.454285,-3.11129 1.290581,-0.52151 2.759586,0.10194 3.281117,1.3925 z"
     inkscape:connector-curvature="0" />
  <path
     style="mix-blend-mode:normal;stroke-width:2.00273323"
     id="path211"
     d="m 47.413031,230.06256 c 0.356166,0.88138 0.632083,2.83925 -1.255934,3.63244 -0.02423,-0.0565 -0.449233,-0.91938 -0.417369,-0.94772 2.033195,-0.81132 -1.647689,0.87626 0.006,-0.002 0.171634,0.012 0.362895,0.91595 0.439219,0.95398 -1.909586,0.60405 -3.12184,-0.94763 -3.445201,-1.74786 -0.521512,-1.29061 0.101939,-2.75961 1.39252,-3.28114 1.290581,-0.52151 2.759606,0.10194 3.281118,1.39252 z"
     inkscape:connector-curvature="0" />
  <path
     style="mix-blend-mode:normal;stroke-width:2.00273323"
     id="path213"
     d="m 41.41102,227.26646 c 0.356166,0.88139 0.632123,2.83928 -1.255894,3.63244 -0.02423,-0.0565 -0.449253,-0.91937 -0.417389,-0.94771 2.033194,-0.81133 -1.647669,0.87623 0.006,-0.002 0.171634,0.012 0.362875,0.91593 0.439199,0.95399 -1.909586,0.60404 -3.12184,-0.94764 -3.445202,-1.74787 -0.521511,-1.2906 0.101939,-2.75961 1.392501,-3.28112 1.290581,-0.52151 2.759606,0.10194 3.281138,1.39252 z"
     inkscape:connector-curvature="0" />
</svg>
