<?xml version="1.0" encoding="UTF-8" standalone="no"?>
<svg
   xmlns:dc="http://purl.org/dc/elements/1.1/"
   xmlns:cc="http://creativecommons.org/ns#"
   xmlns:rdf="http://www.w3.org/1999/02/22-rdf-syntax-ns#"
   xmlns:svg="http://www.w3.org/2000/svg"
   xmlns="http://www.w3.org/2000/svg"
   xmlns:sodipodi="http://sodipodi.sourceforge.net/DTD/sodipodi-0.dtd"
   xmlns:inkscape="http://www.inkscape.org/namespaces/inkscape"
   sodipodi:docname="DJ.svg"
   id="svg95"
   viewBox="0 0 238.11023 332.59842"
   height="88mm"
   width="63mm"
   version="1.1"
   inkscape:version="0.92.3 (2405546, 2018-03-11)">
  <metadata
     id="metadata99">
    <rdf:RDF>
      <cc:Work
         rdf:about="">
        <dc:format>image/svg+xml</dc:format>
        <dc:type
           rdf:resource="http://purl.org/dc/dcmitype/StillImage" />
        <dc:title></dc:title>
      </cc:Work>
    </rdf:RDF>
  </metadata>
  <sodipodi:namedview
     inkscape:current-layer="svg95"
     inkscape:window-maximized="1"
     inkscape:window-y="0"
     inkscape:window-x="0"
     inkscape:cy="95.75"
     inkscape:cx="109.88771"
     inkscape:zoom="1.232376"
     showgrid="false"
     id="namedview97"
     inkscape:window-height="1018"
     inkscape:window-width="1920"
     inkscape:pageshadow="2"
     inkscape:pageopacity="0"
     guidetolerance="10"
     gridtolerance="10"
     objecttolerance="10"
     borderopacity="1"
     bordercolor="#666666"
     pagecolor="#ffffff"
     units="mm" />
  <defs
     id="defs7">
    <radialGradient
       cx="240"
       cy="179.21648"
       r="30.75"
       gradientUnits="userSpaceOnUse"
       id="color-1">
      <stop
         offset="0"
         stop-color="#ff0000"
         id="stop2" />
      <stop
         offset="1"
         stop-color="#fbff00"
         id="stop4" />
    </radialGradient>
  </defs>
  <text
     transform="scale(-1)"
     font-size="40"
     xml:space="preserve"
     data-paper-data="{&quot;origRot&quot;:-45}"
     stroke-miterlimit="10"
     font-weight="normal"
     style="font-weight:normal;font-size:40.08130264px;font-family:Serif;text-anchor:start;mix-blend-mode:normal;fill:#ff0000;fill-rule:nonzero;stroke:none;stroke-width:1.00203252;stroke-linecap:butt;stroke-linejoin:miter;stroke-miterlimit:10;stroke-dasharray:none;stroke-dashoffset:0"
     id="text13"
     x="-232.85092"
     y="-302.21576"><tspan
       x="-232.85092"
       dy="0"
       id="tspan11"
       style="stroke-width:1.00203252">J</tspan></text>
  <path
     d="m 225.55321,293.08552 -16.81459,-17.14376 16.81459,-17.14375 16.8146,17.14375 z"
     data-paper-data="{&quot;origRot&quot;:0}"
     id="path15"
     inkscape:connector-curvature="0"
     style="mix-blend-mode:normal;fill:#ff0000;fill-rule:nonzero;stroke:#000000;stroke-width:1.00203252;stroke-linecap:butt;stroke-linejoin:miter;stroke-miterlimit:10;stroke-dasharray:none;stroke-dashoffset:0" />
  <g
     id="g23"
     style="mix-blend-mode:normal;fill-rule:nonzero;stroke:none;stroke-width:0;stroke-linecap:butt;stroke-linejoin:miter;stroke-miterlimit:10;stroke-dasharray:none;stroke-dashoffset:0"
     transform="matrix(2.0040651,0,0,2.0040651,-358.81428,-195.4368)">
    <path
       d="m 197.25,179.53423 c 0,-23.61017 19.13983,-42.75 42.75,-42.75 23.61018,0 42.75,19.13983 42.75,42.75 0,23.61018 -19.13982,42.75 -42.75,42.75 -23.61017,0 -42.75,-19.13983 -42.75,-42.75 z"
       id="path17"
       inkscape:connector-curvature="0"
       style="fill:#d00000" />
    <path
       d="m 209.25,179.21647 c 0,-16.98275 13.76725,-30.75 30.75,-30.75 16.98275,0 30.75,13.76725 30.75,30.75 0,16.98275 -13.76725,30.75 -30.75,30.75 -16.98275,0 -30.75,-13.76725 -30.75,-30.75 z"
       id="path19"
       style="fill:url(#color-1)"
       inkscape:connector-curvature="0" />
    <path
       d="m 224.5,180 c 0,-8.56042 6.93958,-15.5 15.5,-15.5 8.56042,0 15.5,6.93958 15.5,15.5 0,8.56042 -6.93958,15.5 -15.5,15.5 -8.56042,0 -15.5,-6.93958 -15.5,-15.5 z"
       id="path21"
       inkscape:connector-curvature="0"
       style="fill:#d00000" />
  </g>
  <g
     style="mix-blend-mode:normal;fill-rule:nonzero;stroke-linejoin:miter;stroke-miterlimit:10;stroke-dasharray:none;stroke-dashoffset:0"
     id="g41"
     transform="matrix(2.0040651,0,0,2.0040651,-358.81428,-195.4368)">
    <path
       d="m 237.30946,133.94439 0.5,-22.5 h 23.5 c 0,0 9.6595,15.95708 5,16.5 -9.5,1.10694 -5,13 -5,13 0,0 -10.70524,0 -15,0 -3.23298,0 -9,-7 -9,-7 z"
       id="path25"
       inkscape:connector-curvature="0"
       style="fill:#ffb89a;stroke:#000000;stroke-width:0.5;stroke-linecap:butt" />
    <path
       d="m 214.28235,141.97158 c 1.44816,-3.16309 -1.89953,-5.77208 -0.3167,-9.22933 2.21997,-4.84889 7.30327,-7.39926 8.49502,-10.00228 1.94262,-4.2431 1.54879,-11.9355 1.54879,-11.9355 h 27 c 0,0 0.51011,7.43845 -1.3755,11.55701 -1.40514,3.06912 -7.09456,6.94336 -9.78784,12.82605 -1.12073,2.4479 2.75788,3.89728 1.72807,6.14659 -2.5669,5.60665 -29.71378,5.9275 -27.29184,0.63746 z"
       id="path27"
       inkscape:connector-curvature="0"
       style="fill:#ffca00;stroke:none;stroke-width:0;stroke-linecap:butt" />
    <path
       d="m 223.5914,145.3576 c 1.44816,-3.16309 -1.70858,-9.01818 -0.12575,-12.47543 2.21997,-4.84889 7.30327,-7.39926 8.49502,-10.00228 1.94262,-4.2431 1.54879,-11.9355 1.54879,-11.9355 h 7 c 0,0 0.51011,7.43845 -1.3755,11.55701 -1.40514,3.06912 -7.09456,6.94336 -9.78784,12.82605 -1.12073,2.4479 2.94882,7.71622 1.91902,9.96553 -3.52164,0.0692 -2.83969,0.77193 -7.67373,0.0646 z"
       id="path29"
       inkscape:connector-curvature="0"
       style="fill:#d28200;stroke:none;stroke-width:0;stroke-linecap:butt" />
    <path
       d="m 261.40945,120.54439 c 0,0.82843 -0.91782,1.5 -2.05,1.5 -1.13218,0 -2.05,-0.67157 -2.05,-1.5 0,-0.82843 0.91782,-1.5 2.05,-1.5 1.13218,0 2.05,0.67157 2.05,1.5 z"
       id="path31"
       inkscape:connector-curvature="0"
       style="fill:#000000;stroke:#000000;stroke-width:0.5;stroke-linecap:butt" />
    <path
       d="m 262.95848,116.63536 -5.4695,1.09753 -2.32855,0.24054"
       id="path33"
       inkscape:connector-curvature="0"
       style="fill:none;stroke:#000000;stroke-width:0.5;stroke-linecap:round" />
    <path
       d="m 256.22093,132.09522 3.87706,2.41835"
       id="path35"
       inkscape:connector-curvature="0"
       style="fill:none;stroke:#000000;stroke-width:0.5;stroke-linecap:round" />
    <path
       d="m 224.29208,111.57986 -2.24547,-12.57461 c 0,0 7.78808,6.35226 11.67643,3.59274 5.69524,-4.04184 13.01891,-4.04184 18.41284,-0.44909 6.85945,4.56889 15.71827,-3.14365 15.71827,-3.14365 l -3.59275,12.57461 z"
       id="path37"
       inkscape:connector-curvature="0"
       style="fill:#ff0000;stroke:#000000;stroke-width:1;stroke-linecap:butt" />
    <path
       d="m 243.76813,109.97056 -4.07473,-4.15449 4.07473,-4.15449 4.07473,4.15449 z"
       data-paper-data="{&quot;origRot&quot;:0}"
       id="path39"
       inkscape:connector-curvature="0"
       style="fill:#ffffff;stroke:#ffffff;stroke-width:0.5;stroke-linecap:butt" />
  </g>
  <g
     style="mix-blend-mode:normal;fill-rule:nonzero;stroke-linejoin:miter;stroke-miterlimit:10;stroke-dasharray:none;stroke-dashoffset:0"
     id="g59"
     transform="matrix(2.0040651,0,0,2.0040651,-358.81428,-195.4368)">
    <path
       d="m 245.07449,227.05787 -0.5,22.5 h -23.5 c 0,0 -9.6595,-15.95708 -5,-16.5 9.5,-1.10694 5,-13 5,-13 0,0 10.70524,0 15,0 3.23298,0 9,7 9,7 z"
       id="path43"
       inkscape:connector-curvature="0"
       style="fill:#ffb89a;stroke:#000000;stroke-width:0.5;stroke-linecap:butt" />
    <path
       d="m 268.1016,219.03068 c -1.44816,3.16309 1.89953,5.77208 0.3167,9.22933 -2.21997,4.84889 -7.30327,7.39926 -8.49502,10.00228 -1.94262,4.2431 -1.54879,11.9355 -1.54879,11.9355 h -27 c 0,0 -0.51011,-7.43845 1.3755,-11.55701 1.40514,-3.06912 7.09456,-6.94336 9.78784,-12.82605 1.12073,-2.4479 -2.75788,-3.89728 -1.72807,-6.14659 2.5669,-5.60665 29.71378,-5.9275 27.29184,-0.63746 z"
       id="path45"
       inkscape:connector-curvature="0"
       style="fill:#ffca00;stroke:none;stroke-width:0;stroke-linecap:butt" />
    <path
       d="m 258.79255,215.64466 c -1.44816,3.16309 1.70858,9.01818 0.12575,12.47543 -2.21997,4.84889 -7.30327,7.39926 -8.49502,10.00228 -1.94262,4.2431 -1.54879,11.9355 -1.54879,11.9355 h -7 c 0,0 -0.51011,-7.43845 1.3755,-11.55701 1.40514,-3.06912 7.09456,-6.94336 9.78784,-12.82605 1.12073,-2.4479 -2.94882,-7.71622 -1.91902,-9.96553 3.52164,-0.0692 2.83969,-0.77193 7.67373,-0.0646 z"
       id="path47"
       inkscape:connector-curvature="0"
       style="fill:#d28200;stroke:none;stroke-width:0;stroke-linecap:butt" />
    <path
       d="m 220.9745,240.45787 c 0,-0.82843 0.91782,-1.5 2.05,-1.5 1.13218,0 2.05,0.67157 2.05,1.5 0,0.82843 -0.91782,1.5 -2.05,1.5 -1.13218,0 -2.05,-0.67157 -2.05,-1.5 z"
       id="path49"
       inkscape:connector-curvature="0"
       style="fill:#000000;stroke:#000000;stroke-width:0.5;stroke-linecap:butt" />
    <path
       d="m 219.42547,244.3669 5.4695,-1.09753 2.32855,-0.24054"
       id="path51"
       inkscape:connector-curvature="0"
       style="fill:none;stroke:#000000;stroke-width:0.5;stroke-linecap:round" />
    <path
       d="m 226.16302,228.90704 -3.87706,-2.41835"
       id="path53"
       inkscape:connector-curvature="0"
       style="fill:none;stroke:#000000;stroke-width:0.5;stroke-linecap:round" />
    <path
       d="m 258.09187,249.4224 2.24547,12.57461 c 0,0 -7.78808,-6.35226 -11.67643,-3.59274 -5.69524,4.04184 -13.01891,4.04184 -18.41284,0.44909 -6.85945,-4.56889 -15.71827,3.14365 -15.71827,3.14365 l 3.59275,-12.57461 z"
       id="path55"
       inkscape:connector-curvature="0"
       style="fill:#ff0000;stroke:#000000;stroke-width:1;stroke-linecap:butt" />
    <path
       d="m 238.61583,251.0317 4.07473,4.15449 -4.07473,4.15449 -4.07473,-4.15449 z"
       data-paper-data="{&quot;origRot&quot;:0}"
       id="path57"
       inkscape:connector-curvature="0"
       style="fill:#ffffff;stroke:#ffffff;stroke-width:0.5;stroke-linecap:butt" />
  </g>
  <g
     id="g81"
     style="mix-blend-mode:normal;fill-rule:nonzero;stroke-linecap:butt;stroke-linejoin:miter;stroke-miterlimit:10;stroke-dasharray:none;stroke-dashoffset:0"
     transform="matrix(2.0040651,0,0,2.0040651,-358.81428,-195.4368)">
    <g
       id="g69">
      <path
         d="m 283.58028,182.3208 c 0,-1.2613 1.0225,-2.28379 2.2838,-2.28379 1.2613,0 2.28379,1.02249 2.28379,2.28379 0,1.2613 -1.02249,2.2838 -2.28379,2.2838 -1.2613,0 -2.2838,-1.0225 -2.2838,-2.2838 z"
         id="path61"
         inkscape:connector-curvature="0"
         style="fill:#e4ce00;stroke:none;stroke-width:0" />
      <path
         d="m 283.9238,176.58228 v -41.01749 h 3.69353 v 41.01749 z"
         id="path63"
         inkscape:connector-curvature="0"
         style="fill:#e4ce00;stroke:#02005e;stroke-width:0" />
      <path
         d="m 289.35203,173.76174 c 0,5.00726 -2.30021,9.06646 -5.13766,9.06646 -2.83745,0 -5.13765,-4.05919 -5.13765,-9.06646 0,-1.42074 -0.60856,-3.57991 -0.0327,-7.23416 0.45374,-2.87945 4.18062,-4.05039 4.58501,-3.31596 1.45687,2.64585 -1.87372,4.667 -0.47573,6.61237 1.65584,2.30419 6.19877,-1.06951 6.19877,3.93775 z"
         id="path65"
         inkscape:connector-curvature="0"
         style="fill:#ffb89a;stroke:#000000;stroke-width:0.5" />
      <path
         d="m 285.88557,138.61092 -4.73089,-4.82349 4.73089,-4.8235 4.73089,4.8235 z"
         data-paper-data="{&quot;origRot&quot;:0}"
         id="path67"
         inkscape:connector-curvature="0"
         style="fill:#ff0000;stroke:none;stroke-width:0" />
    </g>
    <g
       id="g79">
      <path
         d="m 195.87931,177.99773 c 0,1.2613 -1.0225,2.28379 -2.2838,2.28379 -1.2613,0 -2.28379,-1.02249 -2.28379,-2.28379 0,-1.2613 1.02249,-2.2838 2.28379,-2.2838 1.2613,0 2.2838,1.0225 2.2838,2.2838 z"
         id="path71"
         inkscape:connector-curvature="0"
         style="fill:#e4ce00;stroke:none;stroke-width:0" />
      <path
         d="m 195.53579,183.73625 v 41.01749 h -3.69353 v -41.01749 z"
         id="path73"
         inkscape:connector-curvature="0"
         style="fill:#e4ce00;stroke:#02005e;stroke-width:0" />
      <path
         d="m 190.10756,186.55679 c 0,-5.00726 2.30021,-9.06646 5.13766,-9.06646 2.83745,0 5.13765,4.05919 5.13765,9.06646 0,1.42074 0.60856,3.57991 0.0327,7.23416 -0.45374,2.87945 -4.18062,4.05039 -4.58501,3.31596 -1.45687,-2.64585 1.87372,-4.667 0.47573,-6.61237 -1.65584,-2.30419 -6.19877,1.06951 -6.19877,-3.93775 z"
         id="path75"
         inkscape:connector-curvature="0"
         style="fill:#ffb89a;stroke:#000000;stroke-width:0.5" />
      <path
         d="m 193.57402,221.70762 4.73088,4.82349 -4.73088,4.8235 -4.73089,-4.8235 z"
         data-paper-data="{&quot;origRot&quot;:0}"
         id="path77"
         inkscape:connector-curvature="0"
         style="fill:#ff0000;stroke:none;stroke-width:0" />
    </g>
  </g>
  <g
     id="g89"
     style="mix-blend-mode:normal;fill:#ff0000;fill-rule:nonzero;stroke-linecap:butt;stroke-linejoin:miter;stroke-miterlimit:10;stroke-dasharray:none;stroke-dashoffset:0"
     transform="matrix(2.0040651,0,0,2.0040651,-358.81428,-195.4368)">
    <text
       transform="matrix(0.5,0,0,0.5,184.59378,115.57995)"
       font-size="40"
       xml:space="preserve"
       stroke-miterlimit="10"
       font-weight="normal"
       style="font-weight:normal;font-size:40px;font-family:Serif;text-anchor:start;mix-blend-mode:normal;fill:#ff0000;fill-rule:nonzero;stroke:none;stroke-width:1;stroke-linecap:butt;stroke-linejoin:miter;stroke-miterlimit:10;stroke-dasharray:none;stroke-dashoffset:0"
       id="text85"><tspan
         x="0"
         dy="0"
         id="tspan83">J</tspan></text>
    <path
       d="m 187.78365,137.90389 -8.39025,-8.55449 8.39025,-8.55449 8.39025,8.55449 z"
       data-paper-data="{&quot;origRot&quot;:0}"
       id="path87"
       inkscape:connector-curvature="0"
       style="stroke:#000000;stroke-width:0.5" />
  </g>
</svg>
