<?xml version="1.0" encoding="UTF-8" standalone="no"?>
<svg
   xmlns:dc="http://purl.org/dc/elements/1.1/"
   xmlns:cc="http://creativecommons.org/ns#"
   xmlns:rdf="http://www.w3.org/1999/02/22-rdf-syntax-ns#"
   xmlns:svg="http://www.w3.org/2000/svg"
   xmlns="http://www.w3.org/2000/svg"
   xmlns:sodipodi="http://sodipodi.sourceforge.net/DTD/sodipodi-0.dtd"
   xmlns:inkscape="http://www.inkscape.org/namespaces/inkscape"
   version="1.1"
   width="63mm"
   height="88mm"
   viewBox="0 0 238.11023 332.59843"
   id="svg121"
   sodipodi:docname="DQ.svg"
   inkscape:version="0.92.3 (2405546, 2018-03-11)">
  <sodipodi:namedview
     pagecolor="#ffffff"
     bordercolor="#666666"
     borderopacity="1"
     objecttolerance="10"
     gridtolerance="10"
     guidetolerance="10"
     inkscape:pageopacity="0"
     inkscape:pageshadow="2"
     inkscape:window-width="1920"
     inkscape:window-height="1018"
     id="namedview123"
     showgrid="false"
     inkscape:zoom="1.232376"
     inkscape:cx="109.88771"
     inkscape:cy="160.66525"
     inkscape:window-x="0"
     inkscape:window-y="0"
     inkscape:window-maximized="1"
     inkscape:current-layer="svg121"
     units="mm" />
  <metadata
     id="metadata125">
    <rdf:RDF>
      <cc:Work
         rdf:about="">
        <dc:format>image/svg+xml</dc:format>
        <dc:type
           rdf:resource="http://purl.org/dc/dcmitype/StillImage" />
        <dc:title></dc:title>
      </cc:Work>
    </rdf:RDF>
  </metadata>
  <defs
     id="defs7">
    <radialGradient
       id="color-1"
       gradientUnits="userSpaceOnUse"
       r="27.56727"
       cy="180"
       cx="240.62515"
       gradientTransform="matrix(2.0224562,0,0,2.0224562,-367.64697,-199.64188)">
      <stop
         id="stop2"
         stop-color="#ff0000"
         offset="0" />
      <stop
         id="stop4"
         stop-color="#fbff00"
         offset="1" />
    </radialGradient>
  </defs>
  <text
     id="text13"
     style="font-weight:normal;font-size:40.44912338px;font-family:Serif;text-anchor:start;mix-blend-mode:normal;fill:#ff0000;fill-rule:nonzero;stroke:none;stroke-width:1.01122808;stroke-linecap:butt;stroke-linejoin:miter;stroke-miterlimit:10;stroke-dasharray:none;stroke-dashoffset:0"
     font-weight="normal"
     stroke-miterlimit="10"
     xml:space="preserve"
     font-size="40"
     x="3.1359322"
     y="34.113525"><tspan
       id="tspan11"
       dy="0"
       x="3.1359322"
       style="stroke-width:1.01122808">Q</tspan></text>
  <text
     id="text17"
     style="font-weight:normal;font-size:40.44912338px;font-family:Serif;text-anchor:start;mix-blend-mode:normal;fill:#ff0000;fill-rule:nonzero;stroke:none;stroke-width:1.01122808;stroke-linecap:butt;stroke-linejoin:miter;stroke-miterlimit:10;stroke-dasharray:none;stroke-dashoffset:0"
     font-weight="normal"
     stroke-miterlimit="10"
     data-paper-data="{&quot;origRot&quot;:-45}"
     xml:space="preserve"
     font-size="40"
     transform="scale(-1)"
     x="-235.51526"
     y="-302.57761"><tspan
       id="tspan15"
       dy="0"
       x="-235.51526"
       style="stroke-width:1.01122808">Q</tspan></text>
  <path
     style="mix-blend-mode:normal;fill:#ff0000;stroke:#000000;stroke-width:1.01122808;stroke-linecap:butt"
     id="path19"
     data-paper-data="{&quot;origRot&quot;:0}"
     d="M 17.677128,74.543644 0.70821532,57.242563 17.677128,39.941482 34.646041,57.242563 Z"
     inkscape:connector-curvature="0" />
  <path
     style="mix-blend-mode:normal;fill:#ff0000;stroke:#000000;stroke-width:1.01122808;stroke-linecap:butt"
     id="path21"
     data-paper-data="{&quot;origRot&quot;:0}"
     d="m 220.73489,294.03769 -16.9689,-17.30108 16.9689,-17.30108 16.96891,17.30108 z"
     inkscape:connector-curvature="0" />
  <path
     style="mix-blend-mode:normal;fill:#b60000;stroke-width:2.02245617"
     id="path23"
     d="m 41.495837,164.40023 c 0,-47.75053 34.7029,-86.459992 77.511103,-86.459992 42.80822,0 77.5111,38.709462 77.5111,86.459992 0,47.75056 -34.70288,86.46 -77.5111,86.46 -42.808203,0 -77.511103,-38.70946 -77.511103,-86.46 z"
     inkscape:connector-curvature="0" />
  <path
     style="mix-blend-mode:normal;fill:url(#color-1);stroke-width:2.02245617"
     id="path25"
     d="m 63.253279,164.40023 c 0,-34.34686 24.961737,-62.19052 55.753601,-62.19052 30.79185,0 55.75359,27.84366 55.75359,62.19052 0,34.34687 -24.96174,62.19053 -55.75359,62.19053 -30.791864,0 -55.753601,-27.84366 -55.753601,-62.19053 z"
     inkscape:connector-curvature="0" />
  <path
     style="mix-blend-mode:normal;fill:#b60000;stroke-width:2.02245617"
     id="path27"
     d="m 90.903426,164.40023 c 0,-17.31307 12.582334,-31.34807 28.103454,-31.34807 15.52111,0 28.10344,14.035 28.10344,31.34807 0,17.31308 -12.58233,31.34807 -28.10344,31.34807 -15.52112,0 -28.103454,-14.03499 -28.103454,-31.34807 z"
     inkscape:connector-curvature="0" />
  <path
     style="mix-blend-mode:normal;fill:#ffb89a;stroke:#000000;stroke-width:1.01122808;stroke-linecap:butt"
     id="path31"
     d="m 112.49898,77.826778 -3.35872,-50.272476 h 47.52772 c 0,0 19.53592,32.272495 10.11229,33.370527 -13.97993,1.628947 -12.96953,14.806988 -11.38186,21.865117 0.59434,2.642218 -0.30547,4.426813 -2.77637,4.426813 -6.69012,0 -12.36348,-1.769649 -18.70669,-1.769649 -6.53856,0 -21.41637,-7.620332 -21.41637,-7.620332 z"
     inkscape:connector-curvature="0" />
  <path
     style="mix-blend-mode:normal;fill:#573600;stroke:none;stroke-width:0;stroke-linecap:butt"
     id="path33"
     d="m 42.943835,111.82493 c 0,0 13.855746,-10.19894 18.754013,-20.897814 2.92884,-6.39721 -3.841716,-11.673778 -0.640512,-18.665915 4.489792,-9.806667 14.770544,-14.964679 17.180806,-20.229173 3.928864,-8.581483 3.13236,-24.139025 3.13236,-24.139025 h 54.606318 c 0,0 1.03168,15.043939 -2.78189,23.373546 -2.84183,6.207161 -14.34843,14.042641 -19.79547,25.940124 -2.26663,4.95077 5.57769,7.882078 3.49494,12.431209 -5.19144,11.339198 -19.344274,22.187068 -19.344274,22.187068 z"
     inkscape:connector-curvature="0" />
  <path
     style="mix-blend-mode:normal;fill:#825000;stroke:none;stroke-width:0;stroke-linecap:butt"
     id="path35"
     d="m 62.157168,112.04965 c 0,0 13.855746,-10.19894 18.754014,-20.897818 2.92884,-6.397211 -3.841716,-11.673779 -0.640512,-18.665916 4.489792,-9.806667 14.770546,-14.964679 17.180806,-20.229172 3.928864,-8.581484 3.132364,-24.139026 3.132364,-24.139026 h 14.15719 c 0,0 1.03168,15.043939 -2.78189,23.373546 -2.84183,6.207161 -14.348434,14.042641 -19.795474,25.940124 -2.26663,4.95077 5.57769,7.882078 3.49494,12.431209 -5.19144,11.339203 -19.344265,22.187073 -19.344265,22.187073 z"
     inkscape:connector-curvature="0" />
  <path
     style="mix-blend-mode:normal;fill:#000000;stroke:#000000;stroke-width:1.01122808;stroke-linecap:butt"
     id="path37"
     d="m 156.6174,45.958674 c 0,1.675463 -1.85625,3.033684 -4.14603,3.033684 -2.28979,0 -4.14604,-1.358221 -4.14604,-3.033684 0,-1.675464 1.85625,-3.033685 4.14604,-3.033685 2.28978,0 4.14603,1.358221 4.14603,3.033685 z"
     inkscape:connector-curvature="0" />
  <path
     style="mix-blend-mode:normal;fill:none;stroke:#000000;stroke-width:1.01122808;stroke-linecap:round"
     id="path39"
     d="m 141.90403,42.183112 6.97748,-5.207825 7.63477,-0.202245"
     inkscape:connector-curvature="0" />
  <path
     style="mix-blend-mode:normal;fill:none;stroke:#000000;stroke-width:1.01122808;stroke-linecap:round"
     id="path41"
     d="m 154.29156,69.945004 c 0,0 -4.03958,1.968092 -5.97102,1.942124 -1.82039,-0.02447 -5.80979,-3.357844 -5.80979,-3.357844"
     inkscape:connector-curvature="0" />
  <path
     style="mix-blend-mode:normal;fill:none;stroke:#000000;stroke-width:1.01122808;stroke-linecap:round"
     id="path43"
     d="m 159.44783,41.21751 c 0,0 -0.61756,1.76965 -2.36775,2.780878 -1.19068,0.687938 -3.69962,0 -3.69962,0"
     inkscape:connector-curvature="0" />
  <path
     style="mix-blend-mode:normal;fill:#ffe54a;stroke:#000000;stroke-width:2.02245617;stroke-linecap:butt"
     id="path45"
     d="m 81.004498,28.435062 c 0,0 11.209668,-12.584431 19.073702,-18.165439 11.51838,-8.1744444 26.33018,-8.1744444 37.23915,-0.9082647 13.87293,9.2403997 31.78951,-6.3578947 31.78951,-6.3578947 l -7.26618,25.4315984 z"
     inkscape:connector-curvature="0" />
  <path
     style="mix-blend-mode:normal;fill:none;stroke:#000000;stroke-width:1.01122808;stroke-linecap:round"
     id="path47"
     d="m 114.60173,74.222701 10.78644,8.980655"
     inkscape:connector-curvature="0" />
  <path
     style="mix-blend-mode:normal;fill:#ff0000;stroke:#000000;stroke-width:1.01122808;stroke-linecap:butt"
     id="path49"
     data-paper-data="{&quot;origRot&quot;:0}"
     d="m 153.96192,26.004696 -5.98581,-6.102984 5.98581,-6.102964 5.98582,6.102964 z"
     inkscape:connector-curvature="0" />
  <path
     style="mix-blend-mode:normal;fill:#ffb89a;stroke:#000000;stroke-width:1.01122808;stroke-linecap:butt"
     id="path53"
     d="m 128.1084,251.6067 3.35871,50.27248 H 83.939385 c 0,0 -19.535915,-32.2725 -10.112281,-33.37053 13.979922,-1.62895 12.969526,-14.80699 11.381858,-21.86512 -0.59434,-2.64221 0.305471,-4.42681 2.776364,-4.42681 6.69013,0 12.363484,1.76965 18.706694,1.76965 6.53856,0 21.41638,7.62033 21.41638,7.62033 z"
     inkscape:connector-curvature="0" />
  <path
     style="mix-blend-mode:normal;fill:#573600;stroke:none;stroke-width:0;stroke-linecap:butt"
     id="path55"
     d="m 197.66353,217.60855 c 0,0 -13.85574,10.19894 -18.75401,20.89781 -2.92884,6.39721 3.84172,11.67378 0.64051,18.66592 -4.48979,9.80667 -14.77054,14.96468 -17.1808,20.22917 -3.92887,8.58149 -3.13236,24.13903 -3.13236,24.13903 h -54.60632 c 0,0 -1.03167,-15.04394 2.78189,-23.37355 2.84183,-6.20716 14.34844,-14.04264 19.79548,-25.94012 2.26662,-4.95077 -5.57769,-7.88208 -3.49495,-12.43121 5.19144,-11.3392 19.34427,-22.18707 19.34427,-22.18707 z"
     inkscape:connector-curvature="0" />
  <path
     style="mix-blend-mode:normal;fill:#825000;stroke:none;stroke-width:0;stroke-linecap:butt"
     id="path57"
     d="m 178.4502,217.38383 c 0,0 -13.85574,10.19894 -18.75401,20.89782 -2.92884,6.39721 3.84171,11.67378 0.64051,18.66591 -4.48979,9.80667 -14.77054,14.96468 -17.18081,20.22918 -3.92886,8.58148 -3.13236,24.13902 -3.13236,24.13902 h -14.15719 c 0,0 -1.03167,-15.04394 2.78189,-23.37354 2.84183,-6.20716 14.34844,-14.04264 19.79548,-25.94013 2.26662,-4.95077 -5.57769,-7.88208 -3.49495,-12.43121 5.19144,-11.3392 19.34427,-22.18707 19.34427,-22.18707 z"
     inkscape:connector-curvature="0" />
  <path
     style="mix-blend-mode:normal;fill:#000000;stroke:#000000;stroke-width:1.01122808;stroke-linecap:butt"
     id="path59"
     d="m 83.989967,283.47481 c 0,-1.67547 1.85625,-3.03369 4.146039,-3.03369 2.28978,0 4.14603,1.35822 4.14603,3.03369 0,1.67546 -1.85625,3.03368 -4.14603,3.03368 -2.289789,0 -4.146039,-1.35822 -4.146039,-3.03368 z"
     inkscape:connector-curvature="0" />
  <path
     style="mix-blend-mode:normal;fill:none;stroke:#000000;stroke-width:1.01122808;stroke-linecap:round"
     id="path61"
     d="m 98.703336,287.25037 -6.97747,5.20782 -7.634777,0.20225"
     inkscape:connector-curvature="0" />
  <path
     style="mix-blend-mode:normal;fill:none;stroke:#000000;stroke-width:1.01122808;stroke-linecap:round"
     id="path63"
     d="m 86.315811,259.48848 c 0,0 4.039575,-1.9681 5.971015,-1.94213 1.8204,0.0245 5.80979,3.35785 5.80979,3.35785"
     inkscape:connector-curvature="0" />
  <path
     style="mix-blend-mode:normal;fill:none;stroke:#000000;stroke-width:1.01122808;stroke-linecap:round"
     id="path65"
     d="m 81.159539,288.21597 c 0,0 0.617557,-1.76965 2.36775,-2.78088 1.190681,-0.68794 3.699617,0 3.699617,0"
     inkscape:connector-curvature="0" />
  <path
     style="mix-blend-mode:normal;fill:#ffe54a;stroke:#000000;stroke-width:2.02245617;stroke-linecap:butt"
     id="path67"
     d="m 159.60287,300.99842 c 0,0 -11.20966,12.58443 -19.0737,18.16544 -11.51837,8.17444 -26.33018,8.17444 -37.23914,0.90826 -13.872944,-9.2404 -31.789519,6.3579 -31.789519,6.3579 l 7.26618,-25.4316 z"
     inkscape:connector-curvature="0" />
  <path
     style="mix-blend-mode:normal;fill:none;stroke:#000000;stroke-width:1.01122808;stroke-linecap:round"
     id="path69"
     d="m 115.2192,246.23012 10.78645,8.98066"
     inkscape:connector-curvature="0" />
  <path
     style="mix-blend-mode:normal;fill:#ff0000;stroke:#000000;stroke-width:1.01122808;stroke-linecap:butt"
     id="path71"
     data-paper-data="{&quot;origRot&quot;:0}"
     d="m 86.645431,303.42878 5.985805,6.10299 -5.985805,6.10298 -5.985802,-6.10298 z"
     inkscape:connector-curvature="0" />
  <path
     style="mix-blend-mode:normal;fill:#00ab25;stroke-width:1.01122808"
     id="path75"
     d="m 195.89389,100.70749 c 0,-0.0121 2.4e-4,-0.0259 7.2e-4,-0.0388 8e-5,-0.29985 0.11003,-0.709354 0.65154,-0.906928 0.0255,-0.01011 0.0514,-0.0182 0.0779,-0.02589 0.55193,-0.167257 0.8858,0.09404 1.06596,0.333968 0.004,0.004 0.008,0.008 0.0101,0.0142 l 0.7296,0.91201 -0.2868,0.22944 0.0888,0.26636 -0.0841,0.0281 c 0.41367,2.35608 -0.15209,4.80855 0.0121,7.22632 l 0.19113,0.38245 c 0.074,0.14056 0.11588,0.30057 0.11588,0.47042 0,0.17878 -0.0465,0.34693 -0.12802,0.49271 0.0665,0.32141 0.15168,0.64174 0.25993,0.96073 0.0613,0.18384 0.12256,0.36772 0.18384,0.55158 l 0.23147,0.96227 c 0,0 0.0307,0.33346 -0.1349,0.6343 0.59298,2.12104 1.12473,4.11058 1.84046,5.3843 3.08746,6.17492 3.80466,12.39577 3.81374,19.27528 0.002,2.26491 8.5e-4,4.52982 8.5e-4,6.79472 l -0.0301,0.42891 c 0,0 0.24526,0.98103 -0.73577,1.22629 -0.98104,0.24527 -1.2263,-0.73577 -1.2263,-0.73577 l -0.0301,-0.91941 c 0,-2.26412 0.002,-4.52826 -8.5e-4,-6.79237 -0.006,-6.66404 -0.62895,-12.43063 -3.60024,-18.37317 -0.359,-1.00016 -1.36336,-1.41398 -1.79214,-2.4747 -1.28116,-3.16939 -0.76926,-9.53486 -4.16007,-11.23027 0,0 -0.0463,-0.0231 -0.11265,-0.0694 l -0.88828,-0.14804 0.002,-0.0121 c -0.5995,0.0542 -1.21176,-0.2612 -2.0962,-0.99776 l -0.36772,-0.45964 c 0,0 -0.2216,0.37951 -0.2216,-0.63172 0,-0.75793 1.01169,-0.73457 1.51852,-0.67532 0.13025,-0.40807 0.51237,-0.70363 0.9636,-0.70363 0.19618,0 0.37945,0.0558 0.53452,0.1527 l 0.3772,0.22633 c 0.53697,-0.2902 1.28137,-0.64393 1.79827,-0.74997 l 0.61986,-0.61986 v 0 c 0.18304,-0.18303 0.4358,-0.29619 0.71504,-0.29619 0.0326,0 0.0647,0.002 0.0965,0.004 -0.002,-0.0318 -0.004,-0.0639 -0.004,-0.0965 z m -0.46011,3.40689 c 0.0142,-0.0121 0.0291,-0.0224 0.0445,-0.0336 -0.008,-0.073 -0.0162,-0.14582 -0.0243,-0.21851 -0.0162,0.0279 -0.0319,0.0558 -0.0483,0.0835 0.0101,0.0562 0.0182,0.11245 0.0281,0.16847 z"
     inkscape:connector-curvature="0" />
  <path
     style="mix-blend-mode:normal;fill:#00ab25;stroke-width:2.02245617"
     id="path77"
     d="m 200.77104,113.63748 c 1.83691,-2.80667 5.60127,-3.59277 8.40791,-1.75588 2.80667,1.83691 3.59278,5.60127 1.75588,8.40791 -1.83691,2.80667 -5.60127,3.59278 -8.40792,1.75588 -2.80666,-1.83692 -3.59277,-5.60127 -1.75587,-8.40791 z"
     inkscape:connector-curvature="0" />
  <path
     style="mix-blend-mode:normal;fill:#00ab25;stroke-width:2.02245617"
     id="path79"
     d="m 200.21949,114.02872 14.30656,-10.3308 0.17898,0.1173 -3.92073,17.12817 z"
     inkscape:connector-curvature="0" />
  <path
     style="mix-blend-mode:normal;fill:#f7d300;stroke-width:2.02245617"
     id="path81"
     data-paper-data="{&quot;origRot&quot;:0}"
     d="m 195.886,102.04984 -13.5394,2.0646 -8.51534,-10.726945 13.53941,-2.064604 z"
     inkscape:connector-curvature="0" />
  <path
     style="mix-blend-mode:normal;fill:#f7d300;stroke-width:2.02245617"
     id="path83"
     data-paper-data="{&quot;origRot&quot;:0}"
     d="m 194.1447,102.8304 -2.0646,-13.53939 10.72695,-8.515349 2.0646,13.539413 z"
     inkscape:connector-curvature="0" />
  <path
     style="mix-blend-mode:normal;fill:#ff0000;stroke-width:2.02245617"
     id="path85"
     data-paper-data="{&quot;origRot&quot;:0}"
     d="m 192.88627,97.95679 -12.41642,-5.704823 5.46307,-12.524687 12.41645,5.704843 z"
     inkscape:connector-curvature="0" />
  <path
     style="mix-blend-mode:normal;fill:#ffb89a;stroke:#000000;stroke-width:1.01122808"
     id="path91"
     d="m 214.05641,151.46151 c 0,10.12696 -4.65207,18.33652 -10.39069,18.33652 -5.73862,0 -10.39067,-8.20954 -10.39067,-18.33652 0,-2.87338 -1.23079,-7.24021 -0.0661,-14.63077 0.91767,-5.82356 8.45512,-8.19174 9.27298,-6.70639 2.94646,5.35112 -3.78951,9.43881 -0.96214,13.37323 3.34887,4.66013 12.53674,-2.16303 12.53674,7.96393 z"
     inkscape:connector-curvature="0" />
  <path
     style="mix-blend-mode:normal;fill:#00ab25;stroke-width:1.01122808"
     id="path95"
     d="m 42.171742,228.0981 c 0,0.0121 -2.43e-4,0.0259 -7.28e-4,0.0388 -8.1e-5,0.29985 -0.110022,0.70935 -0.651534,0.90693 -0.02548,0.0101 -0.05137,0.0182 -0.07787,0.0261 -0.551928,0.16725 -0.885795,-0.0941 -1.065956,-0.33397 -0.004,-0.004 -0.0081,-0.008 -0.01011,-0.0142 l -0.729601,-0.912 0.286804,-0.22945 -0.08879,-0.26636 0.08413,-0.0281 c -0.413673,-2.35608 0.152088,-4.80855 -0.01214,-7.22632 l -0.191122,-0.38244 c -0.07402,-0.14057 -0.115887,-0.30058 -0.115887,-0.47043 0,-0.17878 0.04652,-0.34693 0.128022,-0.49271 -0.06654,-0.32141 -0.151685,-0.64174 -0.259926,-0.96073 -0.06128,-0.18384 -0.122561,-0.36772 -0.183842,-0.55158 l -0.23147,-0.96226 c 0,0 -0.03074,-0.33347 0.134898,-0.63431 -0.592984,-2.12105 -1.124728,-4.11058 -1.840455,-5.3843 -3.087462,-6.17492 -3.804665,-12.39578 -3.813746,-19.27528 -0.002,-2.26491 -8.49e-4,-4.52982 -8.49e-4,-6.79473 l 0.03013,-0.4289 c 0,0 -0.245263,-0.98103 0.73577,-1.2263 0.981033,-0.24526 1.226296,0.73577 1.226296,0.73577 l 0.03014,0.91941 c 0,2.26412 -0.0018,4.52826 8.49e-4,6.79238 0.0061,6.66403 0.628943,12.43062 3.600235,18.37317 0.359006,1.00016 1.363358,1.41398 1.792139,2.47469 1.281165,3.16939 0.769261,9.53487 4.160071,11.23028 0,0 0.04631,0.023 0.11265,0.0696 l 0.888283,0.14804 -0.0019,0.0121 c 0.599497,-0.0542 1.211755,0.2612 2.096195,0.99776 l 0.367723,0.45964 c 0,0 0.2216,-0.37951 0.2216,0.63171 0,0.75794 -1.011693,0.73458 -1.51852,0.67532 -0.130246,0.40807 -0.512369,0.70364 -0.963599,0.70364 -0.196179,0 -0.379454,-0.0558 -0.534515,-0.1527 l -0.377209,-0.22633 c -0.536962,0.2902 -1.281367,0.64393 -1.798267,0.74996 l -0.619862,0.61987 v 0 c -0.183032,0.18303 -0.435799,0.29619 -0.71504,0.29619 -0.03256,0 -0.06472,-0.002 -0.09647,-0.004 0.002,0.0317 0.004,0.0639 0.004,0.0965 z m 0.460129,-3.40689 c -0.01416,0.0121 -0.02912,0.0225 -0.04449,0.0336 0.0081,0.073 0.01618,0.14582 0.02427,0.21851 0.01618,-0.0279 0.03195,-0.0558 0.04834,-0.0835 -0.01011,-0.0562 -0.0182,-0.11245 -0.02811,-0.16847 z"
     inkscape:connector-curvature="0" />
  <path
     style="mix-blend-mode:normal;fill:#00ab25;stroke-width:2.02245617"
     id="path97"
     d="m 37.294609,215.16811 c -1.836916,2.80666 -5.601273,3.59277 -8.407916,1.75588 -2.806664,-1.83692 -3.592772,-5.60128 -1.755877,-8.40792 1.836916,-2.80666 5.601274,-3.59277 8.407917,-1.75588 2.806663,1.83692 3.592772,5.60128 1.755876,8.40792 z"
     inkscape:connector-curvature="0" />
  <path
     style="mix-blend-mode:normal;fill:#00ab25;stroke-width:2.02245617"
     id="path99"
     d="m 37.846133,214.77687 -14.306552,10.3308 -0.178987,-0.1173 3.920734,-17.12818 z"
     inkscape:connector-curvature="0" />
  <path
     style="mix-blend-mode:normal;fill:#f7d300;stroke-width:2.02245617"
     id="path101"
     data-paper-data="{&quot;origRot&quot;:0}"
     d="m 42.179629,226.75575 13.539394,-2.0646 8.515349,10.72694 -13.539413,2.06461 z"
     inkscape:connector-curvature="0" />
  <path
     style="mix-blend-mode:normal;fill:#f7d300;stroke-width:2.02245617"
     id="path103"
     data-paper-data="{&quot;origRot&quot;:0}"
     d="m 43.920944,225.97519 2.064604,13.53939 -10.726946,8.51535 -2.064604,-13.53942 z"
     inkscape:connector-curvature="0" />
  <path
     style="mix-blend-mode:normal;fill:#ff0000;stroke-width:2.02245617"
     id="path105"
     data-paper-data="{&quot;origRot&quot;:0}"
     d="m 45.179357,230.8488 12.416424,5.70482 -5.463079,12.52469 -12.416444,-5.70484 z"
     inkscape:connector-curvature="0" />
  <path
     style="mix-blend-mode:normal;fill:#ffb89a;stroke:#000000;stroke-width:1.01122808"
     id="path111"
     d="m 24.009236,177.34407 c 0,-10.12696 4.652074,-18.33651 10.390692,-18.33651 5.738618,0 10.390672,8.20953 10.390672,18.33651 0,2.87339 1.230786,7.24022 0.06613,14.63078 -0.917669,5.82356 -8.45512,8.19173 -9.272981,6.70638 -2.946456,-5.35112 3.789516,-9.4388 0.962143,-13.37323 -3.348864,-4.66012 -12.536741,2.16304 -12.536741,-7.96393 z"
     inkscape:connector-curvature="0" />
</svg>
