<?xml version="1.0" encoding="UTF-8" standalone="no"?>
<svg
   xmlns:dc="http://purl.org/dc/elements/1.1/"
   xmlns:cc="http://creativecommons.org/ns#"
   xmlns:rdf="http://www.w3.org/1999/02/22-rdf-syntax-ns#"
   xmlns:svg="http://www.w3.org/2000/svg"
   xmlns="http://www.w3.org/2000/svg"
   xmlns:sodipodi="http://sodipodi.sourceforge.net/DTD/sodipodi-0.dtd"
   xmlns:inkscape="http://www.inkscape.org/namespaces/inkscape"
   version="1.1"
   width="63mm"
   height="88mm"
   viewBox="0 0 238.11023 332.59842"
   id="svg123"
   sodipodi:docname="Gimmick.svg"
   inkscape:version="0.92.3 (2405546, 2018-03-11)">
  <sodipodi:namedview
     pagecolor="#ffffff"
     bordercolor="#666666"
     borderopacity="1"
     objecttolerance="10"
     gridtolerance="10"
     guidetolerance="10"
     inkscape:pageopacity="0"
     inkscape:pageshadow="2"
     inkscape:window-width="1920"
     inkscape:window-height="1018"
     id="namedview125"
     showgrid="false"
     inkscape:zoom="1.232376"
     inkscape:cx="109.88771"
     inkscape:cy="95.75"
     inkscape:window-x="0"
     inkscape:window-y="0"
     inkscape:window-maximized="1"
     inkscape:current-layer="svg123"
     units="mm" />
  <metadata
     id="metadata127">
    <rdf:RDF>
      <cc:Work
         rdf:about="">
        <dc:format>image/svg+xml</dc:format>
        <dc:type
           rdf:resource="http://purl.org/dc/dcmitype/StillImage" />
        <dc:title></dc:title>
      </cc:Work>
    </rdf:RDF>
  </metadata>
  <defs
     id="defs7">
    <radialGradient
       id="color-1"
       gradientUnits="userSpaceOnUse"
       r="30.75"
       cy="180"
       cx="240.50002"
       gradientTransform="matrix(2.0172331,0,0,2.0172331,-362.07,-197.94023)">
      <stop
         id="stop2"
         stop-color="#000000"
         offset="0" />
      <stop
         id="stop4"
         stop-color="#ffffff"
         offset="1" />
    </radialGradient>
  </defs>
  <text
     id="text13"
     style="font-weight:normal;font-size:40.34466171px;font-family:Serif;text-anchor:start;mix-blend-mode:normal;fill:#000000;fill-rule:nonzero;stroke:none;stroke-width:1.00861657;stroke-linecap:butt;stroke-linejoin:miter;stroke-miterlimit:10;stroke-dasharray:none;stroke-dashoffset:0"
     font-weight="normal"
     stroke-miterlimit="10"
     xml:space="preserve"
     font-size="40"
     x="7.5385976"
     y="36.676765"><tspan
       id="tspan11"
       dy="0"
       x="7.5385976"
       style="stroke-width:1.00861657">J</tspan></text>
  <path
     style="mix-blend-mode:normal;stroke-width:3.02584958"
     id="path15"
     data-paper-data="{&quot;origRot&quot;:0}"
     d="m 29.877559,61.594748 c 0,0 7.994255,8.944351 -0.430659,13.667965 -7.026689,4.683309 -12.963849,-5.906358 -12.963849,-5.906358 0,0 -6.225444,10.865947 -12.6822035,5.906358 C -4.221265,69.759519 2.9477195,61.313102 2.9477195,61.313102 L 16.342227,47.073655 16.201425,47.214458 Z"
     inkscape:connector-curvature="0" />
  <path
     style="mix-blend-mode:normal;stroke-width:1.00861657"
     id="path17"
     d="M 9.4300975,81.542218 12.829559,73.16245 c 0,0 2.060099,-17.442087 3.20617,-25.886648 0.05467,-0.40262 -0.03954,-0.215542 0.0121,0.187401 0.859443,6.600548 3.385765,25.449413 3.385765,25.449413 l 4.21866,8.48882 z"
     inkscape:connector-curvature="0" />
  <text
     id="text23"
     style="font-weight:normal;font-size:40.34466171px;font-family:Serif;text-anchor:start;mix-blend-mode:normal;fill:#000000;fill-rule:nonzero;stroke:none;stroke-width:1.00861657;stroke-linecap:butt;stroke-linejoin:miter;stroke-miterlimit:10;stroke-dasharray:none;stroke-dashoffset:0"
     font-weight="normal"
     stroke-miterlimit="10"
     data-paper-data="{&quot;origRot&quot;:-45}"
     xml:space="preserve"
     font-size="40"
     transform="scale(-1)"
     x="-231.66544"
     y="-302.98227"><tspan
       id="tspan21"
       dy="0"
       x="-231.66544"
       style="stroke-width:1.00861657">J</tspan></text>
  <path
     style="mix-blend-mode:normal;stroke:#000000;stroke-width:1.00861657"
     id="path25"
     d="m 232.82314,252.29358 -4.35051,8.75415 c 0,0 -0.63047,4.93954 -1.34202,10.35524 -0.0978,0.11539 2.69439,-0.0744 2.67587,0.0565 -0.022,-0.16824 0.0985,3.37547 0.10833,3.38336 0.14161,0.11135 -3.4678,-0.0658 -3.49106,0.10772 -0.41358,3.08641 -0.5826,6.12815 -0.86618,8.30588 -0.0541,0.41553 -1.68681,-0.16037 -1.74318,-0.57554 -0.2603,-1.91788 -0.33264,-5.36909 -0.42509,-7.70442 -2.81975,0.0793 -2.71253,-0.0532 -3.32551,-0.047 -0.11942,-0.0599 0.0958,-3.71108 0.1281,-3.69095 0.0761,0.006 0.90212,0.0476 2.74067,0.0613 0.10046,-0.0393 -1.27148,-10.50994 -1.27148,-10.50994 l -3.50573,-8.64171 z"
     inkscape:connector-curvature="0" />
  <path
     style="mix-blend-mode:normal;stroke:none;stroke-width:0"
     id="path27"
     d="m 240.84335,272.63782 c 0,2.05917 -1.03472,6.21524 -5.47029,6.27592 -0.002,-0.13314 -0.15613,-2.21101 -0.0692,-2.24206 4.74183,0.0206 -4.02025,0.42261 0.0141,8e-5 0.33456,0.16481 -0.0141,2.13406 0.10792,2.2724 -4.32531,-0.33662 -5.50067,-4.43677 -5.50067,-6.30634 0,-0.13152 0.004,-0.262 0.0141,-0.3912 0.20051,-2.83262 2.56205,-5.06832 5.44572,-5.06832 3.01522,0 5.45952,2.4443 5.45952,5.45952 z"
     inkscape:connector-curvature="0" />
  <path
     style="mix-blend-mode:normal;stroke:none;stroke-width:0"
     id="path29"
     d="m 231.81698,287.44381 c 0,2.05917 -1.0347,6.21524 -5.47029,6.27593 -0.002,-0.13313 -0.15614,-2.211 -0.0692,-2.24207 4.74183,0.0206 -4.02027,0.42263 0.0141,8e-5 0.33454,0.16461 -0.0141,2.13405 0.10792,2.27237 -4.32531,-0.33661 -5.50069,-4.43676 -5.50069,-6.30631 0,-3.0152 2.44432,-5.45952 5.45952,-5.45952 3.01522,0 5.45952,2.44432 5.45952,5.45952 z"
     inkscape:connector-curvature="0" />
  <path
     style="mix-blend-mode:normal;stroke:none;stroke-width:0"
     id="path31"
     d="m 220.78996,272.98245 c 0,2.05919 -1.03472,6.21523 -5.47028,6.27593 -0.002,-0.13314 -0.15613,-2.21101 -0.0692,-2.24205 4.74183,0.0206 -4.02026,0.42261 0.0141,8e-5 0.33454,0.16481 -0.0141,2.13405 0.10793,2.27237 -4.32531,-0.33661 -5.5007,-4.43676 -5.5007,-6.30633 0,-3.0152 2.44433,-5.45952 5.45952,-5.45952 3.01522,0 5.45953,2.44432 5.45953,5.45952 z"
     inkscape:connector-curvature="0" />
  <path
     style="mix-blend-mode:normal;fill:#02005e;stroke-width:2.01723313"
     id="path35"
     d="m 35.829264,165.16174 c 0,-47.62722 38.6095,-86.23672 86.236716,-86.23672 47.62724,0 86.23672,38.6095 86.23672,86.23672 0,47.62724 -38.60948,86.23672 -86.23672,86.23672 -47.627216,0 -86.236716,-38.6095 -86.236716,-86.23672 z"
     inkscape:connector-curvature="0" />
  <path
     style="mix-blend-mode:normal;fill:url(#color-1);stroke-width:2.01723313"
     id="path37"
     d="m 61.044678,165.16174 c 0,-34.25817 27.77175,-62.02992 62.029922,-62.02992 34.25817,0 62.02992,27.77175 62.02992,62.02992 0,34.25817 -27.77175,62.02992 -62.02992,62.02992 -34.258172,0 -62.029922,-27.77175 -62.029922,-62.02992 z"
     inkscape:connector-curvature="0" />
  <path
     style="mix-blend-mode:normal;fill:#02005e;stroke-width:2.01723313"
     id="path39"
     d="m 90.798868,165.16174 c 0,-17.26836 13.998752,-31.26711 31.267112,-31.26711 17.26837,0 31.26712,13.99875 31.26712,31.26711 0,17.26836 -13.99875,31.26711 -31.26712,31.26711 -17.26836,0 -31.267112,-13.99875 -31.267112,-31.26711 z"
     inkscape:connector-curvature="0" />
  <path
     style="mix-blend-mode:normal;fill:#e4ce00;stroke:none;stroke-width:0"
     id="path43"
     d="m 210.41093,169.84333 c 0,-2.54433 2.06262,-4.60693 4.60696,-4.60693 2.54433,0 4.60693,2.0626 4.60693,4.60693 0,2.54434 -2.0626,4.60696 -4.60693,4.60696 -2.54434,0 -4.60696,-2.06262 -4.60696,-4.60696 z"
     inkscape:connector-curvature="0" />
  <path
     style="mix-blend-mode:normal;fill:#e4ce00;stroke:#02005e;stroke-width:0"
     id="path45"
     d="M 211.10389,158.2674 V 75.525558 h 7.45071 V 158.2674 Z"
     inkscape:connector-curvature="0" />
  <path
     style="mix-blend-mode:normal;fill:#000000;stroke:#000000;stroke-width:3.02584958"
     id="path47"
     data-paper-data="{&quot;origRot&quot;:0}"
     d="m 221.35285,65.30563 c 0,0 3.86437,4.323657 -0.20818,6.607023 -3.39666,2.263881 -6.26666,-2.855111 -6.26666,-2.855111 0,0 -3.00933,5.252553 -6.13049,2.855111 -3.87783,-2.660206 -0.4124,-6.743146 -0.4124,-6.743146 l 6.47481,-6.883263 -0.068,0.06798 z"
     inkscape:connector-curvature="0" />
  <path
     style="mix-blend-mode:normal;fill:#000000;stroke:#000000;stroke-width:1.00861657"
     id="path49"
     d="m 211.46867,74.948105 1.64327,-4.050725 c 0,0 0.99585,-8.431389 1.54984,-12.513442 0.0264,-0.194663 -0.0181,-0.104089 0.006,0.09057 0.41545,3.190658 1.63666,12.302096 1.63666,12.302096 l 2.03926,4.103456 z"
     inkscape:connector-curvature="0" />
  <path
     style="mix-blend-mode:normal;fill:#ffb89a;stroke:#000000;stroke-width:1.00861657"
     id="path51"
     d="m 222.05389,152.57771 c 0,10.10082 -4.64005,18.28917 -10.36385,18.28917 -5.7238,0 -10.36384,-8.18833 -10.36384,-18.28917 0,-2.86596 -1.22761,-7.22151 -0.066,-14.59298 0.9153,-5.80852 8.43328,-8.17058 9.24903,-6.68907 2.93885,5.3373 -3.77973,9.41443 -0.95966,13.33869 3.34022,4.64809 12.50437,-2.15745 12.50437,7.94336 z"
     inkscape:connector-curvature="0" />
  <path
     style="mix-blend-mode:normal;fill:#e4ce00;stroke:none;stroke-width:0"
     id="path55"
     d="m 33.707821,160.80708 c 0,2.54433 -2.062621,4.60693 -4.606957,4.60693 -2.544336,0 -4.606937,-2.0626 -4.606937,-4.60693 0,-2.54434 2.062601,-4.60696 4.606937,-4.60696 2.544336,0 4.606957,2.06262 4.606957,4.60696 z"
     inkscape:connector-curvature="0" />
  <path
     style="mix-blend-mode:normal;fill:#e4ce00;stroke:#02005e;stroke-width:0"
     id="path57"
     d="m 33.014861,172.38301 v 82.74184 H 25.56415 v -82.74184 z"
     inkscape:connector-curvature="0" />
  <path
     style="mix-blend-mode:normal;fill:#ffb89a;stroke:#000000;stroke-width:1.00861657"
     id="path59"
     d="m 22.064856,178.0727 c 0,-10.10081 4.640059,-18.28917 10.363858,-18.28917 5.723798,0 10.363837,8.18834 10.363837,18.28917 0,2.86596 1.227608,7.22151 0.06596,14.59298 -0.915299,5.80853 -8.433285,8.17058 -9.249034,6.68907 -2.938847,-5.3373 3.77973,-9.41443 0.959658,-13.33869 -3.340215,-4.64809 -12.504364,2.15745 -12.504364,-7.94336 z"
     inkscape:connector-curvature="0" />
  <path
     style="mix-blend-mode:normal;fill:#000000;stroke:#000000;stroke-width:1.00861657"
     id="path61"
     d="m 33.023697,256.00525 -2.057921,4.14096 c 0,0 -0.298228,2.33656 -0.634823,4.89834 -0.0464,0.0545 1.274548,-0.0353 1.265793,0.0266 -0.01009,-0.0795 0.0466,1.59668 0.05124,1.60041 0.06697,0.0526 -1.640374,-0.0311 -1.651368,0.051 -0.195671,1.45995 -0.275594,2.89878 -0.40972,3.92892 -0.02562,0.19648 -0.797916,-0.0758 -0.824564,-0.27224 -0.123051,-0.90721 -0.157344,-2.53974 -0.201118,-3.64442 -1.333815,0.0375 -1.283102,-0.0252 -1.573059,-0.0222 -0.05648,-0.0282 0.04539,-1.75543 0.06072,-1.74591 0.03591,0.004 0.426746,0.0226 1.296415,0.029 0.04741,-0.0182 -0.601458,-4.97151 -0.601458,-4.97151 l -1.658307,-4.08777 z"
     inkscape:connector-curvature="0" />
  <path
     style="mix-blend-mode:normal;fill:#000000;stroke:none;stroke-width:0"
     id="path63"
     d="m 36.817487,265.62866 c 0,0.97406 -0.489462,2.94 -2.587606,2.9687 -0.0013,-0.0629 -0.07383,-1.04587 -0.03268,-1.06056 2.243022,0.0101 -1.901686,0.19991 0.0061,4e-5 0.158353,0.0779 -0.0061,1.00947 0.05104,1.07491 -2.045998,-0.15916 -2.601968,-2.09871 -2.601968,-2.98307 0,-0.0621 0.002,-0.12385 0.0061,-0.18498 0.09481,-1.3399 1.211933,-2.39746 2.575986,-2.39746 1.426285,0 2.582502,1.15622 2.582502,2.58252 z"
     inkscape:connector-curvature="0" />
  <path
     style="mix-blend-mode:normal;fill:#000000;stroke:none;stroke-width:0"
     id="path65"
     d="m 32.547751,272.63234 c 0,0.97406 -0.489462,2.93997 -2.587606,2.96868 -0.0013,-0.0629 -0.07383,-1.04586 -0.03268,-1.06056 2.243022,0.0101 -1.901686,0.1999 0.0061,2e-5 0.158151,0.0779 -0.0061,1.00948 0.05104,1.07492 -2.045999,-0.15916 -2.601968,-2.09871 -2.601968,-2.98306 0,-1.42629 1.156217,-2.58251 2.582522,-2.58251 1.426285,0 2.582502,1.15622 2.582502,2.58251 z"
     inkscape:connector-curvature="0" />
  <path
     style="mix-blend-mode:normal;fill:#000000;stroke:none;stroke-width:0"
     id="path67"
     d="m 27.33165,265.79168 c 0,0.97406 -0.489462,2.93999 -2.587606,2.9687 -0.0013,-0.0629 -0.07383,-1.04588 -0.03268,-1.06056 2.243022,0.0101 -1.901686,0.19991 0.0061,4e-5 0.158353,0.0779 -0.0061,1.00948 0.05104,1.07492 -2.045999,-0.15916 -2.601968,-2.09873 -2.601968,-2.98308 0,-1.42629 1.156217,-2.58253 2.582522,-2.58253 1.426285,0 2.582502,1.15622 2.582502,2.58253 z"
     inkscape:connector-curvature="0" />
  <path
     style="mix-blend-mode:normal;fill:#ffb89a;stroke:#000000;stroke-width:1.00861657;stroke-linecap:butt"
     id="path73"
     d="m 116.6385,73.47611 1.00861,-45.387746 h 47.40498 c 0,0 19.48546,32.189151 10.08617,33.284347 -19.16372,2.232956 -10.08617,26.224031 -10.08617,26.224031 0,0 -21.59496,0 -30.2585,0 -6.52167,0 -18.15509,-14.120632 -18.15509,-14.120632 z"
     inkscape:connector-curvature="0" />
  <path
     style="mix-blend-mode:normal;fill:#ffca00;stroke:none;stroke-width:0;stroke-linecap:butt"
     id="path75"
     d="m 70.187445,89.951075 c 2.921276,-6.38069 -3.831795,-11.643631 -0.638858,-18.61771 4.478197,-9.781342 14.732398,-14.926033 17.136436,-20.176931 3.918715,-8.559322 3.124275,-24.076686 3.124275,-24.076686 h 54.465292 c 0,0 1.02901,15.005088 -2.7747,23.313183 -2.8345,6.191131 -14.31139,14.006376 -19.74436,25.873133 -2.26077,4.937985 5.56329,7.861723 3.48592,12.399105 -5.17804,11.30992 -59.939623,11.957151 -55.054005,1.285906 z"
     inkscape:connector-curvature="0" />
  <path
     style="mix-blend-mode:normal;fill:#d28200;stroke:none;stroke-width:0;stroke-linecap:butt"
     id="path77"
     d="m 88.965968,96.499215 c 2.92128,-6.38069 -3.446603,-18.191771 -0.253666,-25.16585 4.478196,-9.781342 14.732398,-14.926033 17.136438,-20.176931 3.91872,-8.559322 3.12427,-24.076686 3.12427,-24.076686 h 14.12063 c 0,0 1.02901,15.005088 -2.7747,23.313183 -2.8345,6.191131 -14.31138,14.006376 -19.74436,25.873133 -2.260772,4.937985 5.94846,15.565415 3.87111,20.102798 -7.103972,0.139592 -5.728312,1.557162 -15.479702,0.130313 z"
     inkscape:connector-curvature="0" />
  <path
     style="mix-blend-mode:normal;fill:#000000;stroke:#000000;stroke-width:1.00861657;stroke-linecap:butt"
     id="path79"
     d="m 165.25379,46.445186 c 0,1.671136 -1.85145,3.02585 -4.13532,3.02585 -2.28387,0 -4.13533,-1.354714 -4.13533,-3.02585 0,-1.671137 1.85146,-3.02585 4.13533,-3.02585 2.28387,0 4.13532,1.354713 4.13532,3.02585 z"
     inkscape:connector-curvature="0" />
  <path
     style="mix-blend-mode:normal;fill:none;stroke:#000000;stroke-width:1.00861657;stroke-linecap:round"
     id="path81"
     d="m 168.17878,42.128307 -10.89306,-2.824126 -4.43791,-1.613787"
     inkscape:connector-curvature="0" />
  <path
     style="mix-blend-mode:normal;fill:none;stroke:#000000;stroke-width:1.00861657;stroke-linecap:round"
     id="path83"
     d="m 162.934,70.369571 -8.47238,3.631019"
     inkscape:connector-curvature="0" />
  <path
     style="mix-blend-mode:normal;fill:#02005e;stroke:#000000;stroke-width:2.01723313;stroke-linecap:butt"
     id="path85"
     d="M 90.379408,28.361639 85.849767,2.9957192 c 0,0 15.710373,12.8139888 23.554083,7.2473938 11.48863,-8.1533329 26.26218,-8.1533329 37.14299,-0.9059189 13.83711,9.2165159 31.70742,-6.3414749 31.70742,-6.3414749 l -7.24742,25.3659198 z"
     inkscape:connector-curvature="0" />
  <path
     style="mix-blend-mode:normal;fill:#ffffff;stroke:none;stroke-width:0;stroke-linecap:butt"
     id="path87"
     data-paper-data="{&quot;origRot&quot;:0}"
     d="m 134.07826,13.873629 c 0,0 2.86121,3.141961 -0.15411,4.801257 -2.51491,1.645154 -4.63988,-2.074765 -4.63988,-2.074765 0,0 -2.22814,3.816968 -4.53906,2.074765 -2.87119,-1.933135 -0.30533,-4.900182 -0.30533,-4.900182 l 4.794,-5.0019922 -0.0504,0.049422 z"
     inkscape:connector-curvature="0" />
  <path
     style="mix-blend-mode:normal;fill:#ffffff;stroke:none;stroke-width:0;stroke-linecap:butt"
     id="path89"
     d="m 126.75996,20.88073 1.2167,-2.943627 c 0,0 0.73732,-6.127003 1.1475,-9.0934048 0.0202,-0.141408 -0.0141,-0.075646 0.004,0.065762 0.20203,1.5227088 0.66133,4.9011098 0.95287,7.0410918 0.1523,1.118535 0.25893,1.898721 0.25893,1.898721 l 1.5099,2.981934 z"
     inkscape:connector-curvature="0" />
  <path
     style="mix-blend-mode:normal;fill:#ffb89a;stroke:#000000;stroke-width:1.00861657;stroke-linecap:butt"
     id="path93"
     d="m 137.16177,259.34645 -1.00862,45.38775 H 88.748168 c 0,0 -19.485463,-32.18915 -10.086166,-33.28435 19.163716,-2.23295 10.086166,-26.22403 10.086166,-26.22403 0,0 21.594962,0 30.258502,0 6.52167,0 18.1551,14.12063 18.1551,14.12063 z"
     inkscape:connector-curvature="0" />
  <path
     style="mix-blend-mode:normal;fill:#000000;stroke:none;stroke-width:0;stroke-linecap:butt"
     id="path95"
     d="m 184.94415,242.31114 c -2.92128,6.38069 3.83179,11.64363 0.63886,18.61771 -4.4782,9.78134 -14.7324,14.92604 -17.13644,20.17693 -3.91872,8.55933 -3.12427,24.07669 -3.12427,24.07669 H 110.857 c 0,0 -1.02901,-15.00509 2.77471,-23.31318 2.83449,-6.19113 14.31138,-14.00638 19.74435,-25.87314 2.26078,-4.93798 -5.56328,-7.86172 -3.48592,-12.3991 5.17804,-11.30992 59.93963,-11.95715 55.05401,-1.28591 z"
     inkscape:connector-curvature="0" />
  <path
     style="mix-blend-mode:normal;fill:#b3aca1;stroke:none;stroke-width:0;stroke-linecap:butt"
     id="path97"
     d="m 165.94149,236.21127 c -2.92128,6.38069 3.4466,18.19177 0.25367,25.16585 -4.4782,9.78134 -14.7324,14.92604 -17.13644,20.17693 -3.91872,8.55933 -3.12427,24.07669 -3.12427,24.07669 h -14.12063 c 0,0 -1.02901,-15.00509 2.7747,-23.31318 2.8345,-6.19113 14.31138,-14.00638 19.74436,-25.87314 2.26077,-4.93798 -5.94846,-15.56541 -3.87111,-20.10279 7.10397,-0.1396 5.72831,-1.55717 15.4797,-0.13032 z"
     inkscape:connector-curvature="0" />
  <path
     style="mix-blend-mode:normal;fill:#000000;stroke:#000000;stroke-width:1.00861657;stroke-linecap:butt"
     id="path99"
     d="m 88.770598,286.15324 c 0,-1.67113 1.85146,-3.02585 4.13533,-3.02585 2.28387,0 4.13533,1.35472 4.13533,3.02585 0,1.67114 -1.85146,3.02585 -4.13533,3.02585 -2.28387,0 -4.13533,-1.35471 -4.13533,-3.02585 z"
     inkscape:connector-curvature="0" />
  <path
     style="mix-blend-mode:normal;fill:none;stroke:#000000;stroke-width:1.00861657;stroke-linecap:round"
     id="path101"
     d="m 85.845612,290.47012 10.893056,2.82413 4.437922,1.61379"
     inkscape:connector-curvature="0" />
  <path
     style="mix-blend-mode:normal;fill:none;stroke:#000000;stroke-width:1.00861657;stroke-linecap:round"
     id="path103"
     d="m 90.866258,262.45299 8.47238,-3.63102"
     inkscape:connector-curvature="0" />
  <path
     style="mix-blend-mode:normal;fill:#02005e;stroke:#000000;stroke-width:2.01723313;stroke-linecap:butt"
     id="path105"
     d="m 164.86427,304.23679 4.52963,25.36592 c 0,0 -15.71037,-12.81399 -23.55408,-7.24739 -11.48863,8.15333 -26.26218,8.15333 -37.14299,0.90592 -13.837112,-9.21652 -31.707416,6.34147 -31.707416,6.34147 l 7.247414,-25.36592 z"
     inkscape:connector-curvature="0" />
  <path
     style="mix-blend-mode:normal;stroke-width:2.01723313"
     id="path107"
     d="m 129.75906,307.43324 -1.8894,3.80188 c 0,0 -0.2738,2.1452 -0.58284,4.49722 -0.0426,0.05 1.17016,-0.0323 1.16213,0.0246 -0.0101,-0.073 0.0428,1.46594 0.047,1.46935 0.0615,0.0484 -1.50604,-0.0286 -1.51615,0.0468 -0.17953,1.34039 -0.25302,2.66142 -0.37617,3.60718 -0.0236,0.18034 -0.73258,-0.0696 -0.75705,-0.24996 -0.11296,-0.83294 -0.14443,-2.33176 -0.18458,-3.34598 -1.2246,0.0345 -1.17802,-0.0232 -1.44425,-0.0204 -0.0519,-0.026 0.0416,-1.61169 0.0557,-1.60295 0.0331,0.002 0.39179,0.0206 1.19025,0.0266 0.0436,-0.0161 -0.5522,-4.56441 -0.5522,-4.56441 l -1.52251,-3.75304 z"
     inkscape:connector-curvature="0" />
  <path
     style="mix-blend-mode:normal;stroke-width:2.01723313"
     id="path109"
     d="m 133.24218,316.26862 c 0,0.89428 -0.44936,2.69924 -2.37572,2.72558 -10e-4,-0.0579 -0.0678,-0.96022 -0.0301,-0.9737 2.05935,0.008 -1.74598,0.18357 0.006,2e-5 0.14524,0.0716 -0.006,0.92682 0.0468,0.9869 -1.87847,-0.14625 -2.38891,-1.92687 -2.38891,-2.7388 0,-0.0571 0.002,-0.11377 0.006,-0.16985 0.0871,-1.23019 1.11269,-2.20115 2.36505,-2.20115 1.30948,0 2.37103,1.06155 2.37103,2.37104 z"
     inkscape:connector-curvature="0" />
  <path
     style="mix-blend-mode:normal;stroke-width:2.01723313"
     id="path111"
     d="m 129.32209,322.69877 c 0,0.8943 -0.44936,2.69924 -2.37571,2.72559 -0.001,-0.0579 -0.0678,-0.96023 -0.0301,-0.9737 2.05935,0.008 -1.74598,0.18357 0.006,2e-5 0.14524,0.0716 -0.006,0.92682 0.0468,0.98689 -1.87847,-0.14625 -2.38893,-1.92686 -2.38893,-2.7388 0,-1.30949 1.06157,-2.37103 2.37104,-2.37103 1.30948,0 2.37103,1.06154 2.37103,2.37103 z"
     inkscape:connector-curvature="0" />
  <path
     style="mix-blend-mode:normal;stroke-width:2.01723313"
     id="path113"
     d="m 124.53312,316.4183 c 0,0.89428 -0.44936,2.69924 -2.37572,2.7256 -10e-4,-0.0579 -0.0678,-0.96022 -0.03,-0.97372 2.05935,0.008 -1.74598,0.18357 0.006,4e-5 0.14524,0.0716 -0.006,0.9268 0.0468,0.98689 -1.87845,-0.14624 -2.38891,-1.92686 -2.38891,-2.73879 0,-1.30949 1.06155,-2.37104 2.37104,-2.37104 1.30948,0 2.37103,1.06155 2.37103,2.37104 z"
     inkscape:connector-curvature="0" />
</svg>
