<?xml version="1.0" encoding="UTF-8" standalone="no"?>
<svg
   xmlns:dc="http://purl.org/dc/elements/1.1/"
   xmlns:cc="http://creativecommons.org/ns#"
   xmlns:rdf="http://www.w3.org/1999/02/22-rdf-syntax-ns#"
   xmlns:svg="http://www.w3.org/2000/svg"
   xmlns="http://www.w3.org/2000/svg"
   xmlns:sodipodi="http://sodipodi.sourceforge.net/DTD/sodipodi-0.dtd"
   xmlns:inkscape="http://www.inkscape.org/namespaces/inkscape"
   version="1.1"
   width="63mm"
   height="88mm"
   viewBox="0 0 238.11023 332.59842"
   id="svg40"
   sodipodi:docname="H10.svg"
   inkscape:version="0.92.3 (2405546, 2018-03-11)">
  <sodipodi:namedview
     pagecolor="#ffffff"
     bordercolor="#666666"
     borderopacity="1"
     objecttolerance="10"
     gridtolerance="10"
     guidetolerance="10"
     inkscape:pageopacity="0"
     inkscape:pageshadow="2"
     inkscape:window-width="1920"
     inkscape:window-height="1018"
     id="namedview42"
     showgrid="false"
     inkscape:zoom="1.232376"
     inkscape:cx="109.88771"
     inkscape:cy="95.75"
     inkscape:window-x="0"
     inkscape:window-y="0"
     inkscape:window-maximized="1"
     inkscape:current-layer="svg40"
     units="mm" />
  <metadata
     id="metadata46">
    <rdf:RDF>
      <cc:Work
         rdf:about="">
        <dc:format>image/svg+xml</dc:format>
        <dc:type
           rdf:resource="http://purl.org/dc/dcmitype/StillImage" />
        <dc:title></dc:title>
      </cc:Work>
    </rdf:RDF>
  </metadata>
  <defs
     id="defs44" />
  <text
     id="text6"
     style="font-weight:normal;font-size:40.98382568px;font-family:Serif;text-anchor:start;mix-blend-mode:normal;fill:#ff0000;fill-rule:nonzero;stroke:none;stroke-width:1.02459562;stroke-linecap:butt;stroke-linejoin:miter;stroke-miterlimit:10;stroke-dasharray:none;stroke-dashoffset:0"
     font-weight="normal"
     stroke-miterlimit="10"
     xml:space="preserve"
     font-size="40"
     x="-5.0029082"
     y="30.417671"><tspan
       id="tspan4"
       dy="0"
       x="-5.0029082"
       style="stroke-width:1.02459562">10</tspan></text>
  <text
     id="text10"
     style="font-weight:normal;font-size:40.98382568px;font-family:Serif;text-anchor:start;mix-blend-mode:normal;fill:#ff0000;fill-rule:nonzero;stroke:none;stroke-width:1.02459562;stroke-linecap:butt;stroke-linejoin:miter;stroke-miterlimit:10;stroke-dasharray:none;stroke-dashoffset:0"
     font-weight="normal"
     stroke-miterlimit="10"
     data-paper-data="{&quot;origRot&quot;:-45}"
     xml:space="preserve"
     font-size="40"
     transform="scale(-1)"
     x="-255.15952"
     y="-302.18076"><tspan
       id="tspan8"
       dy="0"
       x="-255.15952"
       style="stroke-width:1.02459562">10</tspan></text>
  <path
     style="mix-blend-mode:normal;fill:#ff0000;stroke:none;stroke-width:0"
     id="path12"
     data-paper-data="{&quot;origRot&quot;:0}"
     d="m 7.9248662,56.181019 c 0,0 -8.12090397,-9.086052 0.437482,-13.8845 7.1380098,-4.757505 13.1692308,5.999929 13.1692308,5.999929 0,0 6.324071,-11.038092 12.883122,-5.999929 8.149204,5.590378 0.866644,14.170609 0.866644,14.170609 l -13.606712,14.465036 0.143033,-0.143033 z"
     inkscape:connector-curvature="0" />
  <path
     style="mix-blend-mode:normal;fill:#ff0000;stroke:none;stroke-width:0"
     id="path14"
     data-paper-data="{&quot;origRot&quot;:0}"
     d="m 242.94119,272.93663 c 0,0 8.1209,9.08605 -0.43749,13.8845 -7.13801,4.75748 -13.16923,-5.99993 -13.16923,-5.99993 0,0 -6.32409,11.03809 -12.88314,5.99993 -8.1492,-5.59038 -0.86664,-14.17061 -0.86664,-14.17061 l 13.60671,-14.46504 -0.14303,0.14304 z"
     inkscape:connector-curvature="0" />
  <path
     style="mix-blend-mode:normal;fill:none;stroke:#ff0000;stroke-width:3.07378697"
     id="path16"
     data-paper-data="{&quot;origRot&quot;:0}"
     d="m 59.469201,61.419695 c 0,0 -8.578776,-9.598351 0.462154,-14.667353 7.540471,-5.025744 13.911755,6.338231 13.911755,6.338231 0,0 6.68063,-11.660452 13.60952,-6.338231 8.608674,5.905585 0.915496,14.969588 0.915496,14.969588 l -14.373909,15.280615 0.151026,-0.15123 z"
     inkscape:connector-curvature="0" />
  <path
     style="mix-blend-mode:normal;fill:none;stroke:#ff0000;stroke-width:3.07378697"
     id="path18"
     data-paper-data="{&quot;origRot&quot;:0}"
     d="m 87.986239,269.00745 c 0,0 8.578775,9.59835 -0.462154,14.66735 -7.540471,5.02574 -13.911755,-6.33821 -13.911755,-6.33821 0,0 -6.68063,11.66045 -13.609499,6.33821 -8.608674,-5.90556 -0.915518,-14.96959 -0.915518,-14.96959 l 14.37391,-15.28061 -0.151026,0.15123 z"
     inkscape:connector-curvature="0" />
  <path
     style="mix-blend-mode:normal;fill:none;stroke:#ff0000;stroke-width:3.07378697"
     id="path20"
     data-paper-data="{&quot;origRot&quot;:0}"
     d="m 165.4388,62.485889 c 0,0 -8.57877,-9.59835 0.46216,-14.667353 7.54047,-5.025744 13.91175,6.338231 13.91175,6.338231 0,0 6.68063,-11.660452 13.60952,-6.338231 8.60868,5.905585 0.9155,14.969589 0.9155,14.969589 l -14.37391,15.280614 0.15102,-0.151025 z"
     inkscape:connector-curvature="0" />
  <path
     style="mix-blend-mode:normal;fill:none;stroke:#ff0000;stroke-width:3.07378697"
     id="path22"
     data-paper-data="{&quot;origRot&quot;:0}"
     d="m 165.57315,274.9649 c 0,0 -8.57878,-9.59835 0.46215,-14.66736 7.54047,-5.02574 13.91176,6.33821 13.91176,6.33821 0,0 6.68063,-11.66045 13.6095,-6.33821 8.60867,5.90557 0.91551,14.96959 0.91551,14.96959 l -14.37391,15.28062 0.15103,-0.15103 z"
     inkscape:connector-curvature="0" />
  <path
     style="mix-blend-mode:normal;fill:none;stroke:#ff0000;stroke-width:3.07378697"
     id="path24"
     data-paper-data="{&quot;origRot&quot;:0}"
     d="m 61.642798,131.38283 c 0,0 -8.578775,-9.59835 0.462154,-14.66735 7.540471,-5.02574 13.911756,6.33823 13.911756,6.33823 0,0 6.68063,-11.66045 13.609519,-6.33823 8.608677,5.90559 0.915497,14.96959 0.915497,14.96959 l -14.373909,15.28061 0.151025,-0.15123 z"
     inkscape:connector-curvature="0" />
  <path
     style="mix-blend-mode:normal;fill:none;stroke:#ff0000;stroke-width:3.07378697"
     id="path26"
     data-paper-data="{&quot;origRot&quot;:0}"
     d="m 164.91595,131.51714 c 0,0 -8.57877,-9.59835 0.46216,-14.66735 7.54047,-5.02575 13.91175,6.33823 13.91175,6.33823 0,0 6.68063,-11.66045 13.60952,-6.33823 8.60867,5.90558 0.9155,14.96958 0.9155,14.96958 l -14.37391,15.28062 0.15123,-0.15123 z"
     inkscape:connector-curvature="0" />
  <path
     style="mix-blend-mode:normal;fill:none;stroke:#ff0000;stroke-width:3.07378697"
     id="path28"
     data-paper-data="{&quot;origRot&quot;:0}"
     d="m 112.33536,103.20453 c 0,0 -8.57877,-9.59835 0.46216,-14.667353 7.54047,-5.025744 13.91175,6.338231 13.91175,6.338231 0,0 6.68063,-11.660452 13.60952,-6.338231 8.60867,5.905585 0.9155,14.969593 0.9155,14.969593 l -14.37391,15.28061 0.15102,-0.15103 z"
     inkscape:connector-curvature="0" />
  <path
     style="mix-blend-mode:normal;fill:none;stroke:#ff0000;stroke-width:3.07378697"
     id="path30"
     data-paper-data="{&quot;origRot&quot;:0}"
     d="m 140.17828,233.01182 c 0,0 8.57877,9.59835 -0.46216,14.66736 -7.54047,5.02574 -13.91175,-6.33823 -13.91175,-6.33823 0,0 -6.68063,11.66045 -13.60952,6.33823 -8.60867,-5.90559 -0.9155,-14.96959 -0.9155,-14.96959 l 14.37391,-15.28062 -0.15102,0.15103 z"
     inkscape:connector-curvature="0" />
  <path
     style="mix-blend-mode:normal;fill:none;stroke:#ff0000;stroke-width:3.07378697"
     id="path32"
     data-paper-data="{&quot;origRot&quot;:0}"
     d="m 88.120543,201.05661 c 0,0 8.578771,9.59835 -0.462154,14.66735 -7.540471,5.02575 -13.911755,-6.33821 -13.911755,-6.33821 0,0 -6.68063,11.66046 -13.609499,6.33821 -8.608674,-5.90556 -0.915518,-14.96958 -0.915518,-14.96958 l 14.37391,-15.28062 -0.151026,0.15123 z"
     inkscape:connector-curvature="0" />
  <path
     style="mix-blend-mode:normal;fill:none;stroke:#ff0000;stroke-width:3.07378697"
     id="path34"
     data-paper-data="{&quot;origRot&quot;:0}"
     d="m 194.09015,201.19091 c 0,0 8.57877,9.59836 -0.46216,14.66736 -7.54047,5.02574 -13.91175,-6.33821 -13.91175,-6.33821 0,0 -6.68063,11.66045 -13.6095,6.33821 -8.60868,-5.90557 -0.91552,-14.96959 -0.91552,-14.96959 l 14.37391,-15.28062 -0.15103,0.15103 z"
     inkscape:connector-curvature="0" />
</svg>
