<?xml version="1.0" encoding="UTF-8" standalone="no"?>
<svg
   xmlns:dc="http://purl.org/dc/elements/1.1/"
   xmlns:cc="http://creativecommons.org/ns#"
   xmlns:rdf="http://www.w3.org/1999/02/22-rdf-syntax-ns#"
   xmlns:svg="http://www.w3.org/2000/svg"
   xmlns="http://www.w3.org/2000/svg"
   xmlns:sodipodi="http://sodipodi.sourceforge.net/DTD/sodipodi-0.dtd"
   xmlns:inkscape="http://www.inkscape.org/namespaces/inkscape"
   version="1.1"
   width="63mm"
   height="88mm"
   viewBox="0 0 238.11023 332.59843"
   id="svg26"
   sodipodi:docname="H3.svg"
   inkscape:version="0.92.3 (2405546, 2018-03-11)">
  <sodipodi:namedview
     pagecolor="#ffffff"
     bordercolor="#666666"
     borderopacity="1"
     objecttolerance="10"
     gridtolerance="10"
     guidetolerance="10"
     inkscape:pageopacity="0"
     inkscape:pageshadow="2"
     inkscape:window-width="1920"
     inkscape:window-height="1018"
     id="namedview28"
     showgrid="false"
     inkscape:zoom="1.232376"
     inkscape:cx="109.88771"
     inkscape:cy="95.75"
     inkscape:window-x="0"
     inkscape:window-y="0"
     inkscape:window-maximized="1"
     inkscape:current-layer="svg26"
     units="mm" />
  <metadata
     id="metadata32">
    <rdf:RDF>
      <cc:Work
         rdf:about="">
        <dc:format>image/svg+xml</dc:format>
        <dc:type
           rdf:resource="http://purl.org/dc/dcmitype/StillImage" />
        <dc:title></dc:title>
      </cc:Work>
    </rdf:RDF>
  </metadata>
  <defs
     id="defs30" />
  <text
     id="text6"
     style="font-weight:normal;font-size:40.9838295px;font-family:Serif;text-anchor:start;mix-blend-mode:normal;fill:#ff0000;fill-rule:nonzero;stroke:none;stroke-width:1.02459574;stroke-linecap:butt;stroke-linejoin:miter;stroke-miterlimit:10;stroke-dasharray:none;stroke-dashoffset:0"
     font-weight="normal"
     stroke-miterlimit="10"
     xml:space="preserve"
     font-size="40"
     x="2.0151384"
     y="30.4177"><tspan
       id="tspan4"
       dy="0"
       x="2.0151384"
       style="stroke-width:1.02459574">3</tspan></text>
  <text
     id="text10"
     style="font-weight:normal;font-size:40.9838295px;font-family:Serif;text-anchor:start;mix-blend-mode:normal;fill:#ff0000;fill-rule:nonzero;stroke:none;stroke-width:1.02459574;stroke-linecap:butt;stroke-linejoin:miter;stroke-miterlimit:10;stroke-dasharray:none;stroke-dashoffset:0"
     font-weight="normal"
     stroke-miterlimit="10"
     data-paper-data="{&quot;origRot&quot;:-45}"
     xml:space="preserve"
     font-size="40"
     transform="scale(-1)"
     x="-241.2802"
     y="-302.18073"><tspan
       id="tspan8"
       dy="0"
       x="-241.2802"
       style="stroke-width:1.02459574">3</tspan></text>
  <path
     style="mix-blend-mode:normal;fill:#ff0000;stroke:none;stroke-width:0"
     id="path12"
     data-paper-data="{&quot;origRot&quot;:0}"
     d="m 3.4830771,56.181061 c 0,0 -8.1209055,-9.086053 0.437481,-13.884502 7.1380109,-4.757505 13.1692319,5.999931 13.1692319,5.999931 0,0 6.324072,-11.038093 12.883124,-5.999931 8.149204,5.590379 0.866644,14.170611 0.866644,14.170611 l -13.606714,14.465038 0.143034,-0.143034 z"
     inkscape:connector-curvature="0" />
  <path
     style="mix-blend-mode:normal;fill:#ff0000;stroke:none;stroke-width:0"
     id="path14"
     data-paper-data="{&quot;origRot&quot;:0}"
     d="m 238.49942,272.93667 c 0,0 8.12091,9.08606 -0.43748,13.8845 -7.13801,4.75749 -13.16923,-5.99993 -13.16923,-5.99993 0,0 -6.32409,11.0381 -12.88315,5.99993 -8.1492,-5.59037 -0.86664,-14.17061 -0.86664,-14.17061 l 13.60671,-14.46503 -0.14303,0.14303 z"
     inkscape:connector-curvature="0" />
  <path
     style="mix-blend-mode:normal;fill:none;stroke:#ff0000;stroke-width:3.07378721"
     id="path16"
     data-paper-data="{&quot;origRot&quot;:0}"
     d="m 108.28209,57.004468 c 0,0 -8.578778,-9.598352 0.46215,-14.667355 7.54048,-5.025745 13.91176,6.338231 13.91176,6.338231 0,0 6.68063,-11.660453 13.60952,-6.338231 8.60868,5.905585 0.9155,14.96959 0.9155,14.96959 l -14.37391,15.280616 0.15123,-0.15123 z"
     inkscape:connector-curvature="0" />
  <path
     style="mix-blend-mode:normal;fill:none;stroke:#ff0000;stroke-width:3.07378721"
     id="path18"
     data-paper-data="{&quot;origRot&quot;:0}"
     d="m 137.47327,274.35461 c 0,0 8.57878,9.59835 -0.46215,14.66736 -7.54047,5.02574 -13.91176,-6.33822 -13.91176,-6.33822 0,0 -6.68063,11.66046 -13.6095,6.33822 -8.60867,-5.90557 -0.91551,-14.96959 -0.91551,-14.96959 l 14.37391,-15.28062 -0.15103,0.15102 z"
     inkscape:connector-curvature="0" />
  <path
     style="mix-blend-mode:normal;fill:none;stroke:#ff0000;stroke-width:3.07378721"
     id="path20"
     data-paper-data="{&quot;origRot&quot;:0}"
     d="m 107.75926,154.34836 c 0,0 -8.578778,-9.59835 0.46215,-14.66735 7.54048,-5.02575 13.91176,6.33823 13.91176,6.33823 0,0 6.68063,-11.66046 13.60952,-6.33823 8.60868,5.90558 0.9155,14.96959 0.9155,14.96959 l -14.37391,15.28061 0.15102,-0.15123 z"
     inkscape:connector-curvature="0" />
</svg>
