<?xml version="1.0" encoding="UTF-8" standalone="no"?>
<svg
   xmlns:dc="http://purl.org/dc/elements/1.1/"
   xmlns:cc="http://creativecommons.org/ns#"
   xmlns:rdf="http://www.w3.org/1999/02/22-rdf-syntax-ns#"
   xmlns:svg="http://www.w3.org/2000/svg"
   xmlns="http://www.w3.org/2000/svg"
   xmlns:sodipodi="http://sodipodi.sourceforge.net/DTD/sodipodi-0.dtd"
   xmlns:inkscape="http://www.inkscape.org/namespaces/inkscape"
   version="1.1"
   width="63mm"
   height="88mm"
   viewBox="0 0 238.11023 332.59842"
   id="svg28"
   sodipodi:docname="H4.svg"
   inkscape:version="0.92.3 (2405546, 2018-03-11)">
  <sodipodi:namedview
     pagecolor="#ffffff"
     bordercolor="#666666"
     borderopacity="1"
     objecttolerance="10"
     gridtolerance="10"
     guidetolerance="10"
     inkscape:pageopacity="0"
     inkscape:pageshadow="2"
     inkscape:window-width="1920"
     inkscape:window-height="1018"
     id="namedview30"
     showgrid="false"
     inkscape:zoom="1.232376"
     inkscape:cx="109.88771"
     inkscape:cy="95.75"
     inkscape:window-x="0"
     inkscape:window-y="0"
     inkscape:window-maximized="1"
     inkscape:current-layer="svg28"
     units="mm" />
  <metadata
     id="metadata34">
    <rdf:RDF>
      <cc:Work
         rdf:about="">
        <dc:format>image/svg+xml</dc:format>
        <dc:type
           rdf:resource="http://purl.org/dc/dcmitype/StillImage" />
        <dc:title></dc:title>
      </cc:Work>
    </rdf:RDF>
  </metadata>
  <defs
     id="defs32" />
  <text
     id="text6"
     style="font-weight:normal;font-size:40.98382568px;font-family:Serif;text-anchor:start;mix-blend-mode:normal;fill:#ff0000;fill-rule:nonzero;stroke:none;stroke-width:1.02459562;stroke-linecap:butt;stroke-linejoin:miter;stroke-miterlimit:10;stroke-dasharray:none;stroke-dashoffset:0"
     font-weight="normal"
     stroke-miterlimit="10"
     xml:space="preserve"
     font-size="40"
     x="2.0151594"
     y="30.417671"><tspan
       id="tspan4"
       dy="0"
       x="2.0151594"
       style="stroke-width:1.02459562">4</tspan></text>
  <text
     id="text10"
     style="font-weight:normal;font-size:40.98382568px;font-family:Serif;text-anchor:start;mix-blend-mode:normal;fill:#ff0000;fill-rule:nonzero;stroke:none;stroke-width:1.02459562;stroke-linecap:butt;stroke-linejoin:miter;stroke-miterlimit:10;stroke-dasharray:none;stroke-dashoffset:0"
     font-weight="normal"
     stroke-miterlimit="10"
     data-paper-data="{&quot;origRot&quot;:-45}"
     xml:space="preserve"
     font-size="40"
     transform="scale(-1)"
     x="-241.28015"
     y="-302.18076"><tspan
       id="tspan8"
       dy="0"
       x="-241.28015"
       style="stroke-width:1.02459562">4</tspan></text>
  <path
     style="mix-blend-mode:normal;fill:#ff0000;stroke:none;stroke-width:0"
     id="path12"
     data-paper-data="{&quot;origRot&quot;:0}"
     d="m 3.4830762,56.181019 c 0,0 -8.1209041,-9.086052 0.437482,-13.8845 7.1380098,-4.757505 13.1692308,5.999929 13.1692308,5.999929 0,0 6.324071,-11.038092 12.883122,-5.999929 8.149204,5.590378 0.866644,14.170609 0.866644,14.170609 l -13.606712,14.465036 0.143033,-0.143033 z"
     inkscape:connector-curvature="0" />
  <path
     style="mix-blend-mode:normal;fill:#ff0000;stroke:none;stroke-width:0"
     id="path14"
     data-paper-data="{&quot;origRot&quot;:0}"
     d="m 240.36318,269.72866 c 0,0 8.1209,9.08605 -0.43748,13.8845 -7.13801,4.75749 -13.16923,-5.99993 -13.16923,-5.99993 0,0 -6.32409,11.03809 -12.88315,5.99993 -8.1492,-5.59038 -0.86664,-14.17061 -0.86664,-14.17061 l 13.60671,-14.46504 -0.14303,0.14304 z"
     inkscape:connector-curvature="0" />
  <path
     style="mix-blend-mode:normal;fill:none;stroke:#ff0000;stroke-width:3.07378697"
     id="path16"
     data-paper-data="{&quot;origRot&quot;:0}"
     d="m 55.02739,57.004446 c 0,0 -8.578776,-9.598351 0.462154,-14.667353 7.540471,-5.025745 13.911755,6.33823 13.911755,6.33823 0,0 6.68063,-11.660452 13.60952,-6.33823 8.608673,5.905585 0.915497,14.969588 0.915497,14.969588 l -14.373909,15.280615 0.151025,-0.15123 z"
     inkscape:connector-curvature="0" />
  <path
     style="mix-blend-mode:normal;fill:none;stroke:#ff0000;stroke-width:3.07378697"
     id="path18"
     data-paper-data="{&quot;origRot&quot;:0}"
     d="m 83.544449,269.00745 c 0,0 8.578773,9.59835 -0.462154,14.66735 -7.540471,5.02574 -13.911755,-6.33821 -13.911755,-6.33821 0,0 -6.68063,11.66045 -13.6095,6.33821 -8.608673,-5.90556 -0.915517,-14.96959 -0.915517,-14.96959 l 14.373909,-15.28061 -0.151025,0.15123 z"
     inkscape:connector-curvature="0" />
  <path
     style="mix-blend-mode:normal;fill:none;stroke:#ff0000;stroke-width:3.07378697"
     id="path20"
     data-paper-data="{&quot;origRot&quot;:0}"
     d="m 160.99699,57.13875 c 0,0 -8.57877,-9.598351 0.46216,-14.667353 7.54047,-5.025745 13.91175,6.33823 13.91175,6.33823 0,0 6.68063,-11.660452 13.60952,-6.33823 8.60868,5.905585 0.9155,14.969588 0.9155,14.969588 l -14.37391,15.280615 0.15103,-0.15123 z"
     inkscape:connector-curvature="0" />
  <path
     style="mix-blend-mode:normal;fill:none;stroke:#ff0000;stroke-width:3.07378697"
     id="path22"
     data-paper-data="{&quot;origRot&quot;:0}"
     d="m 189.51403,274.48887 c 0,0 8.57878,9.59835 -0.46215,14.66735 -7.54047,5.02575 -13.91176,-6.33821 -13.91176,-6.33821 0,0 -6.68063,11.66045 -13.6095,6.33821 -8.60867,-5.90556 -0.91551,-14.96959 -0.91551,-14.96959 l 14.37391,-15.28061 -0.15103,0.15103 z"
     inkscape:connector-curvature="0" />
</svg>
