<?xml version="1.0" encoding="UTF-8" standalone="no"?>
<svg
   xmlns:dc="http://purl.org/dc/elements/1.1/"
   xmlns:cc="http://creativecommons.org/ns#"
   xmlns:rdf="http://www.w3.org/1999/02/22-rdf-syntax-ns#"
   xmlns:svg="http://www.w3.org/2000/svg"
   xmlns="http://www.w3.org/2000/svg"
   xmlns:sodipodi="http://sodipodi.sourceforge.net/DTD/sodipodi-0.dtd"
   xmlns:inkscape="http://www.inkscape.org/namespaces/inkscape"
   version="1.1"
   width="63mm"
   height="88mm"
   viewBox="0 0 238.11023 332.59842"
   id="svg3763"
   sodipodi:docname="H8.svg"
   inkscape:version="0.92.3 (2405546, 2018-03-11)">
  <metadata
     id="metadata3769">
    <rdf:RDF>
      <cc:Work
         rdf:about="">
        <dc:format>image/svg+xml</dc:format>
        <dc:type
           rdf:resource="http://purl.org/dc/dcmitype/StillImage" />
        <dc:title></dc:title>
      </cc:Work>
    </rdf:RDF>
  </metadata>
  <defs
     id="defs3767" />
  <sodipodi:namedview
     pagecolor="#ffffff"
     bordercolor="#666666"
     borderopacity="1"
     objecttolerance="10"
     gridtolerance="10"
     guidetolerance="10"
     inkscape:pageopacity="0"
     inkscape:pageshadow="2"
     inkscape:window-width="1920"
     inkscape:window-height="1018"
     id="namedview3765"
     showgrid="false"
     inkscape:zoom="1.232376"
     inkscape:cx="-73.9036"
     inkscape:cy="95.750002"
     inkscape:window-x="0"
     inkscape:window-y="0"
     inkscape:window-maximized="1"
     inkscape:current-layer="svg3763"
     units="mm" />
  <text
     font-size="40"
     xml:space="preserve"
     stroke-miterlimit="10"
     font-weight="normal"
     style="font-weight:normal;font-size:40.98382568px;font-family:Serif;text-anchor:start;mix-blend-mode:normal;fill:#ff0000;fill-rule:nonzero;stroke:none;stroke-width:1.02459562;stroke-linecap:butt;stroke-linejoin:miter;stroke-miterlimit:10;stroke-dasharray:none;stroke-dashoffset:0"
     id="text3733"
     x="2.0151594"
     y="30.417671"><tspan
       x="2.0151594"
       dy="0"
       id="tspan3731"
       style="stroke-width:1.02459562">8</tspan></text>
  <text
     transform="scale(-1)"
     font-size="40"
     xml:space="preserve"
     data-paper-data="{&quot;origRot&quot;:-45}"
     stroke-miterlimit="10"
     font-weight="normal"
     style="font-weight:normal;font-size:40.98382568px;font-family:Serif;text-anchor:start;mix-blend-mode:normal;fill:#ff0000;fill-rule:nonzero;stroke:none;stroke-width:1.02459562;stroke-linecap:butt;stroke-linejoin:miter;stroke-miterlimit:10;stroke-dasharray:none;stroke-dashoffset:0"
     id="text3737"
     x="-239.41638"
     y="-302.18076"><tspan
       x="-239.41638"
       dy="0"
       id="tspan3735"
       style="stroke-width:1.02459562">8</tspan></text>
  <path
     d="m 3.4830762,56.181019 c 0,0 -8.1209041,-9.086052 0.437482,-13.8845 7.1380098,-4.757505 13.1692308,5.999929 13.1692308,5.999929 0,0 6.324071,-11.038092 12.883122,-5.999929 8.149204,5.590378 0.866644,14.170609 0.866644,14.170609 l -13.606712,14.465036 0.143033,-0.143033 z"
     data-paper-data="{&quot;origRot&quot;:0}"
     id="path3739"
     inkscape:connector-curvature="0"
     style="mix-blend-mode:normal;fill:#ff0000;fill-rule:nonzero;stroke:none;stroke-width:0;stroke-linecap:butt;stroke-linejoin:miter;stroke-miterlimit:10;stroke-dasharray:none;stroke-dashoffset:0" />
  <path
     d="m 238.4994,272.93663 c 0,0 8.1209,9.08605 -0.43748,13.8845 -7.13801,4.75748 -13.16923,-5.99993 -13.16923,-5.99993 0,0 -6.3241,11.03809 -12.88315,5.99993 -8.1492,-5.59038 -0.86664,-14.17061 -0.86664,-14.17061 l 13.60671,-14.46504 -0.14303,0.14304 z"
     data-paper-data="{&quot;origRot&quot;:0}"
     id="path3741"
     inkscape:connector-curvature="0"
     style="mix-blend-mode:normal;fill:#ff0000;fill-rule:nonzero;stroke:none;stroke-width:0;stroke-linecap:butt;stroke-linejoin:miter;stroke-miterlimit:10;stroke-dasharray:none;stroke-dashoffset:0" />
  <path
     d="m 55.027411,62.351585 c 0,0 -8.578776,-9.59835 0.462154,-14.667353 7.54047,-5.025744 13.911755,6.338231 13.911755,6.338231 0,0 6.68063,-11.660452 13.60952,-6.338231 8.608672,5.905585 0.915496,14.969589 0.915496,14.969589 L 69.552427,77.934435 69.703452,77.78341 Z"
     data-paper-data="{&quot;origRot&quot;:0}"
     id="path3743"
     inkscape:connector-curvature="0"
     style="mix-blend-mode:normal;fill:none;fill-rule:nonzero;stroke:#ff0000;stroke-width:3.07378697;stroke-linecap:butt;stroke-linejoin:miter;stroke-miterlimit:10;stroke-dasharray:none;stroke-dashoffset:0" />
  <path
     d="m 83.544469,269.00745 c 0,0 8.578773,9.59835 -0.462154,14.66735 -7.54047,5.02574 -13.911755,-6.33821 -13.911755,-6.33821 0,0 -6.68063,11.66045 -13.609499,6.33821 -8.608673,-5.90556 -0.915517,-14.96959 -0.915517,-14.96959 l 14.373909,-15.28061 -0.151025,0.15123 z"
     data-paper-data="{&quot;origRot&quot;:0}"
     id="path3745"
     inkscape:connector-curvature="0"
     style="mix-blend-mode:normal;fill:none;fill-rule:nonzero;stroke:#ff0000;stroke-width:3.07378697;stroke-linecap:butt;stroke-linejoin:miter;stroke-miterlimit:10;stroke-dasharray:none;stroke-dashoffset:0" />
  <path
     d="m 160.99701,62.485889 c 0,0 -8.57877,-9.59835 0.46216,-14.667353 7.54047,-5.025744 13.91175,6.338231 13.91175,6.338231 0,0 6.68063,-11.660452 13.60952,-6.338231 8.60868,5.905585 0.9155,14.969589 0.9155,14.969589 l -14.37391,15.280614 0.15103,-0.151025 z"
     data-paper-data="{&quot;origRot&quot;:0}"
     id="path3747"
     inkscape:connector-curvature="0"
     style="mix-blend-mode:normal;fill:none;fill-rule:nonzero;stroke:#ff0000;stroke-width:3.07378697;stroke-linecap:butt;stroke-linejoin:miter;stroke-miterlimit:10;stroke-dasharray:none;stroke-dashoffset:0" />
  <path
     d="m 189.51405,268.20986 c 0,0 8.57878,9.59835 -0.46215,14.66735 -7.54047,5.02575 -13.91176,-6.33821 -13.91176,-6.33821 0,0 -6.68063,11.66046 -13.6095,6.33821 -8.60867,-5.90556 -0.91551,-14.96958 -0.91551,-14.96958 l 14.37391,-15.28062 -0.15103,0.15123 z"
     data-paper-data="{&quot;origRot&quot;:0}"
     id="path3749"
     inkscape:connector-curvature="0"
     style="mix-blend-mode:normal;fill:none;fill-rule:nonzero;stroke:#ff0000;stroke-width:3.07378697;stroke-linecap:butt;stroke-linejoin:miter;stroke-miterlimit:10;stroke-dasharray:none;stroke-dashoffset:0" />
  <path
     d="m 57.201008,161.04369 c 0,0 -8.578775,-9.59835 0.462154,-14.66735 7.540471,-5.02575 13.911755,6.33823 13.911755,6.33823 0,0 6.680631,-11.66045 13.60952,-6.33823 8.608675,5.90558 0.915497,14.96959 0.915497,14.96959 l -14.373909,15.28061 0.151025,-0.15102 z"
     data-paper-data="{&quot;origRot&quot;:0}"
     id="path3751"
     inkscape:connector-curvature="0"
     style="mix-blend-mode:normal;fill:none;fill-rule:nonzero;stroke:#ff0000;stroke-width:3.07378697;stroke-linecap:butt;stroke-linejoin:miter;stroke-miterlimit:10;stroke-dasharray:none;stroke-dashoffset:0" />
  <path
     d="m 160.47416,161.17799 c 0,0 -8.57877,-9.59835 0.46216,-14.66735 7.54047,-5.02574 13.91175,6.33823 13.91175,6.33823 0,0 6.68063,-11.66045 13.60952,-6.33823 8.60868,5.90559 0.9155,14.96959 0.9155,14.96959 l -14.37391,15.28061 0.15123,-0.15102 z"
     data-paper-data="{&quot;origRot&quot;:0}"
     id="path3753"
     inkscape:connector-curvature="0"
     style="mix-blend-mode:normal;fill:none;fill-rule:nonzero;stroke:#ff0000;stroke-width:3.07378697;stroke-linecap:butt;stroke-linejoin:miter;stroke-miterlimit:10;stroke-dasharray:none;stroke-dashoffset:0" />
  <path
     d="m 106.96168,107.82404 c 0,0 -8.578768,-9.598348 0.46216,-14.667351 7.54047,-5.025744 13.91175,6.338231 13.91175,6.338231 0,0 6.68063,-11.660452 13.60952,-6.338231 8.60868,5.905585 0.9155,14.969591 0.9155,14.969591 l -14.37391,15.28061 0.15123,-0.15103 z"
     data-paper-data="{&quot;origRot&quot;:0}"
     id="path3755"
     inkscape:connector-curvature="0"
     style="mix-blend-mode:normal;fill:none;fill-rule:nonzero;stroke:#ff0000;stroke-width:3.07378697;stroke-linecap:butt;stroke-linejoin:miter;stroke-miterlimit:10;stroke-dasharray:none;stroke-dashoffset:0" />
  <path
     d="m 135.73649,210.09207 c 0,0 8.57878,9.59835 -0.46215,14.66735 -7.54048,5.02575 -13.91176,-6.33823 -13.91176,-6.33823 0,0 -6.68063,11.66045 -13.60952,6.33823 -8.608668,-5.90558 -0.9155,-14.96959 -0.9155,-14.96959 l 14.37391,-15.28061 -0.15102,0.15102 z"
     data-paper-data="{&quot;origRot&quot;:0}"
     id="path3757"
     inkscape:connector-curvature="0"
     style="mix-blend-mode:normal;fill:none;fill-rule:nonzero;stroke:#ff0000;stroke-width:3.07378697;stroke-linecap:butt;stroke-linejoin:miter;stroke-miterlimit:10;stroke-dasharray:none;stroke-dashoffset:0" />
</svg>
