<?xml version="1.0" encoding="UTF-8" standalone="no"?>
<svg
   xmlns:dc="http://purl.org/dc/elements/1.1/"
   xmlns:cc="http://creativecommons.org/ns#"
   xmlns:rdf="http://www.w3.org/1999/02/22-rdf-syntax-ns#"
   xmlns:svg="http://www.w3.org/2000/svg"
   xmlns="http://www.w3.org/2000/svg"
   xmlns:sodipodi="http://sodipodi.sourceforge.net/DTD/sodipodi-0.dtd"
   xmlns:inkscape="http://www.inkscape.org/namespaces/inkscape"
   version="1.1"
   width="63mm"
   height="88mm"
   viewBox="0 0 238.11023 332.59842"
   id="svg26"
   sodipodi:docname="HA.svg"
   inkscape:version="0.92.3 (2405546, 2018-03-11)">
  <sodipodi:namedview
     pagecolor="#ffffff"
     bordercolor="#666666"
     borderopacity="1"
     objecttolerance="10"
     gridtolerance="10"
     guidetolerance="10"
     inkscape:pageopacity="0"
     inkscape:pageshadow="2"
     inkscape:window-width="1920"
     inkscape:window-height="1018"
     id="namedview28"
     showgrid="false"
     inkscape:zoom="1.232376"
     inkscape:cx="109.88771"
     inkscape:cy="95.75"
     inkscape:window-x="0"
     inkscape:window-y="0"
     inkscape:window-maximized="1"
     inkscape:current-layer="svg26"
     units="mm" />
  <metadata
     id="metadata32">
    <rdf:RDF>
      <cc:Work
         rdf:about="">
        <dc:format>image/svg+xml</dc:format>
        <dc:type
           rdf:resource="http://purl.org/dc/dcmitype/StillImage" />
        <dc:title></dc:title>
      </cc:Work>
    </rdf:RDF>
  </metadata>
  <defs
     id="defs30" />
  <text
     id="text6"
     style="font-weight:normal;font-size:41.08644867px;font-family:Serif;text-anchor:start;mix-blend-mode:normal;fill:#ff0000;fill-rule:nonzero;stroke:none;stroke-width:1.02716124;stroke-linecap:butt;stroke-linejoin:miter;stroke-miterlimit:10;stroke-dasharray:none;stroke-dashoffset:0"
     font-weight="normal"
     stroke-miterlimit="10"
     xml:space="preserve"
     font-size="40"
     x="2.2707496"
     y="29.952187"><tspan
       id="tspan4"
       dy="0"
       x="2.2707496"
       style="stroke-width:1.02716124">A</tspan></text>
  <text
     id="text10"
     style="font-weight:normal;font-size:41.08644867px;font-family:Serif;text-anchor:start;mix-blend-mode:normal;fill:#ff0000;fill-rule:nonzero;stroke:none;stroke-width:1.02716124;stroke-linecap:butt;stroke-linejoin:miter;stroke-miterlimit:10;stroke-dasharray:none;stroke-dashoffset:0"
     font-weight="normal"
     stroke-miterlimit="10"
     data-paper-data="{&quot;origRot&quot;:-45}"
     xml:space="preserve"
     font-size="40"
     transform="scale(-1)"
     x="-241.88428"
     y="-302.64624"><tspan
       id="tspan8"
       dy="0"
       x="-241.88428"
       style="stroke-width:1.02716124">A</tspan></text>
  <path
     style="mix-blend-mode:normal;fill:#ff0000;stroke:none;stroke-width:0"
     id="path12"
     data-paper-data="{&quot;origRot&quot;:0}"
     d="m 3.491798,56.030586 c 0,0 -8.141239,-9.108804 0.438577,-13.919267 7.155883,-4.769418 13.202206,6.014953 13.202206,6.014953 0,0 6.339906,-11.065731 12.915381,-6.014953 8.169609,5.604377 0.868814,14.206092 0.868814,14.206092 l -13.640783,14.501256 0.143392,-0.143391 z"
     inkscape:connector-curvature="0" />
  <path
     style="mix-blend-mode:normal;fill:#ff0000;stroke:none;stroke-width:0"
     id="path14"
     data-paper-data="{&quot;origRot&quot;:0}"
     d="m 239.09655,273.32892 c 0,0 8.14124,9.10881 -0.43858,13.91927 -7.15588,4.7694 -13.2022,-6.01495 -13.2022,-6.01495 0,0 -6.33993,11.06573 -12.9154,6.01495 -8.16961,-5.60438 -0.86882,-14.20609 -0.86882,-14.20609 l 13.64078,-14.50126 -0.14339,0.14339 z"
     inkscape:connector-curvature="0" />
  <path
     style="mix-blend-mode:normal;fill:#ff0000;stroke:#000000;stroke-width:0"
     id="path16"
     data-paper-data="{&quot;origRot&quot;:0}"
     d="m 120.39119,212.38531 0.48923,0.48926 -46.535268,-49.47078 c 0,0 -24.906584,-29.3446 2.963915,-48.46383 22.432115,-17.230623 44.060613,20.51991 44.060613,20.51991 0,0 20.62696,-36.79063 45.03913,-20.51991 29.26988,16.41077 1.49618,47.48534 1.49618,47.48534 z"
     inkscape:connector-curvature="0" />
  <path
     style="mix-blend-mode:normal;fill:none;stroke:#ff0000;stroke-width:4.10864496"
     id="path18"
     data-paper-data="{&quot;origRot&quot;:0}"
     d="M 119.59635,224.94127 63.551742,163.00299 c 0,0 -24.775827,-35.34712 7.370005,-57.60488 25.873185,-20.059143 50.819473,18.75153 50.819473,18.75153 0,0 23.79113,-37.693203 51.94811,-18.75153 33.75987,19.1047 4.88682,55.67549 4.88682,55.67549 z"
     inkscape:connector-curvature="0" />
</svg>
