<?xml version="1.0" encoding="UTF-8" standalone="no"?>
<svg
   xmlns:dc="http://purl.org/dc/elements/1.1/"
   xmlns:cc="http://creativecommons.org/ns#"
   xmlns:rdf="http://www.w3.org/1999/02/22-rdf-syntax-ns#"
   xmlns:svg="http://www.w3.org/2000/svg"
   xmlns="http://www.w3.org/2000/svg"
   xmlns:sodipodi="http://sodipodi.sourceforge.net/DTD/sodipodi-0.dtd"
   xmlns:inkscape="http://www.inkscape.org/namespaces/inkscape"
   version="1.1"
   width="63mm"
   height="88mm"
   viewBox="0 0 238.11023 332.59842"
   id="svg93"
   sodipodi:docname="HJ.svg"
   inkscape:version="0.92.3 (2405546, 2018-03-11)">
  <sodipodi:namedview
     pagecolor="#ffffff"
     bordercolor="#666666"
     borderopacity="1"
     objecttolerance="10"
     gridtolerance="10"
     guidetolerance="10"
     inkscape:pageopacity="0"
     inkscape:pageshadow="2"
     inkscape:window-width="1920"
     inkscape:window-height="1018"
     id="namedview95"
     showgrid="false"
     inkscape:zoom="1.232376"
     inkscape:cx="109.88771"
     inkscape:cy="95.75"
     inkscape:window-x="0"
     inkscape:window-y="0"
     inkscape:window-maximized="1"
     inkscape:current-layer="svg93"
     units="mm" />
  <metadata
     id="metadata97">
    <rdf:RDF>
      <cc:Work
         rdf:about="">
        <dc:format>image/svg+xml</dc:format>
        <dc:type
           rdf:resource="http://purl.org/dc/dcmitype/StillImage" />
        <dc:title></dc:title>
      </cc:Work>
    </rdf:RDF>
  </metadata>
  <defs
     id="defs7">
    <radialGradient
       id="color-1"
       gradientUnits="userSpaceOnUse"
       r="30.75"
       cy="179.21648"
       cx="240"
       gradientTransform="matrix(2.0048201,0,0,2.0048201,-361.34515,-195.51043)">
      <stop
         id="stop2"
         stop-color="#ff0000"
         offset="0" />
      <stop
         id="stop4"
         stop-color="#fbff00"
         offset="1" />
    </radialGradient>
  </defs>
  <text
     id="text13"
     style="font-weight:normal;font-size:40.09640121px;font-family:Serif;text-anchor:start;mix-blend-mode:normal;fill:#ff0000;fill-rule:nonzero;stroke:none;stroke-width:1.00241005;stroke-linecap:butt;stroke-linejoin:miter;stroke-miterlimit:10;stroke-dasharray:none;stroke-dashoffset:0"
     font-weight="normal"
     stroke-miterlimit="10"
     xml:space="preserve"
     font-size="40"
     x="6.477869"
     y="36.206593"><tspan
       id="tspan11"
       dy="0"
       x="6.477869"
       style="stroke-width:1.00241005">J</tspan></text>
  <text
     id="text17"
     style="font-weight:normal;font-size:40.09640121px;font-family:Serif;text-anchor:start;mix-blend-mode:normal;fill:#ff0000;fill-rule:nonzero;stroke:none;stroke-width:1.00241005;stroke-linecap:butt;stroke-linejoin:miter;stroke-miterlimit:10;stroke-dasharray:none;stroke-dashoffset:0"
     font-weight="normal"
     stroke-miterlimit="10"
     data-paper-data="{&quot;origRot&quot;:-45}"
     xml:space="preserve"
     font-size="40"
     transform="scale(-1)"
     x="-229.03703"
     y="-302.32965"><tspan
       id="tspan15"
       dy="0"
       x="-229.03703"
       style="stroke-width:1.00241005">J</tspan></text>
  <path
     style="mix-blend-mode:normal;fill:#ff0000;stroke:#000000;stroke-width:1.00241005;stroke-linecap:butt"
     id="path19"
     data-paper-data="{&quot;origRot&quot;:0}"
     d="m 3.9093125,61.65659 c 0,0 -7.9450623,-8.889312 0.428009,-13.583859 6.9834505,-4.654491 12.8840765,5.870013 12.8840765,5.870013 0,0 6.187136,-10.799084 12.604164,-5.870013 7.972749,5.46933 0.847879,13.863772 0.847879,13.863772 l -13.312086,14.151825 0.139936,-0.139937 z"
     inkscape:connector-curvature="0" />
  <path
     style="mix-blend-mode:normal;fill:#ff0000;stroke:#000000;stroke-width:1.00241005;stroke-linecap:butt"
     id="path21"
     data-paper-data="{&quot;origRot&quot;:0}"
     d="m 233.83682,273.71876 c 0,0 7.94506,8.88931 -0.42801,13.58386 -6.98345,4.65447 -12.88407,-5.87001 -12.88407,-5.87001 0,0 -6.18716,10.79908 -12.60419,5.87001 -7.97275,-5.46933 -0.84788,-13.86377 -0.84788,-13.86377 l 13.31209,-14.15183 -0.13994,0.13994 z"
     inkscape:connector-curvature="0" />
  <path
     style="mix-blend-mode:normal;fill:#d00000;stroke-width:2.00482011"
     id="path23"
     d="m 34.105612,164.42341 c 0,-47.33415 38.371917,-85.706061 85.706068,-85.706061 47.33416,0 85.70605,38.371911 85.70605,85.706061 0,47.33416 -38.37189,85.70606 -85.70605,85.70606 -47.334151,0 -85.706068,-38.37192 -85.706068,-85.70606 z"
     inkscape:connector-curvature="0" />
  <path
     style="mix-blend-mode:normal;fill:url(#color-1);stroke-width:2.00482011"
     id="path25"
     d="m 58.163454,163.78635 c 0,-34.04735 27.600859,-61.64821 61.648226,-61.64821 34.04735,0 61.64821,27.60086 61.64821,61.64821 0,34.04736 -27.60086,61.64822 -61.64821,61.64822 -34.047367,0 -61.648226,-27.60086 -61.648226,-61.64822 z"
     inkscape:connector-curvature="0" />
  <path
     style="mix-blend-mode:normal;fill:#d00000;stroke-width:2.00482011"
     id="path27"
     d="m 88.736957,165.35719 c 0,-17.1621 13.912613,-31.07471 31.074723,-31.07471 17.1621,0 31.07471,13.91261 31.07471,31.07471 0,17.1621 -13.91261,31.07471 -31.07471,31.07471 -17.16211,0 -31.074723,-13.91261 -31.074723,-31.07471 z"
     inkscape:connector-curvature="0" />
  <path
     style="mix-blend-mode:normal;fill:#ffb89a;stroke:#000000;stroke-width:1.00241005;stroke-linecap:butt"
     id="path31"
     d="m 114.41763,73.02398 1.00241,-45.108452 h 47.11327 c 0,0 19.36556,31.991075 10.0241,33.079532 -19.04579,2.219215 -10.0241,26.062661 -10.0241,26.062661 0,0 -21.46208,0 -30.0723,0 -6.48155,0 -18.04338,-14.033741 -18.04338,-14.033741 z"
     inkscape:connector-curvature="0" />
  <path
     style="mix-blend-mode:normal;fill:#ffca00;stroke:none;stroke-width:0;stroke-linecap:butt"
     id="path33"
     d="M 68.25241,89.117052 C 71.155711,82.775626 64.444194,77.54507 67.617484,70.613906 72.068124,60.892754 82.259226,55.779721 84.648471,50.561134 88.543077,42.054482 87.753516,26.632603 87.753516,26.632603 h 54.130144 c 0,0 1.02268,14.912755 -2.75763,23.169726 -2.81705,6.153034 -14.22331,13.920188 -19.62286,25.713923 -2.24686,4.9076 5.52906,7.813346 3.46447,12.322808 -5.14617,11.240324 -59.570784,11.883571 -54.71523,1.277992 z"
     inkscape:connector-curvature="0" />
  <path
     style="mix-blend-mode:normal;fill:#d28200;stroke:none;stroke-width:0;stroke-linecap:butt"
     id="path35"
     d="M 86.915381,95.905413 C 89.818677,89.563987 83.489985,77.825585 86.663275,70.89442 91.113917,61.173268 101.30502,56.060235 103.69426,50.841648 c 3.89461,-8.506652 3.10505,-23.92853 3.10505,-23.92853 h 14.03374 c 0,0 1.02268,14.912754 -2.75763,23.169726 -2.81705,6.153033 -14.22332,13.920188 -19.622863,25.713923 -2.24686,4.907599 5.911863,15.469633 3.847293,19.979095 -7.060253,0.138733 -5.693073,1.547581 -15.384449,0.129511 z"
     inkscape:connector-curvature="0" />
  <path
     style="mix-blend-mode:normal;fill:#000000;stroke:#000000;stroke-width:1.00241005;stroke-linecap:butt"
     id="path37"
     d="m 162.73377,46.159391 c 0,1.660853 -1.84006,3.00723 -4.10988,3.00723 -2.26982,0 -4.10988,-1.346377 -4.10988,-3.00723 0,-1.660853 1.84006,-3.00723 4.10988,-3.00723 2.26982,0 4.10988,1.346377 4.10988,3.00723 z"
     inkscape:connector-curvature="0" />
  <path
     style="mix-blend-mode:normal;fill:none;stroke:#000000;stroke-width:1.00241005;stroke-linecap:round"
     id="path39"
     d="m 165.8393,38.322489 -10.96537,2.20035 -4.66832,0.48224"
     inkscape:connector-curvature="0" />
  <path
     style="mix-blend-mode:normal;fill:none;stroke:#000000;stroke-width:1.00241005;stroke-linecap:round"
     id="path41"
     d="m 160.10453,74.165084 -7.77281,-4.848357"
     inkscape:connector-curvature="0" />
  <path
     style="mix-blend-mode:normal;fill:#ff0000;stroke:#000000;stroke-width:2.00482011;stroke-linecap:butt"
     id="path43"
     d="M 88.320117,28.187121 83.818355,2.97729 c 0,0 15.613702,12.735139 23.409145,7.202797 C 118.64543,2.0769251 133.32807,2.0769251 144.14193,9.2797427 157.89389,18.439545 175.65424,2.97729 175.65424,2.97729 l -7.20282,25.209831 z"
     inkscape:connector-curvature="0" />
  <path
     style="mix-blend-mode:normal;fill:#ffffff;stroke:none;stroke-width:0;stroke-linecap:butt"
     id="path45"
     data-paper-data="{&quot;origRot&quot;:0}"
     d="m 122.34208,13.943155 c 0,0 -2.8436,-3.122628 0.15317,-4.7717127 2.49943,-1.635031 4.61132,2.0619977 4.61132,2.0619977 0,0 2.21443,-3.7934806 4.51113,-2.0619977 2.85352,1.9212387 0.30345,4.8700287 0.30345,4.8700287 l -4.7645,4.971212 0.0501,-0.04912 z"
     inkscape:connector-curvature="0" />
  <path
     style="mix-blend-mode:normal;fill:#ffb89a;stroke:#000000;stroke-width:1.00241005;stroke-linecap:butt"
     id="path49"
     d="m 130.15007,259.57445 -1.00241,45.10846 H 82.034386 c 0,0 -19.36556,-31.99108 -10.024101,-33.07953 19.045792,-2.21922 10.024101,-26.06267 10.024101,-26.06267 0,0 21.462084,0 30.072304,0 6.48154,0 18.04338,14.03374 18.04338,14.03374 z"
     inkscape:connector-curvature="0" />
  <path
     style="mix-blend-mode:normal;fill:#ffca00;stroke:none;stroke-width:0;stroke-linecap:butt"
     id="path51"
     d="m 176.31528,243.48138 c -2.9033,6.34143 3.80822,11.57198 0.63493,18.50315 -4.45064,9.72115 -14.64174,14.83418 -17.03099,20.05277 -3.8946,8.50665 -3.10504,23.92853 -3.10504,23.92853 h -54.13014 c 0,0 -1.02268,-14.91275 2.75763,-23.16972 2.81705,-6.15304 14.22331,-13.92019 19.62285,-25.71393 2.24687,-4.9076 -5.52905,-7.81334 -3.46447,-12.3228 5.14618,-11.24033 59.57079,-11.88358 54.71523,-1.278 z"
     inkscape:connector-curvature="0" />
  <path
     style="mix-blend-mode:normal;fill:#d28200;stroke:none;stroke-width:0;stroke-linecap:butt"
     id="path53"
     d="m 157.65231,236.69302 c -2.9033,6.34143 3.4254,18.07983 0.25211,25.01099 -4.45064,9.72116 -14.64174,14.83419 -17.03099,20.05278 -3.8946,8.50665 -3.10504,23.92853 -3.10504,23.92853 h -14.03374 c 0,0 -1.02268,-14.91276 2.75763,-23.16973 2.81705,-6.15303 14.22331,-13.92019 19.62286,-25.71392 2.24686,-4.9076 -5.91186,-15.46964 -3.84729,-19.9791 7.06025,-0.13873 5.69306,-1.54758 15.38444,-0.12951 z"
     inkscape:connector-curvature="0" />
  <path
     style="mix-blend-mode:normal;fill:#000000;stroke:#000000;stroke-width:1.00241005;stroke-linecap:butt"
     id="path55"
     d="m 81.833924,286.43904 c 0,-1.66085 1.840064,-3.00723 4.109881,-3.00723 2.269822,0 4.109882,1.34638 4.109882,3.00723 0,1.66086 -1.84006,3.00723 -4.109882,3.00723 -2.269817,0 -4.109881,-1.34637 -4.109881,-3.00723 z"
     inkscape:connector-curvature="0" />
  <path
     style="mix-blend-mode:normal;fill:none;stroke:#000000;stroke-width:1.00241005;stroke-linecap:round"
     id="path57"
     d="m 78.728417,294.27595 10.96536,-2.20035 4.66833,-0.48224"
     inkscape:connector-curvature="0" />
  <path
     style="mix-blend-mode:normal;fill:none;stroke:#000000;stroke-width:1.00241005;stroke-linecap:round"
     id="path59"
     d="m 92.235977,263.28171 -7.772812,-4.84836"
     inkscape:connector-curvature="0" />
  <path
     style="mix-blend-mode:normal;fill:#ff0000;stroke:#000000;stroke-width:2.00482011;stroke-linecap:butt"
     id="path61"
     d="m 156.24758,304.41131 4.50176,25.20983 c 0,0 -15.6137,-12.73513 -23.40914,-7.20279 -11.41793,8.10316 -26.10057,8.10316 -36.91443,0.90034 -13.75197,-9.1598 -31.51231,6.30245 -31.51231,6.30245 l 7.202817,-25.20983 z"
     inkscape:connector-curvature="0" />
  <path
     style="mix-blend-mode:normal;fill:#ffffff;stroke:none;stroke-width:0;stroke-linecap:butt"
     id="path63"
     data-paper-data="{&quot;origRot&quot;:0}"
     d="m 122.22562,318.65528 c 0,0 2.8436,3.12263 -0.15317,4.77171 -2.49943,1.63503 -4.61133,-2.062 -4.61133,-2.062 0,0 -2.21442,3.79349 -4.51112,2.062 -2.85352,-1.92124 -0.30345,-4.87003 -0.30345,-4.87003 l 4.76449,-4.97121 -0.0501,0.0491 z"
     inkscape:connector-curvature="0" />
  <path
     style="mix-blend-mode:normal;fill:#e4ce00;stroke:#02005e;stroke-width:0;stroke-linecap:butt"
     id="path67"
     d="m 30.924905,172.44585 v 82.23267 h -7.404843 v -82.23267 z"
     inkscape:connector-curvature="0" />
  <path
     style="mix-blend-mode:normal;fill:#e4ce00;stroke:none;stroke-width:0"
     id="path69"
     d="m 207.1823,170.00998 c 0,-2.52868 2.04993,-4.57859 4.57861,-4.57859 2.52867,0 4.57858,2.04991 4.57858,4.57859 0,2.52868 -2.04991,4.57861 -4.57858,4.57861 -2.52868,0 -4.57861,-2.04993 -4.57861,-4.57861 z"
     inkscape:connector-curvature="0" />
  <path
     style="mix-blend-mode:normal;fill:#e4ce00;stroke:#02005e;stroke-width:0"
     id="path71"
     d="M 207.87099,158.50528 V 76.272591 h 7.40487 v 82.232689 z"
     inkscape:connector-curvature="0" />
  <path
     style="mix-blend-mode:normal;fill:#ffb89a;stroke:#000000;stroke-width:1.00241005"
     id="path73"
     d="m 218.75362,152.8506 c 0,10.03866 -4.61151,18.17662 -10.30009,18.17662 -5.68857,0 -10.30006,-8.13794 -10.30006,-18.17662 0,-2.84833 -1.22005,-7.17707 -0.0656,-14.50319 0.90967,-5.77278 8.38139,-8.1203 9.19212,-6.6479 2.92076,5.30445 -3.75647,9.3565 -0.95375,13.25661 3.31966,4.61949 12.42742,-2.14417 12.42742,7.89448 z"
     inkscape:connector-curvature="0" />
  <path
     style="mix-blend-mode:normal;fill:#ff0000;stroke:none;stroke-width:0"
     id="path75"
     data-paper-data="{&quot;origRot&quot;:0}"
     d="m 204.18854,77.696935 c 0,0 -4.63296,-5.183562 0.24958,-7.921064 4.07221,-2.714145 7.51302,3.42295 7.51302,3.42295 0,0 3.60788,-6.2972 7.34979,-3.42295 4.6491,3.189288 0.49441,8.084297 0.49441,8.084297 l -7.76258,8.25226 0.0816,-0.0816 z"
     inkscape:connector-curvature="0" />
  <path
     style="mix-blend-mode:normal;fill:#e4ce00;stroke:none;stroke-width:0"
     id="path79"
     d="m 31.553176,161.15882 c 0,2.52868 -2.049929,4.57859 -4.578608,4.57859 -2.52868,0 -4.578589,-2.04991 -4.578589,-4.57859 0,-2.52868 2.049909,-4.57861 4.578589,-4.57861 2.528679,0 4.578608,2.04993 4.578608,4.57861 z"
     inkscape:connector-curvature="0" />
  <path
     style="mix-blend-mode:normal;fill:#e4ce00;stroke:#02005e;stroke-width:0"
     id="path81"
     d="m 30.86448,172.66352 v 82.23269 h -7.404863 v -82.23269 z"
     inkscape:connector-curvature="0" />
  <path
     style="mix-blend-mode:normal;fill:#ffb89a;stroke:#000000;stroke-width:1.00241005"
     id="path83"
     d="m 19.981855,178.31819 c 0,-10.03865 4.611508,-18.17662 10.300084,-18.17662 5.688577,0 10.300064,8.13795 10.300064,18.17662 0,2.84833 1.220054,7.17708 0.06556,14.50319 -0.909667,5.77278 -8.381391,8.12031 -9.19212,6.64791 -2.920763,-5.30446 3.756471,-9.3565 0.953753,-13.25662 -3.319661,-4.61948 -12.427419,2.14418 -12.427419,-7.89448 z"
     inkscape:connector-curvature="0" />
  <path
     style="mix-blend-mode:normal;fill:#ff0000;stroke:none;stroke-width:0"
     id="path85"
     data-paper-data="{&quot;origRot&quot;:0}"
     d="m 34.546954,253.47186 c 0,0 4.632958,5.18356 -0.24958,7.92109 -4.072211,2.71414 -7.513004,-3.42295 -7.513004,-3.42295 0,0 -3.607874,6.2972 -7.34977,3.42295 -4.649098,-3.18929 -0.494429,-8.0843 -0.494429,-8.0843 l 7.762603,-8.25226 -0.0816,0.0816 z"
     inkscape:connector-curvature="0" />
</svg>
