<?xml version="1.0" encoding="UTF-8" standalone="no"?>
<svg
   xmlns:dc="http://purl.org/dc/elements/1.1/"
   xmlns:cc="http://creativecommons.org/ns#"
   xmlns:rdf="http://www.w3.org/1999/02/22-rdf-syntax-ns#"
   xmlns:svg="http://www.w3.org/2000/svg"
   xmlns="http://www.w3.org/2000/svg"
   xmlns:sodipodi="http://sodipodi.sourceforge.net/DTD/sodipodi-0.dtd"
   xmlns:inkscape="http://www.inkscape.org/namespaces/inkscape"
   version="1.1"
   width="63mm"
   height="88mm"
   viewBox="0 0 238.11023 332.59842"
   id="svg105"
   sodipodi:docname="HK.svg"
   inkscape:version="0.92.3 (2405546, 2018-03-11)">
  <sodipodi:namedview
     pagecolor="#ffffff"
     bordercolor="#666666"
     borderopacity="1"
     objecttolerance="10"
     gridtolerance="10"
     guidetolerance="10"
     inkscape:pageopacity="0"
     inkscape:pageshadow="2"
     inkscape:window-width="1920"
     inkscape:window-height="1018"
     id="namedview107"
     showgrid="false"
     inkscape:zoom="1.232376"
     inkscape:cx="71.75"
     inkscape:cy="95.75"
     inkscape:window-x="0"
     inkscape:window-y="0"
     inkscape:window-maximized="1"
     inkscape:current-layer="svg105"
     units="mm" />
  <metadata
     id="metadata109">
    <rdf:RDF>
      <cc:Work
         rdf:about="">
        <dc:format>image/svg+xml</dc:format>
        <dc:type
           rdf:resource="http://purl.org/dc/dcmitype/StillImage" />
        <dc:title></dc:title>
      </cc:Work>
    </rdf:RDF>
  </metadata>
  <defs
     id="defs7">
    <radialGradient
       id="color-1"
       gradientUnits="userSpaceOnUse"
       r="30.75"
       cy="179.68224"
       cx="240"
       gradientTransform="matrix(2.008226,0,0,2.008226,-361.95902,-195.36745)">
      <stop
         id="stop2"
         stop-color="#ff0000"
         offset="0" />
      <stop
         id="stop4"
         stop-color="#fbff00"
         offset="1" />
    </radialGradient>
  </defs>
  <text
     id="text13"
     style="font-weight:normal;font-size:40.16452026px;font-family:Serif;text-anchor:start;mix-blend-mode:normal;fill:#ff0000;fill-rule:nonzero;stroke:none;stroke-width:1.00411296;stroke-linecap:butt;stroke-linejoin:miter;stroke-miterlimit:10;stroke-dasharray:none;stroke-dashoffset:0"
     font-weight="normal"
     stroke-miterlimit="10"
     xml:space="preserve"
     font-size="40"
     x="2.7223046"
     y="36.743225"><tspan
       id="tspan11"
       dy="0"
       x="2.7223046"
       style="stroke-width:1.00411296">K</tspan></text>
  <text
     id="text17"
     style="font-weight:normal;font-size:40.16452026px;font-family:Serif;text-anchor:start;mix-blend-mode:normal;fill:#ff0000;fill-rule:nonzero;stroke:none;stroke-width:1.00411296;stroke-linecap:butt;stroke-linejoin:miter;stroke-miterlimit:10;stroke-dasharray:none;stroke-dashoffset:0"
     font-weight="normal"
     stroke-miterlimit="10"
     data-paper-data="{&quot;origRot&quot;:-45}"
     xml:space="preserve"
     font-size="40"
     transform="scale(-1)"
     x="-236.95926"
     y="-303.31833"><tspan
       id="tspan15"
       dy="0"
       x="-236.95926"
       style="stroke-width:1.00411296">K</tspan></text>
  <path
     style="mix-blend-mode:normal;fill:#ff0000;stroke:#000000;stroke-width:1.00411296;stroke-linecap:butt"
     id="path19"
     data-paper-data="{&quot;origRot&quot;:0}"
     d="m 3.9159537,62.236459 c 0,0 -7.9585594,-8.904414 0.428736,-13.606936 6.9953143,-4.662398 12.9059653,5.879985 12.9059653,5.879985 0,0 6.197646,-10.817429 12.625576,-5.879985 7.986293,5.478621 0.849319,13.887324 0.849319,13.887324 L 17.390849,76.692714 17.531023,76.55254 Z"
     inkscape:connector-curvature="0" />
  <path
     style="mix-blend-mode:normal;fill:#b60000;stroke-width:2.00822592"
     id="path21"
     d="m 34.163613,165.4751 c 0,-47.41456 38.437103,-85.851662 85.851667,-85.851662 47.41457,0 85.85166,38.437102 85.85166,85.851662 0,47.41458 -38.43709,85.85166 -85.85166,85.85166 -47.414564,0 -85.851667,-38.4371 -85.851667,-85.85166 z"
     inkscape:connector-curvature="0" />
  <path
     style="mix-blend-mode:normal;fill:url(#color-1);stroke-width:2.00822592"
     id="path23"
     d="m 58.262264,165.4751 c 0,-34.1052 27.647749,-61.75295 61.752956,-61.75295 34.1052,0 61.75294,27.64775 61.75294,61.75295 0,34.1052 -27.64774,61.75295 -61.75294,61.75295 -34.105207,0 -61.752956,-27.64775 -61.752956,-61.75295 z"
     inkscape:connector-curvature="0" />
  <path
     style="mix-blend-mode:normal;fill:#b60000;stroke-width:2.00822592"
     id="path25"
     d="m 88.887707,165.4751 c 0,-17.19126 13.936253,-31.1275 31.127513,-31.1275 17.19125,0 31.1275,13.93624 31.1275,31.1275 0,17.19126 -13.93625,31.1275 -31.1275,31.1275 -17.19126,0 -31.127513,-13.93624 -31.127513,-31.1275 z"
     inkscape:connector-curvature="0" />
  <path
     style="mix-blend-mode:normal;fill:#ff0000;stroke:#000000;stroke-width:1.00411296;stroke-linecap:butt"
     id="path29"
     data-paper-data="{&quot;origRot&quot;:0}"
     d="m 234.23407,274.65889 c 0,0 7.95856,8.90442 -0.42873,13.60694 -6.99532,4.66238 -12.90597,-5.87999 -12.90597,-5.87999 0,0 -6.19767,10.81743 -12.62559,5.87999 -7.9863,-5.47862 -0.84932,-13.88733 -0.84932,-13.88733 l 13.3347,-14.17586 -0.14018,0.14017 z"
     inkscape:connector-curvature="0" />
  <path
     style="mix-blend-mode:normal;fill:#ffb89a;stroke:#000000;stroke-width:1.00411296;stroke-linecap:butt"
     id="path31"
     d="m 130.73991,259.08741 -1.00412,45.18508 H 82.542479 c 0,0 -19.398459,-32.04542 -10.04113,-33.13572 19.078148,-2.22299 10.04113,-26.10694 10.04113,-26.10694 0,0 21.498541,0 30.123391,0 6.49256,0 18.07404,14.05758 18.07404,14.05758 z"
     inkscape:connector-curvature="0" />
  <path
     style="mix-blend-mode:normal;fill:#cf8000;stroke:none;stroke-width:0;stroke-linecap:butt"
     id="path33"
     d="m 195.85211,220.9671 c 0,0 -13.75825,10.12719 -18.62205,20.75078 -2.90824,6.3522 3.81468,11.59164 0.636,18.53458 -4.4582,9.73767 -14.66662,14.85939 -17.05992,20.08684 -3.90122,8.5211 -3.11032,23.96918 -3.11032,23.96918 h -54.2221 c 0,0 -1.02442,-14.93809 2.76231,-23.20909 2.82184,-6.16348 14.24748,-13.94383 19.6562,-25.7576 2.25068,-4.91594 -5.53845,-7.82662 -3.47036,-12.34374 5.15492,-11.25942 19.20816,-22.03097 19.20816,-22.03097 z"
     inkscape:connector-curvature="0" />
  <path
     style="mix-blend-mode:normal;fill:#825000;stroke:none;stroke-width:0;stroke-linecap:butt"
     id="path35"
     d="m 176.77397,221.44223 c 0,0 -13.75826,10.12718 -18.62206,20.75078 -2.90823,6.3522 3.81468,11.59164 0.636,18.53458 -4.4582,9.73767 -14.66661,14.85938 -17.05992,20.08684 -3.90122,8.5211 -3.11032,23.96918 -3.11032,23.96918 h -14.05758 c 0,0 -1.02441,-14.93809 2.76232,-23.20909 2.82184,-6.16349 14.24748,-13.94384 19.65619,-25.75761 2.25068,-4.91593 -5.53844,-7.82662 -3.47035,-12.34374 5.15491,-11.25942 19.20816,-22.03096 19.20816,-22.03096 z"
     inkscape:connector-curvature="0" />
  <path
     style="mix-blend-mode:normal;fill:#000000;stroke:#000000;stroke-width:1.00411296;stroke-linecap:butt"
     id="path37"
     d="m 82.341657,285.99764 c 0,-1.66368 1.84319,-3.01234 4.116863,-3.01234 2.273677,0 4.116867,1.34866 4.116867,3.01234 0,1.66367 -1.84319,3.01234 -4.116867,3.01234 -2.273673,0 -4.116863,-1.34867 -4.116863,-3.01234 z"
     inkscape:connector-curvature="0" />
  <path
     style="mix-blend-mode:normal;fill:none;stroke:#000000;stroke-width:1.00411296;stroke-linecap:round"
     id="path39"
     d="m 79.429749,290.29524 10.844418,2.81152 4.4181,1.60658"
     inkscape:connector-curvature="0" />
  <path
     style="mix-blend-mode:normal;fill:none;stroke:#000000;stroke-width:1.00411296;stroke-linecap:round"
     id="path41"
     d="m 84.792897,258.5859 8.64401,3.08053"
     inkscape:connector-curvature="0" />
  <path
     style="mix-blend-mode:normal;fill:#000000;stroke:none;stroke-width:1.00411296;stroke-linecap:butt"
     id="path43"
     d="m 99.837867,264.80569 c 0.185563,0.78723 -1.09487,-0.62538 -4.06518,0.27668 -3.71312,1.59439 -6.63112,4.84832 -7.33295,5.10272 -4.334838,1.57131 -4.275856,-3.31994 -4.996388,-5.76831 0,0 -0.425222,-1.4449 1.019677,-1.87012 1.444898,-0.42522 1.87012,1.01968 1.87012,1.01968 0.721435,2.45144 0.167687,4.63595 0.893781,3.71879 1.47313,-1.86072 6.8445,-4.71959 9.33729,-4.77147 0.27426,0.0309 2.92791,0.82609 3.27363,2.29203 z"
     inkscape:connector-curvature="0" />
  <path
     style="mix-blend-mode:normal;fill:#ffe54a;stroke:#000000;stroke-width:2.00822592;stroke-linecap:butt"
     id="path45"
     d="m 156.88175,304.00044 4.50941,25.25266 c 0,0 -15.64023,-12.75678 -23.44891,-7.21504 -11.43733,8.11693 -26.14492,8.11693 -36.97715,0.90188 -13.775325,-9.17536 -31.565837,6.31316 -31.565837,6.31316 l 7.215054,-25.25266 z"
     inkscape:connector-curvature="0" />
  <path
     style="mix-blend-mode:normal;fill:#ff0000;stroke:none;stroke-width:0;stroke-linecap:butt"
     id="path47"
     data-paper-data="{&quot;origRot&quot;:0}"
     d="m 122.80199,318.2686 c 0,0 2.84843,3.12794 -0.15343,4.77982 -2.50367,1.63781 -4.61916,-2.0655 -4.61916,-2.0655 0,0 -2.21818,3.79993 -4.51879,2.0655 -2.85837,-1.9245 -0.30396,-4.8783 -0.30396,-4.8783 l 4.77259,-4.97966 -0.0502,0.0492 z"
     inkscape:connector-curvature="0" />
  <path
     style="mix-blend-mode:normal;fill:#ffb89a;stroke:#000000;stroke-width:1.00411296;stroke-linecap:butt"
     id="path51"
     d="m 115.24196,73.148034 1.00412,-45.185084 h 47.19331 c 0,0 19.39846,32.045422 10.04113,33.135728 -19.07815,2.222986 -10.04113,26.106938 -10.04113,26.106938 0,0 -21.49854,0 -30.12339,0 -6.49256,0 -18.07404,-14.057582 -18.07404,-14.057582 z"
     inkscape:connector-curvature="0" />
  <path
     style="mix-blend-mode:normal;fill:#cf8000;stroke:none;stroke-width:0;stroke-linecap:butt"
     id="path53"
     d="m 50.129772,111.26834 c 0,0 13.758256,-10.12718 18.622059,-20.750778 2.908232,-6.352199 -3.814686,-11.591641 -0.636005,-18.53458 4.458201,-9.737667 14.666616,-14.859386 17.059919,-20.086838 3.901222,-8.521104 3.110322,-23.969182 3.110322,-23.969182 h 54.222103 c 0,0 1.02442,14.938089 -2.76231,23.209088 -2.82184,6.163487 -14.24748,13.943836 -19.6562,25.757607 -2.25068,4.915936 5.53845,7.826619 3.47036,12.343741 -5.15492,11.259422 -19.20816,22.030962 -19.20816,22.030962 z"
     inkscape:connector-curvature="0" />
  <path
     style="mix-blend-mode:normal;fill:#825000;stroke:none;stroke-width:0;stroke-linecap:butt"
     id="path55"
     d="m 69.207919,110.79321 c 0,0 13.758256,-10.12718 18.622058,-20.750774 2.90823,-6.352199 -3.814685,-11.591641 -0.636005,-18.53458 4.458205,-9.737667 14.666618,-14.859386 17.059928,-20.086839 3.90122,-8.521103 3.11032,-23.969181 3.11032,-23.969181 h 14.05758 c 0,0 1.02441,14.938089 -2.76232,23.209088 -2.82184,6.163486 -14.24748,13.943836 -19.656193,25.757607 -2.25068,4.915936 5.538443,7.826619 3.470353,12.343741 -5.154913,11.259418 -19.208159,22.030958 -19.208159,22.030958 z"
     inkscape:connector-curvature="0" />
  <path
     style="mix-blend-mode:normal;fill:#000000;stroke:#000000;stroke-width:1.00411296;stroke-linecap:butt"
     id="path57"
     d="m 163.64021,46.237806 c 0,1.663675 -1.84319,3.012339 -4.11686,3.012339 -2.27368,0 -4.11687,-1.348664 -4.11687,-3.012339 0,-1.663674 1.84319,-3.012339 4.11687,-3.012339 2.27367,0 4.11686,1.348665 4.11686,3.012339 z"
     inkscape:connector-curvature="0" />
  <path
     style="mix-blend-mode:normal;fill:none;stroke:#000000;stroke-width:1.00411296;stroke-linecap:round"
     id="path59"
     d="M 166.55212,41.940203 155.7077,39.128686 151.2896,37.522105"
     inkscape:connector-curvature="0" />
  <path
     style="mix-blend-mode:normal;fill:none;stroke:#000000;stroke-width:1.00411296;stroke-linecap:round"
     id="path61"
     d="M 161.18897,73.649548 152.54496,70.56901"
     inkscape:connector-curvature="0" />
  <path
     style="mix-blend-mode:normal;fill:#000000;stroke:none;stroke-width:1.00411296;stroke-linecap:butt"
     id="path63"
     d="m 146.144,67.429751 c -0.18556,-0.787224 1.09487,0.625382 4.06517,-0.276673 3.71313,-1.594391 6.63115,-4.848319 7.33296,-5.102721 4.33482,-1.571317 4.27586,3.319939 4.99639,5.768307 0,0 0.42522,1.444899 -1.01968,1.870121 -1.4449,0.425221 -1.87012,-1.019677 -1.87012,-1.019677 -0.72144,-2.451442 -0.16769,-4.63595 -0.89378,-3.718793 -1.47314,1.860722 -6.84452,4.719592 -9.33731,4.771465 -0.27426,-0.03093 -2.92791,-0.826084 -3.27363,-2.292049 z"
     inkscape:connector-curvature="0" />
  <path
     style="mix-blend-mode:normal;fill:#ffe54a;stroke:#000000;stroke-width:2.00822592;stroke-linecap:butt"
     id="path65"
     d="M 89.100117,28.235004 84.590709,2.9823463 c 0,0 15.640231,12.7567737 23.448911,7.2150337 11.43733,-8.1169285 26.14492,-8.1169285 36.97715,-0.9018741 13.77532,9.1753631 31.56583,-6.3131596 31.56583,-6.3131596 l -7.21505,25.2526577 z"
     inkscape:connector-curvature="0" />
  <path
     style="mix-blend-mode:normal;fill:#ff0000;stroke:none;stroke-width:0;stroke-linecap:butt"
     id="path67"
     data-paper-data="{&quot;origRot&quot;:0}"
     d="m 123.17988,13.96684 c 0,0 -2.84843,-3.127932 0.15343,-4.7798185 2.50367,-1.6378087 4.61916,2.0655005 4.61916,2.0655005 0,0 2.21818,-3.799925 4.51879,-2.0655005 2.85837,1.9245025 0.30396,4.8783025 0.30396,4.8783025 l -4.77259,4.979657 0.0502,-0.0492 z"
     inkscape:connector-curvature="0" />
  <path
     style="mix-blend-mode:normal;fill:#d0d0d0;stroke:#000000;stroke-width:1.00411296"
     id="path71"
     d="m 206.49631,128.29442 c 0,0 0,-50.260894 0,-63.301771 0,-5.832049 6.74803,-12.660359 6.74803,-12.660359 v 75.96213 z"
     inkscape:connector-curvature="0" />
  <path
     style="mix-blend-mode:normal;fill:#dedede;stroke:#000000;stroke-width:1.00411296"
     id="path73"
     data-paper-data="{&quot;index&quot;:null}"
     d="M 212.98588,128.43805 V 52.475918 c 0,0 6.74802,6.82831 6.74802,12.660359 0,13.040877 0,63.301773 0,63.301773 z"
     inkscape:connector-curvature="0" />
  <path
     style="mix-blend-mode:normal;fill:#dedede;stroke:#000000;stroke-width:1.00411296"
     id="path75"
     d="m 198.32767,134.62461 v -5.80265 h 28.76784 v 5.80265 z"
     inkscape:connector-curvature="0" />
  <path
     style="mix-blend-mode:normal;fill:#513200;stroke:#000000;stroke-width:1.00411296"
     id="path77"
     d="m 207.56178,159.94531 v -25.32072 h 11.00992 v 25.32072 z"
     inkscape:connector-curvature="0" />
  <path
     style="mix-blend-mode:normal;fill:#ff0000;stroke:none;stroke-width:0"
     id="path79"
     data-paper-data="{&quot;origRot&quot;:0}"
     d="m 210.42914,141.5115 c 0,0 -1.65682,-1.81939 0.0892,-2.78023 1.45628,-0.95266 2.6868,1.20141 2.6868,1.20141 0,0 1.29023,-2.21026 2.62839,-1.20141 1.66261,1.11939 0.17693,2.83753 0.17693,2.83753 l -2.77606,2.89646 0.0291,-0.0287 z"
     inkscape:connector-curvature="0" />
  <path
     style="mix-blend-mode:normal;fill:#ffb89a;stroke:#000000;stroke-width:1.00411296"
     id="path83"
     d="m 220.07552,155.5349 c 0,10.05571 -4.61934,18.2075 -10.31759,18.2075 -5.69824,0 -10.31756,-8.15177 -10.31756,-18.2075 0,-2.85316 -1.22212,-7.18926 -0.0657,-14.52782 0.91122,-5.78259 8.39563,-8.1341 9.20774,-6.6592 2.92572,5.31346 -3.76285,9.37239 -0.95537,13.27913 3.3253,4.62734 12.44853,-2.14782 12.44853,7.90789 z"
     inkscape:connector-curvature="0" />
  <path
     style="mix-blend-mode:normal;fill:#d0d0d0;stroke:#000000;stroke-width:1.00411296"
     id="path85"
     d="m 34.50479,207.5633 c 0,0 0,50.2609 0,63.30177 0,5.83205 -6.748021,12.66036 -6.748021,12.66036 V 207.5633 Z"
     inkscape:connector-curvature="0" />
  <path
     style="mix-blend-mode:normal;fill:#dedede;stroke:#000000;stroke-width:1.00411296"
     id="path87"
     data-paper-data="{&quot;index&quot;:null}"
     d="m 28.015228,207.41967 v 75.96213 c 0,0 -6.748021,-6.82831 -6.748021,-12.66036 0,-13.04087 0,-63.30177 0,-63.30177 z"
     inkscape:connector-curvature="0" />
  <path
     style="mix-blend-mode:normal;fill:#dedede;stroke:#000000;stroke-width:1.00411296"
     id="path89"
     d="m 42.67343,201.23311 v 5.80265 H 13.905593 v -5.80265 z"
     inkscape:connector-curvature="0" />
  <path
     style="mix-blend-mode:normal;fill:#513200;stroke:#000000;stroke-width:1.00411296"
     id="path91"
     d="m 33.439326,175.91241 v 25.32072 H 22.429408 v -25.32072 z"
     inkscape:connector-curvature="0" />
  <path
     style="mix-blend-mode:normal;fill:#ff0000;stroke:none;stroke-width:0"
     id="path93"
     data-paper-data="{&quot;origRot&quot;:0}"
     d="m 30.571961,194.34622 c 0,0 1.656826,1.81939 -0.08917,2.78023 -1.456285,0.95264 -2.686805,-1.20142 -2.686805,-1.20142 0,0 -1.290225,2.21025 -2.628406,1.20142 -1.662611,-1.11941 -0.176724,-2.83752 -0.176724,-2.83752 l 2.776051,-2.89645 -0.02912,0.0287 z"
     inkscape:connector-curvature="0" />
  <path
     style="mix-blend-mode:normal;fill:#ffb89a;stroke:#000000;stroke-width:1.00411296"
     id="path97"
     d="m 20.925588,180.32282 c 0,-10.05571 4.619341,-18.2075 10.317582,-18.2075 5.698241,0 10.317562,8.15177 10.317562,18.2075 0,2.85317 1.222126,7.18927 0.06567,14.52783 -0.911212,5.78258 -8.395629,8.1341 -9.207736,6.65919 -2.925724,-5.31346 3.762853,-9.37239 0.955373,-13.27913 -3.325301,-4.62733 -12.448531,2.14782 -12.448531,-7.90789 z"
     inkscape:connector-curvature="0" />
</svg>
