<?xml version="1.0" encoding="UTF-8" standalone="no"?>
<svg
   xmlns:dc="http://purl.org/dc/elements/1.1/"
   xmlns:cc="http://creativecommons.org/ns#"
   xmlns:rdf="http://www.w3.org/1999/02/22-rdf-syntax-ns#"
   xmlns:svg="http://www.w3.org/2000/svg"
   xmlns="http://www.w3.org/2000/svg"
   xmlns:sodipodi="http://sodipodi.sourceforge.net/DTD/sodipodi-0.dtd"
   xmlns:inkscape="http://www.inkscape.org/namespaces/inkscape"
   version="1.1"
   width="63mm"
   height="88mm"
   viewBox="0 0 238.11023 332.59842"
   id="svg147"
   sodipodi:docname="HQ.svg"
   inkscape:version="0.92.3 (2405546, 2018-03-11)">
  <sodipodi:namedview
     pagecolor="#ffffff"
     bordercolor="#666666"
     borderopacity="1"
     objecttolerance="10"
     gridtolerance="10"
     guidetolerance="10"
     inkscape:pageopacity="0"
     inkscape:pageshadow="2"
     inkscape:window-width="1920"
     inkscape:window-height="1018"
     id="namedview149"
     showgrid="false"
     inkscape:zoom="1.232376"
     inkscape:cx="71.75"
     inkscape:cy="95.75"
     inkscape:window-x="0"
     inkscape:window-y="0"
     inkscape:window-maximized="1"
     inkscape:current-layer="svg147"
     units="mm" />
  <metadata
     id="metadata151">
    <rdf:RDF>
      <cc:Work
         rdf:about="">
        <dc:format>image/svg+xml</dc:format>
        <dc:type
           rdf:resource="http://purl.org/dc/dcmitype/StillImage" />
        <dc:title></dc:title>
      </cc:Work>
    </rdf:RDF>
  </metadata>
  <defs
     id="defs37">
    <radialGradient
       id="color-1"
       gradientUnits="userSpaceOnUse"
       r="27.56727"
       cy="180"
       cx="240.62515"
       gradientTransform="matrix(2.0197426,0,0,2.0197267,-363.36151,-198.92359)">
      <stop
         id="stop2"
         stop-color="#ff0000"
         offset="0" />
      <stop
         id="stop4"
         stop-color="#fbff00"
         offset="1" />
    </radialGradient>
    <linearGradient
       id="color-2"
       gradientUnits="userSpaceOnUse"
       y2="148.67255"
       x2="277.7998"
       y1="146.1469"
       x1="284.48355"
       gradientTransform="matrix(2.0197426,0,0,2.0197267,-363.36151,-198.92359)">
      <stop
         id="stop7"
         stop-color="#ff0000"
         offset="0" />
      <stop
         id="stop9"
         stop-color="#00ab25"
         offset="1" />
    </linearGradient>
    <linearGradient
       id="color-3"
       gradientUnits="userSpaceOnUse"
       y2="148.71477"
       x2="277.89328"
       y1="142.03101"
       x1="275.36761"
       gradientTransform="matrix(2.0197426,0,0,2.0197267,-363.36151,-198.92359)">
      <stop
         id="stop12"
         stop-color="#ff0000"
         offset="0" />
      <stop
         id="stop14"
         stop-color="#00ab25"
         offset="1" />
    </linearGradient>
    <linearGradient
       id="color-4"
       gradientUnits="userSpaceOnUse"
       y2="148.71828"
       x2="278.1503"
       y1="151.24394"
       x1="271.46655"
       gradientTransform="matrix(2.0197426,0,0,2.0197267,-363.36151,-198.92359)">
      <stop
         id="stop17"
         stop-color="#ff0000"
         offset="0" />
      <stop
         id="stop19"
         stop-color="#00ab25"
         offset="1" />
    </linearGradient>
    <linearGradient
       id="color-5"
       gradientUnits="userSpaceOnUse"
       y2="211.48137"
       x2="203.39706"
       y1="214.00703"
       x1="196.7133"
       gradientTransform="matrix(2.0197426,0,0,2.0197267,-363.36151,-198.92359)">
      <stop
         id="stop22"
         stop-color="#ff0000"
         offset="0" />
      <stop
         id="stop24"
         stop-color="#00ab25"
         offset="1" />
    </linearGradient>
    <linearGradient
       id="color-6"
       gradientUnits="userSpaceOnUse"
       y2="211.43916"
       x2="203.30359"
       y1="218.12292"
       x1="205.82925"
       gradientTransform="matrix(2.0197426,0,0,2.0197267,-363.36151,-198.92359)">
      <stop
         id="stop27"
         stop-color="#ff0000"
         offset="0" />
      <stop
         id="stop29"
         stop-color="#00ab25"
         offset="1" />
    </linearGradient>
    <linearGradient
       id="color-7"
       gradientUnits="userSpaceOnUse"
       y2="211.43565"
       x2="203.04657"
       y1="208.90999"
       x1="209.73032"
       gradientTransform="matrix(2.0197426,0,0,2.0197267,-363.36151,-198.92359)">
      <stop
         id="stop32"
         stop-color="#ff0000"
         offset="0" />
      <stop
         id="stop34"
         stop-color="#00ab25"
         offset="1" />
    </linearGradient>
  </defs>
  <text
     id="text43"
     style="font-weight:normal;font-size:40.39469147px;font-family:Serif;text-anchor:start;mix-blend-mode:normal;fill:#ff0000;fill-rule:nonzero;stroke:none;stroke-width:1.00986731;stroke-linecap:butt;stroke-linejoin:miter;stroke-miterlimit:10;stroke-dasharray:none;stroke-dashoffset:0"
     font-weight="normal"
     stroke-miterlimit="10"
     xml:space="preserve"
     font-size="40"
     x="3.4111409"
     y="34.516472"
     transform="scale(1.0000039,0.99999609)"><tspan
       id="tspan41"
       dy="0"
       x="3.4111409"
       style="stroke-width:1.00986731">Q</tspan></text>
  <text
     id="text47"
     style="font-weight:normal;font-size:40.39469147px;font-family:Serif;text-anchor:start;mix-blend-mode:normal;fill:#ff0000;fill-rule:nonzero;stroke:none;stroke-width:1.00986731;stroke-linecap:butt;stroke-linejoin:miter;stroke-miterlimit:10;stroke-dasharray:none;stroke-dashoffset:0"
     font-weight="normal"
     stroke-miterlimit="10"
     data-paper-data="{&quot;origRot&quot;:-45}"
     xml:space="preserve"
     font-size="40"
     transform="scale(-1.0000039,-0.99999609)"
     x="-238.99046"
     y="-302.61929"><tspan
       id="tspan45"
       dy="0"
       x="-238.99046"
       style="stroke-width:1.00986731">Q</tspan></text>
  <path
     style="mix-blend-mode:normal;fill:#ff0000;stroke:#000000;stroke-width:1.00986731;stroke-linecap:butt"
     id="path49"
     data-paper-data="{&quot;origRot&quot;:0}"
     d="m 3.9384085,60.155566 c 0,0 -8.0041995,-8.955408 0.431195,-13.68486 7.0354305,-4.689099 12.9799765,5.913658 12.9799765,5.913658 0,0 6.233188,-10.879379 12.69798,-5.913658 8.032092,5.509995 0.85419,13.966854 0.85419,13.966854 l -13.411172,14.257049 0.140978,-0.140977 z"
     inkscape:connector-curvature="0" />
  <path
     style="mix-blend-mode:normal;fill:#ff0000;stroke:#000000;stroke-width:1.00986731;stroke-linecap:butt"
     id="path51"
     data-paper-data="{&quot;origRot&quot;:0}"
     d="m 236.25057,273.7945 c 0,0 8.0042,8.95541 -0.43119,13.68486 -7.03543,4.68908 -12.97997,-5.91366 -12.97997,-5.91366 0,0 -6.23321,10.87938 -12.69801,5.91366 -8.03209,-5.50999 -0.85419,-13.96685 -0.85419,-13.96685 l 13.41117,-14.25705 -0.14098,0.14097 z"
     inkscape:connector-curvature="0" />
  <path
     style="mix-blend-mode:normal;fill:#b60000;stroke-width:2.01973462"
     id="path53"
     d="m 45.232328,164.62723 c 0,-47.6861 34.656338,-86.343325 77.407092,-86.343325 42.75079,0 77.40711,38.657225 77.40711,86.343325 0,47.6861 -34.65632,86.34331 -77.40711,86.34331 -42.750754,0 -77.407092,-38.65723 -77.407092,-86.34331 z"
     inkscape:connector-curvature="0" />
  <path
     style="mix-blend-mode:normal;fill:url(#color-1);stroke-width:2.01973462"
     id="path55"
     d="m 66.960577,164.62723 c 0,-34.30052 24.92824,-62.1066 55.678783,-62.1066 30.75054,0 55.6788,27.80608 55.6788,62.1066 0,34.3005 -24.92826,62.10659 -55.6788,62.10659 -30.750543,0 -55.678783,-27.80609 -55.678783,-62.10659 z"
     inkscape:connector-curvature="0" />
  <path
     style="mix-blend-mode:normal;fill:#b60000;stroke-width:2.01973462"
     id="path57"
     d="m 94.573637,164.62723 c 0,-17.28971 12.565433,-31.30577 28.065723,-31.30577 15.50029,0 28.06574,14.01606 28.06574,31.30577 0,17.2897 -12.56545,31.30575 -28.06574,31.30575 -15.50029,0 -28.065723,-14.01605 -28.065723,-31.30575 z"
     inkscape:connector-curvature="0" />
  <path
     style="mix-blend-mode:normal;fill:#ffb89a;stroke:#000000;stroke-width:1.00986731;stroke-linecap:butt"
     id="path61"
     d="m 116.36462,77.946187 -3.35421,-50.20463 h 47.46395 c 0,0 19.5097,32.228941 10.09871,33.325491 -13.96117,1.626749 -12.95212,14.787006 -11.36659,21.835609 0.59354,2.638652 -0.30506,4.420839 -2.77264,4.420839 -6.68114,0 -12.34689,-1.767261 -18.68159,-1.767261 -6.52979,0 -21.38763,-7.610048 -21.38763,-7.610048 z"
     inkscape:connector-curvature="0" />
  <path
     style="mix-blend-mode:normal;fill:#573600;stroke:none;stroke-width:0;stroke-linecap:butt"
     id="path63"
     d="m 46.902797,111.89846 c 0,0 13.837154,-10.18518 18.72885,-20.869614 2.92491,-6.388578 -3.836562,-11.658025 -0.639652,-18.640724 4.483768,-9.793433 14.750725,-14.944484 17.157752,-20.201873 3.923593,-8.569902 3.128158,-24.106448 3.128158,-24.106448 h 54.533055 c 0,0 1.03029,15.023636 -2.77816,23.342001 -2.83802,6.198784 -14.32919,14.023691 -19.76892,25.905116 -2.26359,4.94409 5.57022,7.871441 3.49026,12.414433 -5.18448,11.323899 -19.31831,22.157129 -19.31831,22.157129 z"
     inkscape:connector-curvature="0" />
  <path
     style="mix-blend-mode:normal;fill:#825000;stroke:none;stroke-width:0;stroke-linecap:butt"
     id="path65"
     d="m 66.09035,111.89846 c 0,0 13.837156,-10.18518 18.728851,-20.869614 2.92491,-6.388578 -3.836562,-11.658025 -0.639653,-18.640724 4.483769,-9.793433 14.750729,-14.944484 17.157762,-20.201873 3.92359,-8.569902 3.12815,-24.106448 3.12815,-24.106448 h 14.1382 c 0,0 1.03029,15.023636 -2.77816,23.342001 -2.83802,6.198784 -14.32918,14.023691 -19.768913,25.905116 -2.26359,4.94409 5.570203,7.871441 3.49025,12.414433 -5.18448,11.323899 -19.318309,22.157129 -19.318309,22.157129 z"
     inkscape:connector-curvature="0" />
  <path
     style="mix-blend-mode:normal;fill:#000000;stroke:#000000;stroke-width:1.00986731;stroke-linecap:butt"
     id="path67"
     d="m 160.42384,46.121091 c 0,1.673202 -1.85376,3.029589 -4.14047,3.029589 -2.28671,0 -4.14048,-1.356387 -4.14048,-3.029589 0,-1.673202 1.85377,-3.02959 4.14048,-3.02959 2.28671,0 4.14047,1.356388 4.14047,3.02959 z"
     inkscape:connector-curvature="0" />
  <path
     style="mix-blend-mode:normal;fill:none;stroke:#000000;stroke-width:1.00986731;stroke-linecap:round"
     id="path69"
     d="m 145.73021,42.350625 6.96812,-5.200797 7.62453,-0.201973"
     inkscape:connector-curvature="0" />
  <path
     style="mix-blend-mode:normal;fill:none;stroke:#000000;stroke-width:1.00986731;stroke-linecap:round"
     id="path71"
     d="m 158.10112,70.07505 c 0,0 -4.03415,1.965436 -5.96301,1.939503 -1.81795,-0.02444 -5.80199,-3.353312 -5.80199,-3.353312"
     inkscape:connector-curvature="0" />
  <path
     style="mix-blend-mode:normal;fill:none;stroke:#000000;stroke-width:1.00986731;stroke-linecap:round"
     id="path73"
     d="m 163.25047,41.386326 c 0,0 -0.61672,1.767261 -2.36457,2.777125 -1.18909,0.68701 -3.69466,0 -3.69466,0"
     inkscape:connector-curvature="0" />
  <path
     style="mix-blend-mode:normal;fill:#ffe54a;stroke:#000000;stroke-width:2.01973462;stroke-linecap:butt"
     id="path75"
     d="m 84.912392,28.396716 c 0,0 11.194625,-12.567446 19.048118,-18.140923 11.50292,-8.1634119 26.29484,-8.1634119 37.18917,-0.9070388 13.85433,9.2279298 31.74686,-6.3493139 31.74686,-6.3493139 l -7.25643,25.3972757 z"
     inkscape:connector-curvature="0" />
  <path
     style="mix-blend-mode:normal;fill:#ff0000;stroke:none;stroke-width:0;stroke-linecap:butt"
     id="path77"
     data-paper-data="{&quot;origRot&quot;:0}"
     d="m 154.10316,19.201426 c 0,0 -2.86476,-3.145846 0.15431,-4.807193 2.51803,-1.647188 4.64565,2.07733 4.64565,2.07733 0,0 2.2309,-3.821687 4.5447,-2.07733 2.87476,1.935525 0.30571,4.90624 0.30571,4.90624 0,0 -1.54343,1.610389 -2.33173,2.432882 -0.81105,0.846225 -2.46823,2.575293 -2.46823,2.575293 l 0.0505,-0.04948 z"
     inkscape:connector-curvature="0" />
  <path
     style="mix-blend-mode:normal;fill:none;stroke:#000000;stroke-width:1.00986731;stroke-linecap:round"
     id="path79"
     d="M 129.0121,83.539921 118.24013,74.571386"
     inkscape:connector-curvature="0" />
  <path
     style="mix-blend-mode:normal;fill:#ffb89a;stroke:#000000;stroke-width:1.00986731;stroke-linecap:butt"
     id="path83"
     d="m 131.7234,250.92479 3.35421,50.20463 H 87.613656 c 0,0 -19.509703,-32.22894 -10.098713,-33.32549 13.961164,-1.62675 12.952124,-14.787 11.366584,-21.83561 -0.59354,-2.63865 0.30506,-4.42084 2.77264,-4.42084 6.68115,0 12.346893,1.76726 18.681593,1.76726 6.52979,0 21.38764,7.61005 21.38764,7.61005 z"
     inkscape:connector-curvature="0" />
  <path
     style="mix-blend-mode:normal;fill:#573600;stroke:none;stroke-width:0;stroke-linecap:butt"
     id="path85"
     d="m 201.57763,218.71304 c 0,0 -13.83715,10.18518 -18.72885,20.86961 -2.92491,6.38858 3.83656,11.65803 0.63966,18.64073 -4.48378,9.79343 -14.75073,14.94448 -17.15776,20.20187 -3.9236,8.5699 -3.12816,24.10645 -3.12816,24.10645 h -54.53304 c 0,0 -1.03029,-15.02364 2.77815,-23.342 2.83802,-6.19879 14.32919,-14.02369 19.76892,-25.90512 2.26359,-4.94409 -5.57021,-7.87144 -3.49026,-12.41443 5.18447,-11.3239 19.31831,-22.15713 19.31831,-22.15713 z"
     inkscape:connector-curvature="0" />
  <path
     style="mix-blend-mode:normal;fill:#825000;stroke:none;stroke-width:0;stroke-linecap:butt"
     id="path87"
     d="m 182.39008,218.71304 c 0,0 -13.83716,10.18518 -18.72886,20.86961 -2.9249,6.38858 3.83657,11.65803 0.63966,18.64073 -4.48377,9.79343 -14.75073,14.94448 -17.15776,20.20187 -3.92359,8.5699 -3.12815,24.10645 -3.12815,24.10645 h -14.1382 c 0,0 -1.03029,-15.02364 2.77816,-23.342 2.83801,-6.19879 14.32918,-14.02369 19.76892,-25.90512 2.26358,-4.94409 -5.57022,-7.87144 -3.49026,-12.41443 5.18448,-11.3239 19.31831,-22.15713 19.31831,-22.15713 z"
     inkscape:connector-curvature="0" />
  <path
     style="mix-blend-mode:normal;fill:#000000;stroke:#000000;stroke-width:1.00986731;stroke-linecap:butt"
     id="path89"
     d="m 87.664169,283.14232 c 0,-1.6732 1.853768,-3.02959 4.140468,-3.02959 2.28672,0 4.14048,1.35639 4.14048,3.02959 0,1.6732 -1.85376,3.02959 -4.14048,3.02959 -2.2867,0 -4.140468,-1.35639 -4.140468,-3.02959 z"
     inkscape:connector-curvature="0" />
  <path
     style="mix-blend-mode:normal;fill:none;stroke:#000000;stroke-width:1.00986731;stroke-linecap:round"
     id="path91"
     d="m 102.3578,287.86848 -6.968113,5.2008 -7.62453,0.20197"
     inkscape:connector-curvature="0" />
  <path
     style="mix-blend-mode:normal;fill:none;stroke:#000000;stroke-width:1.00986731;stroke-linecap:round"
     id="path93"
     d="m 89.986877,259.18836 c 0,0 4.03415,-1.96543 5.96301,-1.9395 1.81794,0.0244 5.801993,3.35331 5.801993,3.35331"
     inkscape:connector-curvature="0" />
  <path
     style="mix-blend-mode:normal;fill:none;stroke:#000000;stroke-width:1.00986731;stroke-linecap:round"
     id="path95"
     d="m 84.83754,288.83278 c 0,0 0.616728,-1.76726 2.364574,-2.77712 1.189083,-0.68701 3.694653,0 3.694653,0"
     inkscape:connector-curvature="0" />
  <path
     style="mix-blend-mode:normal;fill:#ffe54a;stroke:#000000;stroke-width:2.01973462;stroke-linecap:butt"
     id="path97"
     d="m 163.1756,301.42996 c 0,0 -11.19463,12.56745 -19.04811,18.14092 -11.50292,8.16341 -26.29484,8.16341 -37.18918,0.90704 -13.854323,-9.22793 -31.746858,6.34932 -31.746858,6.34932 l 7.25643,-25.39728 z"
     inkscape:connector-curvature="0" />
  <path
     style="mix-blend-mode:normal;fill:#ff0000;stroke:none;stroke-width:0;stroke-linecap:butt"
     id="path99"
     data-paper-data="{&quot;origRot&quot;:0}"
     d="m 93.984837,310.62523 c 0,0 2.86476,3.14585 -0.15431,4.80719 -2.51804,1.64719 -4.64566,-2.07733 -4.64566,-2.07733 0,0 -2.230899,3.82169 -4.544696,2.07733 -2.874761,-1.93552 -0.305709,-4.90624 -0.305709,-4.90624 0,0 1.543427,-1.61039 2.331733,-2.43288 0.811048,-0.84623 2.468222,-2.57529 2.468222,-2.57529 l -0.0505,0.0495 z"
     inkscape:connector-curvature="0" />
  <path
     style="mix-blend-mode:normal;fill:none;stroke:#000000;stroke-width:1.00986731;stroke-linecap:round"
     id="path101"
     d="m 119.46833,246.11586 10.77195,8.96854"
     inkscape:connector-curvature="0" />
  <path
     style="mix-blend-mode:normal;fill:#00ab25;stroke:none;stroke-width:1.00986731"
     id="path105"
     d="m 199.42323,101.02043 c 0,-0.0121 2.4e-4,-0.0259 7.3e-4,-0.0388 8e-5,-0.29944 0.10987,-0.7084 0.65066,-0.9057 0.0254,-0.0101 0.0513,-0.0182 0.0778,-0.0259 0.55119,-0.167033 0.88461,0.0939 1.06453,0.33352 0.004,0.004 0.008,0.008 0.0101,0.0141 l 0.72861,0.91077 -0.28641,0.22914 0.0887,0.266 -0.084,0.0281 c 0.41312,2.3529 -0.15188,4.80206 0.0121,7.21656 l 0.19107,0.38193 c 0.0739,0.14037 0.11573,0.30017 0.11573,0.46979 0,0.17854 -0.0465,0.34646 -0.12785,0.49205 0.0665,0.32097 0.15148,0.64088 0.25957,0.95943 0.0612,0.18359 0.1224,0.36722 0.1836,0.55084 l 0.23116,0.96097 c 0,0 0.0307,0.33301 -0.13471,0.63344 0.59218,2.11819 1.12321,4.10504 1.83798,5.37704 3.08332,6.16659 3.79956,12.37905 3.80863,19.24927 0.002,2.26185 8.5e-4,4.5237 8.5e-4,6.78555 l -0.0301,0.42833 c 0,0 0.24494,0.97971 -0.73478,1.22464 -0.97971,0.24493 -1.22465,-0.73478 -1.22465,-0.73478 l -0.0301,-0.91816 c 0,-2.26107 0.002,-4.52215 -8.5e-4,-6.78322 -0.006,-6.65504 -0.62809,-12.41384 -3.59539,-18.34837 -0.35853,-0.99881 -1.36153,-1.41207 -1.78974,-2.47135 -1.27945,-3.16512 -0.76823,-9.52201 -4.15449,-11.21513 0,0 -0.0462,-0.023 -0.1125,-0.0693 l -0.88709,-0.14784 0.002,-0.0121 c -0.59869,0.0541 -1.21013,-0.26085 -2.09338,-0.99641 l -0.36724,-0.45903 c 0,0 -0.2213,0.37901 -0.2213,-0.63086 0,-0.75691 1.01034,-0.73358 1.51648,-0.6744 0.13007,-0.40752 0.51169,-0.70269 0.96231,-0.70269 0.19592,0 0.37894,0.0557 0.5338,0.15249 l 0.37671,0.22603 c 0.53623,-0.28981 1.27964,-0.64306 1.79585,-0.74896 l 0.61903,-0.61902 v 0 c 0.18279,-0.18279 0.43521,-0.29579 0.71408,-0.29579 0.0325,0 0.0646,10e-4 0.0963,0.004 -0.002,-0.0317 -0.004,-0.0638 -0.004,-0.0963 z m -0.45949,3.40229 c 0.0141,-0.0121 0.0291,-0.0224 0.0444,-0.0335 -0.008,-0.0729 -0.0162,-0.14562 -0.0242,-0.21821 -0.0162,0.0279 -0.0319,0.0557 -0.0483,0.0834 0.0101,0.0562 0.0182,0.1123 0.0281,0.16825 z"
     inkscape:connector-curvature="0" />
  <path
     style="mix-blend-mode:normal;fill:#00ab25;stroke:none;stroke-width:0"
     id="path107"
     d="m 204.29384,113.93297 c 1.83445,-2.80287 5.59376,-3.58792 8.39664,-1.75351 2.8029,1.83444 3.58795,5.59372 1.75352,8.39658 -1.83445,2.80287 -5.59376,3.58792 -8.39664,1.7535 -2.8029,-1.83443 -3.58795,-5.59371 -1.75352,-8.39657 z"
     inkscape:connector-curvature="0" />
  <path
     style="mix-blend-mode:normal;fill:#00ab25;stroke:none;stroke-width:0"
     id="path109"
     d="m 203.74302,114.32369 14.28736,-10.31687 0.17874,0.11715 -3.91547,17.10507 z"
     inkscape:connector-curvature="0" />
  <path
     style="mix-blend-mode:normal;fill:#ffb89a;stroke:#000000;stroke-width:1.00986731"
     id="path111"
     d="m 217.56139,151.70597 c 0,10.11329 -4.64583,18.31177 -10.37675,18.31177 -5.73092,0 -10.37673,-8.19846 -10.37673,-18.31177 0,-2.86951 -1.22914,-7.23045 -0.066,-14.61103 0.91644,-5.8157 8.44378,-8.18068 9.26054,-6.69733 2.94251,5.34389 -3.78443,9.42606 -0.96085,13.35518 3.34437,4.65383 12.51992,-2.16012 12.51992,7.95318 z"
     inkscape:connector-curvature="0" />
  <path
     style="mix-blend-mode:normal;fill:url(#color-2);stroke-width:2.01973462"
     id="path113"
     data-paper-data="{&quot;origRot&quot;:0}"
     d="m 202.08289,92.787664 c 0,0 2.71195,-5.20736 6.33211,-2.167429 3.35981,2.406767 -0.46128,6.956989 -0.46128,6.956989 0,0 6.05178,0.970317 4.89818,4.784406 -1.13166,4.62481 -6.23895,2.80393 -6.23895,2.80393 l -8.83655,-3.66889 0.0889,0.0402 z"
     inkscape:connector-curvature="0" />
  <path
     style="mix-blend-mode:normal;fill:url(#color-3);stroke-width:2.01973462"
     id="path115"
     data-paper-data="{&quot;origRot&quot;:0}"
     d="m 189.34463,97.079321 c 0,0 -5.20742,-2.711927 -2.16744,-6.332065 2.40679,-3.359776 6.95706,0.461305 6.95706,0.461305 0,0 0.97035,-6.051748 4.78447,-4.89816 4.62482,1.131652 2.80393,6.238915 2.80393,6.238915 l -3.66893,8.836484 0.0402,-0.0889 z"
     inkscape:connector-curvature="0" />
  <path
     style="mix-blend-mode:normal;fill:url(#color-4);stroke-width:2.01973462"
     id="path117"
     data-paper-data="{&quot;origRot&quot;:0}"
     d="m 194.07017,110.01337 c 0,0 -2.71195,5.20736 -6.3321,2.16743 -3.35979,-2.40677 0.46132,-6.95699 0.46132,-6.95699 0,0 -6.05178,-0.97032 -4.89818,-4.78441 1.13166,-4.624811 6.23894,-2.803907 6.23894,-2.803907 l 8.83655,3.668877 -0.0889,-0.0402 z"
     inkscape:connector-curvature="0" />
  <path
     style="mix-blend-mode:normal;fill:#00ab25;stroke:none;stroke-width:1.00986731"
     id="path123"
     d="m 45.747544,228.54491 c 0,0.0121 -2.42e-4,0.0259 -7.27e-4,0.0388 -8.1e-5,0.29945 -0.109874,0.7084 -0.65066,0.90571 -0.02545,0.0101 -0.0513,0.0182 -0.07776,0.0259 -0.551188,0.16703 -0.884607,-0.0939 -1.064525,-0.33351 -0.004,-0.004 -0.0081,-0.008 -0.0101,-0.0141 l -0.728623,-0.91078 0.28642,-0.22914 -0.08867,-0.26599 0.08402,-0.0281 c -0.413118,-2.3529 0.151884,-4.80206 -0.01212,-7.21656 l -0.190866,-0.38193 c -0.07392,-0.14037 -0.11573,-0.30017 -0.11573,-0.46979 0,-0.17875 0.04645,-0.34647 0.127849,-0.49205 -0.06645,-0.32097 -0.151481,-0.64088 -0.259577,-0.95943 -0.0612,-0.18359 -0.122396,-0.36722 -0.183595,-0.55084 l -0.23116,-0.96096 c 0,0 -0.0307,-0.33302 0.134717,-0.63345 -0.592188,-2.11819 -1.123218,-4.10504 -1.837986,-5.37704 -3.083318,-6.16659 -3.79956,-12.37905 -3.808628,-19.24927 -0.002,-2.26185 -8.49e-4,-4.5237 -8.49e-4,-6.78555 l 0.03009,-0.42833 c 0,0 -0.244934,-0.9797 0.734782,-1.22464 0.979717,-0.24493 1.224651,0.73478 1.224651,0.73478 l 0.03009,0.91817 c 0,2.26106 -0.0018,4.52215 8.48e-4,6.78321 0.0061,6.65504 0.6281,12.41385 3.595404,18.34837 0.358525,0.99881 1.361529,1.41207 1.789735,2.47136 1.279446,3.16511 0.768229,9.522 4.154489,11.21512 0,0 0.04625,0.0232 0.112499,0.0695 l 0.887092,0.14785 -0.0019,0.0121 c 0.598692,-0.0541 1.210129,0.26084 2.093383,0.99641 l 0.367229,0.45902 c 0,0 0.221303,-0.379 0.221303,0.63086 0,0.75692 -1.010336,0.73359 -1.516483,0.67441 -0.130072,0.40752 -0.511682,0.70268 -0.962306,0.70268 -0.195916,0 -0.378944,-0.0557 -0.533798,-0.15249 l -0.376702,-0.22602 c -0.536242,0.28981 -1.279648,0.64306 -1.795854,0.74895 l -0.619031,0.61903 v 0 c -0.182787,0.18278 -0.435214,0.29579 -0.714081,0.29579 -0.03252,0 -0.06463,-0.002 -0.09634,-0.004 0.002,0.0317 0.004,0.0638 0.004,0.0963 z m 0.459491,-3.40229 c -0.01414,0.0121 -0.02908,0.0224 -0.04443,0.0335 0.0081,0.0729 0.01616,0.14563 0.02424,0.21821 0.01616,-0.0279 0.03191,-0.0557 0.04827,-0.0834 -0.0101,-0.0562 -0.01818,-0.1123 -0.02807,-0.16824 z"
     inkscape:connector-curvature="0" />
  <path
     style="mix-blend-mode:normal;fill:#00ab25;stroke:none;stroke-width:0"
     id="path125"
     d="m 40.876935,215.63237 c -1.834452,2.80287 -5.593758,3.58792 -8.396636,1.7535 -2.802898,-1.83443 -3.587951,-5.59371 -1.753519,-8.39656 1.834451,-2.80288 5.593757,-3.58793 8.396635,-1.75351 2.802897,1.83444 3.587951,5.59371 1.75352,8.39657 z"
     inkscape:connector-curvature="0" />
  <path
     style="mix-blend-mode:normal;fill:#00ab25;stroke:none;stroke-width:0"
     id="path127"
     d="m 41.427739,215.24165 -14.287356,10.31687 -0.178747,-0.11715 3.915473,-17.10506 z"
     inkscape:connector-curvature="0" />
  <path
     style="mix-blend-mode:normal;fill:#ffb89a;stroke:#000000;stroke-width:1.00986731"
     id="path129"
     d="m 27.609387,177.85938 c 0,-10.11329 4.645832,-18.31177 10.376751,-18.31177 5.730919,0 10.37673,8.19846 10.37673,18.31177 0,2.8695 1.229135,7.23044 0.06605,14.61102 -0.916439,5.81571 -8.443776,8.18069 -9.26054,6.69734 -2.942503,-5.3439 3.784432,-9.42607 0.960852,-13.35518 -3.34437,-4.65384 -12.51992,2.16011 -12.51992,-7.95318 z"
     inkscape:connector-curvature="0" />
  <path
     style="mix-blend-mode:normal;fill:url(#color-5);stroke-width:2.01973462"
     id="path131"
     data-paper-data="{&quot;origRot&quot;:0}"
     d="m 43.087886,236.77766 c 0,0 -2.711948,5.20736 -6.332094,2.16743 -3.359802,-2.40677 0.461309,-6.95699 0.461309,-6.95699 0,0 -6.051795,-0.97032 -4.898199,-4.78441 1.131662,-4.62481 6.238965,-2.80391 6.238965,-2.80391 l 8.836534,3.66887 -0.08887,-0.0402 z"
     inkscape:connector-curvature="0" />
  <path
     style="mix-blend-mode:normal;fill:url(#color-6);stroke-width:2.01973462"
     id="path133"
     data-paper-data="{&quot;origRot&quot;:0}"
     d="m 55.82614,232.48602 c 0,0 5.207422,2.71193 2.167446,6.33206 -2.406786,3.35978 -6.957063,-0.4613 -6.957063,-0.4613 0,0 -0.970325,6.05175 -4.784447,4.89816 -4.624847,-1.13165 -2.803928,-6.23892 -2.803928,-6.23892 l 3.668902,-8.83648 -0.04019,0.0889 z"
     inkscape:connector-curvature="0" />
  <path
     style="mix-blend-mode:normal;fill:url(#color-7);stroke-width:2.01973462"
     id="path135"
     data-paper-data="{&quot;origRot&quot;:0}"
     d="m 51.100588,219.55197 c 0,0 2.711949,-5.20736 6.332096,-2.16743 3.359801,2.40677 -0.46131,6.95699 -0.46131,6.95699 0,0 6.051795,0.97032 4.898199,4.78441 -1.131662,4.62481 -6.238964,2.80393 -6.238964,2.80393 l -8.836555,-3.6689 0.08887,0.0402 z"
     inkscape:connector-curvature="0" />
</svg>
