<?xml version="1.0" encoding="UTF-8" standalone="no"?>
<svg
   xmlns:dc="http://purl.org/dc/elements/1.1/"
   xmlns:cc="http://creativecommons.org/ns#"
   xmlns:rdf="http://www.w3.org/1999/02/22-rdf-syntax-ns#"
   xmlns:svg="http://www.w3.org/2000/svg"
   xmlns="http://www.w3.org/2000/svg"
   xmlns:sodipodi="http://sodipodi.sourceforge.net/DTD/sodipodi-0.dtd"
   xmlns:inkscape="http://www.inkscape.org/namespaces/inkscape"
   version="1.1"
   width="63mm"
   height="88mm"
   viewBox="0 0 238.11023 332.59842"
   id="svg56"
   sodipodi:docname="Joker1.svg"
   inkscape:version="0.92.3 (2405546, 2018-03-11)">
  <sodipodi:namedview
     pagecolor="#ffffff"
     bordercolor="#666666"
     borderopacity="1"
     objecttolerance="10"
     gridtolerance="10"
     guidetolerance="10"
     inkscape:pageopacity="0"
     inkscape:pageshadow="2"
     inkscape:window-width="1920"
     inkscape:window-height="1018"
     id="namedview58"
     showgrid="false"
     inkscape:zoom="1.232376"
     inkscape:cx="71.75"
     inkscape:cy="95.75"
     inkscape:window-x="0"
     inkscape:window-y="0"
     inkscape:window-maximized="1"
     inkscape:current-layer="svg56"
     units="mm" />
  <metadata
     id="metadata62">
    <rdf:RDF>
      <cc:Work
         rdf:about="">
        <dc:format>image/svg+xml</dc:format>
        <dc:type
           rdf:resource="http://purl.org/dc/dcmitype/StillImage" />
        <dc:title></dc:title>
      </cc:Work>
    </rdf:RDF>
  </metadata>
  <defs
     id="defs60" />
  <path
     style="mix-blend-mode:normal;fill:#ff0000;stroke:#000000;stroke-width:3.11309195;stroke-linecap:butt"
     id="path4"
     data-paper-data="{&quot;origPos&quot;:null}"
     d="M 72.938929,147.70929 123.86706,14.778253 h 1.72638 l 49.20175,132.931037 z"
     inkscape:connector-curvature="0" />
  <path
     style="mix-blend-mode:normal;fill:#ff0000;stroke:#001616;stroke-width:3.11309195;stroke-linecap:butt"
     id="path6"
     data-paper-data="{&quot;origRot&quot;:0}"
     d="m 174.79068,149.55909 -50.92812,132.93103 h -1.72638 c 0,0 -0.76889,-2.07734 -1.26103,-3.40697 -1.47639,-3.98884 -47.940724,-129.52406 -47.940724,-129.52406 z"
     inkscape:connector-curvature="0" />
  <path
     style="mix-blend-mode:normal;stroke-width:3.11309195"
     id="path8"
     data-paper-data="{&quot;origRot&quot;:0}"
     d="m 162.50335,135.30654 c 0,0 23.18706,24.95347 -1.24912,38.13166 -20.38066,13.06577 -37.60116,-16.47788 -37.60116,-16.47788 0,0 -18.05668,30.31443 -36.784282,16.47788 -23.267848,-15.35312 -2.474469,-38.91742 -2.474469,-38.91742 l 38.850291,-39.726021 -0.40846,0.392872 z"
     inkscape:connector-curvature="0" />
  <path
     style="mix-blend-mode:normal;stroke-width:1.03769732"
     id="path10"
     d="m 103.19623,190.95715 9.86002,-23.37837 c 0,0 5.97524,-48.66092 9.29938,-72.220054 0.15856,-1.123245 -0.11435,-0.601324 0.0378,0.522772 2.49277,18.414582 9.82029,71.000222 9.82029,71.000222 l 12.23606,23.6826 z"
     inkscape:connector-curvature="0" />
  <path
     style="mix-blend-mode:normal;fill:#ff0000;stroke:#000000;stroke-width:1.03769732;stroke-linecap:butt"
     id="path14"
     data-paper-data="{&quot;origRot&quot;:0}"
     d="m 97.377718,152.36286 c 0,0 -16.665025,-18.64561 0.89775,-28.49257 14.648012,-9.76295 27.024752,12.31255 27.024752,12.31255 0,0 12.97772,-22.65142 26.43765,-12.31255 16.72309,11.47209 1.77844,29.0797 1.77844,29.0797 l -27.92252,29.68389 0.29356,-0.29356 z"
     inkscape:connector-curvature="0" />
  <path
     style="mix-blend-mode:normal;stroke:#000000;stroke-width:1.03769732"
     id="path16"
     d="m 117.751,175.91961 4.47594,-9.00655 c 0,0 0.64866,-5.08198 1.38074,-10.65381 0.10086,-0.11871 -2.77209,0.0766 -2.75306,-0.0581 0.0226,0.17309 -0.10107,-3.47278 -0.11144,-3.4809 -0.1457,-0.11456 3.56777,0.0677 3.59169,-0.11082 0.4255,-3.17538 0.59942,-6.30482 0.89116,-8.54536 0.0556,-0.42749 1.73546,0.165 1.79343,0.59213 0.26779,1.97319 0.34225,5.52392 0.43735,7.92656 2.90103,-0.0816 2.79074,0.0548 3.42139,0.0484 0.12286,0.0616 -0.0986,3.81808 -0.13179,3.79737 -0.0782,-0.006 -0.92814,-0.049 -2.81967,-0.0631 -0.10336,0.0405 1.30814,10.81298 1.30814,10.81298 l 3.60681,8.89086 z"
     inkscape:connector-curvature="0" />
  <path
     style="mix-blend-mode:normal;stroke:none;stroke-width:0"
     id="path18"
     d="m 109.49956,154.9888 c 0,-2.11855 1.06455,-6.39444 5.62801,-6.45687 0.002,0.13698 0.16064,2.27476 0.0712,2.3067 -4.87855,-0.0212 4.13618,-0.4348 -0.0145,-8e-5 -0.3442,-0.16956 0.0145,-2.19558 -0.11103,-2.33792 4.45002,0.34633 5.65927,4.56469 5.65927,6.48814 0,0.13532 -0.004,0.26954 -0.0145,0.40249 -0.2063,2.91429 -2.63592,5.21445 -5.60274,5.21445 -3.10215,0 -5.61693,-2.51478 -5.61693,-5.61694 z"
     inkscape:connector-curvature="0" />
  <path
     style="mix-blend-mode:normal;stroke:none;stroke-width:0"
     id="path20"
     d="m 118.78616,139.75592 c 0,-2.11854 1.06455,-6.39444 5.62802,-6.45687 0.002,0.13698 0.16063,2.27476 0.0712,2.3067 -4.87855,-0.0212 4.13618,-0.43479 -0.0145,-8e-5 -0.3442,-0.16935 0.0145,-2.19558 -0.11103,-2.33791 4.45002,0.34632 5.65927,4.56468 5.65927,6.48814 0,3.10215 -2.51478,5.61693 -5.61693,5.61693 -3.10216,0 -5.61693,-2.51478 -5.61693,-5.61693 z"
     inkscape:connector-curvature="0" />
  <path
     style="mix-blend-mode:normal;stroke:none;stroke-width:0"
     id="path22"
     d="m 130.13112,154.63424 c 0,-2.11855 1.06455,-6.39444 5.62801,-6.45687 0.002,0.13698 0.16064,2.27476 0.0712,2.3067 -4.87855,-0.0212 4.13618,-0.4348 -0.0145,-8e-5 -0.3442,-0.16936 0.0145,-2.19558 -0.11103,-2.33792 4.45002,0.34633 5.65927,4.56469 5.65927,6.48814 0,3.10216 -2.51478,5.61694 -5.61693,5.61694 -3.10216,0 -5.61694,-2.51478 -5.61694,-5.61694 z"
     inkscape:connector-curvature="0" />
  <text
     id="text28"
     style="font-weight:normal;font-size:56.74521637px;font-family:Serif;text-anchor:start;mix-blend-mode:normal;fill:#000000;fill-rule:nonzero;stroke:none;stroke-width:1.41863036;stroke-linecap:butt;stroke-linejoin:miter;stroke-miterlimit:10;stroke-dasharray:none;stroke-dashoffset:0"
     font-weight="normal"
     stroke-miterlimit="10"
     xml:space="preserve"
     font-size="40"
     transform="scale(-0.65378066,-1.529565)"
     x="-368.75592"
     y="-176.07893"><tspan
       id="tspan26"
       dy="0"
       x="-368.75592"
       style="stroke-width:1.41863036">U</tspan></text>
  <text
     id="text32"
     style="font-weight:normal;font-size:51.4956398px;font-family:Serif;text-anchor:start;mix-blend-mode:normal;fill:#000000;fill-rule:nonzero;stroke:none;stroke-width:1.28739095;stroke-linecap:butt;stroke-linejoin:miter;stroke-miterlimit:10;stroke-dasharray:none;stroke-dashoffset:0"
     font-weight="normal"
     stroke-miterlimit="10"
     xml:space="preserve"
     font-size="40"
     transform="scale(-1.0882275,-0.9189255)"
     x="-224.47722"
     y="-306.2897"><tspan
       id="tspan30"
       dy="0"
       x="-224.47722"
       style="stroke-width:1.28739095">S</tspan></text>
  <text
     id="text38"
     style="font-weight:normal;font-size:56.74521637px;font-family:Serif;text-anchor:start;mix-blend-mode:normal;fill:#000000;fill-rule:nonzero;stroke:none;stroke-width:1.41863036;stroke-linecap:butt;stroke-linejoin:miter;stroke-miterlimit:10;stroke-dasharray:none;stroke-dashoffset:0"
     font-weight="normal"
     stroke-miterlimit="10"
     xml:space="preserve"
     font-size="40"
     transform="scale(0.65378066,1.529565)"
     x="-2.3090687"
     y="41.367485"><tspan
       id="tspan36"
       dy="0"
       x="-2.3090687"
       style="stroke-width:1.41863036">U</tspan></text>
  <text
     id="text42"
     style="font-weight:normal;font-size:51.4956398px;font-family:Serif;text-anchor:start;mix-blend-mode:normal;fill:#000000;fill-rule:nonzero;stroke:none;stroke-width:1.28739095;stroke-linecap:butt;stroke-linejoin:miter;stroke-miterlimit:10;stroke-dasharray:none;stroke-dashoffset:0"
     font-weight="normal"
     stroke-miterlimit="10"
     xml:space="preserve"
     font-size="40"
     transform="scale(1.0882275,0.9189255)"
     x="-4.3248291"
     y="55.653111"><tspan
       id="tspan40"
       dy="0"
       x="-4.3248291"
       style="stroke-width:1.28739095">S</tspan></text>
  <path
     style="mix-blend-mode:normal;fill:none;stroke:#000000;stroke-width:1.03769732;stroke-linecap:butt"
     id="path46"
     data-paper-data="{&quot;origRot&quot;:0}"
     d="m 108.83029,248.11196 c 0,0 -8.22475,-20.65422 0.44307,-31.56198 7.22929,-10.81461 13.33763,13.63891 13.33763,13.63891 0,0 6.40496,-25.09156 13.04788,-13.63891 8.25341,12.70793 0.87773,32.21234 0.87773,32.21234 l -13.78071,32.88164 0.14487,-0.32519 z"
     inkscape:connector-curvature="0" />
  <path
     style="mix-blend-mode:normal;fill:none;stroke:#000000;stroke-width:1.03769732;stroke-linecap:round"
     id="path48"
     d="M 114.44919,42.402668 135.24518,42.9453"
     inkscape:connector-curvature="0" />
</svg>
