<?xml version="1.0" encoding="UTF-8" standalone="no"?>
<svg
   xmlns:dc="http://purl.org/dc/elements/1.1/"
   xmlns:cc="http://creativecommons.org/ns#"
   xmlns:rdf="http://www.w3.org/1999/02/22-rdf-syntax-ns#"
   xmlns:svg="http://www.w3.org/2000/svg"
   xmlns="http://www.w3.org/2000/svg"
   xmlns:sodipodi="http://sodipodi.sourceforge.net/DTD/sodipodi-0.dtd"
   xmlns:inkscape="http://www.inkscape.org/namespaces/inkscape"
   version="1.1"
   width="63mm"
   height="88mm"
   viewBox="0 0 238.11023 332.59842"
   id="svg82"
   sodipodi:docname="S9.svg"
   inkscape:version="0.92.3 (2405546, 2018-03-11)">
  <metadata
     id="metadata88">
    <rdf:RDF>
      <cc:Work
         rdf:about="">
        <dc:format>image/svg+xml</dc:format>
        <dc:type
           rdf:resource="http://purl.org/dc/dcmitype/StillImage" />
        <dc:title></dc:title>
      </cc:Work>
    </rdf:RDF>
  </metadata>
  <defs
     id="defs86" />
  <sodipodi:namedview
     pagecolor="#ffffff"
     bordercolor="#666666"
     borderopacity="1"
     objecttolerance="10"
     gridtolerance="10"
     guidetolerance="10"
     inkscape:pageopacity="0"
     inkscape:pageshadow="2"
     inkscape:window-width="1920"
     inkscape:window-height="1018"
     id="namedview84"
     showgrid="false"
     units="mm"
     inkscape:zoom="1.232376"
     inkscape:cx="109.88771"
     inkscape:cy="95.75"
     inkscape:window-x="0"
     inkscape:window-y="0"
     inkscape:window-maximized="1"
     inkscape:current-layer="svg82" />
  <text
     font-size="40"
     xml:space="preserve"
     stroke-miterlimit="10"
     font-weight="normal"
     style="font-weight:normal;font-size:40.98382568px;font-family:Serif;text-anchor:start;mix-blend-mode:normal;fill:#000000;fill-rule:nonzero;stroke:none;stroke-width:1.02459562;stroke-linecap:butt;stroke-linejoin:miter;stroke-miterlimit:10;stroke-dasharray:none;stroke-dashoffset:0"
     id="text6"
     x="3.5521452"
     y="30.417671"><tspan
       x="3.5521452"
       dy="0"
       id="tspan4"
       style="stroke-width:1.02459562">9</tspan></text>
  <text
     transform="scale(-1)"
     font-size="40"
     xml:space="preserve"
     data-paper-data="{&quot;origRot&quot;:-45}"
     stroke-miterlimit="10"
     font-weight="normal"
     style="font-weight:normal;font-size:40.98382568px;font-family:Serif;text-anchor:start;mix-blend-mode:normal;fill:#000000;fill-rule:nonzero;stroke:none;stroke-width:1.02459562;stroke-linecap:butt;stroke-linejoin:miter;stroke-miterlimit:10;stroke-dasharray:none;stroke-dashoffset:0"
     id="text10"
     x="-242.81718"
     y="-302.18076"><tspan
       x="-242.81718"
       dy="0"
       id="tspan8"
       style="stroke-width:1.02459562">9</tspan></text>
  <g
     id="g16"
     style="mix-blend-mode:normal;fill:#000000;fill-rule:nonzero;stroke:#000000;stroke-linecap:butt;stroke-linejoin:miter;stroke-miterlimit:10;stroke-dasharray:none;stroke-dashoffset:0"
     transform="matrix(2.0491913,0,0,2.0491913,-368.31829,-206.67768)">
    <path
       d="m 195.29957,128.05446 c 0,0 3.96298,4.43397 -0.21349,6.7756 -3.48333,2.32165 -6.42655,-2.92795 -6.42655,-2.92795 0,0 -3.08613,5.38656 -6.28693,2.92795 -3.97679,-2.72809 -0.42292,-6.91522 -0.42292,-6.91522 l 6.64004,-7.0589 -0.0698,0.0698 z"
       data-paper-data="{&quot;origRot&quot;:0}"
       id="path12"
       inkscape:connector-curvature="0"
       style="stroke-width:1.5" />
    <path
       d="m 185.16318,137.94299 1.68521,-4.15409 c 0,0 1.02125,-8.64654 1.58939,-12.83275 0.0271,-0.19959 -0.0196,-0.10685 0.006,0.0929 0.42605,3.27208 1.67842,12.616 1.67842,12.616 l 2.09131,4.20815 z"
       id="path14"
       inkscape:connector-curvature="0"
       style="stroke-width:0.5" />
  </g>
  <g
     data-paper-data="{&quot;origRot&quot;:0}"
     id="g22"
     style="mix-blend-mode:normal;fill:#000000;fill-rule:nonzero;stroke:#000000;stroke-linecap:butt;stroke-linejoin:miter;stroke-miterlimit:10;stroke-dasharray:none;stroke-dashoffset:0"
     transform="matrix(2.0491913,0,0,2.0491913,-368.31829,-206.67768)">
    <path
       d="m 283.76406,234.27041 c 0,0 -3.96298,-4.43397 0.21349,-6.7756 3.48333,-2.32164 6.42655,2.92795 6.42655,2.92795 0,0 3.08614,-5.38656 6.28694,-2.92795 3.97679,2.72809 0.42292,6.91522 0.42292,6.91522 l -6.64004,7.0589 0.0698,-0.0698 z"
       data-paper-data="{&quot;origRot&quot;:0}"
       id="path18"
       inkscape:connector-curvature="0"
       style="stroke-width:1.5" />
    <path
       d="m 293.90045,224.38188 -1.68521,4.15409 c 0,0 -1.02125,8.64654 -1.58939,12.83275 -0.0271,0.19959 0.0195,0.10686 -0.006,-0.0929 -0.42606,-3.27208 -1.67842,-12.616 -1.67842,-12.616 l -2.0913,-4.20815 z"
       id="path20"
       inkscape:connector-curvature="0"
       style="stroke-width:0.5" />
  </g>
  <g
     id="g28"
     style="mix-blend-mode:normal;fill:none;fill-rule:nonzero;stroke:#000000;stroke-width:1.5;stroke-linecap:butt;stroke-linejoin:miter;stroke-miterlimit:10;stroke-dasharray:none;stroke-dashoffset:0"
     transform="matrix(2.0491913,0,0,2.0491913,-368.31829,-206.67768)">
    <path
       d="m 221.19234,128.44388 c 0,0 4.18642,4.68397 -0.22553,7.15763 -3.67973,2.45255 -6.7889,-3.09304 -6.7889,-3.09304 0,0 -3.26013,5.69027 -6.64141,3.09304 -4.20101,-2.88191 -0.44676,-7.30512 -0.44676,-7.30512 l 7.01443,-7.4569 -0.0738,0.0738 z"
       data-paper-data="{&quot;origRot&quot;:0}"
       id="path24"
       inkscape:connector-curvature="0" />
    <path
       d="m 210.48443,138.88996 c 0,0 3.57375,-7.31031 3.60123,-7.09931 1.53155,2.84824 3.84709,7.02557 3.84709,7.02557 z"
       id="path26"
       inkscape:connector-curvature="0" />
  </g>
  <g
     data-paper-data="{&quot;origRot&quot;:0}"
     id="g34"
     style="mix-blend-mode:normal;fill:none;fill-rule:nonzero;stroke:#000000;stroke-width:1.5;stroke-linecap:butt;stroke-linejoin:miter;stroke-miterlimit:10;stroke-dasharray:none;stroke-dashoffset:0"
     transform="matrix(2.0491913,0,0,2.0491913,-368.31829,-206.67768)">
    <path
       d="m 207.4072,234.97477 c 0,0 -4.18642,-4.68397 0.22553,-7.15763 3.67973,-2.45255 6.7889,3.09303 6.7889,3.09303 0,0 3.26013,-5.69027 6.6414,-3.09303 4.20101,2.8819 0.44677,7.30512 0.44677,7.30512 l -7.01443,7.4569 0.0737,-0.0737 z"
       data-paper-data="{&quot;origRot&quot;:0}"
       id="path30"
       inkscape:connector-curvature="0" />
    <path
       d="m 218.11511,224.5287 c 0,0 -3.57375,7.31031 -3.60123,7.09931 -1.53154,-2.84823 -3.84709,-7.02557 -3.84709,-7.02557 z"
       id="path32"
       inkscape:connector-curvature="0" />
  </g>
  <g
     id="g40"
     style="mix-blend-mode:normal;fill:none;fill-rule:nonzero;stroke:#000000;stroke-width:1.5;stroke-linecap:butt;stroke-linejoin:miter;stroke-miterlimit:10;stroke-dasharray:none;stroke-dashoffset:0"
     transform="matrix(2.0491913,0,0,2.0491913,-368.31829,-206.67768)">
    <path
       d="m 272.90523,128.50942 c 0,0 4.18642,4.68397 -0.22553,7.15763 -3.67973,2.45255 -6.7889,-3.09304 -6.7889,-3.09304 0,0 -3.26013,5.69027 -6.64141,3.09304 -4.20101,-2.88191 -0.44676,-7.30512 -0.44676,-7.30512 l 7.01443,-7.4569 -0.0738,0.0738 z"
       data-paper-data="{&quot;origRot&quot;:0}"
       id="path36"
       inkscape:connector-curvature="0" />
    <path
       d="m 262.19732,138.9555 c 0,0 3.57375,-7.31031 3.60123,-7.09931 1.53155,2.84824 3.84709,7.02557 3.84709,7.02557 z"
       id="path38"
       inkscape:connector-curvature="0" />
  </g>
  <g
     data-paper-data="{&quot;origRot&quot;:0}"
     id="g46"
     style="mix-blend-mode:normal;fill:none;fill-rule:nonzero;stroke:#000000;stroke-width:1.5;stroke-linecap:butt;stroke-linejoin:miter;stroke-miterlimit:10;stroke-dasharray:none;stroke-dashoffset:0"
     transform="matrix(2.0491913,0,0,2.0491913,-368.31829,-206.67768)">
    <path
       d="m 259.12009,235.04031 c 0,0 -4.18642,-4.68397 0.22553,-7.15763 3.67973,-2.45255 6.7889,3.09303 6.7889,3.09303 0,0 3.26013,-5.69027 6.6414,-3.09303 4.20101,2.8819 0.44677,7.30512 0.44677,7.30512 l -7.01443,7.4569 0.0737,-0.0737 z"
       data-paper-data="{&quot;origRot&quot;:0}"
       id="path42"
       inkscape:connector-curvature="0" />
    <path
       d="m 269.828,224.59424 c 0,0 -3.57375,7.31031 -3.60123,7.09931 -1.53154,-2.84823 -3.84709,-7.02557 -3.84709,-7.02557 z"
       id="path44"
       inkscape:connector-curvature="0" />
  </g>
  <g
     id="g52"
     style="mix-blend-mode:normal;fill:none;fill-rule:nonzero;stroke:#000000;stroke-width:1.5;stroke-linecap:butt;stroke-linejoin:miter;stroke-miterlimit:10;stroke-dasharray:none;stroke-dashoffset:0"
     transform="matrix(2.0491913,0,0,2.0491913,-368.31829,-206.67768)">
    <path
       d="m 222.25305,162.13095 c 0,0 4.18642,4.68397 -0.22553,7.15763 -3.67973,2.45255 -6.7889,-3.09304 -6.7889,-3.09304 0,0 -3.26013,5.69027 -6.64141,3.09304 -4.20101,-2.88191 -0.44676,-7.30512 -0.44676,-7.30512 l 7.01443,-7.4569 -0.0738,0.0738 z"
       data-paper-data="{&quot;origRot&quot;:0}"
       id="path48"
       inkscape:connector-curvature="0" />
    <path
       d="m 211.54514,172.57703 c 0,0 3.57375,-7.31031 3.60123,-7.09931 1.53155,2.84824 3.84709,7.02557 3.84709,7.02557 z"
       id="path50"
       inkscape:connector-curvature="0" />
  </g>
  <g
     id="g58"
     style="mix-blend-mode:normal;fill:none;fill-rule:nonzero;stroke:#000000;stroke-width:1.5;stroke-linecap:butt;stroke-linejoin:miter;stroke-miterlimit:10;stroke-dasharray:none;stroke-dashoffset:0"
     transform="matrix(2.0491913,0,0,2.0491913,-368.31829,-206.67768)">
    <path
       d="m 272.65008,162.19649 c 0,0 4.18642,4.68397 -0.22553,7.15763 -3.67973,2.45255 -6.7889,-3.09304 -6.7889,-3.09304 0,0 -3.26013,5.69027 -6.64141,3.09304 -4.20101,-2.88191 -0.44676,-7.30512 -0.44676,-7.30512 l 7.01443,-7.4569 -0.0738,0.0738 z"
       data-paper-data="{&quot;origRot&quot;:0}"
       id="path54"
       inkscape:connector-curvature="0" />
    <path
       d="m 261.94217,172.64257 c 0,0 3.57375,-7.31031 3.60123,-7.09931 1.53155,2.84824 3.84709,7.02557 3.84709,7.02557 z"
       id="path56"
       inkscape:connector-curvature="0" />
  </g>
  <g
     id="g64"
     style="mix-blend-mode:normal;fill:none;fill-rule:nonzero;stroke:#000000;stroke-width:1.5;stroke-linecap:butt;stroke-linejoin:miter;stroke-miterlimit:10;stroke-dasharray:none;stroke-dashoffset:0"
     transform="matrix(2.0491913,0,0,2.0491913,-368.31829,-206.67768)">
    <path
       d="m 247.05643,176.73645 c 0,0 4.18642,4.68397 -0.22553,7.15763 -3.67973,2.45255 -6.7889,-3.09304 -6.7889,-3.09304 0,0 -3.26013,5.69027 -6.64141,3.09304 -4.20101,-2.88191 -0.44676,-7.30512 -0.44676,-7.30512 l 7.01443,-7.4569 -0.0737,0.0738 z"
       data-paper-data="{&quot;origRot&quot;:0}"
       id="path60"
       inkscape:connector-curvature="0" />
    <path
       d="m 236.34852,187.18253 c 0,0 3.57375,-7.31031 3.60123,-7.09931 1.53155,2.84824 3.84709,7.02557 3.84709,7.02557 z"
       id="path62"
       inkscape:connector-curvature="0" />
  </g>
  <g
     data-paper-data="{&quot;origRot&quot;:0}"
     id="g70"
     style="mix-blend-mode:normal;fill:none;fill-rule:nonzero;stroke:#000000;stroke-width:1.5;stroke-linecap:butt;stroke-linejoin:miter;stroke-miterlimit:10;stroke-dasharray:none;stroke-dashoffset:0"
     transform="matrix(2.0491913,0,0,2.0491913,-368.31829,-206.67768)">
    <path
       d="m 207.47274,201.81494 c 0,0 -4.18642,-4.68397 0.22553,-7.15763 3.67973,-2.45255 6.7889,3.09303 6.7889,3.09303 0,0 3.26013,-5.69027 6.6414,-3.09303 4.20101,2.8819 0.44677,7.30512 0.44677,7.30512 l -7.01443,7.4569 0.0737,-0.0737 z"
       data-paper-data="{&quot;origRot&quot;:0}"
       id="path66"
       inkscape:connector-curvature="0" />
    <path
       d="m 218.18065,191.36887 c 0,0 -3.57375,7.31031 -3.60123,7.09931 -1.53154,-2.84823 -3.84709,-7.02557 -3.84709,-7.02557 z"
       id="path68"
       inkscape:connector-curvature="0" />
  </g>
  <g
     data-paper-data="{&quot;origRot&quot;:0}"
     id="g76"
     style="mix-blend-mode:normal;fill:none;fill-rule:nonzero;stroke:#000000;stroke-width:1.5;stroke-linecap:butt;stroke-linejoin:miter;stroke-miterlimit:10;stroke-dasharray:none;stroke-dashoffset:0"
     transform="matrix(2.0491913,0,0,2.0491913,-368.31829,-206.67768)">
    <path
       d="m 259.18563,201.88048 c 0,0 -4.18642,-4.68397 0.22553,-7.15763 3.67973,-2.45255 6.7889,3.09303 6.7889,3.09303 0,0 3.26013,-5.69027 6.6414,-3.09303 4.20101,2.8819 0.44677,7.30512 0.44677,7.30512 l -7.01443,7.4569 0.0737,-0.0737 z"
       data-paper-data="{&quot;origRot&quot;:0}"
       id="path72"
       inkscape:connector-curvature="0" />
    <path
       d="m 269.89354,191.43441 c 0,0 -3.57375,7.31031 -3.60123,7.09931 -1.53154,-2.84823 -3.84709,-7.02557 -3.84709,-7.02557 z"
       id="path74"
       inkscape:connector-curvature="0" />
  </g>
</svg>
