<?xml version="1.0" encoding="UTF-8" standalone="no"?>
<svg
   xmlns:dc="http://purl.org/dc/elements/1.1/"
   xmlns:cc="http://creativecommons.org/ns#"
   xmlns:rdf="http://www.w3.org/1999/02/22-rdf-syntax-ns#"
   xmlns:svg="http://www.w3.org/2000/svg"
   xmlns="http://www.w3.org/2000/svg"
   xmlns:sodipodi="http://sodipodi.sourceforge.net/DTD/sodipodi-0.dtd"
   xmlns:inkscape="http://www.inkscape.org/namespaces/inkscape"
   version="1.1"
   width="63mm"
   height="88mm"
   viewBox="0 0 238.11023 332.59842"
   id="svg84"
   sodipodi:docname="SA.svg"
   inkscape:version="0.92.3 (2405546, 2018-03-11)">
  <metadata
     id="metadata88">
    <rdf:RDF>
      <cc:Work
         rdf:about="">
        <dc:format>image/svg+xml</dc:format>
        <dc:type
           rdf:resource="http://purl.org/dc/dcmitype/StillImage" />
        <dc:title></dc:title>
      </cc:Work>
    </rdf:RDF>
  </metadata>
  <sodipodi:namedview
     pagecolor="#ffffff"
     bordercolor="#666666"
     borderopacity="1"
     objecttolerance="10"
     gridtolerance="10"
     guidetolerance="10"
     inkscape:pageopacity="0"
     inkscape:pageshadow="2"
     inkscape:window-width="1920"
     inkscape:window-height="1018"
     id="namedview86"
     showgrid="false"
     units="mm"
     inkscape:zoom="1.232376"
     inkscape:cx="109.88771"
     inkscape:cy="95.75"
     inkscape:window-x="0"
     inkscape:window-y="0"
     inkscape:window-maximized="1"
     inkscape:current-layer="svg84" />
  <defs
     id="defs22">
    <linearGradient
       x1="240.18864"
       y1="150.8353"
       x2="240.18864"
       y2="209.1647"
       gradientUnits="userSpaceOnUse"
       id="color-1">
      <stop
         offset="0"
         stop-color="#a6a6a6"
         id="stop2" />
      <stop
         offset="1"
         stop-color="#000000"
         id="stop4" />
    </linearGradient>
    <linearGradient
       x1="240.65114"
       y1="181.4171"
       x2="240.65114"
       y2="194.82527"
       gradientUnits="userSpaceOnUse"
       id="color-2">
      <stop
         offset="0"
         stop-color="#000000"
         id="stop7" />
      <stop
         offset="1"
         stop-color="#ff0000"
         id="stop9" />
    </linearGradient>
    <linearGradient
       x1="240.6507"
       y1="195.17307"
       x2="240.6507"
       y2="208.58124"
       gradientUnits="userSpaceOnUse"
       id="color-3">
      <stop
         offset="0"
         stop-color="#ff4600"
         id="stop12" />
      <stop
         offset="1"
         stop-color="#000000"
         id="stop14" />
    </linearGradient>
    <radialGradient
       cx="240.72098"
       cy="195.09859"
       r="2.7365301"
       gradientUnits="userSpaceOnUse"
       id="color-4">
      <stop
         offset="0"
         stop-color="#000000"
         id="stop17" />
      <stop
         offset="1"
         stop-color="#000cff"
         id="stop19" />
    </radialGradient>
  </defs>
  <g
     style="mix-blend-mode:normal;fill-rule:nonzero;stroke-linejoin:miter;stroke-miterlimit:10;stroke-dasharray:none;stroke-dashoffset:0"
     id="g58"
     transform="matrix(2.055871,0,0,2.055871,-369.51889,-207.89342)">
    <path
       d="m 240.76399,151.11065 -0.23816,-0.23816 22.65237,24.08131 c 0,0 12.12399,14.28432 -1.44277,23.59115 -10.91947,8.3875 -21.44776,-9.98865 -21.44776,-9.98865 0,0 -10.04076,17.9089 -21.92407,9.98864 -14.24795,-7.9884 -0.72831,-23.11483 -0.72831,-23.11483 z"
       data-paper-data="{&quot;origRot&quot;:0}"
       id="path26"
       inkscape:connector-curvature="0"
       style="fill:none;stroke:#000000;stroke-width:1.5;stroke-linecap:butt" />
    <path
       d="m 228.16183,208.92655 7.13445,-14.35602 c 0,0 4.27241,-31.87659 5.7259,-43.03924 0.0887,-0.68141 -0.0704,-0.99779 0.022,-0.31688 1.9382,14.28116 5.42218,43.77869 5.42218,43.77869 l 5.74908,14.17161 z"
       id="path28"
       style="fill:url(#color-1);stroke:#000000;stroke-width:0.5;stroke-linecap:butt"
       inkscape:connector-curvature="0" />
    <g
       id="g44">
      <path
         d="m 242.44242,197.8936 -0.88254,-1.08846"
         data-paper-data="{&quot;index&quot;:null}"
         id="path30"
         inkscape:connector-curvature="0"
         style="fill:none;stroke:#855d08;stroke-width:3.5;stroke-linecap:round" />
      <path
         d="m 239.67583,198.20256 0.003,-1.08183"
         data-paper-data="{&quot;index&quot;:null,&quot;origRot&quot;:0}"
         id="path32"
         inkscape:connector-curvature="0"
         style="fill:none;stroke:#855d08;stroke-width:3.5;stroke-linecap:round" />
      <path
         d="m 235.51425,194.82527 5.1369,-13.40816 h 0.17413 l 4.96277,13.40816 z"
         id="path34"
         style="fill:url(#color-2);stroke:#000000;stroke-width:0.5;stroke-linecap:butt"
         inkscape:connector-curvature="0" />
      <path
         d="m 245.78758,195.17307 -5.13689,13.40816 h -0.17414 c 0,0 -0.0776,-0.20953 -0.12719,-0.34364 -0.14892,-0.40233 -4.83557,-13.06452 -4.83557,-13.06452 z"
         data-paper-data="{&quot;origRot&quot;:0}"
         id="path36"
         style="fill:url(#color-3);stroke:#000000;stroke-width:0;stroke-linecap:butt"
         inkscape:connector-curvature="0" />
      <path
         d="m 245.58043,195.13296 c -0.8639,1.23929 -2.26031,2.73533 -5.04855,2.73533 -2.42389,0 -5.04685,-2.65033 -5.04804,-2.69617 -3.9e-4,-0.0153 -5.1e-4,-0.0239 -5.1e-4,-0.0392 0,-0.11458 -0.0229,-0.18928 0.0284,-0.29176 0.14812,-0.29629 2.69558,-2.44357 5.02017,-2.44357 0,0 1.20676,0.0421 2.37505,0.48697 0,0 3.26873,1.39449 2.6735,2.24836 z"
         id="path38"
         inkscape:connector-curvature="0"
         style="fill:#ffffff;stroke:#000000;stroke-width:0.5;stroke-linecap:butt" />
      <path
         d="m 237.98445,195.09859 c 0,-1.51135 1.22519,-2.73653 2.73654,-2.73653 1.51135,0 2.73653,1.22518 2.73653,2.73653 0,1.51135 -1.22519,2.73654 -2.73653,2.73654 -1.51135,0 -2.73654,-1.22519 -2.73654,-2.73654 z"
         id="path40"
         style="fill:url(#color-4);stroke:#000000;stroke-width:0.5;stroke-linecap:butt"
         inkscape:connector-curvature="0" />
      <path
         d="m 240.73373,197.76282 c 0,0 0.0898,-0.9684 -0.82134,-1.83061 -0.63664,-0.60244 -1.97105,-0.69357 -1.97105,-0.69357 0,0 1.25676,0.0272 1.98772,-0.73301 0.65786,-0.68422 0.71513,-2.03639 0.71513,-2.03639 0,0 0.003,1.40199 0.67504,2.0379 0.71917,0.68053 2.01297,0.63124 2.01297,0.63124 0,0 -1.23962,0.0367 -1.93684,0.76189 -0.6916,0.71931 -0.66164,1.86255 -0.66164,1.86255 z"
         data-paper-data="{&quot;origRot&quot;:0}"
         id="path42"
         inkscape:connector-curvature="0"
         style="fill:#0090ff;stroke:#000000;stroke-width:0.5;stroke-linecap:butt" />
    </g>
    <path
       d="m 212.20547,185.82555 28.57856,-34.05611 -27.86409,40.48629"
       id="path46"
       inkscape:connector-curvature="0"
       style="fill:none;stroke:#000000;stroke-width:0.5;stroke-linecap:round" />
    <path
       d="m 217.68303,197.49513 23.101,-45.72568 -12.6222,47.86908"
       id="path48"
       inkscape:connector-curvature="0"
       style="fill:none;stroke:#000000;stroke-width:0.5;stroke-linecap:round" />
    <path
       d="m 235.26942,194.27495 6.22907,-42.74366"
       id="path50"
       inkscape:connector-curvature="0"
       style="fill:none;stroke:#000000;stroke-width:0.5;stroke-linecap:round" />
    <path
       d="m 267.9324,190.82555 -26.43516,-38.58105 26.19701,31.91272"
       data-paper-data="{&quot;index&quot;:null}"
       id="path52"
       inkscape:connector-curvature="0"
       style="fill:none;stroke:#000000;stroke-width:0.5;stroke-linecap:round" />
    <path
       d="m 254.11943,199.87543 -12.6222,-47.63093 22.14839,44.29676"
       data-paper-data="{&quot;index&quot;:null}"
       id="path54"
       inkscape:connector-curvature="0"
       style="fill:none;stroke:#000000;stroke-width:0.5;stroke-linecap:round" />
    <path
       d="m 246.71996,195.29025 -5.69903,-43.2839"
       data-paper-data="{&quot;index&quot;:null}"
       id="path56"
       inkscape:connector-curvature="0"
       style="fill:none;stroke:#000000;stroke-width:0.5;stroke-linecap:round" />
  </g>
  <text
     font-size="40"
     xml:space="preserve"
     stroke-miterlimit="10"
     font-weight="normal"
     style="font-weight:normal;font-size:41.1174202px;font-family:Serif;text-anchor:start;mix-blend-mode:normal;fill:#000000;fill-rule:nonzero;stroke:none;stroke-width:1.0279355;stroke-linecap:butt;stroke-linejoin:miter;stroke-miterlimit:10;stroke-dasharray:none;stroke-dashoffset:0"
     id="text62"
     x="3.5637155"
     y="29.974768"><tspan
       x="3.5637155"
       dy="0"
       id="tspan60"
       style="stroke-width:1.0279355">A</tspan></text>
  <text
     transform="scale(-1)"
     font-size="40"
     xml:space="preserve"
     data-paper-data="{&quot;origRot&quot;:-45}"
     stroke-miterlimit="10"
     font-weight="normal"
     style="font-weight:normal;font-size:41.1174202px;font-family:Serif;text-anchor:start;mix-blend-mode:normal;fill:#000000;fill-rule:nonzero;stroke:none;stroke-width:1.0279355;stroke-linecap:butt;stroke-linejoin:miter;stroke-miterlimit:10;stroke-dasharray:none;stroke-dashoffset:0"
     id="text66"
     x="-243.60867"
     y="-302.62366"><tspan
       x="-243.60867"
       dy="0"
       id="tspan64"
       style="stroke-width:1.0279355">A</tspan></text>
  <g
     id="g72"
     style="mix-blend-mode:normal;fill:#000000;fill-rule:nonzero;stroke:#000000;stroke-linecap:butt;stroke-linejoin:miter;stroke-miterlimit:10;stroke-dasharray:none;stroke-dashoffset:0"
     transform="matrix(2.055871,0,0,2.055871,-369.51889,-207.89342)">
    <path
       d="m 195.29957,128.05446 c 0,0 3.96298,4.43397 -0.21349,6.7756 -3.48333,2.32165 -6.42655,-2.92795 -6.42655,-2.92795 0,0 -3.08613,5.38656 -6.28693,2.92795 -3.97679,-2.72809 -0.42292,-6.91522 -0.42292,-6.91522 l 6.64004,-7.0589 -0.0698,0.0698 z"
       data-paper-data="{&quot;origRot&quot;:0}"
       id="path68"
       inkscape:connector-curvature="0"
       style="stroke-width:1.5" />
    <path
       d="m 185.16318,137.94299 1.68521,-4.15409 c 0,0 1.02125,-8.64654 1.58939,-12.83275 0.0271,-0.19959 -0.0196,-0.10685 0.006,0.0929 0.42605,3.27208 1.67842,12.616 1.67842,12.616 l 2.09131,4.20815 z"
       id="path70"
       inkscape:connector-curvature="0"
       style="stroke-width:0.5" />
  </g>
  <g
     data-paper-data="{&quot;origRot&quot;:0}"
     id="g78"
     style="mix-blend-mode:normal;fill:#000000;fill-rule:nonzero;stroke:#000000;stroke-linecap:butt;stroke-linejoin:miter;stroke-miterlimit:10;stroke-dasharray:none;stroke-dashoffset:0"
     transform="matrix(2.055871,0,0,2.055871,-369.51889,-207.89342)">
    <path
       d="m 283.76406,234.27041 c 0,0 -3.96298,-4.43397 0.21349,-6.7756 3.48333,-2.32164 6.42655,2.92795 6.42655,2.92795 0,0 3.08614,-5.38656 6.28694,-2.92795 3.97679,2.72809 0.42292,6.91522 0.42292,6.91522 l -6.64004,7.0589 0.0698,-0.0698 z"
       data-paper-data="{&quot;origRot&quot;:0}"
       id="path74"
       inkscape:connector-curvature="0"
       style="stroke-width:1.5" />
    <path
       d="m 293.90045,224.38188 -1.68521,4.15409 c 0,0 -1.02125,8.64654 -1.58939,12.83275 -0.0271,0.19959 0.0195,0.10686 -0.006,-0.0929 -0.42606,-3.27208 -1.67842,-12.616 -1.67842,-12.616 l -2.0913,-4.20815 z"
       id="path76"
       inkscape:connector-curvature="0"
       style="stroke-width:0.5" />
  </g>
</svg>
