<?xml version="1.0" encoding="UTF-8" standalone="no"?>
<svg
   xmlns:dc="http://purl.org/dc/elements/1.1/"
   xmlns:cc="http://creativecommons.org/ns#"
   xmlns:rdf="http://www.w3.org/1999/02/22-rdf-syntax-ns#"
   xmlns:svg="http://www.w3.org/2000/svg"
   xmlns="http://www.w3.org/2000/svg"
   xmlns:sodipodi="http://sodipodi.sourceforge.net/DTD/sodipodi-0.dtd"
   xmlns:inkscape="http://www.inkscape.org/namespaces/inkscape"
   version="1.1"
   width="63mm"
   height="88mm"
   viewBox="0 0 238.11023 332.59842"
   id="svg131"
   sodipodi:docname="SK.svg"
   inkscape:version="0.92.3 (2405546, 2018-03-11)">
  <metadata
     id="metadata135">
    <rdf:RDF>
      <cc:Work
         rdf:about="">
        <dc:format>image/svg+xml</dc:format>
        <dc:type
           rdf:resource="http://purl.org/dc/dcmitype/StillImage" />
        <dc:title></dc:title>
      </cc:Work>
    </rdf:RDF>
  </metadata>
  <sodipodi:namedview
     pagecolor="#ffffff"
     bordercolor="#666666"
     borderopacity="1"
     objecttolerance="10"
     gridtolerance="10"
     guidetolerance="10"
     inkscape:pageopacity="0"
     inkscape:pageshadow="2"
     inkscape:window-width="1920"
     inkscape:window-height="1018"
     id="namedview133"
     showgrid="false"
     units="mm"
     inkscape:zoom="1.232376"
     inkscape:cx="109.88771"
     inkscape:cy="95.75"
     inkscape:window-x="0"
     inkscape:window-y="0"
     inkscape:window-maximized="1"
     inkscape:current-layer="svg131" />
  <defs
     id="defs7">
    <radialGradient
       cx="240.85374"
       cy="180"
       r="30.75"
       gradientUnits="userSpaceOnUse"
       id="color-1">
      <stop
         offset="0"
         stop-color="#000000"
         id="stop2" />
      <stop
         offset="1"
         stop-color="#ffffff"
         id="stop4" />
    </radialGradient>
  </defs>
  <text
     font-size="40"
     xml:space="preserve"
     stroke-miterlimit="10"
     font-weight="normal"
     style="font-weight:normal;font-size:39.71846008px;font-family:Serif;text-anchor:start;mix-blend-mode:normal;fill:#000000;fill-rule:nonzero;stroke:none;stroke-width:0.99296147;stroke-linecap:butt;stroke-linejoin:miter;stroke-miterlimit:10;stroke-dasharray:none;stroke-dashoffset:0"
     id="text13"
     x="3.4424939"
     y="36.574986"><tspan
       x="3.4424939"
       dy="0"
       id="tspan11"
       style="stroke-width:0.99296147">K</tspan></text>
  <text
     transform="scale(-1)"
     font-size="40"
     xml:space="preserve"
     data-paper-data="{&quot;origRot&quot;:-45}"
     stroke-miterlimit="10"
     font-weight="normal"
     style="font-weight:normal;font-size:39.71846008px;font-family:Serif;text-anchor:start;mix-blend-mode:normal;fill:#000000;fill-rule:nonzero;stroke:none;stroke-width:0.99296147;stroke-linecap:butt;stroke-linejoin:miter;stroke-miterlimit:10;stroke-dasharray:none;stroke-dashoffset:0"
     id="text17"
     x="-235.32018"
     y="-299.94742"><tspan
       x="-235.32018"
       dy="0"
       id="tspan15"
       style="stroke-width:0.99296147">K</tspan></text>
  <g
     id="g23"
     style="mix-blend-mode:normal;fill:#000000;fill-rule:nonzero;stroke:#000000;stroke-linecap:butt;stroke-linejoin:miter;stroke-miterlimit:10;stroke-dasharray:none;stroke-dashoffset:0"
     transform="matrix(1.9859229,0,0,1.9859229,-356.94661,-193.20009)">
    <path
       d="m 195.29961,128.05446 c 0,0 3.96298,4.43397 -0.21349,6.7756 -3.48333,2.32165 -6.42655,-2.92795 -6.42655,-2.92795 0,0 -3.08613,5.38656 -6.28693,2.92795 -3.97679,-2.72809 -0.42292,-6.91522 -0.42292,-6.91522 l 6.64004,-7.0589 -0.0698,0.0698 z"
       data-paper-data="{&quot;origRot&quot;:0}"
       id="path19"
       inkscape:connector-curvature="0"
       style="stroke-width:1.5" />
    <path
       d="m 185.16321,137.94299 1.68521,-4.15409 c 0,0 1.02125,-8.64654 1.58939,-12.83275 0.0271,-0.19959 -0.0196,-0.10685 0.006,0.0929 0.42605,3.27208 1.67842,12.616 1.67842,12.616 l 2.09131,4.20815 z"
       id="path21"
       inkscape:connector-curvature="0"
       style="stroke-width:0.5" />
  </g>
  <g
     data-paper-data="{&quot;origRot&quot;:0}"
     id="g29"
     style="mix-blend-mode:normal;fill:#000000;fill-rule:nonzero;stroke:#000000;stroke-linecap:butt;stroke-linejoin:miter;stroke-miterlimit:10;stroke-dasharray:none;stroke-dashoffset:0"
     transform="matrix(1.9859229,0,0,1.9859229,-356.94661,-193.20009)">
    <path
       d="m 283.7641,234.27041 c 0,0 -3.96298,-4.43397 0.21349,-6.7756 3.48333,-2.32164 6.42655,2.92795 6.42655,2.92795 0,0 3.08614,-5.38656 6.28694,-2.92795 3.97679,2.72809 0.42292,6.91522 0.42292,6.91522 l -6.64004,7.0589 0.0698,-0.0698 z"
       data-paper-data="{&quot;origRot&quot;:0}"
       id="path25"
       inkscape:connector-curvature="0"
       style="stroke-width:1.5" />
    <path
       d="m 293.90047,224.38188 -1.68521,4.15409 c 0,0 -1.02125,8.64654 -1.58939,12.83275 -0.0271,0.19959 0.0195,0.10686 -0.006,-0.0929 -0.42606,-3.27208 -1.67842,-12.616 -1.67842,-12.616 l -2.0913,-4.20815 z"
       id="path27"
       inkscape:connector-curvature="0"
       style="stroke-width:0.5" />
  </g>
  <g
     id="g37"
     style="mix-blend-mode:normal;fill-rule:nonzero;stroke:none;stroke-width:0;stroke-linecap:butt;stroke-linejoin:miter;stroke-miterlimit:10;stroke-dasharray:none;stroke-dashoffset:0"
     transform="matrix(1.9859229,0,0,1.9859229,-356.94661,-193.20009)">
    <path
       d="m 197.60375,180 c 0,-23.61017 19.13983,-42.75 42.75,-42.75 23.61018,0 42.75,19.13983 42.75,42.75 0,23.61018 -19.13982,42.75 -42.75,42.75 -23.61017,0 -42.75,-19.13983 -42.75,-42.75 z"
       id="path31"
       inkscape:connector-curvature="0"
       style="fill:#02005e" />
    <path
       d="m 210.10375,180 c 0,-16.98275 13.76725,-30.75 30.75,-30.75 16.98275,0 30.75,13.76725 30.75,30.75 0,16.98275 -13.76725,30.75 -30.75,30.75 -16.98275,0 -30.75,-13.76725 -30.75,-30.75 z"
       id="path33"
       style="fill:url(#color-1)"
       inkscape:connector-curvature="0" />
    <path
       d="m 224.85372,180 c 0,-8.56042 6.93958,-15.5 15.5,-15.5 8.56042,0 15.5,6.93958 15.5,15.5 0,8.56042 -6.93958,15.5 -15.5,15.5 -8.56042,0 -15.5,-6.93958 -15.5,-15.5 z"
       id="path35"
       inkscape:connector-curvature="0"
       style="fill:#02005e" />
  </g>
  <g
     style="mix-blend-mode:normal;fill-rule:nonzero;stroke-linejoin:miter;stroke-miterlimit:10;stroke-dasharray:none;stroke-dashoffset:0"
     id="g59"
     transform="matrix(1.9859229,0,0,1.9859229,-356.94661,-193.20009)">
    <path
       d="m 249.59882,228.33859 -0.5,22.5 h -23.5 c 0,0 -9.6595,-15.95708 -5,-16.5 9.5,-1.10694 5,-13 5,-13 0,0 10.70524,0 15,0 3.23298,0 9,7 9,7 z"
       id="path39"
       inkscape:connector-curvature="0"
       style="fill:#ffb89a;stroke:#000000;stroke-width:0.5;stroke-linecap:butt" />
    <path
       d="m 281.89879,209.83859 c 0,0 -6.85095,5.04285 -9.27289,10.33289 -1.44816,3.16309 1.89953,5.77208 0.3167,9.22933 -2.21997,4.84889 -7.30327,7.39926 -8.49502,10.00228 -1.94262,4.2431 -1.54879,11.9355 -1.54879,11.9355 h -27 c 0,0 -0.51011,-7.43845 1.3755,-11.55701 1.40514,-3.06912 7.09456,-6.94336 9.78784,-12.82605 1.12073,-2.4479 -2.75788,-3.89728 -1.72807,-6.14659 2.5669,-5.60665 9.56474,-10.97036 9.56474,-10.97036 z"
       id="path41"
       inkscape:connector-curvature="0"
       style="fill:#cf8000;stroke:none;stroke-width:0;stroke-linecap:butt" />
    <path
       d="m 272.39879,209.83859 c 0,0 -6.85095,5.04285 -9.27289,10.33289 -1.44816,3.16309 1.89953,5.77208 0.3167,9.22933 -2.21997,4.84889 -7.30327,7.39926 -8.49502,10.00228 -1.94262,4.2431 -1.54879,11.9355 -1.54879,11.9355 h -7 c 0,0 -0.51011,-7.43845 1.3755,-11.55701 1.40514,-3.06912 7.09456,-6.94336 9.78784,-12.82605 1.12073,-2.4479 -2.75788,-3.89728 -1.72807,-6.14659 2.5669,-5.60665 9.56474,-10.97036 9.56474,-10.97036 z"
       id="path43"
       inkscape:connector-curvature="0"
       style="fill:#825000;stroke:none;stroke-width:0;stroke-linecap:butt" />
    <path
       d="m 225.49882,241.73859 c 0,-0.82843 0.91782,-1.5 2.05,-1.5 1.13218,0 2.05,0.67157 2.05,1.5 0,0.82843 -0.91782,1.5 -2.05,1.5 -1.13218,0 -2.05,-0.67157 -2.05,-1.5 z"
       id="path45"
       inkscape:connector-curvature="0"
       style="fill:#000000;stroke:#000000;stroke-width:0.5;stroke-linecap:butt" />
    <path
       d="m 224.0488,243.87859 5.4,1.4 2.2,0.8"
       id="path47"
       inkscape:connector-curvature="0"
       style="fill:none;stroke:#000000;stroke-width:0.5;stroke-linecap:round" />
    <path
       d="m 230.84882,228.07859 -4.2,1.8"
       id="path49"
       inkscape:connector-curvature="0"
       style="fill:none;stroke:#000000;stroke-width:0.5;stroke-linecap:round" />
    <path
       d="m 233.67897,229.67393 c 0.2237,0.33491 -0.61967,-0.10107 -1.84824,0.83702 -1.45453,1.39044 -2.24911,3.4166 -2.53221,3.6575 -1.74857,1.48795 -2.57289,-0.80412 -3.33541,-1.82082 0,0 -0.45,-0.6 0.15,-1.05 0.6,-0.45 1.05,0.15 1.05,0.15 0.76348,1.01797 0.88558,2.13349 1.06459,1.57918 0.36318,-1.12458 2.37107,-3.3937 3.52494,-3.85202 0.13333,-0.0333 1.50975,-0.12453 1.92633,0.49914 z"
       id="path51"
       inkscape:connector-curvature="0"
       style="fill:#000000;stroke:none;stroke-width:0.5;stroke-linecap:butt" />
    <path
       d="m 262.61619,250.70312 2.24547,12.57461 c 0,0 -7.78807,-6.35226 -11.67643,-3.59274 -5.69524,4.04184 -13.01891,4.04184 -18.41283,0.44909 -6.85945,-4.5689 -15.71827,3.14365 -15.71827,3.14365 l 3.59275,-12.57461 z"
       id="path53"
       inkscape:connector-curvature="0"
       style="fill:#ffe54a;stroke:#000000;stroke-width:1;stroke-linecap:butt" />
    <path
       d="m 240.95342,257.88524 c 0,0 -1.41838,-1.55756 0.0764,-2.38012 1.24671,-0.81554 2.30011,1.02853 2.30011,1.02853 0,0 1.10455,-1.89218 2.25014,-1.02852 1.42333,0.95831 0.15136,2.42916 0.15136,2.42916 l -2.37652,2.47963 0.025,-0.0245 z"
       data-paper-data="{&quot;origRot&quot;:0}"
       id="path55"
       inkscape:connector-curvature="0"
       style="fill:#000000;stroke:none;stroke-width:0;stroke-linecap:butt" />
    <path
       d="m 244.5813,254.41162 -0.60315,1.45924 c 0,0 -0.36551,3.03733 -0.56885,4.50786 -0.01,0.0701 0.007,0.0375 -0.002,-0.0326 -0.15249,-1.14941 -0.60072,-4.43172 -0.60072,-4.43172 l -0.74849,-1.47823 z"
       id="path57"
       inkscape:connector-curvature="0"
       style="fill:#000000;stroke:none;stroke-width:0;stroke-linecap:butt" />
  </g>
  <g
     style="mix-blend-mode:normal;fill-rule:nonzero;stroke-linejoin:miter;stroke-miterlimit:10;stroke-dasharray:none;stroke-dashoffset:0"
     id="g83"
     transform="matrix(1.9859229,0,0,1.9859229,-356.94661,-193.20009)">
    <path
       d="m 238.18746,133.7078 0.5,-22.5 h 23.5 c 0,0 9.6595,15.95708 5,16.5 -9.5,1.10694 -5,13 -5,13 0,0 -10.70524,0 -15,0 -3.23298,0 -9,-7 -9,-7 z"
       id="path61"
       inkscape:connector-curvature="0"
       style="fill:#ffb89a;stroke:#000000;stroke-width:0.5;stroke-linecap:butt" />
    <path
       d="m 205.88747,152.44439 c 0,0 6.85095,-5.04285 9.27289,-10.33289 1.44816,-3.16309 -1.89953,-5.77208 -0.3167,-9.22933 2.21997,-4.84889 7.30327,-7.39926 8.49502,-10.00228 1.94262,-4.2431 1.54879,-11.9355 1.54879,-11.9355 h 27 c 0,0 0.51011,7.43845 -1.3755,11.55701 -1.40514,3.06912 -7.09456,6.94336 -9.78784,12.82605 -1.12073,2.4479 2.75788,3.89728 1.72807,6.14659 -2.5669,5.60665 -9.56474,10.97036 -9.56474,10.97036 z"
       id="path63"
       inkscape:connector-curvature="0"
       style="fill:#cf8000;stroke:none;stroke-width:0;stroke-linecap:butt" />
    <path
       d="m 215.38747,152.2078 c 0,0 6.85095,-5.04285 9.27289,-10.33289 1.44816,-3.16309 -1.89953,-5.77208 -0.3167,-9.22933 2.21997,-4.84889 7.30327,-7.39926 8.49502,-10.00228 1.94262,-4.2431 1.54879,-11.9355 1.54879,-11.9355 h 7 c 0,0 0.51011,7.43845 -1.3755,11.55701 -1.40514,3.06912 -7.09456,6.94336 -9.78784,12.82605 -1.12073,2.4479 2.75788,3.89728 1.72807,6.14659 -2.5669,5.60665 -9.56474,10.97036 -9.56474,10.97036 z"
       id="path65"
       inkscape:connector-curvature="0"
       style="fill:#825000;stroke:none;stroke-width:0;stroke-linecap:butt" />
    <path
       d="m 261.95413,120.3078 c 0,0.82843 -0.91782,1.5 -2.05,1.5 -1.13218,0 -2.05,-0.67157 -2.05,-1.5 0,-0.82843 0.91782,-1.5 2.05,-1.5 1.13218,0 2.05,0.67157 2.05,1.5 z"
       id="path67"
       inkscape:connector-curvature="0"
       style="fill:#000000;stroke:#000000;stroke-width:0.5;stroke-linecap:butt" />
    <path
       d="m 263.4041,118.1678 -5.4,-1.4 -2.2,-0.8"
       id="path69"
       inkscape:connector-curvature="0"
       style="fill:none;stroke:#000000;stroke-width:0.5;stroke-linecap:round" />
    <path
       d="m 256.60412,133.9678 4.2,-1.8"
       id="path71"
       inkscape:connector-curvature="0"
       style="fill:none;stroke:#000000;stroke-width:0.5;stroke-linecap:round" />
    <path
       d="m 253.77398,132.37246 c -0.2237,-0.33491 0.61967,0.10107 1.84824,-0.83702 1.45453,-1.39044 2.24911,-3.4166 2.53221,-3.6575 1.74857,-1.48795 2.57289,0.80412 3.33541,1.82082 0,0 0.45,0.6 -0.15,1.05 -0.6,0.45 -1.05,-0.15 -1.05,-0.15 -0.76348,-1.01797 -0.88558,-2.13349 -1.06459,-1.57918 -0.36318,1.12458 -2.37107,3.3937 -3.52494,3.85202 -0.13333,0.0333 -1.50975,0.12453 -1.92633,-0.49914 z"
       id="path73"
       inkscape:connector-curvature="0"
       style="fill:#000000;stroke:none;stroke-width:0.5;stroke-linecap:butt" />
    <path
       d="m 224.83675,111.34327 -2.24547,-12.57461 c 0,0 7.78808,6.35226 11.67643,3.59274 5.69524,-4.04184 13.01891,-4.04184 18.41284,-0.44909 6.85945,4.56889 15.71827,-3.14365 15.71827,-3.14365 l -3.59275,12.57461 z"
       id="path75"
       inkscape:connector-curvature="0"
       style="fill:#ffe54a;stroke:#000000;stroke-width:1;stroke-linecap:butt" />
    <g
       id="g81"
       style="fill:#000000;stroke:none;stroke-width:0;stroke-linecap:butt">
      <path
         d="m 246.49952,104.16115 c 0,0 1.41838,1.55756 -0.0764,2.38012 -1.24671,0.81555 -2.30012,-1.02852 -2.30012,-1.02852 0,0 -1.10455,1.89218 -2.25014,1.02852 -1.42333,-0.95831 -0.15136,-2.42916 -0.15136,-2.42916 l 2.37652,-2.47963 -0.025,0.0245 z"
         data-paper-data="{&quot;origRot&quot;:0}"
         id="path77"
         inkscape:connector-curvature="0" />
      <path
         d="m 242.87163,107.63477 0.60315,-1.45924 c 0,0 0.36551,-3.03733 0.56885,-4.50786 0.01,-0.0701 -0.007,-0.0375 0.002,0.0326 0.15249,1.14941 0.60072,4.43172 0.60072,4.43172 l 0.7485,1.47823 z"
         id="path79"
         inkscape:connector-curvature="0" />
    </g>
  </g>
  <g
     id="g125"
     style="mix-blend-mode:normal;fill-rule:nonzero;stroke-linecap:butt;stroke-linejoin:miter;stroke-miterlimit:10;stroke-dasharray:none;stroke-dashoffset:0"
     transform="matrix(1.9859229,0,0,1.9859229,-356.94661,-193.20009)">
    <g
       id="g103">
      <g
         id="g93"
         style="stroke:#000000;stroke-width:0.5">
        <path
           d="m 283.06343,161.16805 c 0,0 0,-25.02751 0,-31.52124 0,-2.90408 3.36019,-6.30425 3.36019,-6.30425 v 37.82549 z"
           id="path85"
           inkscape:connector-curvature="0"
           style="fill:#d0d0d0" />
        <path
           d="m 286.29492,161.23957 v -37.82549 c 0,0 3.36019,3.40017 3.36019,6.30425 0,6.49373 0,31.52124 0,31.52124 z"
           data-paper-data="{&quot;index&quot;:null}"
           id="path87"
           inkscape:connector-curvature="0"
           style="fill:#dedede" />
        <path
           d="m 278.99584,164.32018 v -2.88944 h 14.325 v 2.88944 z"
           id="path89"
           inkscape:connector-curvature="0"
           style="fill:#dedede" />
        <path
           d="m 283.59398,176.92867 v -12.6085 h 5.48241 v 12.6085 z"
           id="path91"
           inkscape:connector-curvature="0"
           style="fill:#b06c00" />
      </g>
      <path
         d="m 289.82522,174.7325 c 0,5.00726 -2.30021,9.06646 -5.13766,9.06646 -2.83745,0 -5.13765,-4.05919 -5.13765,-9.06646 0,-1.42074 -0.60856,-3.57991 -0.0327,-7.23416 0.45374,-2.87945 4.18062,-4.05039 4.58501,-3.31596 1.45687,2.64585 -1.87372,4.667 -0.47573,6.61237 1.65584,2.30419 6.19877,-1.06951 6.19877,3.93775 z"
         id="path95"
         inkscape:connector-curvature="0"
         style="fill:#ffb89a;stroke:#000000;stroke-width:0.5" />
      <g
         id="g101"
         style="fill:#000000;stroke:none;stroke-width:0">
        <path
           d="m 287.67354,167.44651 c 0,0 0.78166,0.85835 -0.0421,1.31166 -0.68705,0.44944 -1.26758,-0.56681 -1.26758,-0.56681 0,0 -0.6087,1.04277 -1.24003,0.56681 -0.78438,-0.52812 -0.0834,-1.33868 -0.0834,-1.33868 l 1.30968,-1.3665 -0.0138,0.0135 z"
           data-paper-data="{&quot;origRot&quot;:0}"
           id="path97"
           inkscape:connector-curvature="0" />
        <path
           d="m 285.67424,169.36078 0.3324,-0.80417 c 0,0 0.20142,-1.67384 0.31348,-2.48424 0.005,-0.0386 -0.004,-0.0207 0.001,0.018 0.084,0.63343 0.33105,2.44228 0.33105,2.44228 l 0.41249,0.81464 z"
           id="path99"
           inkscape:connector-curvature="0" />
      </g>
    </g>
    <g
       data-paper-data="{&quot;index&quot;:null}"
       id="g123">
      <g
         id="g113"
         style="stroke:#000000;stroke-width:0.5">
        <path
           d="m 197.45325,200.77347 c 0,0 0,25.02751 0,31.52124 0,2.90409 -3.36019,6.30425 -3.36019,6.30425 v -37.82549 z"
           id="path105"
           inkscape:connector-curvature="0"
           style="fill:#d0d0d0" />
        <path
           d="m 194.22177,200.70195 v 37.8255 c 0,0 -3.36019,-3.40017 -3.36019,-6.30425 0,-6.49373 0,-31.52124 0,-31.52124 z"
           data-paper-data="{&quot;index&quot;:null}"
           id="path107"
           inkscape:connector-curvature="0"
           style="fill:#dedede" />
        <path
           d="m 201.52084,197.62134 v 2.88944 h -14.325 v -2.88944 z"
           id="path109"
           inkscape:connector-curvature="0"
           style="fill:#dedede" />
        <path
           d="m 196.9227,185.01285 v 12.6085 h -5.48241 v -12.6085 z"
           id="path111"
           inkscape:connector-curvature="0"
           style="fill:#b06c00" />
      </g>
      <path
         d="m 190.69147,187.20902 c 0,-5.00726 2.30021,-9.06645 5.13766,-9.06645 2.83745,0 5.13765,4.05919 5.13765,9.06645 0,1.42074 0.60856,3.57991 0.0327,7.23417 -0.45374,2.87945 -4.18062,4.05039 -4.58501,3.31595 -1.45687,-2.64585 1.87371,-4.667 0.47573,-6.61237 -1.65584,-2.30419 -6.19877,1.06951 -6.19877,-3.93775 z"
         id="path115"
         inkscape:connector-curvature="0"
         style="fill:#ffb89a;stroke:#000000;stroke-width:0.5" />
      <g
         id="g121"
         style="fill:#000000;stroke:none;stroke-width:0">
        <path
           d="m 192.84314,194.49501 c 0,0 -0.78166,-0.85836 0.0421,-1.31166 0.68705,-0.44944 1.26757,0.56681 1.26757,0.56681 0,0 0.6087,-1.04277 1.24003,-0.56681 0.78438,0.52812 0.0834,1.33868 0.0834,1.33868 l -1.30968,1.36651 0.0138,-0.0135 z"
           data-paper-data="{&quot;origRot&quot;:0}"
           id="path117"
           inkscape:connector-curvature="0" />
        <path
           d="m 194.84244,192.58074 -0.3324,0.80417 c 0,0 -0.20142,1.67385 -0.31348,2.48424 -0.005,0.0386 0.004,0.0207 -0.001,-0.018 -0.084,-0.63343 -0.33105,-2.44228 -0.33105,-2.44228 l -0.41249,-0.81464 z"
           id="path119"
           inkscape:connector-curvature="0" />
      </g>
    </g>
  </g>
</svg>
