<?xml version="1.0" encoding="UTF-8" standalone="no"?>
<svg
   xmlns:dc="http://purl.org/dc/elements/1.1/"
   xmlns:cc="http://creativecommons.org/ns#"
   xmlns:rdf="http://www.w3.org/1999/02/22-rdf-syntax-ns#"
   xmlns:svg="http://www.w3.org/2000/svg"
   xmlns="http://www.w3.org/2000/svg"
   xmlns:sodipodi="http://sodipodi.sourceforge.net/DTD/sodipodi-0.dtd"
   xmlns:inkscape="http://www.inkscape.org/namespaces/inkscape"
   version="1.1"
   width="63mm"
   height="88mm"
   viewBox="0 0 238.11023 332.59842"
   id="svg213"
   sodipodi:docname="SQ.svg"
   inkscape:version="0.92.3 (2405546, 2018-03-11)">
  <metadata
     id="metadata217">
    <rdf:RDF>
      <cc:Work
         rdf:about="">
        <dc:format>image/svg+xml</dc:format>
        <dc:type
           rdf:resource="http://purl.org/dc/dcmitype/StillImage" />
        <dc:title></dc:title>
      </cc:Work>
    </rdf:RDF>
  </metadata>
  <sodipodi:namedview
     pagecolor="#ffffff"
     bordercolor="#666666"
     borderopacity="1"
     objecttolerance="10"
     gridtolerance="10"
     guidetolerance="10"
     inkscape:pageopacity="0"
     inkscape:pageshadow="2"
     inkscape:window-width="1920"
     inkscape:window-height="1018"
     id="namedview215"
     showgrid="false"
     units="mm"
     inkscape:zoom="1.232376"
     inkscape:cx="109.88771"
     inkscape:cy="95.75"
     inkscape:window-x="0"
     inkscape:window-y="0"
     inkscape:window-maximized="1"
     inkscape:current-layer="svg213" />
  <defs
     id="defs67">
    <radialGradient
       cx="240.00003"
       cy="179.33333"
       r="27.56727"
       gradientUnits="userSpaceOnUse"
       id="color-1">
      <stop
         offset="0"
         stop-color="#000000"
         id="stop2" />
      <stop
         offset="1"
         stop-color="#ffffff"
         id="stop4" />
    </radialGradient>
    <linearGradient
       x1="273.13943"
       y1="138.70317"
       x2="276.01846"
       y2="145.08788"
       gradientUnits="userSpaceOnUse"
       id="color-2">
      <stop
         offset="0"
         stop-color="#ff0000"
         id="stop7" />
      <stop
         offset="1"
         stop-color="#000000"
         id="stop9" />
    </linearGradient>
    <linearGradient
       x1="273.11313"
       y1="138.7093"
       x2="276.4808"
       y2="146.1777"
       gradientUnits="userSpaceOnUse"
       id="color-3">
      <stop
         offset="0"
         stop-color="#ff0000"
         id="stop12" />
      <stop
         offset="1"
         stop-color="#000000"
         id="stop14" />
    </linearGradient>
    <linearGradient
       x1="281.17776"
       y1="141.26566"
       x2="284.42981"
       y2="148.47762"
       gradientUnits="userSpaceOnUse"
       id="color-4">
      <stop
         offset="0"
         stop-color="#000000"
         id="stop17" />
      <stop
         offset="1"
         stop-color="#00ab24"
         id="stop19" />
    </linearGradient>
    <linearGradient
       x1="281.56143"
       y1="143.54977"
       x2="282.95016"
       y2="146.62956"
       gradientUnits="userSpaceOnUse"
       id="color-5">
      <stop
         offset="0"
         stop-color="#000000"
         id="stop22" />
      <stop
         offset="1"
         stop-color="#00ab24"
         id="stop24" />
    </linearGradient>
    <linearGradient
       x1="273.0824"
       y1="153.75282"
       x2="269.83035"
       y2="146.54083"
       gradientUnits="userSpaceOnUse"
       id="color-6">
      <stop
         offset="0"
         stop-color="#00ab24"
         id="stop27" />
      <stop
         offset="1"
         stop-color="#000000"
         id="stop29" />
    </linearGradient>
    <linearGradient
       x1="272.69873"
       y1="151.46869"
       x2="271.31"
       y2="148.38892"
       gradientUnits="userSpaceOnUse"
       id="color-7">
      <stop
         offset="0"
         stop-color="#00ab24"
         id="stop32" />
      <stop
         offset="1"
         stop-color="#000000"
         id="stop34" />
    </linearGradient>
    <linearGradient
       x1="207.63956"
       y1="221.35983"
       x2="204.76054"
       y2="214.97514"
       gradientUnits="userSpaceOnUse"
       id="color-8">
      <stop
         offset="0"
         stop-color="#ff0000"
         id="stop37" />
      <stop
         offset="1"
         stop-color="#000000"
         id="stop39" />
    </linearGradient>
    <linearGradient
       x1="207.66585"
       y1="221.35371"
       x2="204.29819"
       y2="213.8853"
       gradientUnits="userSpaceOnUse"
       id="color-9">
      <stop
         offset="0"
         stop-color="#ff0000"
         id="stop42" />
      <stop
         offset="1"
         stop-color="#000000"
         id="stop44" />
    </linearGradient>
    <linearGradient
       x1="199.60121"
       y1="218.79736"
       x2="196.34917"
       y2="211.58539"
       gradientUnits="userSpaceOnUse"
       id="color-10">
      <stop
         offset="0"
         stop-color="#000000"
         id="stop47" />
      <stop
         offset="1"
         stop-color="#00ab24"
         id="stop49" />
    </linearGradient>
    <linearGradient
       x1="199.21754"
       y1="216.51323"
       x2="197.8288"
       y2="213.43346"
       gradientUnits="userSpaceOnUse"
       id="color-11">
      <stop
         offset="0"
         stop-color="#000000"
         id="stop52" />
      <stop
         offset="1"
         stop-color="#00ab24"
         id="stop54" />
    </linearGradient>
    <linearGradient
       x1="207.69659"
       y1="206.3102"
       x2="210.94864"
       y2="213.52217"
       gradientUnits="userSpaceOnUse"
       id="color-12">
      <stop
         offset="0"
         stop-color="#00ab24"
         id="stop57" />
      <stop
         offset="1"
         stop-color="#000000"
         id="stop59" />
    </linearGradient>
    <linearGradient
       x1="208.08026"
       y1="208.59431"
       x2="209.46899"
       y2="211.6741"
       gradientUnits="userSpaceOnUse"
       id="color-13">
      <stop
         offset="0"
         stop-color="#00ab24"
         id="stop62" />
      <stop
         offset="1"
         stop-color="#000000"
         id="stop64" />
    </linearGradient>
  </defs>
  <g
     id="g77"
     style="mix-blend-mode:normal;fill-rule:nonzero;stroke:none;stroke-width:0;stroke-linecap:butt;stroke-linejoin:miter;stroke-miterlimit:10;stroke-dasharray:none;stroke-dashoffset:0"
     transform="matrix(2.0027389,0,0,2.0027332,-363.12524,-194.45148)">
    <path
       d="m 201.6748,179.33333 c 0,-23.61017 17.15879,-42.75 38.32523,-42.75 21.16645,0 38.32523,19.13983 38.32523,42.75 0,23.61018 -17.15878,42.75 -38.32523,42.75 -21.16644,0 -38.32523,-19.13983 -38.32523,-42.75 z"
       id="path71"
       inkscape:connector-curvature="0"
       style="fill:#020084" />
    <path
       d="m 212.43276,179.33333 c 0,-16.98275 12.34229,-30.75 27.56727,-30.75 15.22498,0 27.56727,13.76725 27.56727,30.75 0,16.98275 -12.34229,30.75 -27.56727,30.75 -15.22498,0 -27.56727,-13.76725 -27.56727,-30.75 z"
       id="path73"
       style="fill:url(#color-1)"
       inkscape:connector-curvature="0" />
    <path
       d="m 226.10429,179.33333 c 0,-8.56042 6.22131,-15.5 13.8957,-15.5 7.67439,0 13.8957,6.93958 13.8957,15.5 0,8.56042 -6.22131,15.5 -13.8957,15.5 -7.67439,0 -13.8957,-6.93958 -13.8957,-15.5 z"
       id="path75"
       inkscape:connector-curvature="0"
       style="fill:#020084" />
  </g>
  <text
     font-size="40"
     xml:space="preserve"
     stroke-miterlimit="10"
     font-weight="normal"
     style="font-weight:normal;font-size:40.05472183px;font-family:Serif;text-anchor:start;mix-blend-mode:normal;fill:#000000;fill-rule:nonzero;stroke:none;stroke-width:1.00136805;stroke-linecap:butt;stroke-linejoin:miter;stroke-miterlimit:10;stroke-dasharray:none;stroke-dashoffset:0"
     id="text81"
     x="0.31548008"
     y="37.268616"
     transform="scale(1.0000014,0.99999858)"><tspan
       x="0.31548008"
       dy="0"
       id="tspan79"
       style="stroke-width:1.00136805">Q</tspan></text>
  <text
     transform="scale(-1.0000014,-0.99999858)"
     font-size="40"
     xml:space="preserve"
     data-paper-data="{&quot;origRot&quot;:-45}"
     stroke-miterlimit="10"
     font-weight="normal"
     style="font-weight:normal;font-size:40.05472183px;font-family:Serif;text-anchor:start;mix-blend-mode:normal;fill:#000000;fill-rule:nonzero;stroke:none;stroke-width:1.00136805;stroke-linecap:butt;stroke-linejoin:miter;stroke-miterlimit:10;stroke-dasharray:none;stroke-dashoffset:0"
     id="text85"
     x="-234.15623"
     y="-302.87079"><tspan
       x="-234.15623"
       dy="0"
       id="tspan83"
       style="stroke-width:1.00136805">Q</tspan></text>
  <g
     data-paper-data="{&quot;origRot&quot;:0}"
     id="g91"
     style="mix-blend-mode:normal;fill:#000000;fill-rule:nonzero;stroke:#000000;stroke-linecap:butt;stroke-linejoin:miter;stroke-miterlimit:10;stroke-dasharray:none;stroke-dashoffset:0"
     transform="matrix(2.0027389,0,0,2.0027332,-363.12524,-194.45148)">
    <path
       d="m 283.7641,234.27041 c 0,0 -3.96298,-4.43397 0.21349,-6.7756 3.48333,-2.32164 6.42655,2.92795 6.42655,2.92795 0,0 3.08614,-5.38656 6.28694,-2.92795 3.97679,2.72809 0.42292,6.91522 0.42292,6.91522 l -6.64004,7.0589 0.0698,-0.0698 z"
       data-paper-data="{&quot;origRot&quot;:0}"
       id="path87"
       inkscape:connector-curvature="0"
       style="stroke-width:1.5" />
    <path
       d="m 293.90047,224.38188 -1.68521,4.15409 c 0,0 -1.02125,8.64654 -1.58939,12.83275 -0.0271,0.19959 0.0195,0.10686 -0.006,-0.0929 -0.42606,-3.27208 -1.67842,-12.616 -1.67842,-12.616 l -2.0913,-4.20815 z"
       id="path89"
       inkscape:connector-curvature="0"
       style="stroke-width:0.5" />
  </g>
  <g
     style="mix-blend-mode:normal;fill-rule:nonzero;stroke-linejoin:miter;stroke-miterlimit:10;stroke-dasharray:none;stroke-dashoffset:0"
     id="g115"
     transform="matrix(2.0027389,0,0,2.0027332,-363.12524,-194.45148)">
    <path
       d="m 244.49762,222.92164 1.66071,24.85714 h -23.5 c 0,0 -9.6595,-15.95708 -5,-16.5 6.91235,-0.80543 6.41276,-7.32129 5.62774,-10.81117 -0.29387,-1.30644 0.15104,-2.18883 1.37277,-2.18883 3.30792,0 6.1131,0.875 9.24949,0.875 3.23298,0 10.58929,3.76786 10.58929,3.76786 z"
       id="path93"
       inkscape:connector-curvature="0"
       style="fill:#ffb89a;stroke:#000000;stroke-width:0.5;stroke-linecap:butt" />
    <path
       d="m 279.08332,206.77878 c 0,0 -6.85095,5.04285 -9.27289,10.33289 -1.44816,3.16309 1.89953,5.77208 0.3167,9.22933 -2.21997,4.84889 -7.30327,7.39926 -8.49502,10.00228 -1.94262,4.2431 -1.54879,11.9355 -1.54879,11.9355 h -27 c 0,0 -0.51011,-7.43845 1.3755,-11.55701 1.40514,-3.06912 7.09456,-6.94336 9.78784,-12.82605 1.12073,-2.4479 -2.75788,-3.89728 -1.72807,-6.14659 2.5669,-5.60665 9.56474,-10.97036 9.56474,-10.97036 z"
       id="path95"
       inkscape:connector-curvature="0"
       style="fill:#573600;stroke:none;stroke-width:0;stroke-linecap:butt" />
    <path
       d="m 269.58332,206.77878 c 0,0 -6.85095,5.04285 -9.27289,10.33289 -1.44816,3.16309 1.89953,5.77208 0.3167,9.22933 -2.21997,4.84889 -7.30327,7.39926 -8.49502,10.00228 -1.94262,4.2431 -1.54879,11.9355 -1.54879,11.9355 h -7 c 0,0 -0.51011,-7.43845 1.3755,-11.55701 1.40514,-3.06912 7.09456,-6.94336 9.78784,-12.82605 1.12073,-2.4479 -2.75788,-3.89728 -1.72807,-6.14659 2.5669,-5.60665 9.56474,-10.97036 9.56474,-10.97036 z"
       id="path97"
       inkscape:connector-curvature="0"
       style="fill:#825000;stroke:none;stroke-width:0;stroke-linecap:butt" />
    <path
       d="m 222.68334,238.67878 c 0,-0.82843 0.91782,-1.5 2.05,-1.5 1.13218,0 2.05,0.67157 2.05,1.5 0,0.82843 -0.91782,1.5 -2.05,1.5 -1.13218,0 -2.05,-0.67157 -2.05,-1.5 z"
       id="path99"
       inkscape:connector-curvature="0"
       style="fill:#000000;stroke:#000000;stroke-width:0.5;stroke-linecap:butt" />
    <path
       d="m 229.95833,241.01878 -3.45,2.575 -3.775,0.1"
       id="path101"
       inkscape:connector-curvature="0"
       style="fill:none;stroke:#000000;stroke-width:0.5;stroke-linecap:round" />
    <path
       d="m 223.83333,226.81878 c 0,0 1.99736,-0.97312 2.95236,-0.96028 0.90009,0.0121 2.87264,1.66028 2.87264,1.66028"
       id="path103"
       inkscape:connector-curvature="0"
       style="fill:none;stroke:#000000;stroke-width:0.5;stroke-linecap:round" />
    <path
       d="m 221.28383,241.49622 c 0,0 0.30535,-0.875 1.17073,-1.375 0.58873,-0.34015 1.82927,0 1.82927,0"
       id="path105"
       inkscape:connector-curvature="0"
       style="fill:none;stroke:#000000;stroke-width:0.5;stroke-linecap:round" />
    <path
       d="m 260.06998,247.92758 c 0,0 -5.5426,6.22235 -9.43096,8.98187 -5.69524,4.04184 -13.01891,4.04184 -18.41283,0.44909 -6.85945,-4.5689 -15.71827,3.14365 -15.71827,3.14365 l 3.59275,-12.57461 z"
       id="path107"
       inkscape:connector-curvature="0"
       style="fill:#ffe54a;stroke:#000000;stroke-width:1;stroke-linecap:butt" />
    <path
       d="m 224.74798,249.08395 -0.60315,1.45924 c 0,0 -0.36551,3.03733 -0.56885,4.50786 -0.01,0.0701 0.007,0.0375 -0.002,-0.0326 -0.15249,-1.14941 -0.60072,-4.43172 -0.60072,-4.43172 l -0.7485,-1.47823 z"
       id="path109"
       inkscape:connector-curvature="0"
       style="fill:#000000;stroke:none;stroke-width:0;stroke-linecap:butt" />
    <path
       d="m 221.12009,252.55757 c 0,0 -1.41838,-1.55756 0.0764,-2.38012 1.24671,-0.81555 2.30012,1.02852 2.30012,1.02852 0,0 1.10455,-1.89218 2.25014,-1.02852 1.42333,0.95831 0.15136,2.42916 0.15136,2.42916 0,0 -0.76417,0.79733 -1.15447,1.20456 -0.40156,0.41898 -1.22205,1.27507 -1.22205,1.27507 l 0.025,-0.0245 z"
       data-paper-data="{&quot;origRot&quot;:0}"
       id="path111"
       inkscape:connector-curvature="0"
       style="fill:#000000;stroke:none;stroke-width:0;stroke-linecap:butt" />
    <path
       d="m 238.42998,220.34637 5.33333,4.44047"
       id="path113"
       inkscape:connector-curvature="0"
       style="fill:none;stroke:#000000;stroke-width:0.5;stroke-linecap:round" />
  </g>
  <g
     style="mix-blend-mode:normal;fill-rule:nonzero;stroke-linejoin:miter;stroke-miterlimit:10;stroke-dasharray:none;stroke-dashoffset:0"
     id="g139"
     transform="matrix(2.0027389,0,0,2.0027332,-363.12524,-194.45148)">
    <path
       d="m 236.89329,135.68549 -1.66071,-24.85714 h 23.5 c 0,0 9.6595,15.95708 5,16.5 -6.91235,0.80543 -6.41276,7.32129 -5.62774,10.81117 0.29387,1.30644 -0.15104,2.18883 -1.37277,2.18883 -3.30792,0 -6.1131,-0.875 -9.24949,-0.875 -3.23298,0 -10.58929,-3.76786 -10.58929,-3.76786 z"
       id="path117"
       inkscape:connector-curvature="0"
       style="fill:#ffb89a;stroke:#000000;stroke-width:0.5;stroke-linecap:butt" />
    <path
       d="m 202.30758,152.30154 c 0,0 6.85095,-5.04285 9.27289,-10.33289 1.44816,-3.16309 -1.89953,-5.77208 -0.3167,-9.22933 2.21997,-4.84889 7.30327,-7.39926 8.49502,-10.00228 1.94262,-4.2431 1.54879,-11.9355 1.54879,-11.9355 h 27 c 0,0 0.51011,7.43845 -1.3755,11.55701 -1.40514,3.06912 -7.09456,6.94336 -9.78784,12.82605 -1.12073,2.4479 2.75788,3.89728 1.72807,6.14659 -2.5669,5.60665 -9.56474,10.97036 -9.56474,10.97036 z"
       id="path119"
       inkscape:connector-curvature="0"
       style="fill:#573600;stroke:none;stroke-width:0;stroke-linecap:butt" />
    <path
       d="m 211.80758,152.30154 c 0,0 6.85095,-5.04285 9.27289,-10.33289 1.44816,-3.16309 -1.89953,-5.77208 -0.3167,-9.22933 2.21997,-4.84889 7.30327,-7.39926 8.49502,-10.00228 1.94262,-4.2431 1.54879,-11.9355 1.54879,-11.9355 h 7 c 0,0 0.51011,7.43845 -1.3755,11.55701 -1.40514,3.06912 -7.09456,6.94336 -9.78784,12.82605 -1.12073,2.4479 2.75788,3.89728 1.72807,6.14659 -2.5669,5.60665 -9.56474,10.97036 -9.56474,10.97036 z"
       id="path121"
       inkscape:connector-curvature="0"
       style="fill:#825000;stroke:none;stroke-width:0;stroke-linecap:butt" />
    <path
       d="m 258.70757,119.92836 c 0,0.82843 -0.91782,1.5 -2.05,1.5 -1.13218,0 -2.05,-0.67157 -2.05,-1.5 0,-0.82843 0.91782,-1.5 2.05,-1.5 1.13218,0 2.05,0.67157 2.05,1.5 z"
       id="path123"
       inkscape:connector-curvature="0"
       style="fill:#000000;stroke:#000000;stroke-width:0.5;stroke-linecap:butt" />
    <path
       d="m 251.43256,118.06154 3.45,-2.575 3.775,-0.1"
       id="path125"
       inkscape:connector-curvature="0"
       style="fill:none;stroke:#000000;stroke-width:0.5;stroke-linecap:round" />
    <path
       d="m 257.55753,131.78836 c 0,0 -1.99736,0.97312 -2.95236,0.96028 -0.90009,-0.0121 -2.87264,-1.66028 -2.87264,-1.66028"
       id="path127"
       inkscape:connector-curvature="0"
       style="fill:none;stroke:#000000;stroke-width:0.5;stroke-linecap:round" />
    <path
       d="m 260.10706,117.5841 c 0,0 -0.30535,0.875 -1.17073,1.375 -0.58873,0.34015 -1.82927,0 -1.82927,0"
       id="path129"
       inkscape:connector-curvature="0"
       style="fill:none;stroke:#000000;stroke-width:0.5;stroke-linecap:round" />
    <path
       d="m 221.32089,111.15273 c 0,0 5.5426,-6.22235 9.43096,-8.98187 5.69524,-4.04184 13.01891,-4.04184 18.41283,-0.44909 6.85945,4.5689 15.71827,-3.14365 15.71827,-3.14365 l -3.59275,12.57461 z"
       id="path131"
       inkscape:connector-curvature="0"
       style="fill:#ffe54a;stroke:#000000;stroke-width:1;stroke-linecap:butt" />
    <path
       d="m 256.64288,109.99636 0.60315,-1.45924 c 0,0 0.36551,-3.03733 0.56885,-4.50786 0.01,-0.0701 -0.007,-0.0375 0.002,0.0326 0.15249,1.14941 0.60072,4.43172 0.60072,4.43172 l 0.7485,1.47823 z"
       id="path133"
       inkscape:connector-curvature="0"
       style="fill:#000000;stroke:none;stroke-width:0;stroke-linecap:butt" />
    <path
       d="m 260.2708,106.52274 c 0,0 1.41838,1.55756 -0.0764,2.38012 -1.24671,0.81555 -2.30012,-1.02852 -2.30012,-1.02852 0,0 -1.10455,1.89218 -2.25014,1.02852 -1.42333,-0.95831 -0.15136,-2.42916 -0.15136,-2.42916 0,0 0.76417,-0.79733 1.15447,-1.20456 0.40156,-0.41898 1.22205,-1.27507 1.22205,-1.27507 l -0.025,0.0245 z"
       data-paper-data="{&quot;origRot&quot;:0}"
       id="path135"
       inkscape:connector-curvature="0"
       style="fill:#000000;stroke:none;stroke-width:0;stroke-linecap:butt" />
    <path
       d="m 242.96093,138.26076 -5.33334,-4.44047"
       id="path137"
       inkscape:connector-curvature="0"
       style="fill:none;stroke:#000000;stroke-width:0.5;stroke-linecap:round" />
  </g>
  <g
     id="g201"
     style="mix-blend-mode:normal;fill-rule:nonzero;stroke-linecap:butt;stroke-linejoin:miter;stroke-miterlimit:10;stroke-dasharray:none;stroke-dashoffset:0"
     transform="matrix(2.0027389,0,0,2.0027332,-363.12524,-194.45148)">
    <g
       id="g169">
      <path
         d="m 288.13124,155.26127 c 0,0 0.19544,3.19942 -2.3535,2.79499 -2.24904,-0.18136 -1.74066,-3.38521 -1.74066,-3.38521 0,0 -3.10475,1.24787 -3.63757,-0.86134 -0.77108,-2.4824 2.13091,-3.06663 2.13091,-3.06663 l 5.16677,-0.76825 -0.0528,0.006 z"
         data-paper-data="{&quot;origRot&quot;:0}"
         id="path141"
         inkscape:connector-curvature="0"
         style="fill:#00ab25;stroke:none;stroke-width:0" />
      <path
         d="m 278.44184,148.50723 c 0,-0.006 1.2e-4,-0.0128 3.6e-4,-0.0192 4e-5,-0.14826 0.0544,-0.35074 0.32215,-0.44843 0.0126,-0.005 0.0254,-0.009 0.0385,-0.0128 0.2729,-0.0827 0.43798,0.0465 0.52706,0.16513 0.002,0.002 0.004,0.004 0.005,0.007 l 0.36075,0.45094 -0.14181,0.11345 0.0439,0.1317 -0.0416,0.0139 c 0.20454,1.16496 -0.0752,2.37758 0.006,3.57304 l 0.0945,0.1891 c 0.0366,0.0695 0.0573,0.14862 0.0573,0.2326 0,0.0884 -0.023,0.17154 -0.0633,0.24362 0.0329,0.15892 0.075,0.31731 0.12852,0.47503 0.0303,0.0909 0.0606,0.18182 0.0909,0.27273 l 0.11445,0.47579 c 0,0 0.0152,0.16488 -0.0667,0.31363 0.2932,1.04875 0.55612,2.03247 0.91001,2.66226 1.52659,3.05318 1.88121,6.12907 1.8857,9.53063 0.001,1.11988 4.2e-4,2.23976 4.2e-4,3.35964 l -0.0149,0.21207 c 0,0 0.12127,0.48507 -0.3638,0.60634 -0.48507,0.12127 -0.60634,-0.3638 -0.60634,-0.3638 l -0.0149,-0.4546 c 0,-1.11949 8.9e-4,-2.23899 -4.2e-4,-3.35848 -0.003,-3.29502 -0.31098,-6.1463 -1.78013,-9.08458 -0.17751,-0.49453 -0.67411,-0.69914 -0.88612,-1.22361 -0.63347,-1.5671 -0.38036,-4.7145 -2.05694,-5.55279 0,0 -0.0229,-0.0114 -0.0557,-0.0343 l -0.43921,-0.0732 9.5e-4,-0.006 c -0.29642,0.0268 -0.59915,-0.12915 -1.03646,-0.49334 l -0.18182,-0.22727 c 0,0 -0.10957,0.18765 -0.10957,-0.31235 0,-0.37476 0.50023,-0.36321 0.75083,-0.33391 0.0644,-0.20177 0.25334,-0.34791 0.47645,-0.34791 0.097,0 0.18762,0.0276 0.26429,0.0755 l 0.18651,0.11191 c 0.2655,-0.14349 0.63357,-0.31839 0.88915,-0.37082 l 0.30649,-0.30649 v 0 c 0.0905,-0.0905 0.21548,-0.14645 0.35355,-0.14645 0.0161,0 0.032,7.6e-4 0.0477,0.002 -10e-4,-0.0157 -0.002,-0.0316 -0.002,-0.0477 z m -0.2275,1.68453 c 0.007,-0.006 0.0144,-0.0111 0.022,-0.0166 -0.004,-0.0361 -0.008,-0.0721 -0.012,-0.10804 -0.008,0.0138 -0.0158,0.0276 -0.0239,0.0413 0.005,0.0278 0.009,0.0556 0.0139,0.0833 z"
         id="path143"
         inkscape:connector-curvature="0"
         style="fill:#00ab25;stroke:none;stroke-width:0.5" />
      <path
         d="m 287.42228,173.60247 c 0,5.00726 -2.30021,9.06646 -5.13766,9.06646 -2.83745,0 -5.13765,-4.05919 -5.13765,-9.06646 0,-1.42074 -0.60856,-3.57991 -0.0327,-7.23416 0.45374,-2.87945 4.18062,-4.05039 4.58501,-3.31596 1.45687,2.64585 -1.87372,4.667 -0.47573,6.61237 1.65584,2.30419 6.19877,-1.06951 6.19877,3.93775 z"
         id="path145"
         inkscape:connector-curvature="0"
         style="fill:#ffb89a;stroke:#000000;stroke-width:0.5" />
      <path
         d="m 273.29786,151.11379 -9.85358,-8.77644 0.0566,-0.14967 13.13866,0.0957 z"
         id="path147"
         inkscape:connector-curvature="0"
         style="fill:#020084;stroke:none;stroke-width:0" />
      <path
         d="m 273.47641,143.64765 8.77644,-9.85357 0.14967,0.0566 -0.0957,13.13866 z"
         id="path149"
         inkscape:connector-curvature="0"
         style="fill:#020084;stroke:none;stroke-width:0" />
      <path
         d="m 275.46357,148.19919 c -0.40974,-0.90868 -0.005,-1.97749 0.90341,-2.38723 0.90868,-0.40974 1.97749,-0.005 2.38723,0.90341 0.40974,0.90868 0.005,1.97749 -0.90341,2.38723 -0.90868,0.40974 -1.97749,0.005 -2.38723,-0.90341 z"
         stroke-width="NaN"
         id="path151"
         inkscape:connector-curvature="0"
         style="fill:#ffda00;stroke:none" />
      <path
         d="m 283.32085,158.80358 c 0,0.93365 -0.43746,1.24296 -0.80279,1.97361 l -0.24546,0.24546 c -0.0397,0.0938 -0.11217,0.19346 -0.24428,0.24515 -0.0851,0.043 -0.19279,0.0636 -0.32316,0.0258 -0.13351,-0.0245 -0.22064,-0.0911 -0.2775,-0.1676 -0.10222,-0.11327 -0.11789,-0.24532 -0.10697,-0.35119 -0.008,-0.76291 -0.30694,-2.31006 1.5e-4,-2.97123 6.9e-4,-0.002 0.001,-0.003 0.002,-0.005 0.0645,-0.23229 0.16477,-0.47279 0.29116,-0.7129 0.48305,-1.73336 1.51539,-3.7864 2.73934,-3.3743 0.0719,-0.0316 0.14442,-0.0591 0.21736,-0.0821 v -0.0762 h 0.75 c 0.27614,0 0.5,0.22386 0.5,0.5 0,0.23795 -0.16622,0.43708 -0.38888,0.48761 l -0.73442,0.1836 c 0.0768,0.0879 0.1233,0.20291 0.1233,0.32879 0,0.10506 -0.0324,0.20256 -0.0878,0.28304 l -0.49621,0.74431 -0.10512,-0.0701 c -0.1505,0.74637 -0.49893,1.52941 -0.8182,2.17488 0.0291,0.15963 -0.0285,0.30355 -0.0285,0.30355 l -0.30163,-0.21818 c 0.0143,0.0208 0.027,0.0428 0.0381,0.0657 0.29933,0.11166 0.29933,0.46682 0.29933,0.46682 z m -0.82425,-0.88465 -0.009,-0.007 c 2.2e-4,0.005 4.4e-4,0.01 6.6e-4,0.0146 0.003,-0.003 0.006,-0.005 0.008,-0.008 z"
         id="path153"
         inkscape:connector-curvature="0"
         style="fill:#00ab25;stroke:none;stroke-width:0.5" />
      <g
         id="g167"
         style="stroke:#000000;stroke-width:0.5">
        <path
           d="m 277.42082,140.55627 c 0,0 2.60437,1.1562 1.2413,3.00163 -1.06425,1.70019 -3.38383,-0.0131 -3.38383,-0.0131 0,0 -0.28707,2.9607 -2.16944,2.51722 -2.2744,-0.40835 -1.54677,-2.93727 -1.54677,-2.93727 l 1.51003,-4.39118 -0.0167,0.0442 z"
           data-paper-data="{&quot;origRot&quot;:0}"
           id="path155"
           style="fill:url(#color-2)"
           inkscape:connector-curvature="0" />
        <path
           d="m 274.94092,146.87208 -0.0821,-2.14643 c 0,0 -1.25696,-3.97797 -1.83333,-5.91841 -0.0275,-0.0925 -0.0296,-0.0428 0.0211,0.0393 0.83058,1.34533 3.21802,5.18009 3.21802,5.18009 l 1.74234,1.42621 z"
           id="path157"
           style="fill:url(#color-3)"
           inkscape:connector-curvature="0" />
        <path
           d="m 284.14306,147.71352 c 0,0 -1.1562,2.60437 -3.00164,1.2413 -1.70018,-1.06424 0.0131,-3.38383 0.0131,-3.38383 0,0 -2.96071,-0.28707 -2.51723,-2.16943 0.40835,-2.27439 2.93727,-1.54677 2.93727,-1.54677 l 4.39118,1.51003 -0.0442,-0.0167 z"
           data-paper-data="{&quot;origRot&quot;:0}"
           id="path159"
           style="fill:url(#color-4)"
           inkscape:connector-curvature="0" />
        <path
           d="m 277.82723,145.23361 2.14643,-0.0821 c 0,0 3.97796,-1.25697 5.91841,-1.83334 0.0925,-0.0275 0.0428,-0.0296 -0.0393,0.0211 -1.34533,0.83058 -5.18009,3.21802 -5.18009,3.21802 l -1.42621,1.74233 z"
           id="path161"
           style="fill:url(#color-5)"
           inkscape:connector-curvature="0" />
        <path
           d="m 270.1171,147.30495 c 0,0 1.1562,-2.60436 3.00164,-1.24129 1.70018,1.06424 -0.0131,3.38382 -0.0131,3.38382 0,0 2.96071,0.28708 2.51722,2.16944 -0.40835,2.27439 -2.93727,1.54677 -2.93727,1.54677 l -4.39118,-1.51003 0.0442,0.0167 z"
           data-paper-data="{&quot;origRot&quot;:0}"
           id="path163"
           style="fill:url(#color-6)"
           inkscape:connector-curvature="0" />
        <path
           d="m 276.43294,149.78486 -2.14643,0.0821 c 0,0 -3.97796,1.25697 -5.91841,1.83334 -0.0925,0.0275 -0.0428,0.0296 0.0393,-0.0211 1.34533,-0.83058 5.18009,-3.21802 5.18009,-3.21802 l 1.42622,-1.74233 z"
           id="path165"
           style="fill:url(#color-7)"
           inkscape:connector-curvature="0" />
      </g>
    </g>
    <g
       id="g199">
      <path
         d="m 192.64773,204.80174 c 0,0 -0.19544,-3.19942 2.3535,-2.79499 2.24904,0.18136 1.74066,3.38521 1.74066,3.38521 0,0 3.10475,-1.24787 3.63757,0.86134 0.77108,2.4824 -2.13091,3.06663 -2.13091,3.06663 l -5.16677,0.76825 0.0528,-0.006 z"
         data-paper-data="{&quot;origRot&quot;:0}"
         id="path171"
         inkscape:connector-curvature="0"
         style="fill:#00ab25;stroke:none;stroke-width:0" />
      <path
         d="m 202.33715,211.55578 c 0,0.006 -1.2e-4,0.0128 -3.6e-4,0.0192 -4e-5,0.14826 -0.0544,0.35074 -0.32215,0.44843 -0.0126,0.005 -0.0254,0.009 -0.0385,0.0128 -0.2729,0.0827 -0.43798,-0.0465 -0.52706,-0.16513 -0.002,-0.002 -0.004,-0.004 -0.005,-0.007 l -0.36075,-0.45094 0.14181,-0.11345 -0.0439,-0.1317 0.0416,-0.0139 c -0.20454,-1.16496 0.0752,-2.37758 -0.006,-3.57304 l -0.0945,-0.1891 c -0.0366,-0.0695 -0.0573,-0.14862 -0.0573,-0.2326 0,-0.0884 0.023,-0.17154 0.0633,-0.24362 -0.0329,-0.15892 -0.075,-0.31731 -0.12852,-0.47503 -0.0303,-0.0909 -0.0606,-0.18182 -0.0909,-0.27273 l -0.11445,-0.47579 c 0,0 -0.0152,-0.16488 0.0667,-0.31363 -0.2932,-1.04875 -0.55612,-2.03247 -0.91001,-2.66226 -1.52659,-3.05318 -1.88121,-6.12907 -1.8857,-9.53063 -0.001,-1.11988 -4.2e-4,-2.23976 -4.2e-4,-3.35964 l 0.0149,-0.21207 c 0,0 -0.12127,-0.48507 0.3638,-0.60634 0.48507,-0.12127 0.60634,0.3638 0.60634,0.3638 l 0.0149,0.4546 c 0,1.11949 -8.9e-4,2.23899 4.2e-4,3.35848 0.003,3.29502 0.31098,6.1463 1.78013,9.08458 0.17751,0.49453 0.67411,0.69914 0.88612,1.22361 0.63347,1.5671 0.38036,4.7145 2.05694,5.55279 0,0 0.0229,0.0114 0.0557,0.0343 l 0.43921,0.0732 -9.5e-4,0.006 c 0.29642,-0.0268 0.59915,0.12915 1.03646,0.49334 l 0.18182,0.22727 c 0,0 0.10957,-0.18765 0.10957,0.31235 0,0.37476 -0.50023,0.36321 -0.75083,0.33391 -0.0644,0.20177 -0.25334,0.34791 -0.47645,0.34791 -0.097,0 -0.18762,-0.0276 -0.26429,-0.0755 l -0.18651,-0.11191 c -0.2655,0.14349 -0.63357,0.31839 -0.88915,0.37082 l -0.30649,0.30649 v 0 c -0.0905,0.0905 -0.21548,0.14645 -0.35355,0.14645 -0.0161,0 -0.032,-7.6e-4 -0.0477,-0.002 0.001,0.0157 0.002,0.0316 0.002,0.0477 z m 0.22749,-1.68453 c -0.007,0.006 -0.0144,0.0111 -0.022,0.0166 0.004,0.0361 0.008,0.0721 0.012,0.10804 0.008,-0.0138 0.0158,-0.0276 0.0239,-0.0413 -0.005,-0.0278 -0.009,-0.0555 -0.0139,-0.0833 z"
         id="path173"
         inkscape:connector-curvature="0"
         style="fill:#00ab25;stroke:none;stroke-width:0.5" />
      <path
         d="m 193.35671,186.46054 c 0,-5.00726 2.30021,-9.06646 5.13766,-9.06646 2.83745,0 5.13765,4.05919 5.13765,9.06646 0,1.42074 0.60856,3.57991 0.0327,7.23416 -0.45374,2.87945 -4.18062,4.05039 -4.58501,3.31596 -1.45687,-2.64585 1.87372,-4.667 0.47573,-6.61237 -1.65584,-2.30419 -6.19877,1.06951 -6.19877,-3.93775 z"
         id="path175"
         inkscape:connector-curvature="0"
         style="fill:#ffb89a;stroke:#000000;stroke-width:0.5" />
      <path
         d="m 207.48113,208.94922 9.85358,8.77644 -0.0566,0.14967 -13.13866,-0.0957 z"
         id="path177"
         inkscape:connector-curvature="0"
         style="fill:#020084;stroke:none;stroke-width:0" />
      <path
         d="m 207.30258,216.41536 -8.77644,9.85357 -0.14967,-0.0566 0.0957,-13.13866 z"
         id="path179"
         inkscape:connector-curvature="0"
         style="fill:#020084;stroke:none;stroke-width:0" />
      <path
         d="m 205.31542,211.86382 c 0.40974,0.90868 0.005,1.97749 -0.90341,2.38723 -0.90868,0.40974 -1.97749,0.005 -2.38723,-0.90341 -0.40974,-0.90868 -0.005,-1.97749 0.90341,-2.38723 0.90868,-0.40974 1.97749,-0.005 2.38723,0.90341 z"
         stroke-width="NaN"
         id="path181"
         inkscape:connector-curvature="0"
         style="fill:#ffda00;stroke:none" />
      <path
         d="m 197.45815,201.25943 c 0,-0.93365 0.43746,-1.24296 0.80279,-1.97361 l 0.24546,-0.24546 c 0.0397,-0.0938 0.11217,-0.19346 0.24428,-0.24515 0.0851,-0.043 0.19279,-0.0636 0.32316,-0.0258 0.13351,0.0245 0.22064,0.0911 0.2775,0.1676 0.10222,0.11327 0.11789,0.24532 0.10697,0.35119 0.008,0.76291 0.30694,2.31006 -1.5e-4,2.97123 -6.9e-4,0.001 -0.001,0.003 -0.002,0.005 -0.0645,0.23229 -0.16477,0.47279 -0.29116,0.7129 -0.48305,1.73336 -1.51539,3.7864 -2.73934,3.3743 -0.0719,0.0316 -0.14442,0.0591 -0.21736,0.0821 v 0.0762 h -0.75 c -0.27614,0 -0.5,-0.22386 -0.5,-0.5 0,-0.23795 0.16622,-0.43708 0.38888,-0.48761 l 0.73442,-0.1836 c -0.0768,-0.0879 -0.1233,-0.20291 -0.1233,-0.32879 0,-0.10506 0.0324,-0.20256 0.0878,-0.28304 l 0.49621,-0.74431 0.10512,0.0701 c 0.1505,-0.74637 0.49893,-1.52941 0.8182,-2.17488 -0.0291,-0.15963 0.0285,-0.30355 0.0285,-0.30355 l 0.30163,0.21818 c -0.0143,-0.0208 -0.027,-0.0428 -0.0381,-0.0657 -0.29933,-0.11166 -0.29933,-0.46682 -0.29933,-0.46682 z m 0.82424,0.88465 0.009,0.007 c -2.2e-4,-0.005 -4.4e-4,-0.01 -6.6e-4,-0.0146 -0.003,0.003 -0.006,0.005 -0.008,0.008 z"
         id="path183"
         inkscape:connector-curvature="0"
         style="fill:#00ab25;stroke:none;stroke-width:0.5" />
      <g
         id="g197"
         style="stroke:#000000;stroke-width:0.5">
        <path
           d="m 203.35817,219.50674 c 0,0 -2.60437,-1.1562 -1.2413,-3.00163 1.06425,-1.70019 3.38383,0.0131 3.38383,0.0131 0,0 0.28707,-2.9607 2.16944,-2.51722 2.2744,0.40835 1.54677,2.93727 1.54677,2.93727 l -1.51003,4.39118 0.0167,-0.0442 z"
           data-paper-data="{&quot;origRot&quot;:0}"
           id="path185"
           style="fill:url(#color-8)"
           inkscape:connector-curvature="0" />
        <path
           d="m 205.83807,213.19093 0.0821,2.14643 c 0,0 1.25696,3.97797 1.83333,5.91841 0.0275,0.0925 0.0296,0.0428 -0.0211,-0.0393 -0.83058,-1.34533 -3.21802,-5.18009 -3.21802,-5.18009 l -1.74234,-1.42621 z"
           id="path187"
           style="fill:url(#color-9)"
           inkscape:connector-curvature="0" />
        <path
           d="m 196.63593,212.34949 c 0,0 1.1562,-2.60437 3.00164,-1.2413 1.70018,1.06424 -0.0131,3.38383 -0.0131,3.38383 0,0 2.96071,0.28707 2.51723,2.16943 -0.40835,2.27439 -2.93727,1.54677 -2.93727,1.54677 l -4.39118,-1.51003 0.0442,0.0167 z"
           data-paper-data="{&quot;origRot&quot;:0}"
           id="path189"
           style="fill:url(#color-10)"
           inkscape:connector-curvature="0" />
        <path
           d="m 202.95175,214.8294 -2.14643,0.0821 c 0,0 -3.97796,1.25697 -5.91841,1.83334 -0.0925,0.0275 -0.0428,0.0296 0.0393,-0.0211 1.34533,-0.83058 5.18009,-3.21802 5.18009,-3.21802 l 1.42621,-1.74233 z"
           id="path191"
           style="fill:url(#color-11)"
           inkscape:connector-curvature="0" />
        <path
           d="m 210.66187,212.75806 c 0,0 -1.1562,2.60436 -3.00164,1.24129 -1.70018,-1.06424 0.0131,-3.38382 0.0131,-3.38382 0,0 -2.96071,-0.28708 -2.51722,-2.16944 0.40835,-2.27439 2.93727,-1.54677 2.93727,-1.54677 l 4.39118,1.51003 -0.0443,-0.0167 z"
           data-paper-data="{&quot;origRot&quot;:0}"
           id="path193"
           style="fill:url(#color-12)"
           inkscape:connector-curvature="0" />
        <path
           d="m 204.34605,210.27815 2.14643,-0.0821 c 0,0 3.97796,-1.25697 5.91841,-1.83334 0.0925,-0.0275 0.0428,-0.0296 -0.0393,0.0211 -1.34533,0.83058 -5.18009,3.21802 -5.18009,3.21802 l -1.42622,1.74233 z"
           id="path195"
           style="fill:url(#color-13)"
           inkscape:connector-curvature="0" />
      </g>
    </g>
  </g>
  <g
     data-paper-data="{&quot;origRot&quot;:0}"
     id="g207"
     style="mix-blend-mode:normal;fill:#000000;fill-rule:nonzero;stroke:#000000;stroke-linecap:butt;stroke-linejoin:miter;stroke-miterlimit:10;stroke-dasharray:none;stroke-dashoffset:0"
     transform="matrix(2.0027389,0,0,2.0027332,-363.12524,-194.45148)">
    <path
       d="m 196.87554,126.92465 c 0,0 3.96298,4.43397 -0.21349,6.7756 -3.48333,2.32164 -6.42655,-2.92795 -6.42655,-2.92795 0,0 -3.08614,5.38656 -6.28694,2.92795 -3.97679,-2.72809 -0.42292,-6.91522 -0.42292,-6.91522 l 6.64004,-7.0589 -0.0698,0.0698 z"
       data-paper-data="{&quot;origRot&quot;:0}"
       id="path203"
       inkscape:connector-curvature="0"
       style="stroke-width:1.5" />
    <path
       d="m 186.73916,136.81318 1.68521,-4.15409 c 0,0 1.02125,-8.64654 1.58939,-12.83275 0.0271,-0.19959 -0.0195,-0.10686 0.006,0.0929 0.42606,3.27208 1.67842,12.616 1.67842,12.616 l 2.0913,4.20815 z"
       id="path205"
       inkscape:connector-curvature="0"
       style="stroke-width:0.5" />
  </g>
</svg>
