<svg version="1.1" xmlns="http://www.w3.org/2000/svg" xmlns:xlink="http://www.w3.org/1999/xlink" width="143.5" height="191.5" viewBox="0,0,143.5,191.5"><defs><linearGradient x1="239.78597" y1="115.39774" x2="239.78597" y2="179.44871" gradientUnits="userSpaceOnUse" id="color-1"><stop offset="0" stop-color="#000000"/><stop offset="1" stop-color="#ff0000"/></linearGradient><linearGradient x1="239.7838" y1="181.11019" x2="239.7838" y2="245.16116" gradientUnits="userSpaceOnUse" id="color-2"><stop offset="0" stop-color="#ff4600"/><stop offset="1" stop-color="#000000"/></linearGradient><radialGradient cx="240.11959" cy="180.75439" r="13.07245" gradientUnits="userSpaceOnUse" id="color-3"><stop offset="0" stop-color="#000000"/><stop offset="1" stop-color="#000cff"/></radialGradient></defs><g transform="translate(-169.98884,-89.18327)"><g data-paper-data="{&quot;isPaintingLayer&quot;:true}" fill-rule="nonzero" stroke-linejoin="miter" stroke-miterlimit="10" stroke-dasharray="" stroke-dashoffset="0" style="mix-blend-mode: normal"><path d="M222.71211,194.43288l4.2159,-5.19961" data-paper-data="{&quot;index&quot;:null}" fill="none" stroke="#855d08" stroke-width="3.5" stroke-linecap="round"/><path d="M248.34292,194.1062l-4.2159,-5.19961" data-paper-data="{&quot;index&quot;:null}" fill="none" stroke="#855d08" stroke-width="3.5" stroke-linecap="round"/><path d="M235.12692,195.58209l0.01253,-5.1679" data-paper-data="{&quot;index&quot;:null,&quot;origRot&quot;:0}" fill="none" stroke="#855d08" stroke-width="3.5" stroke-linecap="round"/><path d="M174.23884,277.09994c0,0 -4,-5.34526 -4,-10.89999c0,-16.66422 0,-97.96444 0,-160.66667c0,-6.28323 4.33334,-11.76667 4.33334,-11.76667c0,0 5.11759,-4.33334 11.16666,-4.33334c44.09971,0 96.02357,0 113,0c5.65881,0 11.16666,5.33334 11.16666,5.33334c0,0 3.33334,4.28019 3.33334,10.43334c0,62.31197 0,141.44139 0,159.66666c0,6.07509 -2.66667,10.9 -2.66667,10.9c0,0 -6.17452,4.66666 -11.83333,4.66666c-16.97643,0 -69.10355,0 -113.33334,0c-5.91898,0 -11.16666,-3.33333 -11.16666,-3.33333z" fill="#ffffff" stroke="#000000" stroke-width="0.5" stroke-linecap="butt"/><path d="M185.43326,261.84397v-155.96943h112.59825v155.96944z" fill="none" stroke="#000000" stroke-width="1" stroke-linecap="butt"/><g data-paper-data="{&quot;origRot&quot;:0}" fill="none" stroke="#000000" stroke-width="1" stroke-linecap="round"><g data-paper-data="{&quot;origPos&quot;:null}"><path d="M298.22528,105.76869h-29.44269" data-paper-data="{&quot;origPos&quot;:null}"/><path d="M298.22913,105.76484v29.44268" data-paper-data="{&quot;origPos&quot;:null,&quot;origRot&quot;:0}"/><path d="M269.27336,106.37486l28.68834,28.68835" data-paper-data="{&quot;origPos&quot;:null,&quot;origRot&quot;:0}"/></g><g data-paper-data="{&quot;origPos&quot;:null,&quot;origRot&quot;:0}"><path d="M298.22854,120.8149h-14.60375" data-paper-data="{&quot;origPos&quot;:null}"/><path d="M283.62288,105.76353v15.05333" data-paper-data="{&quot;origPos&quot;:null,&quot;origRot&quot;:0}"/><path d="M283.75553,105.83734l14.22959,14.66765" data-paper-data="{&quot;origPos&quot;:null,&quot;origRot&quot;:0}"/></g></g><g data-paper-data="{&quot;origRot&quot;:0}" fill="none" stroke="#000000" stroke-width="1" stroke-linecap="round"><g data-paper-data="{&quot;origPos&quot;:null}"><path d="M214.76104,261.80304h-29.44268" data-paper-data="{&quot;origPos&quot;:null}"/><path d="M185.31451,232.3642v29.44269" data-paper-data="{&quot;origPos&quot;:null,&quot;origRot&quot;:0}"/><path d="M214.27029,261.19689l-28.68835,-28.68835" data-paper-data="{&quot;origPos&quot;:null,&quot;origRot&quot;:0}"/></g><g data-paper-data="{&quot;origPos&quot;:null,&quot;origRot&quot;:0}"><path d="M185.31509,246.75682h14.60375" data-paper-data="{&quot;origPos&quot;:null}"/><path d="M199.92075,261.80815v-15.05333" data-paper-data="{&quot;origPos&quot;:null,&quot;origRot&quot;:0}"/><path d="M185.55852,247.06673l14.22959,14.66765" data-paper-data="{&quot;origPos&quot;:null,&quot;origRot&quot;:0}"/></g></g><path d="M215.24696,179.44871l24.53901,-64.05097h0.83183l23.70718,64.05097z" fill="url(#color-1)" stroke="#000000" stroke-width="2.5" stroke-linecap="butt"/><path d="M264.3228,181.11019l-24.53901,64.05097h-0.83183c0,0 -0.37048,-1.00094 -0.60761,-1.6416c-0.71138,-1.92197 -23.09957,-62.40937 -23.09957,-62.40937z" data-paper-data="{&quot;origRot&quot;:0}" fill="url(#color-2)" stroke="#000000" stroke-width="2.5" stroke-linecap="butt"/><path d="M263.33323,180.91859c-4.12687,5.9201 -10.79754,13.06672 -24.11698,13.06672c-11.57895,0 -24.10888,-12.66069 -24.11456,-12.87966c-0.00189,-0.07299 -0.00242,-0.11405 -0.00242,-0.18707c0,-0.54735 -0.10917,-0.90417 0.13558,-1.39376c0.70757,-1.41539 12.87678,-11.67297 23.9814,-11.67297c0,0 5.76473,0.20104 11.34565,2.32626c0,0 15.61476,6.66149 12.77133,10.74046z" fill="#ffffff" stroke="#000000" stroke-width="0.5" stroke-linecap="butt"/><path d="M227.04713,180.75439c0,-7.21971 5.85273,-13.07245 13.07245,-13.07245c7.21971,0 13.07245,5.85273 13.07245,13.07245c0,7.21971 -5.85273,13.07245 -13.07245,13.07245c-7.21971,0 -13.07245,-5.85273 -13.07245,-13.07245z" fill="url(#color-3)" stroke="#000000" stroke-width="0.5" stroke-linecap="butt"/><path d="M240.18051,193.48143c0,0 0.42912,-4.62604 -3.92352,-8.74486c-3.04125,-2.87788 -9.41574,-3.3132 -9.41574,-3.3132c0,0 6.00356,0.1301 9.49536,-3.50163c3.14263,-3.26856 3.41617,-9.72786 3.41617,-9.72786c0,0 0.01445,6.69734 3.22466,9.73511c3.43549,3.25094 9.61602,3.01544 9.61602,3.01544c0,0 -5.92169,0.17544 -9.25234,3.63956c-3.30379,3.43618 -3.16062,8.89745 -3.16062,8.89745z" data-paper-data="{&quot;origRot&quot;:0}" fill="#0090ff" stroke="#000000" stroke-width="0.5" stroke-linecap="butt"/><text transform="translate(220.59128,259.6574) scale(0.18863,0.18863)" font-size="40" xml:space="preserve" fill="#000000" fill-rule="nonzero" stroke="none" stroke-width="1" stroke-linecap="butt" stroke-linejoin="miter" stroke-miterlimit="10" stroke-dasharray="" stroke-dashoffset="0" font-family="Sans Serif" font-weight="normal" text-anchor="start" style="mix-blend-mode: normal"><tspan x="0" dy="0">O+O+O+O</tspan></text><text transform="translate(295.65734,176.66129) rotate(-90) scale(0.18863,0.18863)" font-size="40" xml:space="preserve" data-paper-data="{&quot;origRot&quot;:-45}" fill="#000000" fill-rule="nonzero" stroke="none" stroke-width="1" stroke-linecap="butt" stroke-linejoin="miter" stroke-miterlimit="10" stroke-dasharray="" stroke-dashoffset="0" font-family="Sans Serif" font-weight="normal" text-anchor="start" style="mix-blend-mode: normal"><tspan x="0" dy="0">O+O+O+O</tspan></text><text transform="translate(223.31509,112.76454) scale(0.18863,0.18863)" font-size="40" xml:space="preserve" fill="#000000" fill-rule="nonzero" stroke="none" stroke-width="1" stroke-linecap="butt" stroke-linejoin="miter" stroke-miterlimit="10" stroke-dasharray="" stroke-dashoffset="0" font-family="Sans Serif" font-weight="normal" text-anchor="start" style="mix-blend-mode: normal"><tspan x="0" dy="0">O+O+O+O</tspan></text><text transform="translate(295.65495,214.85892) rotate(-90) scale(0.18863,0.18863)" font-size="40" xml:space="preserve" data-paper-data="{&quot;origRot&quot;:-45}" fill="#000000" fill-rule="nonzero" stroke="none" stroke-width="1" stroke-linecap="butt" stroke-linejoin="miter" stroke-miterlimit="10" stroke-dasharray="" stroke-dashoffset="0" font-family="Sans Serif" font-weight="normal" text-anchor="start" style="mix-blend-mode: normal"><tspan x="0" dy="0">O+O+O+O</tspan></text><text transform="translate(192.424,178.93273) rotate(-90) scale(0.18863,0.18863)" font-size="40" xml:space="preserve" data-paper-data="{&quot;origRot&quot;:-45}" fill="#000000" fill-rule="nonzero" stroke="none" stroke-width="1" stroke-linecap="butt" stroke-linejoin="miter" stroke-miterlimit="10" stroke-dasharray="" stroke-dashoffset="0" font-family="Sans Serif" font-weight="normal" text-anchor="start" style="mix-blend-mode: normal"><tspan x="0" dy="0">O+O+O+O</tspan></text><text transform="translate(192.42162,217.13034) rotate(-90) scale(0.18863,0.18863)" font-size="40" xml:space="preserve" data-paper-data="{&quot;origRot&quot;:-45}" fill="#000000" fill-rule="nonzero" stroke="none" stroke-width="1" stroke-linecap="butt" stroke-linejoin="miter" stroke-miterlimit="10" stroke-dasharray="" stroke-dashoffset="0" font-family="Sans Serif" font-weight="normal" text-anchor="start" style="mix-blend-mode: normal"><tspan x="0" dy="0">O+O+O+O</tspan></text><path d="M229.1314,169.96456l-1.93606,-7.26005l0.5808,-0.15489l1.93607,7.26006z" fill="#000000" stroke="none" stroke-width="0" stroke-linecap="butt"/><path d="M250.09577,169.69927l3.76463,-6.50264l0.52022,0.30118l-3.76463,6.50264z" fill="#000000" stroke="none" stroke-width="0" stroke-linecap="butt"/><path d="M250.98271,191.93014l1.93606,7.26005l-0.5808,0.15489l-1.93607,-7.26005z" fill="#000000" stroke="none" stroke-width="0" stroke-linecap="butt"/><path d="M230.91999,192.49595l-3.76463,6.50264l-0.52022,-0.30118l3.76463,-6.50264z" fill="#000000" stroke="none" stroke-width="0" stroke-linecap="butt"/><path d="M239.50928,167.35352v-7.51377h0.6011v7.51377z" fill="#000000" stroke="none" stroke-width="0" stroke-linecap="butt"/><path d="M239.76532,201.76299v-7.51377h0.6011v7.51377z" fill="#000000" stroke="none" stroke-width="0" stroke-linecap="butt"/><g stroke="#000000"><g fill="#ffffff" stroke-width="1" stroke-linecap="round"><g data-paper-data="{&quot;origPos&quot;:null}"><path d="M185.63843,135.21044v-29.44268" data-paper-data="{&quot;origPos&quot;:null}"/><path d="M185.63458,105.76391h29.44268" data-paper-data="{&quot;origPos&quot;:null,&quot;origRot&quot;:0}"/><path d="M186.24461,134.71969l28.68835,-28.68835" data-paper-data="{&quot;origPos&quot;:null,&quot;origRot&quot;:0}"/></g><g data-paper-data="{&quot;origPos&quot;:null,&quot;origRot&quot;:0}"><path d="M200.68467,120.36824v-14.60375" data-paper-data="{&quot;origPos&quot;:null}"/><path d="M185.6333,120.37016h15.05333" data-paper-data="{&quot;origPos&quot;:null,&quot;origRot&quot;:0}"/><path d="M185.70709,120.2375l14.66765,-14.22959" data-paper-data="{&quot;origPos&quot;:null,&quot;origRot&quot;:0}"/></g></g><g fill="none" stroke-width="0.5" stroke-linecap="butt"><path d="M191.58846,105.90635c0,0 3.61163,0.20258 2.82244,3.0061c-0.49965,2.49679 -4.02349,1.50479 -4.02349,1.50479c0,0 0.98945,3.64421 -1.44474,3.96344c-2.88385,0.53708 -3.15622,-2.79242 -3.15622,-2.79242l-0.18015,-5.89209v0.06006z" data-paper-data="{&quot;origRot&quot;:0}"/><path d="M191.48186,114.51932c0,0 -1.52136,-4.43151 -1.42426,-4.35679c1.78326,0.5361 4.42687,1.29414 4.42687,1.29414z"/></g></g><g stroke="#000000"><g fill="#ffffff" stroke-width="1" stroke-linecap="round"><g data-paper-data="{&quot;origPos&quot;:null}"><path d="M298.54513,261.63885v-29.44268" data-paper-data="{&quot;origPos&quot;:null}"/><path d="M298.54898,261.6427h-29.44268" data-paper-data="{&quot;origPos&quot;:null,&quot;origRot&quot;:0}"/><path d="M269.2506,261.37527l28.68835,-28.68835" data-paper-data="{&quot;origPos&quot;:null,&quot;origRot&quot;:0}"/></g><g data-paper-data="{&quot;origPos&quot;:null,&quot;origRot&quot;:0}"><path d="M283.49889,261.64212v-14.60375" data-paper-data="{&quot;origPos&quot;:null}"/><path d="M298.55026,247.03645h-15.05333" data-paper-data="{&quot;origPos&quot;:null,&quot;origRot&quot;:0}"/><path d="M298.47647,247.16911l-14.66765,14.22959" data-paper-data="{&quot;origPos&quot;:null,&quot;origRot&quot;:0}"/></g></g><g fill="none" stroke-width="0.5" stroke-linecap="butt"><path d="M292.5951,261.50027c0,0 -3.61163,-0.20258 -2.82244,-3.0061c0.49965,-2.49679 4.02349,-1.50479 4.02349,-1.50479c0,0 -0.98945,-3.64421 1.44474,-3.96344c2.88385,-0.53708 3.15623,2.79242 3.15623,2.79242l0.18015,5.89208v-0.06005z" data-paper-data="{&quot;origRot&quot;:0}"/><path d="M292.7017,252.88729c0,0 1.52136,4.4315 1.42426,4.35679c-1.78325,-0.5361 -4.42687,-1.29414 -4.42687,-1.29414z"/></g></g></g></g></svg>