<svg version="1.1" xmlns="http://www.w3.org/2000/svg" xmlns:xlink="http://www.w3.org/1999/xlink" width="143.5" height="191.5" viewBox="0,0,143.5,191.5"><g transform="translate(-166.15316,-87.67384)"><g data-paper-data="{&quot;isPaintingLayer&quot;:true}" fill-rule="nonzero" stroke-linejoin="miter" stroke-miterlimit="10" stroke-dasharray="" stroke-dashoffset="0" style="mix-blend-mode: normal"><g><path d="M222.71211,194.43286l4.2159,-5.19961" data-paper-data="{&quot;index&quot;:null}" fill="none" stroke="#855d08" stroke-width="3.5" stroke-linecap="round"/><path d="M248.34292,194.10616l-4.2159,-5.19961" data-paper-data="{&quot;index&quot;:null}" fill="none" stroke="#855d08" stroke-width="3.5" stroke-linecap="round"/><path d="M235.12692,195.58206l0.01253,-5.1679" data-paper-data="{&quot;index&quot;:null,&quot;origRot&quot;:0}" fill="none" stroke="#855d08" stroke-width="3.5" stroke-linecap="round"/><path d="M170.40316,275.59051c0,0 -4,-5.34526 -4,-10.89999c0,-16.66422 0,-97.96444 0,-160.66667c0,-6.28323 4.33334,-11.76667 4.33334,-11.76667c0,0 5.11759,-4.33334 11.16666,-4.33334c44.09971,0 96.02357,0 113,0c5.65881,0 11.16666,5.33334 11.16666,5.33334c0,0 3.33334,4.28019 3.33334,10.43334c0,62.31197 0,141.44139 0,159.66666c0,6.07509 -2.66667,10.9 -2.66667,10.9c0,0 -6.17452,4.66666 -11.83333,4.66666c-16.97643,0 -69.10355,0 -113.33334,0c-5.91898,0 -11.16666,-3.33333 -11.16666,-3.33333z" fill="#ffffff" stroke="#000000" stroke-width="0.5" stroke-linecap="butt"/><g fill="none" stroke="#000000" stroke-width="0.5" stroke-linecap="round"><g data-paper-data="{&quot;origPos&quot;:null}"><path d="M185.63843,105.76773v29.44268" data-paper-data="{&quot;origPos&quot;:null}"/><path d="M215.07726,105.76388h-29.44268" data-paper-data="{&quot;origPos&quot;:null,&quot;origRot&quot;:0}"/><path d="M186.24461,134.71966l28.68835,-28.68835" data-paper-data="{&quot;origPos&quot;:null,&quot;origRot&quot;:0}"/></g><g data-paper-data="{&quot;origPos&quot;:null,&quot;origRot&quot;:0}"><path d="M200.68467,120.36822v-14.60375" data-paper-data="{&quot;origPos&quot;:null}"/><path d="M200.68663,120.37013h-15.05333" data-paper-data="{&quot;origPos&quot;:null,&quot;origRot&quot;:0}"/><path d="M185.70709,120.23748l14.66765,-14.22959" data-paper-data="{&quot;origPos&quot;:null,&quot;origRot&quot;:0}"/></g></g><path d="M185.43326,261.84397v-155.96943h112.59825v155.96944z" fill="none" stroke="#000000" stroke-width="0.5" stroke-linecap="butt"/><g data-paper-data="{&quot;origRot&quot;:0}" fill="none" stroke="#000000" stroke-width="0.5" stroke-linecap="round"><g data-paper-data="{&quot;origPos&quot;:null}"><path d="M268.78259,105.76866h29.44269" data-paper-data="{&quot;origPos&quot;:null}"/><path d="M298.22913,105.76481v29.44268" data-paper-data="{&quot;origPos&quot;:null,&quot;origRot&quot;:0}"/><path d="M269.27336,106.37484l28.68834,28.68835" data-paper-data="{&quot;origPos&quot;:null,&quot;origRot&quot;:0}"/></g><g data-paper-data="{&quot;origPos&quot;:null,&quot;origRot&quot;:0}"><path d="M298.22854,120.81489h-14.60375" data-paper-data="{&quot;origPos&quot;:null}"/><path d="M283.62288,120.81686v-15.05333" data-paper-data="{&quot;origPos&quot;:null,&quot;origRot&quot;:0}"/><path d="M297.98512,120.50497l-14.22959,-14.66765" data-paper-data="{&quot;origPos&quot;:null,&quot;origRot&quot;:0}"/></g></g><g data-paper-data="{&quot;origRot&quot;:0}" fill="none" stroke="#000000" stroke-width="0.5" stroke-linecap="round"><g data-paper-data="{&quot;origPos&quot;:null}"><path d="M298.22108,261.80722v-29.44269" data-paper-data="{&quot;origPos&quot;:null}"/><path d="M298.22493,261.81107h-29.44268" data-paper-data="{&quot;origPos&quot;:null,&quot;origRot&quot;:0}"/><path d="M297.6149,232.85529l-28.68835,28.68835" data-paper-data="{&quot;origPos&quot;:null,&quot;origRot&quot;:0}"/></g><g data-paper-data="{&quot;origPos&quot;:null,&quot;origRot&quot;:0}"><path d="M283.17484,247.20674v14.60375" data-paper-data="{&quot;origPos&quot;:null}"/><path d="M298.2262,247.20483h-15.05333" data-paper-data="{&quot;origPos&quot;:null,&quot;origRot&quot;:0}"/><path d="M298.15242,247.33747l-14.66765,14.22959" data-paper-data="{&quot;origPos&quot;:null,&quot;origRot&quot;:0}"/></g></g><g data-paper-data="{&quot;origRot&quot;:0}" fill="none" stroke="#000000" stroke-width="0.5" stroke-linecap="round"><g data-paper-data="{&quot;origPos&quot;:null}"><path d="M214.76104,261.80303h-29.44268" data-paper-data="{&quot;origPos&quot;:null}"/><path d="M185.31451,261.80688v-29.44269" data-paper-data="{&quot;origPos&quot;:null,&quot;origRot&quot;:0}"/><path d="M185.58194,232.5085l28.68835,28.68835" data-paper-data="{&quot;origPos&quot;:null,&quot;origRot&quot;:0}"/></g><g data-paper-data="{&quot;origPos&quot;:null,&quot;origRot&quot;:0}"><path d="M185.31509,246.75679h14.60375" data-paper-data="{&quot;origPos&quot;:null}"/><path d="M199.92075,246.75482v15.05333" data-paper-data="{&quot;origPos&quot;:null,&quot;origRot&quot;:0}"/><path d="M199.78811,261.73437l-14.22959,-14.66765" data-paper-data="{&quot;origPos&quot;:null,&quot;origRot&quot;:0}"/></g></g><path d="M215.24696,178.84425l24.53901,-64.05097h0.83183l23.70718,64.05097z" fill="#ff4600" stroke="#000000" stroke-width="2.5" stroke-linecap="butt"/><path d="M264.32281,181.11016l-24.53901,64.05097h-0.83183c0,0 -0.37048,-1.00094 -0.60761,-1.6416c-0.71138,-1.92197 -23.09957,-62.40937 -23.09957,-62.40937z" data-paper-data="{&quot;origRot&quot;:0}" fill="#ff4600" stroke="#000000" stroke-width="2.5" stroke-linecap="butt"/><g stroke="#000000" stroke-width="0.5" stroke-linecap="butt"><path d="M263.33323,180.91856c-4.12687,5.9201 -10.79754,13.06672 -24.11698,13.06672c-11.57895,0 -24.10888,-12.66069 -24.11456,-12.87966c-0.00189,-0.07299 -0.00242,-0.11405 -0.00242,-0.18707c0,-0.54735 -0.10917,-0.90417 0.13558,-1.39376c0.70757,-1.41539 12.87678,-11.67297 23.9814,-11.67297c0,0 5.76473,0.20104 11.34565,2.32626c0,0 15.61476,6.66149 12.77133,10.74046z" data-paper-data="{&quot;origPos&quot;:null}" fill="#ffffff"/><path d="M227.04714,180.75436c0,-7.21971 5.85273,-13.07245 13.07245,-13.07245c7.21971,0 13.07245,5.85273 13.07245,13.07245c0,7.21971 -5.85273,13.07245 -13.07245,13.07245c-7.21971,0 -13.07245,-5.85273 -13.07245,-13.07245z" data-paper-data="{&quot;origPos&quot;:null}" fill="#11ca00"/></g><path d="M224.99498,162.86501l4.2159,5.19961" fill="none" stroke="#855d08" stroke-width="3.5" stroke-linecap="round"/><path d="M253.31088,162.25024l-4.21591,5.19961" data-paper-data="{&quot;index&quot;:null}" fill="none" stroke="#855d08" stroke-width="3.5" stroke-linecap="round"/><path d="M227.71211,199.43286l4.2159,-5.19961" data-paper-data="{&quot;index&quot;:null}" fill="none" stroke="#855d08" stroke-width="3.5" stroke-linecap="round"/><path d="M253.34292,199.10616l-4.21591,-5.19961" data-paper-data="{&quot;index&quot;:null}" fill="none" stroke="#855d08" stroke-width="3.5" stroke-linecap="round"/><path d="M236.00095,165.87013l-1.29956,-5.00185" data-paper-data="{&quot;index&quot;:null,&quot;origRot&quot;:0}" fill="none" stroke="#855d08" stroke-width="3.5" stroke-linecap="round"/><path d="M242.6365,165.76086l1.29956,-5.00185" data-paper-data="{&quot;index&quot;:null,&quot;origRot&quot;:0}" fill="none" stroke="#855d08" stroke-width="3.5" stroke-linecap="round"/><path d="M240.13945,195.41416l-0.01253,5.1679" data-paper-data="{&quot;index&quot;:null,&quot;origRot&quot;:0}" fill="none" stroke="#855d08" stroke-width="3.5" stroke-linecap="round"/><path d="M240.18051,193.48139c0,0 0.42912,-4.62604 -3.92352,-8.74486c-3.04125,-2.87788 -9.41574,-3.3132 -9.41574,-3.3132c0,0 6.00356,0.1301 9.49536,-3.50163c3.14263,-3.26856 3.41617,-9.72786 3.41617,-9.72786c0,0 0.01445,6.69734 3.22466,9.73511c3.43549,3.25094 9.61602,3.01544 9.61602,3.01544c0,0 -5.92169,0.17544 -9.25234,3.63956c-3.30379,3.43618 -3.16062,8.89745 -3.16062,8.89745z" data-paper-data="{&quot;origRot&quot;:0}" fill="#0090ff" stroke="#000000" stroke-width="0.5" stroke-linecap="butt"/><text transform="translate(220.59128,259.65737) scale(0.18863,0.18863)" font-size="40" xml:space="preserve" fill="#000000" fill-rule="nonzero" stroke="none" stroke-width="1" stroke-linecap="butt" stroke-linejoin="miter" stroke-miterlimit="10" stroke-dasharray="" stroke-dashoffset="0" font-family="Sans Serif" font-weight="normal" text-anchor="start" style="mix-blend-mode: normal"><tspan x="0" dy="0">O+O+O+O</tspan></text><text transform="translate(295.65734,176.66126) rotate(-90) scale(0.18863,0.18863)" font-size="40" xml:space="preserve" data-paper-data="{&quot;origRot&quot;:-45}" fill="#000000" fill-rule="nonzero" stroke="none" stroke-width="1" stroke-linecap="butt" stroke-linejoin="miter" stroke-miterlimit="10" stroke-dasharray="" stroke-dashoffset="0" font-family="Sans Serif" font-weight="normal" text-anchor="start" style="mix-blend-mode: normal"><tspan x="0" dy="0">O+O+O+O</tspan></text><text transform="translate(223.31509,112.76451) scale(0.18863,0.18863)" font-size="40" xml:space="preserve" fill="#000000" fill-rule="nonzero" stroke="none" stroke-width="1" stroke-linecap="butt" stroke-linejoin="miter" stroke-miterlimit="10" stroke-dasharray="" stroke-dashoffset="0" font-family="Sans Serif" font-weight="normal" text-anchor="start" style="mix-blend-mode: normal"><tspan x="0" dy="0">O+O+O+O</tspan></text><text transform="translate(295.65495,214.85888) rotate(-90) scale(0.18863,0.18863)" font-size="40" xml:space="preserve" data-paper-data="{&quot;origRot&quot;:-45}" fill="#000000" fill-rule="nonzero" stroke="none" stroke-width="1" stroke-linecap="butt" stroke-linejoin="miter" stroke-miterlimit="10" stroke-dasharray="" stroke-dashoffset="0" font-family="Sans Serif" font-weight="normal" text-anchor="start" style="mix-blend-mode: normal"><tspan x="0" dy="0">O+O+O+O</tspan></text><text transform="translate(192.424,178.93269) rotate(-90) scale(0.18863,0.18863)" font-size="40" xml:space="preserve" data-paper-data="{&quot;origRot&quot;:-45}" fill="#000000" fill-rule="nonzero" stroke="none" stroke-width="1" stroke-linecap="butt" stroke-linejoin="miter" stroke-miterlimit="10" stroke-dasharray="" stroke-dashoffset="0" font-family="Sans Serif" font-weight="normal" text-anchor="start" style="mix-blend-mode: normal"><tspan x="0" dy="0">O+O+O+O</tspan></text><text transform="translate(192.42162,217.13031) rotate(-90) scale(0.18863,0.18863)" font-size="40" xml:space="preserve" data-paper-data="{&quot;origRot&quot;:-45}" fill="#000000" fill-rule="nonzero" stroke="none" stroke-width="1" stroke-linecap="butt" stroke-linejoin="miter" stroke-miterlimit="10" stroke-dasharray="" stroke-dashoffset="0" font-family="Sans Serif" font-weight="normal" text-anchor="start" style="mix-blend-mode: normal"><tspan x="0" dy="0">O+O+O+O</tspan></text></g></g></g></svg>