<svg version="1.1" xmlns="http://www.w3.org/2000/svg" xmlns:xlink="http://www.w3.org/1999/xlink" width="143.5" height="191.5" viewBox="0,0,143.5,191.5"><defs><linearGradient x1="239.78597" y1="114.18884" x2="239.78597" y2="178.23982" gradientUnits="userSpaceOnUse" id="color-1"><stop offset="0" stop-color="#000000"/><stop offset="1" stop-color="#ff0000"/></linearGradient><linearGradient x1="239.7838" y1="179.90129" x2="239.7838" y2="243.95228" gradientUnits="userSpaceOnUse" id="color-2"><stop offset="0" stop-color="#ff4600"/><stop offset="1" stop-color="#000000"/></linearGradient><radialGradient cx="240.11959" cy="179.5455" r="13.07245" gradientUnits="userSpaceOnUse" id="color-3"><stop offset="0" stop-color="#000000"/><stop offset="1" stop-color="#000cff"/></radialGradient></defs><g transform="translate(-169.77974,-87.67384)"><g data-paper-data="{&quot;isPaintingLayer&quot;:true}" fill-rule="nonzero" stroke-linejoin="miter" stroke-miterlimit="10" stroke-dasharray="" stroke-dashoffset="0" style="mix-blend-mode: normal"><g><path d="M222.71211,193.224l4.2159,-5.19961" data-paper-data="{&quot;origPos&quot;:null,&quot;index&quot;:null}" fill="none" stroke="#855d08" stroke-width="3.5" stroke-linecap="round"/><path d="M244.12702,187.6977l4.2159,5.19961" data-paper-data="{&quot;origPos&quot;:null,&quot;index&quot;:null}" fill="none" stroke="#855d08" stroke-width="3.5" stroke-linecap="round"/><path d="M235.12692,194.37319l0.01253,-5.1679" data-paper-data="{&quot;origPos&quot;:null,&quot;index&quot;:null,&quot;origRot&quot;:0}" fill="none" stroke="#855d08" stroke-width="3.5" stroke-linecap="round"/><path d="M174.02974,275.59051c0,0 -4,-5.34526 -4,-10.89999c0,-16.66422 0,-97.96444 0,-160.66667c0,-6.28323 4.33334,-11.76667 4.33334,-11.76667c0,0 5.11759,-4.33334 11.16666,-4.33334c44.09971,0 96.02357,0 113,0c5.65881,0 11.16666,5.33334 11.16666,5.33334c0,0 3.33334,4.28019 3.33334,10.43334c0,62.31197 0,141.44139 0,159.66666c0,6.07509 -2.66667,10.9 -2.66667,10.9c0,0 -6.17452,4.66666 -11.83333,4.66666c-16.97643,0 -69.10355,0 -113.33334,0c-5.91898,0 -11.16666,-3.33333 -11.16666,-3.33333z" fill="#ffffff" stroke="#000000" stroke-width="0.5" stroke-linecap="butt"/><g data-paper-data="{&quot;origPos&quot;:null}" fill="none" stroke="#000000" stroke-width="0.5" stroke-linecap="round"><g data-paper-data="{&quot;origPos&quot;:null}"><path d="M185.63843,104.55887v29.44268" data-paper-data="{&quot;origPos&quot;:null}"/><path d="M215.07726,104.55502h-29.44268" data-paper-data="{&quot;origPos&quot;:null,&quot;origRot&quot;:0}"/><path d="M186.24461,133.5108l28.68835,-28.68835" data-paper-data="{&quot;origPos&quot;:null,&quot;origRot&quot;:0}"/></g><g data-paper-data="{&quot;origPos&quot;:null,&quot;origRot&quot;:0}"><path d="M200.68467,119.15935v-14.60375" data-paper-data="{&quot;origPos&quot;:null}"/><path d="M200.68663,119.16126h-15.05333" data-paper-data="{&quot;origPos&quot;:null,&quot;origRot&quot;:0}"/><path d="M185.70709,119.02862l14.66765,-14.22959" data-paper-data="{&quot;origPos&quot;:null,&quot;origRot&quot;:0}"/></g></g><path d="M185.43326,260.6351v-155.96943h112.59825v155.96944z" data-paper-data="{&quot;origPos&quot;:null}" fill="none" stroke="#000000" stroke-width="0.5" stroke-linecap="butt"/><g data-paper-data="{&quot;origPos&quot;:null,&quot;origRot&quot;:0}" fill="none" stroke="#000000" stroke-width="0.5" stroke-linecap="round"><g data-paper-data="{&quot;origPos&quot;:null}"><path d="M298.22528,104.5598h-29.44269" data-paper-data="{&quot;origPos&quot;:null}"/><path d="M298.22913,104.55595v29.44268" data-paper-data="{&quot;origPos&quot;:null,&quot;origRot&quot;:0}"/><path d="M269.27336,105.16598l28.68834,28.68835" data-paper-data="{&quot;origPos&quot;:null,&quot;origRot&quot;:0}"/></g><g data-paper-data="{&quot;origPos&quot;:null,&quot;origRot&quot;:0}"><path d="M283.62479,119.60603h14.60375" data-paper-data="{&quot;origPos&quot;:null}"/><path d="M283.62288,119.60799v-15.05333" data-paper-data="{&quot;origPos&quot;:null,&quot;origRot&quot;:0}"/><path d="M297.98512,119.2961l-14.22959,-14.66765" data-paper-data="{&quot;origPos&quot;:null,&quot;origRot&quot;:0}"/></g></g><g data-paper-data="{&quot;origPos&quot;:null,&quot;origRot&quot;:0}" fill="none" stroke="#000000" stroke-width="0.5" stroke-linecap="round"><g data-paper-data="{&quot;origPos&quot;:null}"><path d="M298.22108,260.59836v-29.44269" data-paper-data="{&quot;origPos&quot;:null}"/><path d="M298.22493,260.60221h-29.44268" data-paper-data="{&quot;origPos&quot;:null,&quot;origRot&quot;:0}"/><path d="M268.92655,260.33478l28.68835,-28.68835" data-paper-data="{&quot;origPos&quot;:null,&quot;origRot&quot;:0}"/></g><g data-paper-data="{&quot;origPos&quot;:null,&quot;origRot&quot;:0}"><path d="M283.17484,260.60163v-14.60375" data-paper-data="{&quot;origPos&quot;:null}"/><path d="M283.17287,245.99598h15.05333" data-paper-data="{&quot;origPos&quot;:null,&quot;origRot&quot;:0}"/><path d="M283.48477,260.35821l14.66765,-14.22959" data-paper-data="{&quot;origPos&quot;:null,&quot;origRot&quot;:0}"/></g></g><g data-paper-data="{&quot;origPos&quot;:null,&quot;origRot&quot;:0}" fill="none" stroke="#000000" stroke-width="0.5" stroke-linecap="round"><g data-paper-data="{&quot;origPos&quot;:null}"><path d="M185.31836,260.59417h29.44268" data-paper-data="{&quot;origPos&quot;:null}"/><path d="M185.31451,260.59802v-29.44269" data-paper-data="{&quot;origPos&quot;:null,&quot;origRot&quot;:0}"/><path d="M185.58194,231.29964l28.68835,28.68835" data-paper-data="{&quot;origPos&quot;:null,&quot;origRot&quot;:0}"/></g><g data-paper-data="{&quot;origPos&quot;:null,&quot;origRot&quot;:0}"><path d="M185.31509,245.54793h14.60375" data-paper-data="{&quot;origPos&quot;:null}"/><path d="M199.92075,245.54595v15.05333" data-paper-data="{&quot;origPos&quot;:null,&quot;origRot&quot;:0}"/><path d="M185.55852,245.85786l14.22959,14.66765" data-paper-data="{&quot;origPos&quot;:null,&quot;origRot&quot;:0}"/></g></g><path d="M215.24696,178.23982l24.53901,-64.05097h0.83183l23.70718,64.05097z" data-paper-data="{&quot;origPos&quot;:null}" fill="url(#color-1)" stroke="#000000" stroke-width="2.5" stroke-linecap="butt"/><path d="M264.32281,179.90129l-24.53901,64.05097h-0.83183c0,0 -0.37048,-1.00094 -0.60761,-1.6416c-0.71138,-1.92197 -23.09957,-62.40937 -23.09957,-62.40937z" data-paper-data="{&quot;origPos&quot;:null,&quot;origRot&quot;:0}" fill="url(#color-2)" stroke="#000000" stroke-width="2.5" stroke-linecap="butt"/><path d="M263.33323,179.70969c-4.12687,5.9201 -10.79754,13.06672 -24.11698,13.06672c-11.57895,0 -24.10888,-12.66069 -24.11456,-12.87966c-0.00189,-0.07299 -0.00242,-0.11405 -0.00242,-0.18707c0,-0.54735 -0.10917,-0.90417 0.13558,-1.39376c0.70757,-1.41539 12.87678,-11.67297 23.9814,-11.67297c0,0 5.76473,0.20104 11.34565,2.32626c0,0 15.61476,6.66149 12.77133,10.74046z" data-paper-data="{&quot;origPos&quot;:null}" fill="#ffffff" stroke="#000000" stroke-width="0.5" stroke-linecap="butt"/><path d="M227.04714,179.5455c0,-7.21971 5.85273,-13.07245 13.07245,-13.07245c7.21971,0 13.07245,5.85273 13.07245,13.07245c0,7.21971 -5.85273,13.07245 -13.07245,13.07245c-7.21971,0 -13.07245,-5.85273 -13.07245,-13.07245z" data-paper-data="{&quot;origPos&quot;:null}" fill="url(#color-3)" stroke="#000000" stroke-width="0.5" stroke-linecap="butt"/><path d="M229.21088,167.46019l-4.2159,-5.19961" data-paper-data="{&quot;origPos&quot;:null}" fill="none" stroke="#855d08" stroke-width="3.5" stroke-linecap="round"/><path d="M249.09497,166.84543l4.21591,-5.19961" data-paper-data="{&quot;origPos&quot;:null,&quot;index&quot;:null}" fill="none" stroke="#855d08" stroke-width="3.5" stroke-linecap="round"/><path d="M227.71211,198.224l4.2159,-5.19961" data-paper-data="{&quot;origPos&quot;:null,&quot;index&quot;:null}" fill="none" stroke="#855d08" stroke-width="3.5" stroke-linecap="round"/><path d="M253.34292,197.89731l-4.21591,-5.19961" data-paper-data="{&quot;origPos&quot;:null,&quot;index&quot;:null}" fill="none" stroke="#855d08" stroke-width="3.5" stroke-linecap="round"/><path d="M234.70139,160.26384l1.29956,5.00185" data-paper-data="{&quot;origPos&quot;:null,&quot;index&quot;:null,&quot;origRot&quot;:0}" fill="none" stroke="#855d08" stroke-width="3.5" stroke-linecap="round"/><path d="M243.93606,160.15458l-1.29956,5.00185" data-paper-data="{&quot;origPos&quot;:null,&quot;index&quot;:null,&quot;origRot&quot;:0}" fill="none" stroke="#855d08" stroke-width="3.5" stroke-linecap="round"/><path d="M240.13945,194.2053l-0.01253,5.1679" data-paper-data="{&quot;origPos&quot;:null,&quot;index&quot;:null,&quot;origRot&quot;:0}" fill="none" stroke="#855d08" stroke-width="3.5" stroke-linecap="round"/><path d="M240.18051,192.27253c0,0 0.42912,-4.62604 -3.92352,-8.74486c-3.04125,-2.87788 -9.41574,-3.3132 -9.41574,-3.3132c0,0 6.00356,0.1301 9.49536,-3.50163c3.14263,-3.26856 3.41617,-9.72786 3.41617,-9.72786c0,0 0.01445,6.69734 3.22466,9.73511c3.43549,3.25094 9.61602,3.01544 9.61602,3.01544c0,0 -5.92169,0.17544 -9.25234,3.63956c-3.30379,3.43618 -3.16062,8.89745 -3.16062,8.89745z" data-paper-data="{&quot;origPos&quot;:null,&quot;origRot&quot;:0}" fill="#0090ff" stroke="#000000" stroke-width="0.5" stroke-linecap="butt"/><text transform="translate(220.59128,258.44852) scale(0.18863,0.18863)" font-size="40" xml:space="preserve" data-paper-data="{&quot;origPos&quot;:null}" fill="#000000" fill-rule="nonzero" stroke="none" stroke-width="1" stroke-linecap="butt" stroke-linejoin="miter" stroke-miterlimit="10" stroke-dasharray="" stroke-dashoffset="0" font-family="Sans Serif" font-weight="normal" text-anchor="start" style="mix-blend-mode: normal"><tspan x="0" dy="0">O+O+O+O</tspan></text><text transform="translate(295.65734,175.4524) rotate(-90) scale(0.18863,0.18863)" font-size="40" xml:space="preserve" data-paper-data="{&quot;origPos&quot;:null,&quot;origRot&quot;:-45}" fill="#000000" fill-rule="nonzero" stroke="none" stroke-width="1" stroke-linecap="butt" stroke-linejoin="miter" stroke-miterlimit="10" stroke-dasharray="" stroke-dashoffset="0" font-family="Sans Serif" font-weight="normal" text-anchor="start" style="mix-blend-mode: normal"><tspan x="0" dy="0">O+O+O+O</tspan></text><text transform="translate(223.31509,111.55565) scale(0.18863,0.18863)" font-size="40" xml:space="preserve" data-paper-data="{&quot;origPos&quot;:null}" fill="#000000" fill-rule="nonzero" stroke="none" stroke-width="1" stroke-linecap="butt" stroke-linejoin="miter" stroke-miterlimit="10" stroke-dasharray="" stroke-dashoffset="0" font-family="Sans Serif" font-weight="normal" text-anchor="start" style="mix-blend-mode: normal"><tspan x="0" dy="0">O+O+O+O</tspan></text><text transform="translate(295.65495,213.65003) rotate(-90) scale(0.18863,0.18863)" font-size="40" xml:space="preserve" data-paper-data="{&quot;origPos&quot;:null,&quot;origRot&quot;:-45}" fill="#000000" fill-rule="nonzero" stroke="none" stroke-width="1" stroke-linecap="butt" stroke-linejoin="miter" stroke-miterlimit="10" stroke-dasharray="" stroke-dashoffset="0" font-family="Sans Serif" font-weight="normal" text-anchor="start" style="mix-blend-mode: normal"><tspan x="0" dy="0">O+O+O+O</tspan></text><text transform="translate(192.424,177.72383) rotate(-90) scale(0.18863,0.18863)" font-size="40" xml:space="preserve" data-paper-data="{&quot;origPos&quot;:null,&quot;origRot&quot;:-45}" fill="#000000" fill-rule="nonzero" stroke="none" stroke-width="1" stroke-linecap="butt" stroke-linejoin="miter" stroke-miterlimit="10" stroke-dasharray="" stroke-dashoffset="0" font-family="Sans Serif" font-weight="normal" text-anchor="start" style="mix-blend-mode: normal"><tspan x="0" dy="0">O+O+O+O</tspan></text><text transform="translate(192.42162,215.92145) rotate(-90) scale(0.18863,0.18863)" font-size="40" xml:space="preserve" data-paper-data="{&quot;origPos&quot;:null,&quot;origRot&quot;:-45}" fill="#000000" fill-rule="nonzero" stroke="none" stroke-width="1" stroke-linecap="butt" stroke-linejoin="miter" stroke-miterlimit="10" stroke-dasharray="" stroke-dashoffset="0" font-family="Sans Serif" font-weight="normal" text-anchor="start" style="mix-blend-mode: normal"><tspan x="0" dy="0">O+O+O+O</tspan></text></g></g></g></svg>