<svg version="1.1" xmlns="http://www.w3.org/2000/svg" xmlns:xlink="http://www.w3.org/1999/xlink" width="143.5" height="191.5" viewBox="0,0,143.5,191.5"><defs><linearGradient x1="239.18154" y1="114.79329" x2="239.18154" y2="178.84427" gradientUnits="userSpaceOnUse" id="color-1"><stop offset="0" stop-color="#000000"/><stop offset="1" stop-color="#ff0000"/></linearGradient><linearGradient x1="239.17937" y1="180.50574" x2="239.17937" y2="244.55673" gradientUnits="userSpaceOnUse" id="color-2"><stop offset="0" stop-color="#ff4600"/><stop offset="1" stop-color="#000000"/></linearGradient><radialGradient cx="239.51516" cy="180.14995" r="13.07245" gradientUnits="userSpaceOnUse" id="color-3"><stop offset="0" stop-color="#000000"/><stop offset="1" stop-color="#000cff"/></radialGradient></defs><g transform="translate(-169.38441,-88.57884)"><g data-paper-data="{&quot;isPaintingLayer&quot;:true}" fill-rule="nonzero" stroke-linejoin="miter" stroke-miterlimit="10" stroke-dasharray="" stroke-dashoffset="0" style="mix-blend-mode: normal"><path d="M222.10768,193.82845l4.2159,-5.19961" data-paper-data="{&quot;index&quot;:null}" fill="none" stroke="#855d08" stroke-width="3.5" stroke-linecap="round"/><path d="M243.52259,188.30215l4.2159,5.19961" data-paper-data="{&quot;index&quot;:null}" fill="none" stroke="#855d08" stroke-width="3.5" stroke-linecap="round"/><path d="M234.52249,194.97764l0.01253,-5.1679" data-paper-data="{&quot;index&quot;:null,&quot;origRot&quot;:0}" fill="none" stroke="#855d08" stroke-width="3.5" stroke-linecap="round"/><path d="M173.63441,276.49551c0,0 -4,-5.34526 -4,-10.89999c0,-16.66422 0,-97.96444 0,-160.66667c0,-6.28323 4.33334,-11.76667 4.33334,-11.76667c0,0 5.11759,-4.33334 11.16666,-4.33334c44.09971,0 96.02357,0 113,0c5.65881,0 11.16666,5.33334 11.16666,5.33334c0,0 3.33334,4.28019 3.33334,10.43334c0,62.31197 0,141.44139 0,159.66666c0,6.07509 -2.66667,10.9 -2.66667,10.9c0,0 -6.17452,4.66666 -11.83333,4.66666c-16.97643,0 -69.10355,0 -113.33334,0c-5.91898,0 -11.16666,-3.33333 -11.16666,-3.33333z" fill="#ffffff" stroke="#000000" stroke-width="0.5" stroke-linecap="butt"/><path d="M184.82883,261.23954v-155.96943h112.59825v155.96944z" fill="none" stroke="#000000" stroke-width="1" stroke-linecap="butt"/><g data-paper-data="{&quot;origRot&quot;:0}" fill="none" stroke="#000000" stroke-width="1" stroke-linecap="round"><g data-paper-data="{&quot;origPos&quot;:null}"><path d="M297.62085,105.16425h-29.44269" data-paper-data="{&quot;origPos&quot;:null}"/><path d="M297.6247,105.1604v29.44268" data-paper-data="{&quot;origPos&quot;:null,&quot;origRot&quot;:0}"/><path d="M268.66893,105.77042l28.68834,28.68835" data-paper-data="{&quot;origPos&quot;:null,&quot;origRot&quot;:0}"/></g><g data-paper-data="{&quot;origPos&quot;:null,&quot;origRot&quot;:0}"><path d="M297.62411,120.21046h-14.60375" data-paper-data="{&quot;origPos&quot;:null}"/><path d="M283.01845,120.21243v-15.05333" data-paper-data="{&quot;origPos&quot;:null,&quot;origRot&quot;:0}"/><path d="M297.38069,119.90055l-14.22959,-14.66765" data-paper-data="{&quot;origPos&quot;:null,&quot;origRot&quot;:0}"/></g></g><g data-paper-data="{&quot;origRot&quot;:0}" fill="none" stroke="#000000" stroke-width="1" stroke-linecap="round"><g data-paper-data="{&quot;origPos&quot;:null}"><path d="M214.15661,261.19861h-29.44268" data-paper-data="{&quot;origPos&quot;:null}"/><path d="M184.71008,261.20246v-29.44269" data-paper-data="{&quot;origPos&quot;:null,&quot;origRot&quot;:0}"/><path d="M213.66586,260.59244l-28.68835,-28.68835" data-paper-data="{&quot;origPos&quot;:null,&quot;origRot&quot;:0}"/></g><g data-paper-data="{&quot;origPos&quot;:null,&quot;origRot&quot;:0}"><path d="M184.71066,246.15238h14.60375" data-paper-data="{&quot;origPos&quot;:null}"/><path d="M199.31632,261.20372v-15.05333" data-paper-data="{&quot;origPos&quot;:null,&quot;origRot&quot;:0}"/><path d="M184.95409,246.4623l14.22959,14.66765" data-paper-data="{&quot;origPos&quot;:null,&quot;origRot&quot;:0}"/></g></g><path d="M214.64253,178.84427l24.53901,-64.05097h0.83183l23.70718,64.05097z" fill="url(#color-1)" stroke="#000000" stroke-width="2.5" stroke-linecap="butt"/><path d="M263.71837,180.50574l-24.53901,64.05097h-0.83183c0,0 -0.37048,-1.00094 -0.60761,-1.6416c-0.71138,-1.92197 -23.09957,-62.40937 -23.09957,-62.40937z" data-paper-data="{&quot;origRot&quot;:0}" fill="url(#color-2)" stroke="#000000" stroke-width="2.5" stroke-linecap="butt"/><path d="M262.7288,180.31414c-4.12687,5.9201 -10.79754,13.06672 -24.11698,13.06672c-11.57895,0 -24.10888,-12.66069 -24.11456,-12.87966c-0.00189,-0.07299 -0.00242,-0.11405 -0.00242,-0.18707c0,-0.54735 -0.10917,-0.90417 0.13558,-1.39376c0.70757,-1.41539 12.87678,-11.67297 23.9814,-11.67297c0,0 5.76473,0.20104 11.34565,2.32626c0,0 15.61476,6.66149 12.77133,10.74046z" fill="#ffffff" stroke="#000000" stroke-width="0.5" stroke-linecap="butt"/><path d="M226.4427,180.14995c0,-7.21971 5.85273,-13.07245 13.07245,-13.07245c7.21971,0 13.07245,5.85273 13.07245,13.07245c0,7.21971 -5.85273,13.07245 -13.07245,13.07245c-7.21971,0 -13.07245,-5.85273 -13.07245,-13.07245z" fill="url(#color-3)" stroke="#000000" stroke-width="0.5" stroke-linecap="butt"/><path d="M239.57608,192.87698c0,0 0.42912,-4.62604 -3.92352,-8.74486c-3.04125,-2.87788 -9.41574,-3.3132 -9.41574,-3.3132c0,0 6.00356,0.1301 9.49536,-3.50163c3.14263,-3.26856 3.41617,-9.72786 3.41617,-9.72786c0,0 0.01445,6.69734 3.22466,9.73511c3.43549,3.25094 9.61602,3.01544 9.61602,3.01544c0,0 -5.92169,0.17544 -9.25234,3.63956c-3.30379,3.43618 -3.16062,8.89745 -3.16062,8.89745z" data-paper-data="{&quot;origRot&quot;:0}" fill="#0090ff" stroke="#000000" stroke-width="0.5" stroke-linecap="butt"/><text transform="translate(219.98685,259.05297) scale(0.18863,0.18863)" font-size="40" xml:space="preserve" fill="#000000" fill-rule="nonzero" stroke="none" stroke-width="1" stroke-linecap="butt" stroke-linejoin="miter" stroke-miterlimit="10" stroke-dasharray="" stroke-dashoffset="0" font-family="Sans Serif" font-weight="normal" text-anchor="start" style="mix-blend-mode: normal"><tspan x="0" dy="0">O+O+O+O</tspan></text><text transform="translate(295.05291,176.05685) rotate(-90) scale(0.18863,0.18863)" font-size="40" xml:space="preserve" data-paper-data="{&quot;origRot&quot;:-45}" fill="#000000" fill-rule="nonzero" stroke="none" stroke-width="1" stroke-linecap="butt" stroke-linejoin="miter" stroke-miterlimit="10" stroke-dasharray="" stroke-dashoffset="0" font-family="Sans Serif" font-weight="normal" text-anchor="start" style="mix-blend-mode: normal"><tspan x="0" dy="0">O+O+O+O</tspan></text><text transform="translate(222.71066,112.1601) scale(0.18863,0.18863)" font-size="40" xml:space="preserve" fill="#000000" fill-rule="nonzero" stroke="none" stroke-width="1" stroke-linecap="butt" stroke-linejoin="miter" stroke-miterlimit="10" stroke-dasharray="" stroke-dashoffset="0" font-family="Sans Serif" font-weight="normal" text-anchor="start" style="mix-blend-mode: normal"><tspan x="0" dy="0">O+O+O+O</tspan></text><text transform="translate(295.05052,214.25448) rotate(-90) scale(0.18863,0.18863)" font-size="40" xml:space="preserve" data-paper-data="{&quot;origRot&quot;:-45}" fill="#000000" fill-rule="nonzero" stroke="none" stroke-width="1" stroke-linecap="butt" stroke-linejoin="miter" stroke-miterlimit="10" stroke-dasharray="" stroke-dashoffset="0" font-family="Sans Serif" font-weight="normal" text-anchor="start" style="mix-blend-mode: normal"><tspan x="0" dy="0">O+O+O+O</tspan></text><text transform="translate(191.81957,178.32828) rotate(-90) scale(0.18863,0.18863)" font-size="40" xml:space="preserve" data-paper-data="{&quot;origRot&quot;:-45}" fill="#000000" fill-rule="nonzero" stroke="none" stroke-width="1" stroke-linecap="butt" stroke-linejoin="miter" stroke-miterlimit="10" stroke-dasharray="" stroke-dashoffset="0" font-family="Sans Serif" font-weight="normal" text-anchor="start" style="mix-blend-mode: normal"><tspan x="0" dy="0">O+O+O+O</tspan></text><text transform="translate(191.81719,216.5259) rotate(-90) scale(0.18863,0.18863)" font-size="40" xml:space="preserve" data-paper-data="{&quot;origRot&quot;:-45}" fill="#000000" fill-rule="nonzero" stroke="none" stroke-width="1" stroke-linecap="butt" stroke-linejoin="miter" stroke-miterlimit="10" stroke-dasharray="" stroke-dashoffset="0" font-family="Sans Serif" font-weight="normal" text-anchor="start" style="mix-blend-mode: normal"><tspan x="0" dy="0">O+O+O+O</tspan></text><path d="M228.52697,169.36012l-1.93606,-7.26005l0.5808,-0.15489l1.93607,7.26006z" fill="#000000" stroke="none" stroke-width="0" stroke-linecap="butt"/><path d="M249.49134,169.09484l3.76463,-6.50264l0.52022,0.30118l-3.76463,6.50264z" fill="#000000" stroke="none" stroke-width="0" stroke-linecap="butt"/><path d="M250.37828,191.32569l1.93606,7.26005l-0.5808,0.15489l-1.93607,-7.26005z" fill="#000000" stroke="none" stroke-width="0" stroke-linecap="butt"/><path d="M230.31556,191.89151l-3.76463,6.50264l-0.52022,-0.30118l3.76463,-6.50264z" fill="#000000" stroke="none" stroke-width="0" stroke-linecap="butt"/><path d="M238.90485,166.74908v-7.51377h0.6011v7.51377z" fill="#000000" stroke="none" stroke-width="0" stroke-linecap="butt"/><path d="M239.16089,201.15855v-7.51377h0.6011v7.51377z" fill="#000000" stroke="none" stroke-width="0" stroke-linecap="butt"/><g fill="#ffffff" stroke="#000000"><g data-paper-data="{&quot;origPos&quot;:null}" stroke-width="1" stroke-linecap="round"><g data-paper-data="{&quot;origPos&quot;:null}"><path d="M185.034,105.16332v29.44268" data-paper-data="{&quot;origPos&quot;:null}"/><path d="M214.47283,105.15947h-29.44268" data-paper-data="{&quot;origPos&quot;:null,&quot;origRot&quot;:0}"/><path d="M185.64018,134.11525l28.68835,-28.68835" data-paper-data="{&quot;origPos&quot;:null,&quot;origRot&quot;:0}"/></g><g data-paper-data="{&quot;origPos&quot;:null,&quot;origRot&quot;:0}"><path d="M200.08024,119.7638v-14.60375" data-paper-data="{&quot;origPos&quot;:null}"/><path d="M200.0822,119.76571h-15.05333" data-paper-data="{&quot;origPos&quot;:null,&quot;origRot&quot;:0}"/><path d="M185.10266,119.63307l14.66765,-14.22959" data-paper-data="{&quot;origPos&quot;:null,&quot;origRot&quot;:0}"/></g></g><path d="M190.19747,105.33218c0,0 3.19561,0.17924 2.49732,2.65982c-0.44209,2.20919 -3.56002,1.33145 -3.56002,1.33145c0,0 0.87546,3.22443 -1.27832,3.50689c-2.55166,0.47522 -2.79265,-2.47076 -2.79265,-2.47076l-0.1594,-5.21337v0.05313z" data-paper-data="{&quot;origRot&quot;:0}" stroke-width="0.5" stroke-linecap="butt"/></g><g fill="none" stroke="#000000"><g data-paper-data="{&quot;origPos&quot;:null}" stroke-width="1" stroke-linecap="round"><g data-paper-data="{&quot;origPos&quot;:null}"><path d="M297.84322,231.64621v29.44268" data-paper-data="{&quot;origPos&quot;:null}"/><path d="M297.84707,261.09274h-29.44268" data-paper-data="{&quot;origPos&quot;:null,&quot;origRot&quot;:0}"/><path d="M297.23704,232.13695l-28.68835,28.68835" data-paper-data="{&quot;origPos&quot;:null,&quot;origRot&quot;:0}"/></g><g data-paper-data="{&quot;origPos&quot;:null,&quot;origRot&quot;:0}"><path d="M282.79698,246.48841v14.60375" data-paper-data="{&quot;origPos&quot;:null}"/><path d="M297.84835,246.4865h-15.05333" data-paper-data="{&quot;origPos&quot;:null,&quot;origRot&quot;:0}"/><path d="M297.77456,246.61914l-14.66765,14.22959" data-paper-data="{&quot;origPos&quot;:null,&quot;origRot&quot;:0}"/></g></g><path d="M292.67975,260.92003c0,0 -3.19561,-0.17925 -2.49732,-2.65982c0.44209,-2.20918 3.56002,-1.33145 3.56002,-1.33145c0,0 -0.87546,-3.22443 1.27832,-3.50689c2.55166,-0.47521 2.79265,2.47076 2.79265,2.47076l0.1594,5.21337v-0.05313z" data-paper-data="{&quot;origRot&quot;:0}" stroke-width="0.5" stroke-linecap="butt"/></g></g></g></svg>