<svg version="1.1" xmlns="http://www.w3.org/2000/svg" xmlns:xlink="http://www.w3.org/1999/xlink" width="143.5" height="191.5" viewBox="0,0,143.5,191.5"><defs><radialGradient cx="240.41813" cy="179" r="25.71491" gradientUnits="userSpaceOnUse" id="color-1"><stop offset="0" stop-color="#000000"/><stop offset="1" stop-color="#ffffff"/></radialGradient></defs><g transform="translate(-168.25,-84.25)"><g data-paper-data="{&quot;isPaintingLayer&quot;:true}" fill-rule="nonzero" stroke-linejoin="miter" stroke-miterlimit="10" stroke-dasharray="" stroke-dashoffset="0" style="mix-blend-mode: normal"><path d="M172.5,272.16667c0,0 -4,-5.34526 -4,-10.89999c0,-16.66422 0,-97.96444 0,-160.66667c0,-6.28323 4.33334,-11.76667 4.33334,-11.76667c0,0 5.11759,-4.33334 11.16666,-4.33334c44.09971,0 96.02357,0 113,0c5.65881,0 11.16666,5.33334 11.16666,5.33334c0,0 3.33334,4.28019 3.33334,10.43334c0,62.31197 0,141.44139 0,159.66666c0,6.07509 -2.66667,10.9 -2.66667,10.9c0,0 -6.17452,4.66666 -11.83333,4.66666c-16.97643,0 -69.10355,0 -113.33334,0c-5.91898,0 -11.16666,-3.33333 -11.16666,-3.33333z" fill="#ffffff" stroke="#000000" stroke-width="0.5" stroke-linecap="butt"/><text transform="translate(181.4718,115.70191) scale(0.5,0.5)" font-size="40" xml:space="preserve" fill="#000000" fill-rule="nonzero" stroke="none" stroke-width="1" stroke-linecap="butt" stroke-linejoin="miter" stroke-miterlimit="10" stroke-dasharray="" stroke-dashoffset="0" font-family="Serif" font-weight="normal" text-anchor="start" style="mix-blend-mode: normal"><tspan x="0" dy="0">Q</tspan></text><text transform="translate(298.23251,248.32155) rotate(-180) scale(0.5,0.5)" font-size="40" xml:space="preserve" data-paper-data="{&quot;origRot&quot;:-45}" fill="#000000" fill-rule="nonzero" stroke="none" stroke-width="1" stroke-linecap="butt" stroke-linejoin="miter" stroke-miterlimit="10" stroke-dasharray="" stroke-dashoffset="0" font-family="Serif" font-weight="normal" text-anchor="start" style="mix-blend-mode: normal"><tspan x="0" dy="0">Q</tspan></text><g fill="#000000" stroke-linecap="butt"><path d="M185.27722,138.399l2.15667,-4.33968c0,0 0.31255,-2.44868 0.66529,-5.13339c0.04855,-0.05715 -1.33569,0.03692 -1.32652,-0.02801c0.01091,0.08339 -0.04874,-1.67331 -0.05372,-1.67722c-0.07022,-0.05524 1.71908,0.03261 1.73061,-0.05345c0.20502,-1.53001 0.28882,-3.03789 0.42939,-4.11746c0.02682,-0.20598 0.83621,0.07948 0.86414,0.28531c0.12903,0.95075 0.16491,2.66162 0.21073,3.8193c1.39782,-0.03935 1.34468,0.0264 1.64855,0.0233c0.05922,0.02965 -0.04753,1.83969 -0.06355,1.82971c-0.03767,-0.00343 -0.44721,-0.02361 -1.35862,-0.03043c-0.04976,0.01948 0.63031,5.21008 0.63031,5.21008l1.73789,4.28394z" stroke="#000000" stroke-width="0.5"/><path d="M181.30138,128.31378c0,-1.02079 0.51294,-3.08107 2.71178,-3.11115c0.00138,0.066 0.07739,1.09606 0.03426,1.11145c-2.35066,-0.01024 1.99296,-0.2095 -0.00652,-0.00004c-0.16585,-0.08165 0.0072,-1.05791 -0.05348,-1.12649c2.14418,0.16687 2.72684,2.19943 2.72684,3.12622c0,0.06521 -0.00231,0.12987 -0.00684,0.19393c-0.09942,1.40421 -1.27008,2.51251 -2.6996,2.51251c-1.49473,0 -2.70644,-1.21171 -2.70644,-2.70644z" stroke="none" stroke-width="0"/><path d="M185.776,120.97403c0,-1.02079 0.51294,-3.08107 2.71178,-3.11115c0.00138,0.066 0.07739,1.09606 0.03426,1.11145c-2.35066,-0.01024 1.99296,-0.2095 -0.00652,-0.00004c-0.16585,-0.08165 0.0072,-1.05791 -0.05348,-1.12649c2.14418,0.16687 2.72684,2.19943 2.72684,3.12622c0,1.49473 -1.21171,2.70644 -2.70644,2.70644c-1.49473,0 -2.70644,-1.21171 -2.70644,-2.70644z" stroke="none" stroke-width="0"/><path d="M191.24241,128.14294c0,-1.02079 0.51294,-3.08107 2.71178,-3.11115c0.00138,0.066 0.07739,1.09606 0.03426,1.11145c-2.35066,-0.01024 1.99296,-0.2095 -0.00652,-0.00004c-0.16585,-0.08165 0.0072,-1.05791 -0.05348,-1.12649c2.14418,0.16687 2.72684,2.19943 2.72684,3.12622c0,1.49473 -1.21171,2.70644 -2.70644,2.70644c-1.49473,0 -2.70644,-1.21171 -2.70644,-2.70644z" stroke="none" stroke-width="0"/></g><g data-paper-data="{&quot;origRot&quot;:0}" fill="#000000" stroke-linecap="butt"><path d="M294.04611,224.05313l-2.15667,4.33968c0,0 -0.31254,2.44867 -0.66528,5.13339c-0.04855,0.05715 1.33569,-0.03691 1.32651,0.02801c-0.01091,-0.08339 0.04875,1.67332 0.05372,1.67723c0.07022,0.05524 -1.71909,-0.03262 -1.73062,0.05344c-0.20502,1.53002 -0.28881,3.0379 -0.42939,4.11746c-0.02682,0.20599 -0.8362,-0.07948 -0.86414,-0.28531c-0.12904,-0.95075 -0.1649,-2.66161 -0.21073,-3.8193c-1.39783,0.03935 -1.34468,-0.0264 -1.64855,-0.02329c-0.05922,-0.02966 0.04753,-1.83969 0.06355,-1.82971c0.03767,0.00342 0.44721,0.02361 1.35863,0.03043c0.04976,-0.01947 -0.63031,-5.21008 -0.63031,-5.21008l-1.73789,-4.28394z" stroke="#000000" stroke-width="0.5"/><path d="M298.02196,234.13835c0,1.02079 -0.51294,3.08107 -2.71178,3.11115c-0.00138,-0.066 -0.07739,-1.09606 -0.03426,-1.11145c2.35066,0.01023 -1.99295,0.2095 0.00652,0.00004c0.16585,0.08165 -0.00719,1.05791 0.05349,1.12649c-2.14418,-0.16687 -2.72684,-2.19943 -2.72684,-3.12623c0,-0.0652 0.00231,-0.12988 0.00684,-0.19393c0.09942,-1.40421 1.27008,-2.51251 2.6996,-2.51251c1.49473,0 2.70644,1.21171 2.70644,2.70644z" stroke="none" stroke-width="0"/><path d="M293.54733,241.4781c0,1.02079 -0.51293,3.08107 -2.71178,3.11116c-0.00138,-0.066 -0.07739,-1.09606 -0.03426,-1.11146c2.35066,0.01024 -1.99296,0.20951 0.00652,0.00004c0.16584,0.08165 -0.0072,1.05791 0.05349,1.12648c-2.14418,-0.16687 -2.72685,-2.19943 -2.72685,-3.12622c0,-1.49472 1.21172,-2.70644 2.70644,-2.70644c1.49473,0 2.70644,1.21172 2.70644,2.70644z" stroke="none" stroke-width="0"/><path d="M288.08092,234.30919c0,1.0208 -0.51294,3.08107 -2.71177,3.11116c-0.00138,-0.066 -0.0774,-1.09606 -0.03427,-1.11145c2.35066,0.01023 -1.99296,0.2095 0.00652,0.00004c0.16584,0.08165 -0.0072,1.05791 0.05348,1.12648c-2.14418,-0.16687 -2.72685,-2.19943 -2.72685,-3.12623c0,-1.49472 1.21172,-2.70644 2.70644,-2.70644c1.49473,0 2.70644,1.21172 2.70644,2.70644z" stroke="none" stroke-width="0"/></g><path d="M204.5,179c0,-23.61017 16.00582,-42.75 35.75,-42.75c19.74419,0 35.75,19.13983 35.75,42.75c0,23.61018 -16.00581,42.75 -35.75,42.75c-19.74418,0 -35.75,-19.13983 -35.75,-42.75z" fill="#020084" stroke="none" stroke-width="0" stroke-linecap="butt"/><path d="M214.70322,179c0,-16.98275 11.51296,-30.75 25.71491,-30.75c14.20195,0 25.71491,13.76725 25.71491,30.75c0,16.98275 -11.51296,30.75 -25.71491,30.75c-14.20195,0 -25.71491,-13.76725 -25.71491,-30.75z" fill="url(#color-1)" stroke="none" stroke-width="0" stroke-linecap="butt"/><path d="M227.03801,179c0,-8.56042 5.80327,-15.5 12.96199,-15.5c7.15871,0 12.96199,6.93958 12.96199,15.5c0,8.56042 -5.80327,15.5 -12.96199,15.5c-7.15871,0 -12.96199,-6.93958 -12.96199,-15.5z" fill="#020084" stroke="none" stroke-width="0" stroke-linecap="butt"/><g><path d="M237.05993,135.98225l-1.66071,-24.85714h23.5c0,0 9.6595,15.95708 5,16.5c-6.91235,0.80543 -6.41276,7.32129 -5.62774,10.81117c0.29387,1.30644 -0.15104,2.18883 -1.37277,2.18883c-3.30792,0 -6.1131,-0.875 -9.24949,-0.875c-3.23298,0 -10.58929,-3.76786 -10.58929,-3.76786z" fill="#ffb89a" stroke="#000000" stroke-width="0.5" stroke-linecap="butt"/><path d="M258.70754,120.22512c0,0.82843 -0.91782,1.5 -2.05,1.5c-1.13218,0 -2.05,-0.67157 -2.05,-1.5c0,-0.82843 0.91782,-1.5 2.05,-1.5c1.13218,0 2.05,0.67157 2.05,1.5z" fill="#000000" stroke="#000000" stroke-width="0.5" stroke-linecap="butt"/><path d="M257.7242,132.08512c0,0 -1.99736,0.97312 -2.95236,0.96028c-0.90009,-0.01211 -2.87264,-1.66028 -2.87264,-1.66028" fill="none" stroke="#000000" stroke-width="0.5" stroke-linecap="round"/><path d="M260.10704,117.40768c0,0 -0.30535,0.875 -1.17073,1.375c-0.58873,0.34015 -1.82927,0 -1.82927,0" fill="none" stroke="#000000" stroke-width="0.5" stroke-linecap="round"/><path d="M221.48754,111.15273c0,0 5.5426,-6.22235 9.43096,-8.98187c5.69524,-4.04184 13.01891,-4.04184 18.41283,-0.44909c6.85945,4.5689 15.71827,-3.14365 15.71827,-3.14365l-3.59275,12.57461z" fill="#ffe54a" stroke="#000000" stroke-width="1" stroke-linecap="butt"/><path d="M243.12757,138.55752l-5.33334,-4.44047" fill="none" stroke="#000000" stroke-width="0.5" stroke-linecap="round"/><path d="M203.07359,152.12512c0,0 6.85095,-5.04285 9.27289,-10.33289c1.44816,-3.16309 -1.89953,-5.77208 -0.3167,-9.22933c2.21997,-4.84889 7.30327,-7.39926 8.49502,-10.00228c1.94262,-4.2431 1.54879,-11.9355 1.54879,-11.9355h27c0,0 0.51011,7.43845 -1.3755,11.55701c-1.40514,3.06912 -7.09456,6.94336 -9.78784,12.82605c-1.12073,2.4479 2.75788,3.89728 1.72807,6.14659c-2.5669,5.60665 -9.56474,10.97036 -9.56474,10.97036z" fill="#573600" stroke="none" stroke-width="0" stroke-linecap="butt"/><path d="M212.57359,152.12512c0,0 6.85095,-5.04285 9.27289,-10.33289c1.44816,-3.16309 -1.89953,-5.77208 -0.3167,-9.22933c2.21997,-4.84889 7.30327,-7.39926 8.49502,-10.00228c1.94262,-4.2431 1.54879,-11.9355 1.54879,-11.9355h7c0,0 0.51011,7.43845 -1.3755,11.55701c-1.40514,3.06912 -7.09456,6.94336 -9.78784,12.82605c-1.12073,2.4479 2.75788,3.89728 1.72807,6.14659c-2.5669,5.60665 -9.56474,10.97036 -9.56474,10.97036z" fill="#825000" stroke="none" stroke-width="0" stroke-linecap="butt"/><path d="M252.19858,117.88512l3.45,-2.575l3.775,-0.1" fill="none" stroke="#000000" stroke-width="0.5" stroke-linecap="round"/><path d="M257.43808,109.77146l0.69262,-1.3937c0,0 0.10037,-0.7864 0.21366,-1.6486c0.01559,-0.01835 -0.42896,0.01185 -0.42602,-0.00899c0.00351,0.02678 -0.01566,-0.53739 -0.01726,-0.53865c-0.02255,-0.01774 0.55208,0.01048 0.55579,-0.01716c0.06585,-0.49137 0.09276,-0.97563 0.1379,-1.32234c0.00862,-0.06615 0.26856,0.02552 0.27753,0.09163c0.04144,0.30533 0.05296,0.85479 0.06768,1.22658c0.44891,-0.01264 0.43184,0.00848 0.52943,0.00749c0.01902,0.00952 -0.01526,0.59082 -0.02041,0.58761c-0.0121,-0.0011 -0.14362,-0.00758 -0.43632,-0.00977c-0.01598,0.00625 0.20243,1.67323 0.20243,1.67323l0.55812,1.3758z" fill="#000000" stroke="#000000" stroke-width="0.5" stroke-linecap="butt"/><path d="M256.16123,106.53256c0,-0.32783 0.16473,-0.9895 0.8709,-0.99916c0.00045,0.0212 0.02485,0.352 0.011,0.35695c-0.75492,-0.00329 0.64004,-0.06728 -0.00209,-0.00002c-0.05327,-0.02622 0.00232,-0.33975 -0.01718,-0.36177c0.68861,0.05359 0.87574,0.70635 0.87574,1.00399c0,0.02094 -0.00074,0.04171 -0.0022,0.06229c-0.03193,0.45096 -0.40789,0.80689 -0.86698,0.80689c-0.48003,0 -0.86918,-0.38914 -0.86918,-0.86918z" fill="#000000" stroke="none" stroke-width="0" stroke-linecap="butt"/><path d="M257.59827,104.17538c0,-0.32783 0.16473,-0.9895 0.8709,-0.99916c0.00045,0.0212 0.02485,0.352 0.011,0.35695c-0.75492,-0.00329 0.64004,-0.06728 -0.00209,-0.00002c-0.05327,-0.02622 0.00232,-0.33975 -0.01717,-0.36177c0.68861,0.05359 0.87573,0.70635 0.87573,1.00399c0,0.48004 -0.38915,0.86918 -0.86918,0.86918c-0.48003,0 -0.86918,-0.38914 -0.86918,-0.86918z" fill="#000000" stroke="none" stroke-width="0" stroke-linecap="butt"/><path d="M259.35382,106.4777c0,-0.32783 0.16474,-0.9895 0.8709,-0.99916c0.00045,0.0212 0.02485,0.352 0.011,0.35694c-0.75492,-0.00329 0.64004,-0.06728 -0.00209,-0.00002c-0.05327,-0.02622 0.00232,-0.33975 -0.01718,-0.36177c0.68861,0.05359 0.87574,0.70636 0.87574,1.004c0,0.48004 -0.38915,0.86918 -0.86918,0.86918c-0.48003,0 -0.86919,-0.38914 -0.86919,-0.86918z" fill="#000000" stroke="none" stroke-width="0" stroke-linecap="butt"/></g><g><path d="M244.55679,222.86086l1.66071,24.85714h-23.5c0,0 -9.6595,-15.95708 -5,-16.5c6.91235,-0.80543 6.41276,-7.32129 5.62774,-10.81117c-0.29387,-1.30644 0.15104,-2.18883 1.37277,-2.18883c3.30792,0 6.1131,0.875 9.24949,0.875c3.23298,0 10.58929,3.76786 10.58929,3.76786z" fill="#ffb89a" stroke="#000000" stroke-width="0.5" stroke-linecap="butt"/><path d="M222.90918,238.61799c0,-0.82843 0.91782,-1.5 2.05,-1.5c1.13218,0 2.05,0.67157 2.05,1.5c0,0.82843 -0.91782,1.5 -2.05,1.5c-1.13218,0 -2.05,-0.67157 -2.05,-1.5z" fill="#000000" stroke="#000000" stroke-width="0.5" stroke-linecap="butt"/><path d="M223.89252,226.75799c0,0 1.99736,-0.97312 2.95236,-0.96028c0.90009,0.01211 2.87264,1.66028 2.87264,1.66028" fill="none" stroke="#000000" stroke-width="0.5" stroke-linecap="round"/><path d="M221.50968,241.43543c0,0 0.30535,-0.875 1.17073,-1.375c0.58873,-0.34015 1.82927,0 1.82927,0" fill="none" stroke="#000000" stroke-width="0.5" stroke-linecap="round"/><path d="M260.12918,247.69038c0,0 -5.5426,6.22235 -9.43096,8.98187c-5.69524,4.04184 -13.01891,4.04184 -18.41283,0.44909c-6.85945,-4.5689 -15.71827,3.14365 -15.71827,3.14365l3.59275,-12.57461z" fill="#ffe54a" stroke="#000000" stroke-width="1" stroke-linecap="butt"/><path d="M238.48915,220.28559l5.33334,4.44047" fill="none" stroke="#000000" stroke-width="0.5" stroke-linecap="round"/><path d="M278.54313,206.71799c0,0 -6.85095,5.04285 -9.27289,10.33289c-1.44816,3.16309 1.89953,5.77208 0.3167,9.22933c-2.21997,4.84889 -7.30327,7.39926 -8.49502,10.00228c-1.94262,4.2431 -1.54879,11.9355 -1.54879,11.9355h-27c0,0 -0.51011,-7.43845 1.3755,-11.55701c1.40514,-3.06912 7.09456,-6.94336 9.78784,-12.82605c1.12073,-2.4479 -2.75788,-3.89728 -1.72807,-6.14659c2.5669,-5.60665 9.56474,-10.97036 9.56474,-10.97036z" fill="#573600" stroke="none" stroke-width="0" stroke-linecap="butt"/><path d="M269.04313,206.71799c0,0 -6.85095,5.04285 -9.27289,10.33289c-1.44816,3.16309 1.89953,5.77208 0.3167,9.22933c-2.21997,4.84889 -7.30327,7.39926 -8.49502,10.00228c-1.94262,4.2431 -1.54879,11.9355 -1.54879,11.9355h-7c0,0 -0.51011,-7.43845 1.3755,-11.55701c1.40514,-3.06912 7.09456,-6.94336 9.78784,-12.82605c1.12073,-2.4479 -2.75788,-3.89728 -1.72807,-6.14659c2.5669,-5.60665 9.56474,-10.97036 9.56474,-10.97036z" fill="#825000" stroke="none" stroke-width="0" stroke-linecap="butt"/><path d="M229.41814,240.95799l-3.45,2.575l-3.775,0.1" fill="none" stroke="#000000" stroke-width="0.5" stroke-linecap="round"/><path d="M224.17864,249.07165l-0.69262,1.3937c0,0 -0.10037,0.7864 -0.21366,1.6486c-0.01559,0.01835 0.42896,-0.01185 0.42602,0.00899c-0.00351,-0.02678 0.01566,0.53739 0.01726,0.53865c0.02255,0.01774 -0.55208,-0.01048 -0.55579,0.01716c-0.06585,0.49137 -0.09276,0.97563 -0.1379,1.32234c-0.00862,0.06615 -0.26856,-0.02552 -0.27753,-0.09163c-0.04144,-0.30533 -0.05296,-0.85479 -0.06768,-1.22658c-0.44891,0.01264 -0.43184,-0.00848 -0.52943,-0.00749c-0.01902,-0.00952 0.01526,-0.59082 0.02041,-0.58761c0.0121,0.0011 0.14362,0.00758 0.43632,0.00977c0.01598,-0.00625 -0.20243,-1.67323 -0.20243,-1.67323l-0.55812,-1.3758z" fill="#000000" stroke="#000000" stroke-width="0.5" stroke-linecap="butt"/><path d="M225.45549,252.31055c0,0.32783 -0.16473,0.9895 -0.8709,0.99916c-0.00045,-0.0212 -0.02485,-0.352 -0.011,-0.35695c0.75492,0.00329 -0.64004,0.06728 0.00209,0.00002c0.05327,0.02622 -0.00232,0.33975 0.01718,0.36177c-0.68861,-0.05359 -0.87574,-0.70635 -0.87574,-1.00399c0,-0.02094 0.00074,-0.04171 0.0022,-0.06229c0.03193,-0.45096 0.40789,-0.80689 0.86698,-0.80689c0.48003,0 0.86918,0.38914 0.86918,0.86918z" fill="#000000" stroke="none" stroke-width="0" stroke-linecap="butt"/><path d="M224.01845,254.66773c0,0.32783 -0.16473,0.9895 -0.8709,0.99916c-0.00045,-0.0212 -0.02485,-0.352 -0.011,-0.35695c0.75492,0.00329 -0.64004,0.06728 0.00209,0.00002c0.05327,0.02622 -0.00232,0.33975 0.01717,0.36177c-0.68861,-0.05359 -0.87573,-0.70635 -0.87573,-1.00399c0,-0.48004 0.38915,-0.86918 0.86918,-0.86918c0.48003,0 0.86918,0.38914 0.86918,0.86918z" fill="#000000" stroke="none" stroke-width="0" stroke-linecap="butt"/><path d="M222.2629,252.36541c0,0.32783 -0.16474,0.9895 -0.8709,0.99916c-0.00045,-0.0212 -0.02485,-0.352 -0.011,-0.35694c0.75492,0.00329 -0.64004,0.06728 0.00209,0.00002c0.05327,0.02622 -0.00232,0.33975 0.01718,0.36177c-0.68861,-0.05359 -0.87574,-0.70636 -0.87574,-1.004c0,-0.48004 0.38915,-0.86918 0.86918,-0.86918c0.48003,0 0.86919,0.38914 0.86919,0.86918z" fill="#000000" stroke="none" stroke-width="0" stroke-linecap="butt"/></g></g></g></svg>