<svg version="1.1" xmlns="http://www.w3.org/2000/svg" xmlns:xlink="http://www.w3.org/1999/xlink" width="143.5" height="191.5" viewBox="0,0,143.5,191.5"><defs><radialGradient cx="245" cy="184.68224" r="30.75" gradientUnits="userSpaceOnUse" id="color-1"><stop offset="0" stop-color="#ff0000"/><stop offset="1" stop-color="#fbff00"/></radialGradient></defs><g transform="translate(-168.51442,-84.90834)"><g data-paper-data="{&quot;isPaintingLayer&quot;:true}" fill-rule="nonzero" stroke-linejoin="miter" stroke-miterlimit="10" stroke-dasharray="" stroke-dashoffset="0" style="mix-blend-mode: normal"><path d="M172.76442,272.82501c0,0 -4,-5.34526 -4,-10.89999c0,-16.66422 0,-97.96444 0,-160.66667c0,-6.28323 4.33334,-11.76667 4.33334,-11.76667c0,0 5.11759,-4.33334 11.16666,-4.33334c44.09971,0 96.02357,0 113,0c5.65881,0 11.16666,5.33334 11.16666,5.33334c0,0 3.33334,4.28019 3.33334,10.43334c0,62.31197 0,141.44139 0,159.66666c0,6.07509 -2.66667,10.9 -2.66667,10.9c0,0 -6.17452,4.66666 -11.83333,4.66666c-16.97643,0 -69.10355,0 -113.33334,0c-5.91898,0 -11.16666,-3.33333 -11.16666,-3.33333z" fill="#ffffff" stroke="#000000" stroke-width="0.5" stroke-linecap="butt"/><text transform="translate(180.9702,114.95637) scale(0.5,0.5)" font-size="40" xml:space="preserve" fill="#ff0000" fill-rule="nonzero" stroke="none" stroke-width="1" stroke-linecap="butt" stroke-linejoin="miter" stroke-miterlimit="10" stroke-dasharray="" stroke-dashoffset="0" font-family="Serif" font-weight="normal" text-anchor="start" style="mix-blend-mode: normal"><tspan x="0" dy="0">K</tspan></text><text transform="translate(298.23253,248.32155) rotate(-180) scale(0.5,0.5)" font-size="40" xml:space="preserve" data-paper-data="{&quot;origRot&quot;:-45}" fill="#ff0000" fill-rule="nonzero" stroke="none" stroke-width="1" stroke-linecap="butt" stroke-linejoin="miter" stroke-miterlimit="10" stroke-dasharray="" stroke-dashoffset="0" font-family="Serif" font-weight="normal" text-anchor="start" style="mix-blend-mode: normal"><tspan x="0" dy="0">K</tspan></text><path d="M188.78365,135.57056l-8.39025,-8.55449l8.39025,-8.55449l8.39025,8.55449z" data-paper-data="{&quot;origRot&quot;:0}" fill="#ff0000" stroke="#000000" stroke-width="0.5" stroke-linecap="butt"/><path d="M290.9244,244.09902l-8.39024,-8.55449l8.39024,-8.55449l8.39025,8.55449z" data-paper-data="{&quot;origRot&quot;:0}" fill="#ff0000" stroke="#000000" stroke-width="0.5" stroke-linecap="butt"/><g stroke="none" stroke-width="0" stroke-linecap="butt"><path d="M202.25003,184.68224c0,-23.61017 19.13983,-42.75 42.75,-42.75c23.61018,0 42.75,19.13983 42.75,42.75c0,23.61018 -19.13982,42.75 -42.75,42.75c-23.61017,0 -42.75,-19.13983 -42.75,-42.75z" fill="#b60000"/><path d="M214.25,184.68224c0,-16.98275 13.76725,-30.75 30.75,-30.75c16.98275,0 30.75,13.76725 30.75,30.75c0,16.98275 -13.76725,30.75 -30.75,30.75c-16.98275,0 -30.75,-13.76725 -30.75,-30.75z" fill="url(#color-1)"/><path d="M229.5,184.68224c0,-8.56042 6.93958,-15.5 15.5,-15.5c8.56042,0 15.5,6.93958 15.5,15.5c0,8.56042 -6.93958,15.5 -15.5,15.5c-8.56042,0 -15.5,-6.93958 -15.5,-15.5z" fill="#b60000"/></g><g><path d="M242.62315,138.7078l0.5,-22.5h23.5c0,0 9.6595,15.95708 5,16.5c-9.5,1.10694 -5,13 -5,13c0,0 -10.70524,0 -15,0c-3.23298,0 -9,-7 -9,-7z" fill="#ffb89a" stroke="#000000" stroke-width="0.5" stroke-linecap="butt"/><path d="M210.33193,157.8214c0,0 6.85095,-5.04285 9.27289,-10.33289c1.44816,-3.16309 -1.89953,-5.77208 -0.3167,-9.22933c2.21997,-4.84889 7.30327,-7.39926 8.49502,-10.00228c1.94262,-4.2431 1.54879,-11.9355 1.54879,-11.9355h27c0,0 0.51011,7.43845 -1.3755,11.55701c-1.40514,3.06912 -7.09456,6.94336 -9.78784,12.82605c-1.12073,2.4479 2.75788,3.89728 1.72807,6.14659c-2.5669,5.60665 -9.56474,10.97036 -9.56474,10.97036z" fill="#cf8000" stroke="none" stroke-width="0" stroke-linecap="butt"/><path d="M219.70041,157.45329c0,0 6.85095,-5.04285 9.27289,-10.33289c1.44816,-3.16309 -1.89953,-5.77208 -0.3167,-9.22933c2.21997,-4.84889 7.30327,-7.39926 8.49502,-10.00228c1.94262,-4.2431 1.54879,-11.9355 1.54879,-11.9355h7c0,0 0.51011,7.43845 -1.3755,11.55701c-1.40514,3.06912 -7.09456,6.94336 -9.78784,12.82605c-1.12073,2.4479 2.75788,3.89728 1.72807,6.14659c-2.5669,5.60665 -9.56474,10.97036 -9.56474,10.97036z" fill="#825000" stroke="none" stroke-width="0" stroke-linecap="butt"/><path d="M266.72315,125.3078c0,0.82843 -0.91782,1.5 -2.05,1.5c-1.13218,0 -2.05,-0.67157 -2.05,-1.5c0,-0.82843 0.91782,-1.5 2.05,-1.5c1.13218,0 2.05,0.67157 2.05,1.5z" fill="#000000" stroke="#000000" stroke-width="0.5" stroke-linecap="butt"/><path d="M268.17314,123.1678l-5.4,-1.4l-2.2,-0.8" fill="none" stroke="#000000" stroke-width="0.5" stroke-linecap="round"/><path d="M265.50255,138.95753l-4.3043,-1.53396" fill="none" stroke="#000000" stroke-width="0.5" stroke-linecap="round"/><path d="M258.01088,135.86037c-0.09244,-0.392 0.54519,0.31141 2.02426,-0.13777c1.84896,-0.79393 3.30199,-2.41423 3.65146,-2.54091c2.15853,-0.78244 2.12917,1.65317 2.48796,2.87234c0,0 0.21174,0.71949 -0.50775,0.93123c-0.71949,0.21174 -0.93123,-0.50775 -0.93123,-0.50775c-0.35924,-1.2207 -0.08349,-2.30848 -0.44506,-1.85178c-0.73355,0.92655 -3.40824,2.35013 -4.64953,2.37596c-0.13657,-0.0154 -1.45796,-0.41135 -1.63011,-1.14133z" fill="#000000" stroke="none" stroke-width="0.5" stroke-linecap="butt"/><path d="M229.73729,116.47479l-2.24547,-12.57461c0,0 7.78808,6.35226 11.67643,3.59274c5.69524,-4.04184 13.01891,-4.04184 18.41284,-0.44909c6.85945,4.56889 15.71827,-3.14365 15.71827,-3.14365l-3.59275,12.57461z" fill="#ffe54a" stroke="#000000" stroke-width="1" stroke-linecap="butt"/><path d="M248.97356,114.00432l-3.47734,-3.54541l3.47734,-3.54541l3.47733,3.54541z" data-paper-data="{&quot;origRot&quot;:0}" fill="#ff0000" stroke="#000000" stroke-width="0.5" stroke-linecap="butt"/></g><g><path d="M250.34146,231.34711l-0.5,22.5h-23.5c0,0 -9.6595,-15.95708 -5,-16.5c9.5,-1.10694 5,-13 5,-13c0,0 10.70524,0 15,0c3.23298,0 9,7 9,7z" fill="#ffb89a" stroke="#000000" stroke-width="0.5" stroke-linecap="butt"/><path d="M282.63269,212.23352c0,0 -6.85095,5.04285 -9.27289,10.33289c-1.44816,3.16309 1.89953,5.77208 0.3167,9.22933c-2.21997,4.84889 -7.30327,7.39926 -8.49502,10.00228c-1.94262,4.2431 -1.54879,11.9355 -1.54879,11.9355h-27c0,0 -0.51011,-7.43845 1.3755,-11.55701c1.40514,-3.06912 7.09456,-6.94336 9.78784,-12.82605c1.12073,-2.4479 -2.75788,-3.89728 -1.72807,-6.14659c2.5669,-5.60665 9.56474,-10.97036 9.56474,-10.97036z" fill="#cf8000" stroke="none" stroke-width="0" stroke-linecap="butt"/><path d="M273.2642,212.60162c0,0 -6.85095,5.04285 -9.27289,10.33289c-1.44816,3.16309 1.89953,5.77208 0.3167,9.22933c-2.21997,4.84889 -7.30327,7.39926 -8.49502,10.00228c-1.94262,4.2431 -1.54879,11.9355 -1.54879,11.9355h-7c0,0 -0.51011,-7.43845 1.3755,-11.55701c1.40514,-3.06912 7.09456,-6.94336 9.78784,-12.82605c1.12073,-2.4479 -2.75788,-3.89728 -1.72807,-6.14659c2.5669,-5.60665 9.56474,-10.97036 9.56474,-10.97036z" fill="#825000" stroke="none" stroke-width="0" stroke-linecap="butt"/><path d="M226.24146,244.74711c0,-0.82843 0.91782,-1.5 2.05,-1.5c1.13218,0 2.05,0.67157 2.05,1.5c0,0.82843 -0.91782,1.5 -2.05,1.5c-1.13218,0 -2.05,-0.67157 -2.05,-1.5z" fill="#000000" stroke="#000000" stroke-width="0.5" stroke-linecap="butt"/><path d="M224.79147,246.88711l5.4,1.4l2.2,0.8" fill="none" stroke="#000000" stroke-width="0.5" stroke-linecap="round"/><path d="M227.46206,231.09738l4.3043,1.53396" fill="none" stroke="#000000" stroke-width="0.5" stroke-linecap="round"/><path d="M234.95373,234.19454c0.09244,0.392 -0.54519,-0.31141 -2.02426,0.13777c-1.84896,0.79393 -3.30199,2.41423 -3.65146,2.54091c-2.15853,0.78244 -2.12917,-1.65317 -2.48796,-2.87234c0,0 -0.21174,-0.71949 0.50775,-0.93123c0.71949,-0.21174 0.93123,0.50775 0.93123,0.50775c0.35924,1.2207 0.08349,2.30848 0.44506,1.85178c0.73355,-0.92655 3.40824,-2.35013 4.64953,-2.37596c0.13657,0.0154 1.45796,0.41135 1.63011,1.14133z" fill="#000000" stroke="none" stroke-width="0.5" stroke-linecap="butt"/><path d="M263.22733,253.58013l2.24547,12.57461c0,0 -7.78808,-6.35226 -11.67643,-3.59274c-5.69524,4.04184 -13.01891,4.04184 -18.41284,0.44909c-6.85945,-4.56889 -15.71827,3.14365 -15.71827,3.14365l3.59275,-12.57461z" fill="#ffe54a" stroke="#000000" stroke-width="1" stroke-linecap="butt"/><path d="M243.99105,256.05059l3.47734,3.5454l-3.47734,3.5454l-3.47733,-3.5454z" data-paper-data="{&quot;origRot&quot;:0}" fill="#ff0000" stroke="#000000" stroke-width="0.5" stroke-linecap="butt"/></g></g></g></svg>