<svg version="1.1" xmlns="http://www.w3.org/2000/svg" xmlns:xlink="http://www.w3.org/1999/xlink" width="143.5" height="191.5" viewBox="0,0,143.5,191.5"><defs><radialGradient cx="240.50002" cy="180" r="30.75" gradientUnits="userSpaceOnUse" id="color-1"><stop offset="0" stop-color="#000000"/><stop offset="1" stop-color="#ffffff"/></radialGradient></defs><g transform="translate(-168.25,-84.25)"><g data-paper-data="{&quot;isPaintingLayer&quot;:true}" fill-rule="nonzero" stroke-linejoin="miter" stroke-miterlimit="10" stroke-dasharray="" stroke-dashoffset="0" style="mix-blend-mode: normal"><path d="M172.5,272.16667c0,0 -4,-5.34526 -4,-10.89999c0,-16.66422 0,-97.96444 0,-160.66667c0,-6.28323 4.33334,-11.76667 4.33334,-11.76667c0,0 5.11759,-4.33334 11.16666,-4.33334c44.09971,0 96.02357,0 113,0c5.65881,0 11.16666,5.33334 11.16666,5.33334c0,0 3.33334,4.28019 3.33334,10.43334c0,62.31197 0,141.44139 0,159.66666c0,6.07509 -2.66667,10.9 -2.66667,10.9c0,0 -6.17452,4.66666 -11.83333,4.66666c-16.97643,0 -69.10355,0 -113.33334,0c-5.91898,0 -11.16666,-3.33333 -11.16666,-3.33333z" fill="#ffffff" stroke="#000000" stroke-width="0.5" stroke-linecap="butt"/><text transform="translate(183.22553,116.30634) scale(0.5,0.5)" font-size="40" xml:space="preserve" fill="#000000" fill-rule="nonzero" stroke="none" stroke-width="1" stroke-linecap="butt" stroke-linejoin="miter" stroke-miterlimit="10" stroke-dasharray="" stroke-dashoffset="0" font-family="Serif" font-weight="normal" text-anchor="start" style="mix-blend-mode: normal"><tspan x="0" dy="0">J</tspan></text><g fill="#000000" stroke="#000000" stroke-linecap="butt"><path d="M195.29959,128.65889c0,0 3.96298,4.43397 -0.21349,6.7756c-3.48333,2.32165 -6.42655,-2.92795 -6.42655,-2.92795c0,0 -3.08613,5.38656 -6.28693,2.92795c-3.97679,-2.72809 -0.42292,-6.91522 -0.42292,-6.91522l6.64004,-7.0589l-0.06981,0.06981z" data-paper-data="{&quot;origRot&quot;:0}" stroke-width="1.5"/><path d="M185.1632,138.54742l1.68521,-4.15409c0,0 1.02125,-8.64654 1.58939,-12.83275c0.02709,-0.19959 -0.01956,-0.10685 0.00645,0.09289c0.42605,3.27208 1.67842,12.616 1.67842,12.616l2.09131,4.20815z" stroke-width="0.5"/></g><path d="M197.25002,180c0,-23.61017 19.13983,-42.75 42.75,-42.75c23.61018,0 42.75,19.13983 42.75,42.75c0,23.61018 -19.13982,42.75 -42.75,42.75c-23.61017,0 -42.75,-19.13983 -42.75,-42.75z" fill="#02005e" stroke="none" stroke-width="0" stroke-linecap="butt"/><path d="M209.75002,180c0,-16.98275 13.76725,-30.75 30.75,-30.75c16.98275,0 30.75,13.76725 30.75,30.75c0,16.98275 -13.76725,30.75 -30.75,30.75c-16.98275,0 -30.75,-13.76725 -30.75,-30.75z" fill="url(#color-1)" stroke="none" stroke-width="0" stroke-linecap="butt"/><path d="M224.50002,180c0,-8.56042 6.93958,-15.5 15.5,-15.5c8.56042,0 15.5,6.93958 15.5,15.5c0,8.56042 -6.93958,15.5 -15.5,15.5c-8.56042,0 -15.5,-6.93958 -15.5,-15.5z" fill="#02005e" stroke="none" stroke-width="0" stroke-linecap="butt"/><g><path d="M237.30946,134.54882l0.5,-22.5h23.5c0,0 9.6595,15.95708 5,16.5c-9.5,1.10694 -5,13 -5,13c0,0 -10.70524,0 -15,0c-3.23298,0 -9,-7 -9,-7z" fill="#ffb89a" stroke="#000000" stroke-width="0.5" stroke-linecap="butt"/><path d="M214.28235,142.71593c1.44816,-3.16309 -1.89953,-5.77208 -0.3167,-9.22933c2.21997,-4.84889 7.30327,-7.39926 8.49502,-10.00228c1.94262,-4.2431 1.54879,-11.9355 1.54879,-11.9355h27c0,0 0.51011,7.43845 -1.3755,11.55701c-1.40514,3.06912 -7.09456,6.94336 -9.78784,12.82605c-1.12073,2.4479 2.75788,3.89728 1.72807,6.14659c-2.5669,5.60665 -29.71378,5.9275 -27.29184,0.63746z" fill="#ffca00" stroke="none" stroke-width="0" stroke-linecap="butt"/><path d="M223.5914,145.96203c1.44816,-3.16309 -1.70858,-9.01818 -0.12575,-12.47543c2.21997,-4.84889 7.30327,-7.39926 8.49502,-10.00228c1.94262,-4.2431 1.54879,-11.9355 1.54879,-11.9355h7c0,0 0.51011,7.43845 -1.3755,11.55701c-1.40514,3.06912 -7.09456,6.94336 -9.78784,12.82605c-1.12073,2.4479 2.94882,7.71622 1.91902,9.96553c-3.52164,0.06919 -2.83969,0.77193 -7.67373,0.06462z" fill="#d28200" stroke="none" stroke-width="0" stroke-linecap="butt"/><path d="M261.40945,121.14882c0,0.82843 -0.91782,1.5 -2.05,1.5c-1.13218,0 -2.05,-0.67157 -2.05,-1.5c0,-0.82843 0.91782,-1.5 2.05,-1.5c1.13218,0 2.05,0.67157 2.05,1.5z" fill="#000000" stroke="#000000" stroke-width="0.5" stroke-linecap="butt"/><path d="M262.85945,119.00882l-5.4,-1.4l-2.2,-0.8" fill="none" stroke="#000000" stroke-width="0.5" stroke-linecap="round"/><path d="M260.25946,133.00882l-4.2,1.8" fill="none" stroke="#000000" stroke-width="0.5" stroke-linecap="round"/><path d="M224.29208,112.18429l-2.24547,-12.57461c0,0 7.78808,6.35226 11.67643,3.59274c5.69524,-4.04184 13.01891,-4.04184 18.41284,-0.44909c6.85945,4.56889 15.71827,-3.14365 15.71827,-3.14365l-3.59275,12.57461z" fill="#02005e" stroke="#000000" stroke-width="1" stroke-linecap="butt"/><path d="M245.95485,105.00217c0,0 1.41838,1.55756 -0.07641,2.38012c-1.24671,0.81555 -2.30012,-1.02852 -2.30012,-1.02852c0,0 -1.10455,1.89218 -2.25014,1.02852c-1.42333,-0.95831 -0.15136,-2.42916 -0.15136,-2.42916l2.37652,-2.47963l-0.02499,0.02452z" data-paper-data="{&quot;origRot&quot;:0}" fill="#ffffff" stroke="none" stroke-width="0" stroke-linecap="butt"/><path d="M242.32696,108.47579l0.60315,-1.45924c0,0 0.36551,-3.03733 0.56885,-4.50786c0.00969,-0.07011 -0.007,-0.03754 0.00231,0.03263c0.10015,0.75485 0.32784,2.42962 0.47236,3.49047c0.07554,0.55449 0.12836,0.94125 0.12836,0.94125l0.7485,1.47823z" fill="#ffffff" stroke="none" stroke-width="0" stroke-linecap="butt"/></g><text transform="translate(294.3316,248.32155) rotate(-180) scale(0.5,0.5)" font-size="40" xml:space="preserve" data-paper-data="{&quot;origRot&quot;:-45}" fill="#000000" fill-rule="nonzero" stroke="none" stroke-width="1" stroke-linecap="butt" stroke-linejoin="miter" stroke-miterlimit="10" stroke-dasharray="" stroke-dashoffset="0" font-family="Serif" font-weight="normal" text-anchor="start" style="mix-blend-mode: normal"><tspan x="0" dy="0">J</tspan></text><g data-paper-data="{&quot;origRot&quot;:0}" fill="#000000" stroke-linecap="butt"><path d="M294.9055,223.19374l-2.15667,4.33968c0,0 -0.31254,2.44867 -0.66528,5.13339c-0.04855,0.05715 1.33569,-0.03691 1.32651,0.02801c-0.01091,-0.08339 0.04875,1.67332 0.05372,1.67723c0.07022,0.05524 -1.71909,-0.03262 -1.73062,0.05344c-0.20502,1.53002 -0.28881,3.0379 -0.42939,4.11746c-0.02682,0.20599 -0.8362,-0.07948 -0.86414,-0.28531c-0.12904,-0.95075 -0.1649,-2.66161 -0.21073,-3.8193c-1.39783,0.03935 -1.34468,-0.0264 -1.64855,-0.02329c-0.05922,-0.02966 0.04753,-1.83969 0.06355,-1.82971c0.03767,0.00342 0.44721,0.02361 1.35863,0.03043c0.04976,-0.01947 -0.63031,-5.21008 -0.63031,-5.21008l-1.73789,-4.28394z" stroke="#000000" stroke-width="0.5"/><path d="M298.88135,233.27896c0,1.02079 -0.51294,3.08107 -2.71178,3.11115c-0.00138,-0.066 -0.07739,-1.09606 -0.03426,-1.11145c2.35066,0.01023 -1.99295,0.2095 0.00652,0.00004c0.16585,0.08165 -0.00719,1.05791 0.05349,1.12649c-2.14418,-0.16687 -2.72684,-2.19943 -2.72684,-3.12623c0,-0.0652 0.00231,-0.12988 0.00684,-0.19393c0.09942,-1.40421 1.27008,-2.51251 2.6996,-2.51251c1.49473,0 2.70644,1.21171 2.70644,2.70644z" stroke="none" stroke-width="0"/><path d="M294.40672,240.61871c0,1.02079 -0.51293,3.08107 -2.71178,3.11116c-0.00138,-0.066 -0.07739,-1.09606 -0.03426,-1.11146c2.35066,0.01024 -1.99296,0.20951 0.00652,0.00004c0.16584,0.08165 -0.0072,1.05791 0.05349,1.12648c-2.14418,-0.16687 -2.72685,-2.19943 -2.72685,-3.12622c0,-1.49472 1.21172,-2.70644 2.70644,-2.70644c1.49473,0 2.70644,1.21172 2.70644,2.70644z" stroke="none" stroke-width="0"/><path d="M288.94031,233.4498c0,1.0208 -0.51294,3.08107 -2.71177,3.11116c-0.00138,-0.066 -0.0774,-1.09606 -0.03427,-1.11145c2.35066,0.01023 -1.99296,0.2095 0.00652,0.00004c0.16584,0.08165 -0.0072,1.05791 0.05348,1.12648c-2.14418,-0.16687 -2.72685,-2.19943 -2.72685,-3.12623c0,-1.49472 1.21172,-2.70644 2.70644,-2.70644c1.49473,0 2.70644,1.21172 2.70644,2.70644z" stroke="none" stroke-width="0"/></g><g><path d="M247.48343,226.69005l-0.5,22.5h-23.5c0,0 -9.6595,-15.95708 -5,-16.5c9.5,-1.10694 5,-13 5,-13c0,0 10.70524,0 15,0c3.23298,0 9,7 9,7z" fill="#ffb89a" stroke="#000000" stroke-width="0.5" stroke-linecap="butt"/><path d="M271.17052,218.24516c-1.44816,3.16309 1.89953,5.77208 0.3167,9.22933c-2.21997,4.84889 -7.30327,7.39926 -8.49502,10.00228c-1.94262,4.2431 -1.54879,11.9355 -1.54879,11.9355h-27c0,0 -0.51011,-7.43845 1.3755,-11.55701c1.40514,-3.06912 7.09456,-6.94336 9.78784,-12.82605c1.12073,-2.4479 -2.75788,-3.89728 -1.72807,-6.14659c2.5669,-5.60665 29.71378,-5.9275 27.29184,-0.63746z" fill="#000000" stroke="none" stroke-width="0" stroke-linecap="butt"/><path d="M261.75036,215.22128c-1.44816,3.16309 1.70858,9.01818 0.12575,12.47543c-2.21997,4.84889 -7.30327,7.39926 -8.49502,10.00228c-1.94262,4.2431 -1.54879,11.9355 -1.54879,11.9355h-7c0,0 -0.51011,-7.43845 1.3755,-11.55701c1.40514,-3.06912 7.09456,-6.94336 9.78784,-12.82605c1.12073,-2.4479 -2.94882,-7.71622 -1.91902,-9.96553c3.52164,-0.06919 2.83969,-0.77193 7.67373,-0.06462z" fill="#b3aca1" stroke="none" stroke-width="0" stroke-linecap="butt"/><path d="M223.49455,239.97894c0,-0.82843 0.91782,-1.5 2.05,-1.5c1.13218,0 2.05,0.67157 2.05,1.5c0,0.82843 -0.91782,1.5 -2.05,1.5c-1.13218,0 -2.05,-0.67157 -2.05,-1.5z" fill="#000000" stroke="#000000" stroke-width="0.5" stroke-linecap="butt"/><path d="M222.04455,242.11894l5.4,1.4l2.2,0.8" fill="none" stroke="#000000" stroke-width="0.5" stroke-linecap="round"/><path d="M224.53343,228.23005l4.2,-1.8" fill="none" stroke="#000000" stroke-width="0.5" stroke-linecap="round"/><path d="M261.21635,248.94347l2.24547,12.57461c0,0 -7.78808,-6.35226 -11.67643,-3.59274c-5.69524,4.04184 -13.01891,4.04184 -18.41284,0.44909c-6.85945,-4.56889 -15.71827,3.14365 -15.71827,3.14365l3.59275,-12.57461z" fill="#02005e" stroke="#000000" stroke-width="1" stroke-linecap="butt"/><g fill="#ffffff" stroke="none" stroke-width="0" stroke-linecap="butt"><path d="M243.8137,250.52804l-0.93663,1.8847c0,0 -0.13573,1.06344 -0.28893,2.2294c-0.02108,0.02482 0.58008,-0.01603 0.5761,0.01217c-0.00474,-0.03622 0.02117,0.72671 0.02333,0.7284c0.03049,0.02399 -0.74659,-0.01416 -0.7516,0.02322c-0.08904,0.66447 -0.12543,1.31934 -0.18648,1.78818c-0.01165,0.08945 -0.36316,-0.03452 -0.37529,-0.12391c-0.05604,-0.41291 -0.07162,-1.15592 -0.09152,-1.6587c-0.60707,0.01709 -0.58398,-0.01147 -0.71596,-0.01012c-0.02572,-0.01288 0.02064,-0.79896 0.0276,-0.79463c0.01636,0.00149 0.19422,0.01025 0.59004,0.01321c0.02161,-0.00846 -0.27374,-2.26271 -0.27374,-2.26271l-0.75475,-1.86049z"/><path d="M245.54038,254.90799c0,0.44332 -0.22276,1.33809 -1.17771,1.35115c-0.0006,-0.02866 -0.03361,-0.47601 -0.01488,-0.48269c1.02088,0.00445 -0.86553,0.09098 0.00284,0.00001c0.07203,0.03546 -0.00313,0.45945 0.02322,0.48923c-0.93121,-0.07247 -1.18425,-0.9552 -1.18425,-1.3577c0,-0.02832 0.00101,-0.0564 0.00297,-0.08422c0.04318,-0.60984 0.55159,-1.09117 1.17242,-1.09117c0.64915,0 1.17539,0.52624 1.17539,1.17539z"/><path d="M243.59708,258.0956c0,0.44333 -0.22276,1.33809 -1.17771,1.35115c-0.0006,-0.02866 -0.03361,-0.47601 -0.01488,-0.48269c1.02088,0.00444 -0.86553,0.09098 0.00283,0.00001c0.07203,0.03546 -0.00313,0.45945 0.02323,0.48923c-0.93121,-0.07247 -1.18426,-0.9552 -1.18426,-1.3577c0,-0.64915 0.52625,-1.17539 1.17539,-1.17539c0.64915,0 1.17539,0.52624 1.17539,1.17539z"/><path d="M241.22305,254.98219c0,0.44332 -0.22276,1.33809 -1.17771,1.35116c-0.0006,-0.02866 -0.03361,-0.47601 -0.01488,-0.4827c1.02088,0.00445 -0.86553,0.09098 0.00283,0.00002c0.07203,0.03546 -0.00313,0.45944 0.02323,0.48923c-0.9312,-0.07247 -1.18425,-0.9552 -1.18425,-1.3577c0,-0.64915 0.52624,-1.17539 1.17539,-1.17539c0.64915,0 1.17539,0.52624 1.17539,1.17539z"/></g></g></g></g></svg>