<svg version="1.1" xmlns="http://www.w3.org/2000/svg" xmlns:xlink="http://www.w3.org/1999/xlink" width="143.5" height="191.5" viewBox="0,0,143.5,191.5"><defs><radialGradient cx="240.41813" cy="179" r="25.71491" gradientUnits="userSpaceOnUse" id="color-1"><stop offset="0" stop-color="#000000"/><stop offset="1" stop-color="#ffffff"/></radialGradient></defs><g transform="translate(-168.5,-83.25)"><g data-paper-data="{&quot;isPaintingLayer&quot;:true}" fill-rule="nonzero" stroke-linejoin="miter" stroke-miterlimit="10" stroke-dasharray="" stroke-dashoffset="0" style="mix-blend-mode: normal"><path d="M172.75,271.16667c0,0 -4,-5.34526 -4,-10.89999c0,-16.66422 0,-97.96444 0,-160.66667c0,-6.28323 4.33334,-11.76667 4.33334,-11.76667c0,0 5.11759,-4.33334 11.16666,-4.33334c44.09971,0 96.02357,0 113,0c5.65881,0 11.16666,5.33334 11.16666,5.33334c0,0 3.33334,4.28019 3.33334,10.43334c0,62.31197 0,141.44139 0,159.66666c0,6.07509 -2.66667,10.9 -2.66667,10.9c0,0 -6.17452,4.66666 -11.83333,4.66666c-16.97643,0 -69.10355,0 -113.33334,0c-5.91898,0 -11.16666,-3.33333 -11.16666,-3.33333z" fill="#ffffff" stroke="#000000" stroke-width="0.5" stroke-linecap="butt"/><text transform="translate(181.47182,115.70191) scale(0.5,0.5)" font-size="40" xml:space="preserve" fill="#000000" fill-rule="nonzero" stroke="none" stroke-width="1" stroke-linecap="butt" stroke-linejoin="miter" stroke-miterlimit="10" stroke-dasharray="" stroke-dashoffset="0" font-family="Serif" font-weight="normal" text-anchor="start" style="mix-blend-mode: normal"><tspan x="0" dy="0">Q</tspan></text><text transform="translate(298.23251,248.32155) rotate(-180) scale(0.5,0.5)" font-size="40" xml:space="preserve" data-paper-data="{&quot;origRot&quot;:-45}" fill="#000000" fill-rule="nonzero" stroke="none" stroke-width="1" stroke-linecap="butt" stroke-linejoin="miter" stroke-miterlimit="10" stroke-dasharray="" stroke-dashoffset="0" font-family="Serif" font-weight="normal" text-anchor="start" style="mix-blend-mode: normal"><tspan x="0" dy="0">Q</tspan></text><g fill="#000000" stroke="#000000" stroke-linecap="butt"><path d="M195.29959,128.05446c0,0 3.96298,4.43397 -0.21349,6.7756c-3.48333,2.32165 -6.42655,-2.92795 -6.42655,-2.92795c0,0 -3.08613,5.38656 -6.28693,2.92795c-3.97679,-2.72809 -0.42292,-6.91522 -0.42292,-6.91522l6.64004,-7.0589l-0.06981,0.06981z" data-paper-data="{&quot;origRot&quot;:0}" stroke-width="1.5"/><path d="M185.1632,137.94299l1.68521,-4.15409c0,0 1.02125,-8.64654 1.58939,-12.83275c0.02709,-0.19959 -0.01956,-0.10685 0.00645,0.09289c0.42605,3.27208 1.67842,12.616 1.67842,12.616l2.09131,4.20815z" stroke-width="0.5"/></g><g data-paper-data="{&quot;origRot&quot;:0}" fill="#000000" stroke="#000000" stroke-linecap="butt"><path d="M283.76408,234.27041c0,0 -3.96298,-4.43397 0.21349,-6.7756c3.48333,-2.32164 6.42655,2.92795 6.42655,2.92795c0,0 3.08614,-5.38656 6.28694,-2.92795c3.97679,2.72809 0.42292,6.91522 0.42292,6.91522l-6.64004,7.0589l0.06981,-0.06981z" data-paper-data="{&quot;origRot&quot;:0}" stroke-width="1.5"/><path d="M293.90047,224.38188l-1.68521,4.15409c0,0 -1.02125,8.64654 -1.58939,12.83275c-0.02709,0.19959 0.01955,0.10686 -0.00646,-0.09288c-0.42606,-3.27208 -1.67842,-12.616 -1.67842,-12.616l-2.0913,-4.20815z" stroke-width="0.5"/></g><path d="M204.5,179c0,-23.61017 16.00582,-42.75 35.75,-42.75c19.74419,0 35.75,19.13983 35.75,42.75c0,23.61018 -16.00581,42.75 -35.75,42.75c-19.74418,0 -35.75,-19.13983 -35.75,-42.75z" fill="#020084" stroke="none" stroke-width="0" stroke-linecap="butt"/><path d="M214.70322,179c0,-16.98275 11.51296,-30.75 25.71491,-30.75c14.20195,0 25.71491,13.76725 25.71491,30.75c0,16.98275 -11.51296,30.75 -25.71491,30.75c-14.20195,0 -25.71491,-13.76725 -25.71491,-30.75z" fill="url(#color-1)" stroke="none" stroke-width="0" stroke-linecap="butt"/><path d="M227.03801,179c0,-8.56042 5.80327,-15.5 12.96199,-15.5c7.15871,0 12.96199,6.93958 12.96199,15.5c0,8.56042 -5.80327,15.5 -12.96199,15.5c-7.15871,0 -12.96199,-6.93958 -12.96199,-15.5z" fill="#020084" stroke="none" stroke-width="0" stroke-linecap="butt"/><g><path d="M244.49759,222.92164l1.66071,24.85714h-23.5c0,0 -9.6595,-15.95708 -5,-16.5c6.91235,-0.80543 6.41276,-7.32129 5.62774,-10.81117c-0.29387,-1.30644 0.15104,-2.18883 1.37277,-2.18883c3.30792,0 6.1131,0.875 9.24949,0.875c3.23298,0 10.58929,3.76786 10.58929,3.76786z" fill="#ffb89a" stroke="#000000" stroke-width="0.5" stroke-linecap="butt"/><path d="M279.0833,206.77878c0,0 -6.85095,5.04285 -9.27289,10.33289c-1.44816,3.16309 1.89953,5.77208 0.3167,9.22933c-2.21997,4.84889 -7.30327,7.39926 -8.49502,10.00228c-1.94262,4.2431 -1.54879,11.9355 -1.54879,11.9355h-27c0,0 -0.51011,-7.43845 1.3755,-11.55701c1.40514,-3.06912 7.09456,-6.94336 9.78784,-12.82605c1.12073,-2.4479 -2.75788,-3.89728 -1.72807,-6.14659c2.5669,-5.60665 9.56474,-10.97036 9.56474,-10.97036z" fill="#573600" stroke="none" stroke-width="0" stroke-linecap="butt"/><path d="M269.5833,206.77878c0,0 -6.85095,5.04285 -9.27289,10.33289c-1.44816,3.16309 1.89953,5.77208 0.3167,9.22933c-2.21997,4.84889 -7.30327,7.39926 -8.49502,10.00228c-1.94262,4.2431 -1.54879,11.9355 -1.54879,11.9355h-7c0,0 -0.51011,-7.43845 1.3755,-11.55701c1.40514,-3.06912 7.09456,-6.94336 9.78784,-12.82605c1.12073,-2.4479 -2.75788,-3.89728 -1.72807,-6.14659c2.5669,-5.60665 9.56474,-10.97036 9.56474,-10.97036z" fill="#825000" stroke="none" stroke-width="0" stroke-linecap="butt"/><path d="M222.68331,238.67878c0,-0.82843 0.91782,-1.5 2.05,-1.5c1.13218,0 2.05,0.67157 2.05,1.5c0,0.82843 -0.91782,1.5 -2.05,1.5c-1.13218,0 -2.05,-0.67157 -2.05,-1.5z" fill="#000000" stroke="#000000" stroke-width="0.5" stroke-linecap="butt"/><path d="M229.95831,241.01878l-3.45,2.575l-3.775,0.1" fill="none" stroke="#000000" stroke-width="0.5" stroke-linecap="round"/><path d="M223.83331,226.81878c0,0 1.99736,-0.97312 2.95236,-0.96028c0.90009,0.01211 2.87264,1.66028 2.87264,1.66028" fill="none" stroke="#000000" stroke-width="0.5" stroke-linecap="round"/><path d="M221.28381,241.49622c0,0 0.30535,-0.875 1.17073,-1.375c0.58873,-0.34015 1.82927,0 1.82927,0" fill="none" stroke="#000000" stroke-width="0.5" stroke-linecap="round"/><path d="M260.06997,247.92758c0,0 -5.5426,6.22235 -9.43096,8.98187c-5.69524,4.04184 -13.01891,4.04184 -18.41283,0.44909c-6.85945,-4.5689 -15.71827,3.14365 -15.71827,3.14365l3.59275,-12.57461z" fill="#ffe54a" stroke="#000000" stroke-width="1" stroke-linecap="butt"/><path d="M224.74795,249.08395l-0.60315,1.45924c0,0 -0.36551,3.03733 -0.56885,4.50786c-0.00969,0.07011 0.007,0.03754 -0.00231,-0.03263c-0.15249,-1.14941 -0.60072,-4.43172 -0.60072,-4.43172l-0.7485,-1.47823z" fill="#000000" stroke="none" stroke-width="0" stroke-linecap="butt"/><path d="M221.12006,252.55757c0,0 -1.41838,-1.55756 0.07641,-2.38012c1.24671,-0.81555 2.30012,1.02852 2.30012,1.02852c0,0 1.10455,-1.89218 2.25014,-1.02852c1.42333,0.95831 0.15136,2.42916 0.15136,2.42916c0,0 -0.76417,0.79733 -1.15447,1.20456c-0.40156,0.41898 -1.22205,1.27507 -1.22205,1.27507l0.02499,-0.02452z" data-paper-data="{&quot;origRot&quot;:0}" fill="#000000" stroke="none" stroke-width="0" stroke-linecap="butt"/><path d="M238.42995,220.34637l5.33333,4.44047" fill="none" stroke="#000000" stroke-width="0.5" stroke-linecap="round"/></g><g><path d="M236.89326,135.68549l-1.66071,-24.85714h23.5c0,0 9.6595,15.95708 5,16.5c-6.91235,0.80543 -6.41276,7.32129 -5.62774,10.81117c0.29387,1.30644 -0.15104,2.18883 -1.37277,2.18883c-3.30792,0 -6.1131,-0.875 -9.24949,-0.875c-3.23298,0 -10.58929,-3.76786 -10.58929,-3.76786z" fill="#ffb89a" stroke="#000000" stroke-width="0.5" stroke-linecap="butt"/><path d="M202.30755,152.30154c0,0 6.85095,-5.04285 9.27289,-10.33289c1.44816,-3.16309 -1.89953,-5.77208 -0.3167,-9.22933c2.21997,-4.84889 7.30327,-7.39926 8.49502,-10.00228c1.94262,-4.2431 1.54879,-11.9355 1.54879,-11.9355h27c0,0 0.51011,7.43845 -1.3755,11.55701c-1.40514,3.06912 -7.09456,6.94336 -9.78784,12.82605c-1.12073,2.4479 2.75788,3.89728 1.72807,6.14659c-2.5669,5.60665 -9.56474,10.97036 -9.56474,10.97036z" fill="#573600" stroke="none" stroke-width="0" stroke-linecap="butt"/><path d="M211.80755,152.30154c0,0 6.85095,-5.04285 9.27289,-10.33289c1.44816,-3.16309 -1.89953,-5.77208 -0.3167,-9.22933c2.21997,-4.84889 7.30327,-7.39926 8.49502,-10.00228c1.94262,-4.2431 1.54879,-11.9355 1.54879,-11.9355h7c0,0 0.51011,7.43845 -1.3755,11.55701c-1.40514,3.06912 -7.09456,6.94336 -9.78784,12.82605c-1.12073,2.4479 2.75788,3.89728 1.72807,6.14659c-2.5669,5.60665 -9.56474,10.97036 -9.56474,10.97036z" fill="#825000" stroke="none" stroke-width="0" stroke-linecap="butt"/><path d="M258.70754,119.92836c0,0.82843 -0.91782,1.5 -2.05,1.5c-1.13218,0 -2.05,-0.67157 -2.05,-1.5c0,-0.82843 0.91782,-1.5 2.05,-1.5c1.13218,0 2.05,0.67157 2.05,1.5z" fill="#000000" stroke="#000000" stroke-width="0.5" stroke-linecap="butt"/><path d="M251.43254,118.06154l3.45,-2.575l3.775,-0.1" fill="none" stroke="#000000" stroke-width="0.5" stroke-linecap="round"/><path d="M257.55753,131.78836c0,0 -1.99736,0.97312 -2.95236,0.96028c-0.90009,-0.01211 -2.87264,-1.66028 -2.87264,-1.66028" fill="none" stroke="#000000" stroke-width="0.5" stroke-linecap="round"/><path d="M260.10704,117.5841c0,0 -0.30535,0.875 -1.17073,1.375c-0.58873,0.34015 -1.82927,0 -1.82927,0" fill="none" stroke="#000000" stroke-width="0.5" stroke-linecap="round"/><path d="M221.32087,111.15273c0,0 5.5426,-6.22235 9.43096,-8.98187c5.69524,-4.04184 13.01891,-4.04184 18.41283,-0.44909c6.85945,4.5689 15.71827,-3.14365 15.71827,-3.14365l-3.59275,12.57461z" fill="#ffe54a" stroke="#000000" stroke-width="1" stroke-linecap="butt"/><path d="M256.64289,109.99636l0.60315,-1.45924c0,0 0.36551,-3.03733 0.56885,-4.50786c0.00969,-0.07011 -0.007,-0.03754 0.00231,0.03263c0.15249,1.14941 0.60072,4.43172 0.60072,4.43172l0.7485,1.47823z" fill="#000000" stroke="none" stroke-width="0" stroke-linecap="butt"/><path d="M260.27078,106.52274c0,0 1.41838,1.55756 -0.07641,2.38012c-1.24671,0.81555 -2.30012,-1.02852 -2.30012,-1.02852c0,0 -1.10455,1.89218 -2.25014,1.02852c-1.42333,-0.95831 -0.15136,-2.42916 -0.15136,-2.42916c0,0 0.76417,-0.79733 1.15447,-1.20456c0.40156,-0.41898 1.22205,-1.27507 1.22205,-1.27507l-0.02499,0.02452z" data-paper-data="{&quot;origRot&quot;:0}" fill="#000000" stroke="none" stroke-width="0" stroke-linecap="butt"/><path d="M242.9609,138.26076l-5.33334,-4.44047" fill="none" stroke="#000000" stroke-width="0.5" stroke-linecap="round"/></g></g></g></svg>